<?xml version="1.0" standalone="no"?><!DOCTYPE svg PUBLIC "-//W3C//DTD SVG 1.1//EN" "http://www.w3.org/Graphics/SVG/1.1/DTD/svg11.dtd"><svg t="1565667845867" class="icon" viewBox="0 0 1024 1024" version="1.1" xmlns="http://www.w3.org/2000/svg" p-id="3385" xmlns:xlink="http://www.w3.org/1999/xlink" width="200" height="200"><defs><style type="text/css"></style></defs><path d="M4.55168 783.72864c0 130.20672 105.58464 235.79136 235.79136 235.79136s235.79136-105.58464 235.79136-235.79136v-235.79648H240.27136C110.06464 547.93728 4.55168 653.52192 4.55168 783.72864z m385.9712 0c0 82.88768-67.4304 150.25152-150.25152 150.25152-82.82112 0-150.25152-67.43552-150.25152-150.25152 0-82.82624 67.4304-150.25152 150.25152-150.25152h150.25152v150.25152zM1019.4432 240.27136c0-130.20672-105.57952-235.79136-235.79136-235.79136-130.20672 0-235.79136 105.58464-235.79136 235.79136v235.79136h235.79136c130.28352 0 235.79136-105.57952 235.79136-235.79136z m-386.03776 0c0-82.8928 67.42528-150.25152 150.25152-150.25152s150.25152 67.4304 150.25152 150.25152c0 82.8928-67.42528 150.25152-150.25152 150.25152h-150.25152V240.27136zM240.27136 476.06272h235.79136V240.27136C476.06272 110.06464 370.47808 4.48 240.27136 4.48 110.06464 4.48 4.48 110.06464 4.48 240.27136 4.55168 370.4832 110.06464 476.06272 240.27136 476.06272z m0-386.04288c82.8928 0 150.25152 67.4304 150.25152 150.25152v150.25152H240.27136c-82.88768 0-150.25152-67.4304-150.25152-150.25152s67.4304-150.25152 150.25152-150.25152z m543.45728 457.91744h-235.79648v235.79648c0 130.20672 105.58464 235.79136 235.79648 235.79136 130.20672 0 235.79136-105.58464 235.79136-235.79136 0-130.21184-105.58464-235.79648-235.79136-235.79648z m0 386.04288c-82.89792 0-150.25152-67.43552-150.25152-150.25152v-150.25152h150.25152c82.88768 0 150.25152 67.42528 150.25152 150.25152 0 82.816-67.43552 150.25152-150.25152 150.25152z" p-id="3386"></path></svg>