<?xml version="1.0" standalone="no"?><!DOCTYPE svg PUBLIC "-//W3C//DTD SVG 1.1//EN" "http://www.w3.org/Graphics/SVG/1.1/DTD/svg11.dtd"><svg t="1565090618646" class="icon" viewBox="0 0 1099 1024" version="1.1" xmlns="http://www.w3.org/2000/svg" p-id="2347" xmlns:xlink="http://www.w3.org/1999/xlink" width="214.6484375" height="200"><defs><style type="text/css"></style></defs><path d="M549.728179 1024c-8.141499 0-11.799274-3.126808-18.760846-10.147376l-132.564844-148.198882H127.491156A127.609149 127.609149 0 0 1 0 738.162586V127.491156A127.609149 127.609149 0 0 1 127.491156 0h844.415049a127.609149 127.609149 0 0 1 127.491156 127.491156v610.67143a127.609149 127.609149 0 0 1-127.491156 127.491156h-270.911333l-132.564844 148.198882c-7.079564 6.784583-10.619347 10.147376-18.701849 10.147376z m0-73.391485L666.658985 816.804747c7.020568-7.020568 10.56035-10.088379 18.642853-10.088379h286.486374a66.665898 66.665898 0 0 0 66.842888-53.096733h9.203434V127.491156A67.019877 67.019877 0 0 0 979.339748 58.99637H127.491156A67.019877 67.019877 0 0 0 58.99637 127.491156v610.67143a67.019877 67.019877 0 0 0 68.494786 68.553782h286.486375a47.728064 47.728064 0 0 1 18.701849 10.147376z m233.684623-461.882583a44.601256 44.601256 0 0 1 0-89.143516c29.144207 0 44.601256 15.398053 44.601256 44.54226a43.71631 43.71631 0 0 1-44.601256 44.601256z m-233.684623 0a44.601256 44.601256 0 1 1 44.542259-44.601256 43.657314 43.657314 0 0 1-44.542259 44.601256z m-233.743619 0a44.601256 44.601256 0 0 1 0-89.143516c22.064643 0 38.229648 16.754969 44.542259 46.076166a43.598318 43.598318 0 0 1-44.542259 43.06735z" p-id="2348"></path></svg>