<?xml version="1.0" standalone="no"?><!DOCTYPE svg PUBLIC "-//W3C//DTD SVG 1.1//EN" "http://www.w3.org/Graphics/SVG/1.1/DTD/svg11.dtd"><svg t="1561616891518" class="icon" viewBox="0 0 1024 1024" version="1.1" xmlns="http://www.w3.org/2000/svg" p-id="5220" xmlns:xlink="http://www.w3.org/1999/xlink" width="128" height="128"><defs><style type="text/css"></style></defs><path d="M944.632 260.143l-78.787 514.583c0 32.084-26.01 58.094-58.094 58.094H174v13.203c0 32.084 26.01 58.094 58.094 58.094h665.438c32.084 0 58.094-26.009 58.094-58.094V294.131a57.797 57.797 0 0 0-10.994-33.988z" p-id="5221"></path><path d="M785.179 806.168H131.331c-37.068 0-67.223-29.278-67.223-65.267v-0.799l0.126-0.788 82.909-522.923c0.462-35.604 30.439-64.432 67.218-64.432h62.206v115.767c0 11.879 9.664 21.545 21.545 21.545H329.8c11.879 0 21.545-9.666 21.545-21.545V151.958h79.699v115.767c0 11.88 9.664 21.545 21.545 21.545h31.688c11.881 0 21.546-9.666 21.546-21.545V151.958h79.697v115.767c0 11.88 9.666 21.545 21.546 21.545h31.687c11.881 0 21.546-9.666 21.546-21.545V151.958h78.377v115.767c0 11.88 9.666 21.545 21.546 21.545h31.686c11.881 0 21.546-9.666 21.546-21.545V151.958h54.754c37.067 0 67.223 29.278 67.223 65.266v0.799l-0.125 0.789-82.908 522.922c-0.462 35.606-30.439 64.434-67.219 64.434zM84.398 741.659c0.423 24.455 21.314 44.225 46.934 44.225H785.18c25.882 0 46.939-20.18 46.939-44.984v-0.799l0.125-0.789 82.896-522.846c-0.422-24.455-21.313-44.224-46.932-44.224h-34.47v95.483c0 23.064-18.765 41.829-41.83 41.829h-31.686c-23.065 0-41.83-18.765-41.83-41.829v-95.483h-37.809v95.483c0 23.064-18.765 41.829-41.83 41.829h-31.687c-23.065 0-41.83-18.765-41.83-41.829v-95.483h-39.13v95.483c0 23.064-18.765 41.829-41.83 41.829h-31.688c-23.065 0-41.829-18.765-41.829-41.829v-95.483h-39.132v95.483c0 23.064-18.764 41.829-41.829 41.829H298.11c-23.064 0-41.829-18.765-41.829-41.829v-95.483H214.36c-25.882 0-46.939 20.177-46.939 44.982v0.799l-0.125 0.789-82.898 522.847z" p-id="5222"></path><path d="M297.003 115.89h34.495v133.351h-34.495V115.89zM452.674 115.89h34.493v133.351h-34.493V115.89zM606.714 115.89h34.493v133.351h-34.493V115.89zM761.899 115.89h34.493v133.351h-34.493V115.89zM373.37 408.368l-129.341 1.038-11.301 74.342 113.027-0.908-4.414 29.04-113.028 0.908-15.892 104.545-37.287 0.299 36.199-238.128 166.628-1.337-4.591 30.201zM535.365 613.58l-34.956 0.28 4.414-29.04c-15.729 21.772-36.463 33.158-62.217 34.146-42.731 0.342-60.675-21.938-53.846-66.859l16.422-108.029 34.957-0.281-15.892 104.545c-4.591 30.201 6.695 45.194 33.895 44.976 28.319-2.548 45.997-19.313 53.037-50.314l15.187-99.897 34.957-0.281-25.958 170.754zM735.61 613.134l-34.957 0.28 15.54-102.221c4.708-30.964-6.218-45.958-32.732-44.983-27.438 1.779-45.38 17.767-53.848 48l-15.187 99.897-34.958 0.28 26.136-171.917 34.958-0.281-4.591 30.202c17.276-21.783 38.851-33.557 64.723-35.325 42.064-1.099 59.106 21.968 51.161 69.199L735.61 613.134zM406.376 358.827h73.058v21.125h-73.058v-21.125zM265.542 626.341H338.6v21.124h-73.058v-21.124zM552.931 358.827h73.058v21.125h-73.058v-21.125zM706.088 358.827h73.058v21.125h-73.058v-21.125z" p-id="5223"></path></svg>