<?xml version="1.0" standalone="no"?><!DOCTYPE svg PUBLIC "-//W3C//DTD SVG 1.1//EN" "http://www.w3.org/Graphics/SVG/1.1/DTD/svg11.dtd"><svg t="1537425953844" class="icon" style="" viewBox="0 0 1024 1024" version="1.1" xmlns="http://www.w3.org/2000/svg" p-id="5022" xmlns:xlink="http://www.w3.org/1999/xlink" width="200" height="200"><defs><style type="text/css"></style></defs><path d="M932.736 934.4c-18.816-145.28-195.84-268.8-420.736-268.8s-401.92 123.52-420.736 268.8h841.472zM0 960c0-212.096 229.248-384 512-384s512 171.904 512 384a64 64 0 0 1-64 64H64a64 64 0 0 1-64-64z" p-id="5023"></path><path d="M512 550.4a230.4 230.4 0 1 0 0-460.8 230.4 230.4 0 0 0 0 460.8zM192 320a320 320 0 1 1 640 0A320 320 0 0 1 192 320z" p-id="5024"></path><path d="M512 625.792l85.312 128-82.24 156.416-88.384-156.416z" p-id="5025"></path></svg>