<?xml version="1.0" standalone="no"?><!DOCTYPE svg PUBLIC "-//W3C//DTD SVG 1.1//EN" "http://www.w3.org/Graphics/SVG/1.1/DTD/svg11.dtd"><svg t="1568191174987" class="icon" viewBox="0 0 1024 1024" version="1.1" xmlns="http://www.w3.org/2000/svg" p-id="3347" xmlns:xlink="http://www.w3.org/1999/xlink" width="200" height="200"><defs><style type="text/css"></style></defs><path d="M754.716 1023.954h-0.002c-16.81 0-40.154-2.585-55.901-14.903-6.723-5.256-12.92-12.443-18.93-22.038-15.713 1.817-30.763 2.709-45.563 2.709H472.847c-7.1 0-14.298-0.193-21.537-0.578-5.576 8.479-11.389 15.054-17.559 19.89-15.777 12.337-39.118 14.921-55.926 14.921-11.065 0-38.827-1.287-57.587-13.219-17.243-10.979-32.525-33.894-48.987-73.698-32.468-18.367-61.808-40.961-87.34-67.271-19.245-19.832-35.985-41.424-50.024-64.495-12.262 6.343-25.752 9.728-39.658 9.728-25.979 0-50.15-11.337-68.06-31.924C9.293 763.679 0 738.151 0 711.193v-147.64c0-26.965 9.293-52.498 26.167-71.894 17.909-20.585 42.08-31.921 68.061-31.921 10.1 0 20.035 1.81 29.478 5.289 12.985-24.557 28.907-47.665 47.565-69.001 22.75-26.015 49.088-48.849 78.453-68.037 2.218-17.216 8.721-38.417 19.637-64.14 10.558-24.879 21.49-45.066 21.95-45.914a30 30 0 0 1 45.867-8.475c1.481 1.268 32.71 28.058 62.719 59.394 24.606-4.448 49.072-6.696 72.95-6.696H634.32c52.323 0 103.113 9.522 150.96 28.302 46.337 18.186 87.979 44.249 123.771 77.463 35.952 33.363 64.203 72.271 83.972 115.643 20.547 45.083 30.965 92.982 30.965 142.368 0 58.785-15.435 117.188-44.636 168.896-26.464 46.861-64.236 88.383-109.619 120.604-25.28 68.587-44.779 87.258-57.429 95.302-18.757 11.929-46.519 13.218-57.588 13.218z m-19.329-62.549c2.088 0.845 8.506 2.545 19.327 2.545 13.484 0 22.907-2.593 25.393-3.859 1.249-1.018 14.971-13.255 36.375-73.866a30 30 0 0 1 11.558-14.912c85.125-57.191 135.945-148.922 135.945-245.379 0-167.501-147.887-303.772-329.664-303.772H472.847c-25.017 0-50.916 2.925-76.979 8.696a30.008 30.008 0 0 1-28.717-9.146c-13.082-14.438-27.626-28.748-39.973-40.385a458.468 458.468 0 0 0-2.764 6.395c-16.517 39.038-15.654 52.688-15.501 54.116a30.003 30.003 0 0 1-14.486 28.972c-59.201 35.238-105.399 88.113-130.084 148.886a30.003 30.003 0 0 1-49.145 9.788c-4.387-4.443-11.587-9.74-20.969-9.74-18.872 0-34.225 19.654-34.225 43.812v147.64c0 23.743 15.673 43.802 34.225 43.802 12.366 0 20.708-8.794 24.579-14.035a30.003 30.003 0 0 1 51.3 5.097c28.001 59.771 77.371 110.667 139.015 143.313a30.005 30.005 0 0 1 13.898 15.583c17.538 44.827 28.15 54.146 29.41 55.135 2.48 1.267 11.906 3.862 25.395 3.862 10.848 0 17.27-1.708 19.342-2.551 1.196-1.217 4.988-5.584 10.435-16.764a30.007 30.007 0 0 1 29.96-16.71c11.874 1.19 23.745 1.792 35.285 1.792H634.32c18.121 0 36.87-1.605 57.319-4.908 13.235-2.135 26.295 4.771 31.969 16.928 6.235 13.353 10.489 18.337 11.779 19.665z" p-id="3348"></path><path d="M687.328 670.229c12.009 1.102 18.566 7.121 19.666 18.03-1.1 10.934-7.657 16.953-19.666 18.028h-60.644v27.864h60.644c12.009 1.1 18.566 7.119 19.666 18.027-1.1 10.935-7.657 16.954-19.666 18.03h-60.644v50.808c-1.102 18.593-11.475 27.863-31.142 27.863s-30.065-9.271-31.14-27.863V770.21h-60.643c-12.037-1.076-18.594-7.096-19.668-18.03 1.074-10.908 7.631-16.928 19.668-18.027h60.643v-27.864h-60.643c-12.037-1.075-18.594-7.095-19.668-18.028 1.074-10.909 7.631-16.929 19.668-18.03h34.418l-52.448-73.753c-4.379-5.456-6.555-11.474-6.555-18.03 2.176-18.567 12.548-28.938 31.141-31.141 10.909 1.103 19.104 5.48 24.586 13.112l60.641 86.866 60.644-86.866c5.453-7.632 13.648-12.01 24.584-13.112 18.566 2.203 28.938 12.573 31.143 31.141 0 6.557-2.204 12.574-6.558 18.03l-52.447 73.753h34.42zM773.752 429.03c-6.587 8.895-16.98 13.298-27.279 12.611a30.9 30.9 0 0 1-16.427-6.048c-41.006-30.282-139.841-40.437-211.708-21.652-16.722 4.369-33.773-5.631-38.139-22.324-4.363-16.71 5.621-33.793 22.343-38.156 80.399-21.047 201.416-14.901 264.64 31.85 13.88 10.261 16.802 29.836 6.57 43.719zM364.885 433.608c-12.211-11.174-28.403-17.328-45.594-17.328-17.193 0-33.387 6.154-45.599 17.328-9.581 8.766-21.001 24.663-21.001 50.611 0 13.096 10.655 23.75 23.751 23.75 13.096 0 23.75-10.654 23.75-23.75 0-15.069 9.866-20.438 19.099-20.438 9.231 0 19.094 5.369 19.094 20.438 0 13.096 10.653 23.75 23.749 23.75 13.096 0 23.751-10.654 23.751-23.75 0-25.947-11.42-41.844-21-50.611z" p-id="3349"></path><path d="M469.058 115.75l135.567 112.146c3.105 2.294 7.387 3.604 11.761 3.604 4.393 0 8.689-1.311 11.759-3.604L763.73 115.75c4.754-3.521 6.174-8.823 3.599-13.425-2.576-4.607-8.653-7.609-15.378-7.609h-72.355V55.814v5.221-48.538C679.596 5.595 672.042 0 662.725 0h-92.662c-9.313 0-16.861 5.59-16.87 12.486v48.548-5.221 38.902h-72.375c-6.743 0-12.802 3.002-15.376 7.609a9.585 9.585 0 0 0-1.25 4.707c-0.001 3.214 1.665 6.363 4.866 8.719z" p-id="3350"></path></svg>