<?xml version="1.0" standalone="no"?><!DOCTYPE svg PUBLIC "-//W3C//DTD SVG 1.1//EN" "http://www.w3.org/Graphics/SVG/1.1/DTD/svg11.dtd"><svg t="1579323267968" class="icon" viewBox="0 0 1210 1024" version="1.1" xmlns="http://www.w3.org/2000/svg" p-id="4829" xmlns:xlink="http://www.w3.org/1999/xlink" width="236.328125" height="200"><defs><style type="text/css"></style></defs><path d="M93.09 93.09v837.82h1024V279.272H623.71a186.182 186.182 0 0 1-161.234-93.091l-26.81-46.546a93.09 93.09 0 0 0-80.617-46.545H93.09z m0-93.09H355.05a186.182 186.182 0 0 1 161.233 93.09l26.81 46.546a93.09 93.09 0 0 0 80.617 46.546h493.382a93.09 93.09 0 0 1 93.09 93.09V930.91a93.09 93.09 0 0 1-93.09 93.091h-1024A93.09 93.09 0 0 1 0 930.91V93.09A93.09 93.09 0 0 1 93.09 0zM0 465.455v-93.091h1210.182v93.09H0z" p-id="4830"></path></svg>