<?xml version="1.0" standalone="no"?><!DOCTYPE svg PUBLIC "-//W3C//DTD SVG 1.1//EN" "http://www.w3.org/Graphics/SVG/1.1/DTD/svg11.dtd"><svg t="1585212579664" class="icon" viewBox="0 0 1024 1024" version="1.1" xmlns="http://www.w3.org/2000/svg" p-id="2255" xmlns:xlink="http://www.w3.org/1999/xlink" width="200" height="200"><defs><style type="text/css"></style></defs><path d="M890.150796 1023.402816H133.603932C69.27868 1023.402816 21.333333 970.552029 21.333333 905.331001V118.071815C21.333333 52.893443 73.458969 0 137.741565 0H886.013163C950.295759 0 1002.421395 52.893443 1002.421395 118.071815v787.259186c0 65.221028-47.988003 118.071815-112.270599 118.071815z m65.903524-905.331001c0-39.414146-31.437474-71.49146-70.041157-71.49146H137.741565c-38.603682 0-70.041156 32.077314-70.041157 71.49146v787.259186c0 40.779139 28.323586 71.534116 65.903524 71.534116h756.546864c37.579938 0 65.903524-30.754978 65.903524-71.534116V118.071815z m-120.247272 740.892111h-209.014413a23.247521 23.247521 0 0 1 0-46.537699h209.014413a23.204865 23.204865 0 0 1 0 46.537699z m0-128.010664h-209.014413a23.247521 23.247521 0 0 1 0-46.537699h209.014413a23.204865 23.204865 0 1 1 0 46.537699z m0-128.010664h-209.014413a23.247521 23.247521 0 0 1 0-46.537699h209.014413a23.204865 23.204865 0 1 1 0 46.537699z m-69.529284-147.717738H259.993668a93.203366 93.203366 0 0 1-92.73415-93.118053v-112.611847c0-51.229859 41.717571-93.118054 92.73415-93.118054h506.284096c51.016579 0 92.73415 41.888195 92.73415 93.118054v112.611847c0 51.187203-41.717571 93.118054-92.73415 93.118053z m46.367075-205.7299c0-25.678914-20.816129-46.580355-46.367075-46.580355H259.993668c-25.593602 0-46.367075 20.901441-46.367075 46.580355v112.611847a46.495043 46.495043 0 0 0 46.367075 46.537699h506.284096a46.495043 46.495043 0 0 0 46.367075-46.537699v-112.611847zM223.522786 556.404899h212.000333c31.096226 0 56.263268 25.29501 56.263268 56.476547v189.605932c0 31.181538-25.167042 56.476548-56.263268 56.476548H223.522786a56.34858 56.34858 0 0 1-56.263268-56.476548v-189.605932c0-31.181538 25.167042-56.476548 56.263268-56.476547z m-9.896193 246.082479c0 5.459968 4.436224 9.938849 9.896193 9.938849h212.000333a9.981505 9.981505 0 0 0 9.938849-9.938849v-189.605932a9.981505 9.981505 0 0 0-9.938849-9.938848H223.522786a9.938849 9.938849 0 0 0-9.896193 9.938848v189.605932z" p-id="2256"></path></svg>