<?xml version="1.0" standalone="no"?><!DOCTYPE svg PUBLIC "-//W3C//DTD SVG 1.1//EN" "http://www.w3.org/Graphics/SVG/1.1/DTD/svg11.dtd"><svg t="1585214957249" class="icon" viewBox="0 0 1024 1024" version="1.1" xmlns="http://www.w3.org/2000/svg" p-id="4892" xmlns:xlink="http://www.w3.org/1999/xlink" width="200" height="200"><defs><style type="text/css"></style></defs><path d="M702.08 994.133333h-388.266667A100.693333 100.693333 0 0 1 213.333333 893.653333V124.373333a100.693333 100.693333 0 0 1 100.48-100.48h388.266667a100.693333 100.693333 0 0 1 100.48 100.48v769.28a100.693333 100.693333 0 0 1-100.48 100.48zM313.813333 45.226667A79.36 79.36 0 0 0 234.666667 124.373333v769.28a79.36 79.36 0 0 0 79.146666 79.146667h388.266667a79.36 79.36 0 0 0 79.146667-79.146667V124.373333a79.36 79.36 0 0 0-79.146667-79.146666z" fill="#020202" p-id="4893"></path><path d="M223.786667 175.573333h568.106666v21.333334H223.786667zM223.786667 778.453333h568.106666v21.333334H223.786667zM507.946667 952.96a53.333333 53.333333 0 1 1 53.333333-53.333333 53.333333 53.333333 0 0 1-53.333333 53.333333z m0-85.333333a32 32 0 1 0 32 32 32 32 0 0 0-32-32zM296.32 546.346667l58.666667-152.746667h21.333333l62.506667 152.746667h-22.613334l-17.706666-46.293334h-64l-16.853334 46.293334zM341.333333 483.84h51.84l-16-42.666667q-7.253333-19.2-10.88-31.573333a196.053333 196.053333 0 0 1-8.32 29.226667zM455.253333 546.346667v-152.533334H512a138.453333 138.453333 0 0 1 23.253333 1.493334 46.08 46.08 0 0 1 18.773334 7.04 37.546667 37.546667 0 0 1 12.16 14.72 49.706667 49.706667 0 0 1-7.68 53.76 59.52 59.52 0 0 1-44.8 13.44h-38.186667v62.08z m20.266667-80h39.466667a42.666667 42.666667 0 0 0 27.733333-7.253334 26.026667 26.026667 0 0 0 8.32-21.333333 27.733333 27.733333 0 0 0-4.906667-16.426667 22.613333 22.613333 0 0 0-12.8-8.96 86.826667 86.826667 0 0 0-18.773333-1.28h-39.04zM597.333333 546.346667v-152.533334h57.6a138.453333 138.453333 0 0 1 23.253334 1.493334 46.08 46.08 0 0 1 18.773333 7.04 37.546667 37.546667 0 0 1 12.16 14.72 49.706667 49.706667 0 0 1-7.68 53.76 59.52 59.52 0 0 1-44.8 13.44H618.666667v62.08z m21.333334-80h39.466666a42.666667 42.666667 0 0 0 27.733334-7.253334 26.026667 26.026667 0 0 0 8.32-21.333333 27.733333 27.733333 0 0 0-4.906667-16.426667 22.613333 22.613333 0 0 0-12.8-8.96 86.826667 86.826667 0 0 0-18.773333-1.28H618.666667zM465.28 99.413333h155.946667v21.333334h-155.946667z" fill="#020202" p-id="4894"></path><path d="M420.906667 110.08m-14.08 0a14.08 14.08 0 1 0 28.16 0 14.08 14.08 0 1 0-28.16 0Z" fill="#020202" p-id="4895"></path></svg>