<?xml version="1.0" standalone="no"?><!DOCTYPE svg PUBLIC "-//W3C//DTD SVG 1.1//EN" "http://www.w3.org/Graphics/SVG/1.1/DTD/svg11.dtd"><svg t="1586742550188" class="icon" viewBox="0 0 1024 1024" version="1.1" xmlns="http://www.w3.org/2000/svg" p-id="1846" xmlns:xlink="http://www.w3.org/1999/xlink" width="200" height="200"><defs><style type="text/css"></style></defs><path d="M511.295965 957.823811c-245.844198 0-445.854511-201.915709-445.854511-450.096115 0-243.473197 200.010313-441.552531 445.854511-441.552531 183.128831 0 334.443072 99.988272 404.727835 267.476891 3.431146 8.182356 2.552126 14.286378-2.362814 21.674649-4.91494 7.380084-13.19144 8.578376-22.054295 8.578376L714.152093 363.90508c-8.656147 0-16.760732-0.982374-21.709441-8.069793-40.936341-58.559721-101.876272-86.632079-181.145663-86.632079-136.15703 0-242.809071 104.385419-242.809071 236.609882 0 135.648446 108.928898 246.404969 242.809071 246.404969 55.128575 0 114.015753-24.38334 165.832909-62.578244 4.552689-3.353374 10.05296-8.509814 15.708773-8.509814l187.921997 0c9.449209 0 18.174941 8.574283 22.916942 16.748453 4.742001 8.173147 4.759397 20.026102 0.068562 28.225855C823.753303 865.787652 669.697625 957.823811 511.295965 957.823811zM511.295965 115.27442c-216.632899 0-392.882042 176.25426-392.882042 390.516158 0 218.978317 176.24812 394.663618 392.882042 394.663618 124.154671 0 245.361197-59.688427 320.457546-166.112272L701.391465 734.341924c-43.367717 34.792411-109.618607 67.825758-190.095499 67.825758-163.091472 0-295.782563-132.407636-295.782563-297.258171 0-161.927973 129.914862-291.788599 295.782563-291.788599 91.081415 0 165.522848 44.360324 216.219483 96.54894l122.120338 0C782.264377 186.873108 658.489352 115.27442 511.295965 115.27442z" p-id="1847"></path><path d="M528.050558 724.311477c-5.980201 0-11.891841-2.041496-16.675798-5.988388L344.706833 581.057819c-15.803941-13.002129-24.876574-32.206516-24.876574-52.674687 0-20.47738 9.055237-39.689954 24.876574-52.700269l166.66895-137.264247c7.842619-6.467295 18.72548-7.79964 27.883047-3.477194 9.174963 4.331655 15.035438 13.574157 15.035438 23.731494l0 42.36283 324.759525 0c42.816155 0 77.636195 34.828226 77.636195 77.636195l0 89.664136c0 42.807968-34.82004 77.636195-77.636195 77.636195L554.294268 645.972271l0 52.093449c0 10.157337-5.860475 19.400862-15.035438 23.731494C535.688515 723.482599 531.86135 724.311477 528.050558 724.311477zM501.80787 414.287561l-123.749442 101.905948c-5.006014 4.125971-5.740748 9.405207-5.740748 12.181437 0 2.77623 0.734734 8.04728 5.740748 12.165064l123.749442 101.914134 0-22.723537c0-14.497179 11.754718-26.243711 26.243711-26.243711l351.003236 0c13.872962 0 25.149796-11.285021 25.149796-25.149796l0-89.664136c0-13.864776-11.276834-25.149796-25.149796-25.149796L528.050558 453.523167c-14.488992 0-26.243711-11.746532-26.243711-26.243711L501.806847 414.287561z" p-id="1848"></path></svg>