<?xml version="1.0" standalone="no"?><!DOCTYPE svg PUBLIC "-//W3C//DTD SVG 1.1//EN" "http://www.w3.org/Graphics/SVG/1.1/DTD/svg11.dtd"><svg t="1587091781534" class="icon" viewBox="0 0 1093 1024" version="1.1" xmlns="http://www.w3.org/2000/svg" p-id="2138" xmlns:xlink="http://www.w3.org/1999/xlink" width="213.4765625" height="200"><defs><style type="text/css"></style></defs><path d="M673.62632 558.495a160.519 160.519 0 0 1-26.568-2.767h-6.642a104.614 104.614 0 0 1-19.927-6.09h-5.535a198.158 198.158 0 0 1-21.587-11.623l-6.642-4.981-11.624-9.41-9.963-9.963-3.321-3.875a194.837 194.837 0 0 1-16.052-23.248 189.855 189.855 0 0 1-16.052 22.694l-3.875 4.429-9.963 9.963-9.963 8.302-7.75 2.768a110.703 110.703 0 0 1-21.033 11.07h-5.535a136.718 136.718 0 0 1-19.926 6.089l-8.857 1.66a139.485 139.485 0 0 1-52.583 0h-7.196a104.614 104.614 0 0 1-19.927-6.088h-4.981a133.95 133.95 0 0 1-21.587-11.624l-4.428-6.089a83.027 83.027 0 0 1-11.624-9.41l-9.963-9.963-3.321-3.874a151.11 151.11 0 0 1-16.606-23.248 145.574 145.574 0 0 1-127.861 75.278h-8.303A154.43 154.43 0 0 1 0.00032 404.065v-4.428a123.987 123.987 0 0 1 3.32-28.783l42.621-169.929a119.559 119.559 0 0 1 106.275-93.543h788.757a120.112 120.112 0 0 1 106.828 93.543l42.067 169.93a98.525 98.525 0 0 1 0 55.35 153.323 153.323 0 0 1-151.663 133.95h-8.303a147.235 147.235 0 0 1-128.415-75.277 166.054 166.054 0 0 1-15.498 22.694L782.11532 512l-10.517 9.963-9.41 8.303-8.856 6.089a95.204 95.204 0 0 1-21.033 11.07h-4.982a136.718 136.718 0 0 1-19.926 6.089h-7.75a148.895 148.895 0 0 1-26.015 4.981z m259.598-67.529h7.75a85.795 85.795 0 0 0 81.92-77.491v-7.196a40.406 40.406 0 0 0 0-19.927l-42.621-169.928a55.351 55.351 0 0 0-39.3-41.514H152.21832a55.351 55.351 0 0 0-41.514 42.067L68.63632 387.46a32.104 32.104 0 0 0 0 12.731v7.196a86.902 86.902 0 0 0 85.795 83.58h11.624a78.599 78.599 0 0 0 67.528-48.155 63.1 63.1 0 0 1 55.352-34.872 61.44 61.44 0 0 1 55.351 33.211 122.88 122.88 0 0 0 12.177 18.82l-24.354 27.122 25.461-21.587 4.982 4.981 6.089 4.982 3.874 2.768a58.672 58.672 0 0 0 14.945 6.088 59.78 59.78 0 0 0 13.284 4.428h4.428a100.186 100.186 0 0 0 28.783 0h3.321a33.21 33.21 0 0 0 10.517-3.32h3.875l11.07-6.09 4.428-3.32 5.535-4.428 5.535-5.536a110.703 110.703 0 0 0 11.624-23.247 62.547 62.547 0 0 1 55.351-34.872 61.44 61.44 0 0 1 55.352 33.211 88.009 88.009 0 0 0 12.177 19.373 48.71 48.71 0 0 0 7.75 7.75 21.587 21.587 0 0 0 5.534 4.428l4.428 3.32a43.174 43.174 0 0 0 11.07 6.09 61.994 61.994 0 0 0 13.839 4.427h3.32a86.902 86.902 0 0 0 29.337 0h3.874a33.21 33.21 0 0 0 10.517-3.32h3.875l13.284-4.982v-3.321l4.982-4.429 6.088-5.535a110.703 110.703 0 0 0 15.499-22.14 61.44 61.44 0 0 1 55.351-34.872 61.994 61.994 0 0 1 55.351 34.872 79.706 79.706 0 0 0 72.51 45.941z m46.495-459.97a30.997 30.997 0 0 1-30.996 30.998H142.80732a30.997 30.997 0 1 1 0-61.994h805.916a30.997 30.997 0 0 1 30.996 30.997M885.62232 1024H204.80132A125.094 125.094 0 0 1 79.70632 898.906V632.112a33.764 33.764 0 1 1 66.976 0v266.794a55.351 55.351 0 0 0 58.119 58.119h680.821a55.351 55.351 0 0 0 55.352-58.12V632.113a33.764 33.764 0 1 1 66.975 0v266.794A125.094 125.094 0 0 1 885.62232 1024" p-id="2139"></path></svg>