<?xml version="1.0" standalone="no"?><!DOCTYPE svg PUBLIC "-//W3C//DTD SVG 1.1//EN" "http://www.w3.org/Graphics/SVG/1.1/DTD/svg11.dtd"><svg t="1595231494172" class="icon" viewBox="0 0 1024 1024" version="1.1" xmlns="http://www.w3.org/2000/svg" p-id="671" xmlns:xlink="http://www.w3.org/1999/xlink" width="200" height="200"><defs><style type="text/css"></style></defs><path d="M153.366651 620.761433a23.325648 23.325648 0 0 1-23.325648-21.475178 364.980647 364.980647 0 1 1 680.144723-186.702575 21.913448 21.913448 0 0 1 0 23.325647 23.374344 23.374344 0 0 1-20.549945 11.687173h-161.526458a23.374344 23.374344 0 0 1 0-46.699992h118.137832A318.378048 318.378048 0 0 0 176.692299 599.286255a23.276951 23.276951 0 0 1-23.325648 21.475178z m341.703696 341.703696a361.377102 361.377102 0 0 1-310.44051-173.164934 23.86131 23.86131 0 0 1 20.549944-35.499785h143.313948a23.374344 23.374344 0 0 1 0 46.699992H249.542339a318.816317 318.816317 0 0 0 563.906055-201.214147 23.374344 23.374344 0 0 1 46.699992 0 365.029343 365.029343 0 0 1-365.078039 363.178874z" p-id="672"></path></svg>