<?xml version="1.0" standalone="no"?><!DOCTYPE svg PUBLIC "-//W3C//DTD SVG 1.1//EN" "http://www.w3.org/Graphics/SVG/1.1/DTD/svg11.dtd"><svg t="1577428251186" class="icon" viewBox="0 0 1024 1024" version="1.1" xmlns="http://www.w3.org/2000/svg" p-id="2574" xmlns:xlink="http://www.w3.org/1999/xlink" width="200" height="200"><defs><style type="text/css"></style></defs><path d="M832.2 698.3c31.6-55.5 48.2-118.3 48.1-182.1 0-203.4-164.9-368.3-368.3-368.3S143.7 312.8 143.7 516.2c0 176.5 125.2 328.2 298.4 361.7 0 0 16.9 6.6 13.9 25.6-3 19-22.7 20.3-22.7 20.3C241.8 887 97 718.5 97 516.2c0-229.2 185.8-415 415-415s415 185.8 415 415c0.1 72.3-18.7 143.4-54.7 206.1l50.7 30.5-129 43.5L771.9 662l60.3 36.3zM304.5 380.4v-98.7l158.3-0.2c6.1-8.6 12.8-14.9 20.1-19 7.4-4.1 16.5-5.9 27.4-5.7 10.9 0.3 20.1 2.1 27.5 5.3 7.3 3.2 12.6 6.8 15.7 10.7l7 8.7 159 0.2v68.7l-77.3 23.7v-43.9H382.1v19.4c0 0.1-77.6 30.8-77.6 30.8z m335.5 60h-91v58.9h82.3L610 550.4h-61V616l91 0.3V440.4z m-165.3 110h-90.5V616h90.5v-65.6z m0-110h-90.5v58.9h90.5v-58.9z m-164.6-53.2h164.6v-34.7H549v34.7h165.3v226.1L640 665l-91 0.5v68.2l-74.3 27v-95.1H310.1V387.2z" p-id="2575"></path></svg>