<?xml version="1.0" standalone="no"?><!DOCTYPE svg PUBLIC "-//W3C//DTD SVG 1.1//EN" "http://www.w3.org/Graphics/SVG/1.1/DTD/svg11.dtd"><svg t="1579244944699" class="icon" viewBox="0 0 1024 1024" version="1.1" xmlns="http://www.w3.org/2000/svg" p-id="2118" xmlns:xlink="http://www.w3.org/1999/xlink" width="200" height="200"><defs><style type="text/css"></style></defs><path d="M664.8 180v310.4c0 84.32-68.48 152.8-152.8 152.8-84.32 0-152.8-68.48-152.8-152.8v-310.4c0-84.32 68.48-152.8 152.8-152.8 84.32 0 152.8 68.48 152.8 152.8z" p-id="2119"></path><path d="M804.8 371.2c-41.6 0-40.32 46.4-40.32 46.4v57.968c0 141.04-114.56 255.648-255.616 255.648s-255.616-114.592-255.616-255.648V417.6s-0.448-46.4-38.848-46.4-41.152 46.4-41.152 46.4v57.968c0 172.048 130.16 314.096 297.152 333.264V956.8s3.2 40 41.6 40 38.4-40 38.4-40v-148.432c165.488-20.576 294.08-161.808 294.08-332.8V417.6s1.904-46.4-39.68-46.4z" p-id="2120"></path></svg>