<?xml version="1.0" standalone="no"?><!DOCTYPE svg PUBLIC "-//W3C//DTD SVG 1.1//EN" "http://www.w3.org/Graphics/SVG/1.1/DTD/svg11.dtd"><svg t="1562569861857" class="icon" viewBox="0 0 1024 1024" version="1.1" xmlns="http://www.w3.org/2000/svg" p-id="7277" xmlns:xlink="http://www.w3.org/1999/xlink" width="200" height="200"><defs><style type="text/css"></style></defs><path d="M885.220573 170.403136h41.23245c45.976007 0 83.194679 36.367265 83.194679 80.518826v648.40765c0 44.516451-37.218672 80.640456-83.194679 80.640456H221.122699c-45.976007 0-83.194679-36.367265-83.194679-80.640456v-43.908303h-41.35408c-45.976007 0-83.194679-36.367265-83.194679-80.640456V126.494833c0-44.516451 37.218672-80.518826 83.194679-80.518826h705.330324c45.976007 0 83.194679 36.367265 83.194679 80.518826l0.12163 43.908303z m-62.27438 0v-31.13719c0-17.27141-13.74415-31.13719-31.01556-31.13719l-685.018173 0.364889c-17.14978 0-31.01556 13.74415-31.01556 31.25882l-0.243259 622.257275c0 17.27141 13.62252 31.13719 31.01556 31.13719h31.258819V251.043592c0-44.516451 37.218672-80.518826 83.194679-80.518827h601.823494z m-622.743794 716.155363c0 17.27141 13.62252 31.13719 31.01556 31.137189l685.018174-0.364889c17.14978 0 31.01556-13.74415 31.01556-31.258819l0.243259-622.257275c0-17.27141-13.74415-31.13719-31.01556-31.13719l-685.018173 0.364889c-17.14978 0-31.01556 13.74415-31.01556 31.258819l-0.24326 622.257276zM658.138021 544.171042c58.868749 0 117.859128 47.070673 208.229956 157.875282 15.325336 18.852595 31.502079 39.408006 48.28697 61.666231 30.285782 40.137784 62.03112 84.654234 94.262977 132.211426 2.554223 3.770519-31.866968 15.325336-59.112009 36.245635-27.245041 20.920299-42.813636 48.043711-42.813636 48.043711L215.406105 979.483549l37.461932-51.084452s-13.74415 12.527854-8.514076 5.716594c11.068298-14.473928 22.258225-28.947856 33.569783-43.300155C315.142416 843.501604 351.388051 799.106782 385.687611 759.212258c15.690224-18.244447 30.772301-35.272598 45.124599-51.206081C535.778596 592.336382 599.75579 544.171042 658.138021 544.171042z m303.222711 384.106426c-31.745338-46.705785-58.990379-85.019123-88.668013-124.18387-16.298373-21.650077-31.988597-41.597339-46.827414-59.841787-80.275567-98.398385-129.657204-137.92802-167.727284-137.92802-38.678228 0-94.262977 41.962228-189.134101 146.320466-14.960447 16.420002-29.677634 33.083264-44.151562 49.989785-33.691412 39.164746-69.450529 82.82979-106.061053 129.413945-11.554816 14.717187 13.62252-15.082076 13.622521-15.082077l582.119491 24.32593c6.93289-9.973631 51.206081-6.446371 46.827415-13.014372zM355.888348 450.759473c-34.42119 0-62.274379-27.853189-62.27438-62.27438 0-34.42119 27.853189-62.274379 62.27438-62.274379 34.42119 0 62.274379 27.853189 62.274379 62.274379 0 34.299561-27.853189 62.274379-62.274379 62.27438z m0 0" p-id="7278"></path></svg>