<?xml version="1.0" standalone="no"?><!DOCTYPE svg PUBLIC "-//W3C//DTD SVG 1.1//EN" "http://www.w3.org/Graphics/SVG/1.1/DTD/svg11.dtd"><svg t="1600659270841" class="icon" viewBox="0 0 1024 1024" version="1.1" xmlns="http://www.w3.org/2000/svg" p-id="3994" xmlns:xlink="http://www.w3.org/1999/xlink" width="200" height="200"><defs><style type="text/css"></style></defs><path d="M616.705911 321.073063L20.92865 916.850324c-10.777628 10.777628-11.90552 27.194713-2.506425 36.593808L82.586709 1017.608616c9.399094 9.399094 25.816179 8.271203 36.593807-2.506425l595.777262-595.777261-98.251867-98.251867z m0 0M978.633705 121.56162l-64.164485-64.164484c-9.399094-9.399094-25.816179-8.271203-36.593807 2.506425L681.872965 255.906009l98.251867 98.251866 196.002447-196.002447c10.777628-10.777628 11.90552-27.194713 2.506426-36.593808z m0 0M639.639701 94.742871l-62.78595-9.148452L548.907111 28.823889 520.835149 85.594419l-62.660629 9.148452 45.366295 44.238404-10.777628 62.409987 56.143924-29.450496 56.143923 29.450496-10.652307-62.409987 45.240974-44.238404z m0 0M499.279892 269.440705l-115.796842-16.793049-51.883001-104.893893-51.75768 105.019215-115.922163 16.667727 83.839921 81.70946-19.800759 115.420879 103.640681-54.514747 103.64068 54.514747-19.800758-115.420879 83.839921-81.70946z m0 0M242.371313 83.7146l-79.578999-11.529555L127.201077 0 91.60984 72.059723 12.030841 83.7146l57.522457 56.143924-13.534696 79.203035 71.182475-37.471056 71.182475 37.471056-13.534696-79.203035 57.522457-56.143924z m0 0M1011.969159 595.025333L906.824624 579.73614l-46.995472-95.244156-46.995472 95.244156-105.144535 15.289193 76.070003 74.190185-17.92094 104.768572 94.116265-49.501897 94.116265 49.501897-18.171582-104.768572 76.070003-74.190185z m0 0" p-id="3995"></path></svg>