<?xml version="1.0" standalone="no"?><!DOCTYPE svg PUBLIC "-//W3C//DTD SVG 1.1//EN" "http://www.w3.org/Graphics/SVG/1.1/DTD/svg11.dtd"><svg t="1564137434585" class="icon" viewBox="0 0 1024 1024" version="1.1" xmlns="http://www.w3.org/2000/svg" p-id="11488" xmlns:xlink="http://www.w3.org/1999/xlink" width="48" height="48"><defs><style type="text/css"></style></defs><path d="M977.454545 535.272727V116.363636c0-65.163636-46.545455-116.363636-116.363636-116.363636H179.2C116.363636 0 46.545455 46.545455 46.545455 114.036364V907.636364c0 69.818182 69.818182 116.363636 132.654545 116.363636H861.090909c69.818182 0 116.363636-51.2 116.363636-116.363636V535.272727z m-325.818181-139.636363h23.272727c11.636364 0 23.272727 11.636364 23.272727 23.272727s-11.636364 23.272727-23.272727 23.272727h-139.636364v116.363637h139.636364c11.636364 0 23.272727 11.636364 23.272727 23.272727s-11.636364 23.272727-23.272727 23.272727h-139.636364v186.181818c0 11.636364-11.636364 23.272727-23.272727 23.272728s-23.272727-11.636364-23.272727-23.272728v-186.181818h-139.636364c-11.636364 0-23.272727-11.636364-23.272727-23.272727s11.636364-23.272727 23.272727-23.272727h139.636364v-116.363637h-139.636364c-11.636364 0-23.272727-11.636364-23.272727-23.272727s11.636364-23.272727 23.272727-23.272727h130.327273l-146.618182-146.618182c-9.309091-9.309091-9.309091-23.272727 0-32.581818 9.309091-9.309091 23.272727-9.309091 32.581818 0l146.618182 146.618181 146.618182-146.618181c9.309091-9.309091 23.272727-9.309091 32.581818 0 9.309091 9.309091 9.309091 23.272727 0 32.581818L544.581818 395.636364H651.636364z" fill="#666666" p-id="11489"></path></svg>