<?xml version="1.0" standalone="no"?><!DOCTYPE svg PUBLIC "-//W3C//DTD SVG 1.1//EN" "http://www.w3.org/Graphics/SVG/1.1/DTD/svg11.dtd"><svg t="1600658375610" class="icon" viewBox="0 0 1024 1024" version="1.1" xmlns="http://www.w3.org/2000/svg" p-id="3166" xmlns:xlink="http://www.w3.org/1999/xlink" width="200" height="200"><defs><style type="text/css"></style></defs><path d="M410.1 372.8c3.5-3.3 6.9-6.7 10.4-10 25 1.4 37.6-9.9 36.3-35.5l-0.3 0.6c4-4.1 8.1-8.2 12.1-12.4l-0.5 0.5c4.4-3.5 8.8-7 13.1-10.5 1.9-2.5 4.2-3.2 7.2-2.2 25 0.6 50.1 3.1 74.9 1.3 23.4-1.7 46.5-7.8 69.8-12 31.9-33.5 63.8-67.1 95.8-100.7-5.2-14.2-31.6-16.4-14-38.1 17.6-21.7 60.9 11.4 60.9 11.4l111.4 84.4s38.7 43.1 22.8 65.2c-11.3 13.1-44.3-22.1-44.3-22.1s-75.2 79.8-111.9 111.1c-11.5 62 17.9 128.4-29.7 182.1-19.2-2.6-40.6 29.9-57.9-3.7 35.9-36.9 38.3-82.8 35.3-130.2-2.4-37.8 1.5-68.3 39.4-94 33.1-22.4 54.9-61.4 81.8-93.3-49.9-38.1-61.6-39.4-61.6-39.4S701.6 290.4 687 306c-27.8 29.6-60.3 42.9-102.1 42.6-33.9-0.2-67.8 10.2-101.7 15.8-4.3 4.1-8.6 8.1-12.9 12.2l0.5-0.5-12.2 12.2 0.5-0.3c-29.9 1.5-45.6 17.2-47.1 47.1l0.3-0.5-12.2 12.2 0.5-0.5c-4.1 4.3-8.1 8.5-12.2 12.8-3.3 3.7-6.6 7.4-9.8 11.1-18.7-2-26.9 6.3-24.8 25-3.6 3.3-7.2 6.5-10.9 9.8-4.3 4.1-8.6 8.2-12.9 12.2l0.5-0.5-12.2 12.2 0.5-0.5c-3.9 4.2-7.9 8.4-11.8 12.6l0.7-0.3c-24.5-2.3-35.7 10.2-37 33.5l-0.2 0.1c-13.5 7.1-27 14.1-46.8 24.5 9.9-27 16.3-44.4 22.7-61.8 3.3-3.5 6.7-6.9 10-10.4l13.4-13.4c3.5-3.3 7-6.7 10.5-10 25 1.3 37.6-10 36.2-35.6l-0.3 0.6c4-4.2 8.1-8.3 12.1-12.5l-0.6 0.6L340 444l-0.6 0.6 12.4-12.1-0.6 0.3c25.6 1.4 36.9-11.3 35.5-36.3 3.3-3.5 6.7-6.9 10-10.4 4.5-4.4 8.9-8.8 13.4-13.3z" p-id="3167"></path><path d="M246.3 536.9c-6.4 17.4-12.8 34.7-22.7 61.8 19.8-10.4 33.3-17.4 46.8-24.5-4.3 22.9 10.1 25.7 27.4 25.7 36.6-0.1 73.3 0 115.8 0 2.5 19.2 4.5 34.7 7.1 54.3H110.2v-55.9c66.8 21.8 92.4-37.3 136.1-61.4z" p-id="3168"></path><path d="M666.2 582.2c17.2 33.6 38.7 1.1 57.9 3.7 15.7 4.8 31.1 11.8 47.2 13.9 31.7 4.1 38.8 20.7 28.5 53.1H548.6c-1.8-6.9-5.3-15.7-5.9-24.7-0.5-7.2 2.5-14.7 3.3-19.1 42.2-9.5 81.2-18.2 120.2-26.9z" p-id="3169"></path><path d="M771.9 814.8v49.9H592.7c-1.3-16 1.6-30.5 0-49.9h179.2zM614.9 719v49.9H420.7c-1.3-16 1.6-30.5 0-49.9h194.2zM362.4 719v49.9h-63.8c-1.3-16 1.6-30.5 0-49.9h63.8z" p-id="3170"></path><path d="M633.1 292.7c-23.2 4.2-46.4 10.3-69.8 12-24.8 1.8-49.9-0.7-74.9-1.3 48.3-3.5 96.5-7.1 144.7-10.7zM411.9 435.1c1.5-29.9 17.2-45.6 47.1-47.1l-47.1 47.1zM456.8 327.3c1.3 25.6-11.3 36.9-36.3 35.5 12.1-11.8 24.2-23.7 36.3-35.5zM386.7 396.6c1.4 25-10 37.6-35.5 36.3 11.8-12.1 23.7-24.2 35.5-36.3zM316.4 467.6c1.4 25.6-11.2 36.9-36.2 35.6l36.2-35.6zM270.6 574.1c1.2-23.4 12.4-35.8 37-33.5-12.3 11.2-24.6 22.3-37 33.5zM353.7 495.1c-2.2-18.7 6-27 24.8-25-8.3 8.3-16.5 16.6-24.8 25zM481.3 305.6c-4.4 3.5-8.8 7-13.1 10.5 4.3-3.5 8.7-7 13.1-10.5z" p-id="3171"></path><path d="M468.7 315.5c-4 4.1-8.1 8.2-12.1 12.4 4-4.1 8-8.2 12.1-12.4zM470.2 376.6c4.3-4.1 8.6-8.1 12.9-12.2-4.3 4.1-8.6 8.1-12.9 12.2zM410.1 372.8l-13.4 13.4 13.4-13.4zM458.5 388.3l12.2-12.2-12.2 12.2zM351.8 432.6l-12.4 12.1c4.1-4.1 8.2-8.1 12.4-12.1zM400 446.8l12.2-12.2c-4.1 4-8.1 8.1-12.2 12.2zM339.9 444.1l-12.3 12.3 12.3-12.3zM388.3 459c4.1-4.3 8.1-8.5 12.2-12.8-4.1 4.3-8.1 8.6-12.2 12.8zM328.2 455.8c-4 4.2-8.1 8.3-12.1 12.5 4-4.2 8.1-8.4 12.1-12.5zM329.9 517.1c4.3-4.1 8.6-8.2 12.9-12.2-4.3 4-8.6 8.1-12.9 12.2zM269.7 513.2l-13.4 13.4 13.4-13.4zM318.2 528.7l12.2-12.2c-4 4.1-8.1 8.2-12.2 12.2z" p-id="3172"></path><path d="M306.9 540.8c3.9-4.2 7.9-8.4 11.8-12.6-3.9 4.2-7.9 8.4-11.8 12.6z" p-id="3173"></path></svg>