<?xml version="1.0" standalone="no"?><!DOCTYPE svg PUBLIC "-//W3C//DTD SVG 1.1//EN" "http://www.w3.org/Graphics/SVG/1.1/DTD/svg11.dtd"><svg t="1612492548227" class="icon" viewBox="0 0 1024 1024" version="1.1" xmlns="http://www.w3.org/2000/svg" p-id="3725" xmlns:xlink="http://www.w3.org/1999/xlink" width="200" height="200"><defs><style type="text/css"></style></defs><path d="M399.658667 141.354667l36.693333 86.485333c15.957333 37.674667 7.082667 82.005333-21.930667 109.568L333.568 414.122667c4.992 45.909333 20.437333 91.093333 46.293333 135.552a370.261333 370.261333 0 0 0 96.853334 110.72l97.109333-32.384c36.821333-12.245333 76.885333 1.834667 99.413333 34.986666l52.608 77.226667c26.24 38.570667 21.504 91.733333-11.050666 124.416l-34.858667 35.072c-34.730667 34.858667-84.352 47.488-130.218667 33.152-108.373333-33.749333-207.914667-134.101333-298.794666-300.928-91.008-167.082667-123.136-308.864-96.341334-425.301333 11.264-48.981333 46.122667-88.021333 91.690667-102.570667l45.909333-14.677333c43.050667-13.738667 89.045333 8.490667 107.477334 51.968zM629.248 85.333333h279.637333l4.266667 0.64 4.181333 1.152 2.730667 1.152a30.762667 30.762667 0 0 1 9.216 6.4l1.706667 1.877334 1.877333 2.389333 2.218667 3.669333 1.706666 3.925334 1.194667 4.266666 0.554667 3.882667v0.512l0.085333 0.853333v278.784a32 32 0 0 1-63.701333 4.352l-0.256-4.352-0.042667-200.32-265.386667 265.557334a32 32 0 0 1-41.642666 3.114666l-3.584-3.072a32 32 0 0 1-3.114667-41.685333l3.114667-3.584L829.354667 149.333333l-200.106667 0.042667a32 32 0 0 1-31.701333-27.648l-0.298667-4.352a32 32 0 0 1 27.648-31.701333l4.352-0.298667z" p-id="3726"></path></svg>