<?xml version="1.0" standalone="no"?><!DOCTYPE svg PUBLIC "-//W3C//DTD SVG 1.1//EN" "http://www.w3.org/Graphics/SVG/1.1/DTD/svg11.dtd"><svg t="1572860033632" class="icon" viewBox="0 0 1024 1024" version="1.1" xmlns="http://www.w3.org/2000/svg" p-id="843" xmlns:xlink="http://www.w3.org/1999/xlink" width="200" height="200"><defs><style type="text/css"></style></defs><path d="M797.973731 765.213267h-565.196504a36.633107 36.633107 0 0 1-36.633107-36.633107V565.196504h11.146931a51.80968 51.80968 0 1 0 0-103.619359h-11.094598V309.549752a36.633107 36.633107 0 0 1 36.633107-36.633107h565.196504a36.633107 36.633107 0 0 1 36.633107 36.633107v153.911382l-11.617928-1.308326a55.211325 55.211325 0 0 0-6.175295-0.366331 51.80968 51.80968 0 1 0 6.070629 103.410027l11.670261-1.360658v164.901314a36.633107 36.633107 0 0 1-36.633107 36.476107z m-580.896407-179.554556v142.921449a15.699903 15.699903 0 0 0 15.699903 15.699903h565.196504a15.699903 15.699903 0 0 0 15.699903-15.699903V586.129708a72.742883 72.742883 0 0 1 0-145.381101V309.549752a15.699903 15.699903 0 0 0-15.699903-15.699903h-565.196504a15.699903 15.699903 0 0 0-15.699903 15.699903v131.98385a72.69055 72.69055 0 0 1 0 144.125109z" p-id="844"></path><path d="M608.999233 395.375888l-0.575663-0.575663c-4.919303-4.919303-14.705576-6.750958-19.624878-1.831655L518.096796 463.775132h-11.879594l-70.126233-70.126233c-4.919303-4.919303-15.699903-2.197986-20.514539 2.721316l-0.575663 0.575663a13.763582 13.763582 0 0 0-0.941995 18.735218l62.799612 62.799611H422.693719a4.34364 4.34364 0 0 0-4.34364 4.34364v19.677212a4.34364 4.34364 0 0 0 4.34364 4.34364h72.795216v40.34875H421.333061a4.34364 4.34364 0 0 0-4.34364 4.34364v22.346195a4.395973 4.395973 0 0 0 4.34364 4.395973h74.155874v62.799611a4.395973 4.395973 0 0 0 4.34364 4.395973h22.398528a4.395973 4.395973 0 0 0 4.34364-4.395973v-62.799611h74.155875a4.395973 4.395973 0 0 0 4.34364-4.395973v-22.346195a4.34364 4.34364 0 0 0-4.34364-4.34364h-74.155875V507.106864h72.271887a4.34364 4.34364 0 0 0 4.343639-4.34364v-19.677212a4.34364 4.34364 0 0 0-4.343639-4.34364h-53.589002l64.631267-64.631267a13.763582 13.763582 0 0 0-0.889662-18.735217z" p-id="845"></path></svg>