<?xml version="1.0" standalone="no"?><!DOCTYPE svg PUBLIC "-//W3C//DTD SVG 1.1//EN" "http://www.w3.org/Graphics/SVG/1.1/DTD/svg11.dtd"><svg t="1596007988840" class="icon" viewBox="0 0 1024 1024" version="1.1" xmlns="http://www.w3.org/2000/svg" p-id="2267" xmlns:xlink="http://www.w3.org/1999/xlink" width="200" height="200"><defs><style type="text/css"></style></defs><path d="M637.44 347.306667h-8.96V238.506667v-2.56c-3.413333-72.106667-131.413333-109.653333-257.706667-109.653334-126.72 0-254.72 37.546667-257.706666 109.653334v493.226666c3.413333 72.106667 131.413333 109.653333 257.706666 109.653334 30.293333 0 60.586667-2.133333 89.173334-6.4 47.786667 40.533333 110.08 64.853333 177.493333 64.853333 151.893333 0 275.2-123.306667 275.2-275.2S789.333333 347.306667 637.44 347.306667zM370.773333 177.066667c128.426667 0 206.506667 39.68 206.506667 61.013333S499.2 299.52 370.773333 299.52s-206.933333-39.68-206.933333-61.013333 78.506667-61.44 206.933333-61.44zM163.84 308.053333c49.493333 28.16 128.426667 42.666667 206.933333 42.666667s157.013333-14.506667 206.506667-42.666667v45.653334c-66.133333 14.933333-123.733333 53.76-162.56 106.666666-14.08 0.853333-28.586667 1.706667-44.373333 1.706667-128.426667 0-206.933333-39.68-206.933334-61.013333V308.053333z m0 162.986667c49.493333 28.16 128.426667 42.666667 206.933333 42.666667h14.08c-14.506667 33.28-22.613333 70.4-22.613333 109.226666v2.56c-123.306667-1.706667-198.4-40.106667-198.4-61.013333v-93.44z m206.933333 316.586667c-128.426667 0-206.933333-39.68-206.933333-61.013334v-93.013333c49.066667 27.733333 126.293333 42.24 203.52 42.666667 8.106667 40.533333 25.173333 77.653333 48.64 109.653333-14.08 1.28-29.013333 1.706667-45.226667 1.706667z m266.666667 54.613333c-121.173333 0-219.733333-98.56-219.733333-219.733333s98.56-219.733333 219.733333-219.733334 219.733333 98.56 219.733333 219.733334-98.133333 219.733333-219.733333 219.733333z" p-id="2268"></path><path d="M739.84 656.213333h-76.8v-32h76.8c14.08 0 25.6-11.52 25.6-25.6s-11.52-25.6-25.6-25.6h-66.986667l55.893334-55.893333c9.813333-9.813333 9.813333-26.026667 0-36.266667-9.813333-9.813333-26.026667-9.813333-36.266667 0l-55.04 55.04-55.466667-55.466666c-9.813333-9.813333-26.026667-9.813333-36.266666 0-9.813333 9.813333-9.813333 26.026667 0 36.266666l56.32 56.32h-67.413334c-14.08 0-25.6 11.52-25.6 25.6s11.52 25.6 25.6 25.6h76.8v32h-76.8c-14.08 0-25.6 11.52-25.6 25.6s11.52 25.6 25.6 25.6h76.8v69.973334c0 14.08 11.52 25.6 25.6 25.6s25.6-11.52 25.6-25.6v-69.973334h76.8c14.08 0 25.6-11.52 25.6-25.6s-11.093333-25.6-25.173333-25.6z" p-id="2269"></path></svg>