<?xml version="1.0" standalone="no"?><!DOCTYPE svg PUBLIC "-//W3C//DTD SVG 1.1//EN" "http://www.w3.org/Graphics/SVG/1.1/DTD/svg11.dtd"><svg t="1594953861356" class="icon" viewBox="0 0 1024 1024" version="1.1" xmlns="http://www.w3.org/2000/svg" p-id="1386" xmlns:xlink="http://www.w3.org/1999/xlink" width="200" height="200"><defs><style type="text/css"></style></defs><path d="M512 0c282.784 0 512 229.216 512 512s-229.216 512-512 512S0 794.784 0 512 229.216 0 512 0z m0 64C264.576 64 64 264.576 64 512s200.576 448 448 448 448-200.576 448-448S759.424 64 512 64zM316.48 282.72l3.136 1.856 3.296 2.784 118.048 118.048h107.072l118.048-117.984a25.088 25.088 0 0 1 20.16-7.264l3.648 0.64 3.616 1.184a25.088 25.088 0 0 1 14.272 15.808l0.928 3.808 0.256 3.584v242.464a25.152 25.152 0 0 1-25.12 25.152 25.184 25.184 0 0 1-24.16-18.336l-0.768-3.36-0.256-3.456v-181.728l-79.584 79.584c-3.2 3.232-7.072 5.76-11.392 7.52l-4.48 1.504-4.704 0.928-4.064 0.224H434.56a34.56 34.56 0 0 1-17.568-4.8l-3.968-2.656-3.104-2.72-79.616-79.648v337.696H668.16l30.56-62.24a25.088 25.088 0 0 1 11.936-11.744l3.2-1.216 3.328-0.8a24.864 24.864 0 0 1 15.168 2.304l3.648 2.112 3.072 2.624 21.088 21.056 21.12-21.056a25.12 25.12 0 0 1 14.976-7.232l3.392-0.16 3.424 0.32a24.768 24.768 0 0 1 13.6 6.976l2.752 3.136 2.144 3.488 19.424 38.88c4.16 8.32 3.264 17.824-1.504 25.088a25.152 25.152 0 1 1-22.528 11.136 25.056 25.056 0 0 1-16.416-7.488l-2.56-3.008-1.984-3.264-3.84-7.68-14.208 14.208a25.44 25.44 0 0 1-26.048 5.696l-3.392-1.376-3.2-1.888-2.912-2.432-14.048-14.016-21.952 44.8a24.8 24.8 0 0 1-12.192 11.744l-3.36 1.28-3.584 0.8-3.424 0.224H328.448c-23.328 0-43.104-16.64-47.552-39.296l-0.704-4.608-0.224-4.544V305.12a25.184 25.184 0 0 1 36.544-22.4z m119.872 231.52c11.264 0 20.928 7.424 24.16 18.336l0.736 3.392 0.256 3.424v29.056a25.152 25.152 0 1 1-49.28 6.816l-0.768-3.392-0.256-3.424v-29.056c0-13.888 11.264-25.152 25.152-25.152z m116.256 0c11.264 0 20.896 7.424 24.096 18.336l0.768 3.392 0.256 3.424v29.056a25.12 25.12 0 0 1-25.12 25.152 25.152 25.152 0 0 1-24.128-18.368l-0.768-3.36-0.256-3.424v-29.056c0-13.888 11.264-25.152 25.152-25.152z" p-id="1387"></path></svg>