<?xml version="1.0" standalone="no"?><!DOCTYPE svg PUBLIC "-//W3C//DTD SVG 1.1//EN" "http://www.w3.org/Graphics/SVG/1.1/DTD/svg11.dtd"><svg t="1594087312052" class="icon" viewBox="0 0 1024 1024" version="1.1" xmlns="http://www.w3.org/2000/svg" p-id="1563" xmlns:xlink="http://www.w3.org/1999/xlink" width="200" height="200"><defs><style type="text/css"></style></defs><path d="M512 1000.740571h-7.314286l-475.428571-89.234285a36.717714 36.717714 0 0 1-29.257143-35.693715V36.864C0 26.038857 5.485714 17.042286 12.8 9.947429c7.314286-7.094857 18.285714-8.923429 29.257143-8.923429L512 72.484571l469.942857-71.387428c10.971429-1.755429 21.942857 1.828571 29.257143 8.923428 7.314286 7.168 12.8 16.091429 12.8 26.770286v142.848a36.278857 36.278857 0 0 1-36.571429 35.693714c-20.114286 0-36.571429-16.091429-36.571428-35.693714V77.897143l-433.371429 66.048h-10.971428L73.142857 77.897143v767.561143l438.857143 83.894857 438.857143-82.139429V393.801143c0-19.602286 16.457143-35.693714 36.571428-35.693714s36.571429 16.091429 36.571429 35.693714v482.011428c0 17.846857-12.8 32.109714-29.257143 35.693715l-475.428571 89.234285H512z" p-id="1564"></path><path d="M768 286.72c-60.342857 0-109.714286 48.201143-109.714286 107.081143 0 16.091429 3.657143 32.182857 10.971429 46.445714L586.971429 520.557714c-21.942857-12.434286-47.542857-19.602286-74.971429-19.602285-36.571429 0-69.485714 12.434286-95.085714 35.693714l-62.171429-60.708572a35.986286 35.986286 0 0 0-51.2 0c-14.628571 14.262857-14.628571 35.693714 0 49.956572l71.314286 69.632A141.165714 141.165714 0 0 0 365.714286 643.730286c0 78.555429 65.828571 142.774857 146.285714 142.774857s146.285714-64.219429 146.285714-142.774857c0-26.770286-7.314286-51.785143-20.114285-73.142857L720.457143 490.130286c14.628571 7.168 31.085714 10.752 47.542857 10.752 60.342857 0 109.714286-48.274286 109.714286-107.154286s-49.371429-107.081143-109.714286-107.081143zM512 715.117714c-40.228571 0-73.142857-32.182857-73.142857-71.387428 0-39.277714 32.914286-71.387429 73.142857-71.387429s73.142857 32.182857 73.142857 71.387429c0 39.277714-32.914286 71.387429-73.142857 71.387428z m256-285.622857c-20.114286 0-36.571429-16.091429-36.571429-35.693714s16.457143-35.693714 36.571429-35.693714 36.571429 16.091429 36.571429 35.693714a36.278857 36.278857 0 0 1-36.571429 35.693714z" p-id="1565"></path><path d="M265.142857 554.422857C199.314286 554.422857 146.285714 502.784 146.285714 438.491429c0-64.219429 53.028571-116.004571 118.857143-116.004572s118.857143 51.785143 118.857143 116.004572c0 64.292571-53.028571 116.077714-118.857143 116.077714z m0-160.621714a44.763429 44.763429 0 0 0-45.714286 44.617143c0 25.014857 20.114286 44.617143 45.714286 44.617143s45.714286-19.602286 45.714286-44.617143a44.763429 44.763429 0 0 0-45.714286-44.617143z" p-id="1566"></path></svg>