<?xml version="1.0" standalone="no"?><!DOCTYPE svg PUBLIC "-//W3C//DTD SVG 1.1//EN" "http://www.w3.org/Graphics/SVG/1.1/DTD/svg11.dtd"><svg t="1579244999483" class="icon" viewBox="0 0 1024 1024" version="1.1" xmlns="http://www.w3.org/2000/svg" p-id="2790" xmlns:xlink="http://www.w3.org/1999/xlink" width="200" height="200"><defs><style type="text/css"></style></defs><path d="M1022.976 411.648c4.096-18.432-4.096-37.888-20.48-48.128l-146.432-95.232V126.976c0-55.296-41.984-100.352-93.184-100.352h-501.76c-51.2 0-93.184 45.056-93.184 100.352v130.048L19.456 364.544C4.096 375.808-2.048 394.24 1.024 411.648c-1.024 3.072-1.024 6.144-1.024 9.216v499.712c0 43.008 34.816 77.824 77.824 77.824h868.352c43.008 0 77.824-34.816 77.824-77.824V420.864c0-3.072 0-6.144-1.024-9.216z m-108.544 5.12l-58.368 37.888V378.88l58.368 37.888zM261.12 126.976h501.76v389.12l-276.48 178.176-226.304-164.864c1.024-3.072 1.024-6.144 1.024-10.24V126.976z m-93.184 335.872l-62.464-45.056 62.464-45.056v90.112zM93.184 904.192V523.264L440.32 774.144c14.336 10.24 30.72 15.36 47.104 15.36 15.36 0 30.72-4.096 43.008-12.288L931.84 518.144v387.072H93.184z" p-id="2791"></path><path d="M369.664 288.768h311.296c25.6 0 46.08-20.48 46.08-46.08s-20.48-46.08-46.08-46.08H369.664c-25.6 0-46.08 20.48-46.08 46.08s20.48 46.08 46.08 46.08zM600.064 345.088H429.056c-25.6 0-46.08 20.48-46.08 46.08s20.48 46.08 46.08 46.08h171.008c25.6 0 46.08-20.48 46.08-46.08 1.024-25.6-20.48-46.08-46.08-46.08z" p-id="2792"></path></svg>