<?xml version="1.0" standalone="no"?><!DOCTYPE svg PUBLIC "-//W3C//DTD SVG 1.1//EN" "http://www.w3.org/Graphics/SVG/1.1/DTD/svg11.dtd"><svg t="1562901580008" class="icon" viewBox="0 0 1024 1024" version="1.1" xmlns="http://www.w3.org/2000/svg" p-id="2121" xmlns:xlink="http://www.w3.org/1999/xlink" width="200" height="200"><defs><style type="text/css"></style></defs><path d="M806.3 115.1l-248 66.5L376.7 0 79.6 79.6 0 376.7l181.6 181.6-66.5 248 217.5 217.5 297.1-79.6 66.5-248 248-66.5 79.6-297.1-217.5-217.5zM98.2 350.4l53.3-199 199-53.3 145.6 145.6-53.3 199-199 53.3L98.2 350.4z m459.7 522l-199 53.3L213.3 780l53.3-199 199-53.3 145.6 145.6-53.3 199.1z m314.5-314.5l-199 53.3-145.6-145.6 53.3-199 199-53.3 145.6 145.6-53.3 199z" p-id="2122"></path></svg>