<?xml version="1.0" standalone="no"?><!DOCTYPE svg PUBLIC "-//W3C//DTD SVG 1.1//EN" "http://www.w3.org/Graphics/SVG/1.1/DTD/svg11.dtd"><svg t="1566439952875" class="icon" viewBox="0 0 1024 1024" version="1.1" xmlns="http://www.w3.org/2000/svg" p-id="2312" xmlns:xlink="http://www.w3.org/1999/xlink" width="48" height="48"><defs><style type="text/css"></style></defs><path d="M952.091 328.525c2.584 6.089 4.515 12.49 6.856 18.698l-50.821 0c-65.213-154.363-218.026-262.686-396.127-262.686-237.398 0-429.849 192.453-429.849 429.849l-47.761 0c0-263.784 213.827-477.611 477.611-477.611 170.387 0 319.495 89.48 404.038 223.738l14.729-83.512c2.295-12.99 14.688-21.657 27.677-19.366 12.967 2.293 21.66 14.662 19.366 27.654l-24.878 141.11c-0.145 0.788-0.625 1.386-0.841 2.124zM703.043 586.029l0 47.761-167.164 0 0 143.284-47.761 0 0-143.284-167.164 0 0-47.761 167.164 0 0-71.642-167.164 0 0-47.761 148.346 0-108.632-129.457 36.586-30.711 114.363 136.287 0.765 0 114.366-136.287 36.586 30.711-108.638 129.457 148.349 0 0 47.761-167.164 0 0 71.642 167.163 0zM71.904 700.249c-2.579-6.087-4.512-12.49-6.853-18.698l50.818 0c65.216 154.366 218.029 262.686 396.129 262.686 237.397 0 429.849-192.454 429.849-429.849l47.761 0c0 263.786-213.824 477.611-477.611 477.611-170.363 0-319.498-89.478-404.035-223.74l-14.734 83.517c-2.292 12.985-14.685 21.656-27.677 19.366-12.967-2.295-21.657-14.664-19.366-27.658l24.883-141.11c0.142-0.784 0.621-1.381 0.835-2.123z" p-id="2313"></path></svg>