<?xml version="1.0" standalone="no"?><!DOCTYPE svg PUBLIC "-//W3C//DTD SVG 1.1//EN" "http://www.w3.org/Graphics/SVG/1.1/DTD/svg11.dtd"><svg t="1579246870999" class="icon" viewBox="0 0 1024 1024" version="1.1" xmlns="http://www.w3.org/2000/svg" p-id="4428" xmlns:xlink="http://www.w3.org/1999/xlink" width="200" height="200"><defs><style type="text/css"></style></defs><path d="M512 0C230.4 0 0 230.4 0 512s230.4 512 512 512 512-230.4 512-512S793.6 0 512 0z m0 1006.933c-273.067 0-494.933-221.867-494.933-494.933S238.934 17.067 512 17.067 1006.933 238.934 1006.933 512 785.066 1006.933 512 1006.933z" p-id="4429"></path><path d="M288.427 375.467l-97.28 254.293h35.84l23.893-69.973H358.4L384 629.76h35.84l-95.573-254.293h-35.84z m-25.6 157.013l37.547-105.813c1.707-3.413 3.413-10.24 3.413-17.067 1.707 8.533 3.413 13.653 3.413 17.067l37.547 105.813h-81.92zM529.067 375.467h-71.68V629.76h32.427v-95.573h32.427c27.307 1.707 49.493-6.827 66.56-22.187s27.307-35.84 27.307-59.733c0-23.893-6.827-42.667-22.187-56.32s-37.547-20.48-64.853-20.48z m37.546 117.76c-10.24 8.533-25.6 13.653-46.08 13.653h-30.72V406.187h34.133c39.253 0 58.027 17.067 58.027 49.493 0 15.36-5.12 27.307-15.36 37.547zM735.573 375.467h-71.68V629.76h32.427v-95.573h32.427c27.307 1.707 49.493-6.827 66.56-22.187s27.307-35.84 27.307-59.733c0-23.893-6.827-42.667-22.187-56.32-17.067-13.653-37.547-20.48-64.853-20.48z m35.84 117.76c-10.24 8.533-25.6 13.653-46.08 13.653h-30.72V406.187h34.133c39.253 0 58.027 17.067 58.027 49.493 0 15.36-5.12 27.307-15.36 37.547z" p-id="4430"></path></svg>