<?xml version="1.0" standalone="no"?><!DOCTYPE svg PUBLIC "-//W3C//DTD SVG 1.1//EN" "http://www.w3.org/Graphics/SVG/1.1/DTD/svg11.dtd"><svg t="1606186514737" class="icon" viewBox="0 0 1024 1024" version="1.1" xmlns="http://www.w3.org/2000/svg" p-id="3554" xmlns:xlink="http://www.w3.org/1999/xlink" width="200" height="200"><defs><style type="text/css"></style></defs><path d="M591.53 511.744l416.342-416.768a54.613 54.613 0 0 0 0-76.8l-2.304-2.304a54.443 54.443 0 0 0-76.63 0L512.513 433.237 96.256 15.957a54.443 54.443 0 0 0-76.63 0l-2.389 2.134a53.59 53.59 0 0 0 0 76.8l416.427 416.768L17.237 928.512a54.613 54.613 0 0 0 0 76.8l2.304 2.219a54.443 54.443 0 0 0 76.63 0l416.426-416.854 416.342 416.854a54.443 54.443 0 0 0 76.629 0l2.304-2.304a54.613 54.613 0 0 0 0-76.8L591.445 511.659z" p-id="3555"></path></svg>