<?xml version="1.0" standalone="no"?><!DOCTYPE svg PUBLIC "-//W3C//DTD SVG 1.1//EN" "http://www.w3.org/Graphics/SVG/1.1/DTD/svg11.dtd"><svg t="1579323228509" class="icon" viewBox="0 0 1024 1024" version="1.1" xmlns="http://www.w3.org/2000/svg" p-id="3938" xmlns:xlink="http://www.w3.org/1999/xlink" width="200" height="200"><defs><style type="text/css"></style></defs><path d="M939.225752 158.718236c-2.446195-0.284441-242.116421-25.941045-409.083455-152.574304a29.866335 29.866335 0 0 0-36.294708 0C326.880556 132.720303 87.153442 158.433795 84.764135 158.718236a31.686759 31.686759 0 0 0-27.875246 32.028089c0 6.940367 0.625771 171.688759 54.385173 356.68937 31.857424 109.623671 75.888935 203.489295 130.956768 278.866235 69.915668 95.799824 157.523583 161.790202 260.377551 196.150709a29.240564 29.240564 0 0 0 18.830013 0c102.910857-34.360507 190.518772-100.407773 260.377551-196.150709 55.010944-75.37694 99.099343-169.242564 130.899879-278.866235 53.759403-185.000611 54.385173-349.749003 54.385174-356.68937a31.686759 31.686759 0 0 0-27.875246-32.028089z m-227.325474 234.777836l-191.827202 262.653082a30.548994 30.548994 0 0 1-24.575727 12.742969 30.321441 30.321441 0 0 1-20.081555-7.736803L363.857923 561.487095a33.222742 33.222742 0 0 1-3.413296-45.396829 29.866335 29.866335 0 0 1 43.519517-3.527072l86.754591 77.424917 172.086977-235.574271a29.866335 29.866335 0 0 1 43.235075-6.030155 33.108965 33.108965 0 0 1 5.859491 45.112387z m0 0" p-id="3939"></path></svg>