<?xml version="1.0" standalone="no"?><!DOCTYPE svg PUBLIC "-//W3C//DTD SVG 1.1//EN" "http://www.w3.org/Graphics/SVG/1.1/DTD/svg11.dtd"><svg t="1586856603935" class="icon" viewBox="0 0 1024 1024" version="1.1" xmlns="http://www.w3.org/2000/svg" p-id="2148" xmlns:xlink="http://www.w3.org/1999/xlink" width="200" height="200"><defs><style type="text/css"></style></defs><path d="M882 194.7c-5-2.6-7.5-5.2-12.5-5.2h-20c-57.5-2.6-115-15.6-170-36.4-50-20.8-100-46.8-145-80.6L522 64.6c-2.5-2.6-7.5-2.6-10-2.6h-10l-12.5 7.8c-45 31.2-95 57.2-145 78-55 20.8-112.5 33.8-170 36.4h-20c-5 0-10 2.6-12.5 5.2-2.5 5.2-5 7.8-5 13v122.3c0 15.5 12.6 28.1 28.1 28.1 15.5 0 28.1-12.6 28.1-28.1v-83.6c0-4.6 2.1-6.8 4.3-11.4 2.1-2.3 6.4-4.6 10.6-4.6h17c48.9-2.3 97.7-13.7 144.5-31.9 42.5-18.2 85-41 123.2-68.3l10.6-6.8h8.5c2.1 0 6.4 0 8.5 2.3l10.6 6.8c38.2 29.6 80.8 52.3 123.3 70.6 46.7 18.2 95.6 29.6 144.5 31.9h17c4.3 0 6.4 2.3 10.6 4.6 4.3 2.3 4.3 6.8 4.3 11.4v318.6c0 166.1-208.2 341.4-318.8 341.4-110.5 0-318.7-177.5-318.7-346v-66.3c0-15.5-12.6-28.1-28.1-28.1-15.5 0-28.1 12.6-28.1 28.1v73.1C137 759.1 382 962 512 962s375-200.3 375-390.2V207.7c0-5.2 0-10.4-5-13z" fill="" p-id="2149"></path><path d="M512.3 625.1h-0.5c-15.3 0-27.9-12.5-27.9-27.9V315.5c0-15.3 12.5-27.9 27.9-27.9h0.5c15.3 0 27.9 12.5 27.9 27.9v281.8c-0.1 15.3-12.6 27.8-27.9 27.8z" fill="" p-id="2150"></path><path d="M512 698.9m-37.5 0a37.5 37.5 0 1 0 75 0 37.5 37.5 0 1 0-75 0Z" fill="" p-id="2151"></path></svg>