<?xml version="1.0" standalone="no"?><!DOCTYPE svg PUBLIC "-//W3C//DTD SVG 1.1//EN" "http://www.w3.org/Graphics/SVG/1.1/DTD/svg11.dtd"><svg t="1612492859187" class="icon" viewBox="0 0 1024 1024" version="1.1" xmlns="http://www.w3.org/2000/svg" p-id="4727" xmlns:xlink="http://www.w3.org/1999/xlink" width="200" height="200"><defs><style type="text/css"></style></defs><path d="M952.889 924.444c0-17.066-2.845-34.133-5.689-51.2-2.844-31.288-5.689-65.422-8.533-96.71-2.845-28.445-5.69-56.89-8.534-88.178-2.844-31.29-5.689-65.423-8.533-96.712-2.844-31.288-5.689-65.422-8.533-96.71-2.845-31.29-5.69-65.423-8.534-96.712 0-14.222-2.844-28.444-2.844-42.666-5.689-39.823-39.822-68.267-82.489-68.267h-82.489v-51.2c0-14.222 0-28.445-2.844-42.667C719.644 105.244 648.533 34.133 563.2 17.067c-11.378-2.845-19.911-2.845-31.289-5.69h-31.289c-48.355 2.845-93.866 22.756-130.844 56.89-42.667 39.822-68.267 88.177-71.111 145.066-2.845 22.756 0 45.511 0 68.267v5.689h-85.334c-36.977 0-71.11 28.444-79.644 65.422-2.845 19.911-5.689 42.667-5.689 62.578-2.844 28.444-5.689 56.889-8.533 88.178-2.845 31.289-5.69 65.422-8.534 96.71-2.844 31.29-5.689 62.579-8.533 96.712-2.844 34.133-5.689 71.111-11.378 105.244-2.844 34.134-5.689 65.423-8.533 99.556 0 8.533-2.845 19.911-2.845 28.444 2.845 42.667 39.823 76.8 82.49 76.8h716.8c11.377 0 22.755-2.844 31.288-5.689 22.756-11.377 42.667-42.666 42.667-76.8z m-605.867-691.2c0-76.8 59.734-145.066 136.534-159.288 88.177-17.067 173.51 39.822 190.577 130.844 2.845 8.533 2.845 14.222 2.845 22.756v62.577H347.022v-56.889zM853.333 952.89H184.89c-28.445 0-51.2-19.911-56.889-48.356 0-8.533 0-17.066 2.844-25.6 2.845-34.133 8.534-68.266 11.378-105.244 2.845-36.978 8.534-73.956 11.378-110.933 2.844-31.29 5.689-62.578 11.378-93.867 2.844-31.289 5.689-62.578 11.378-93.867 2.844-25.6 5.688-48.355 8.533-73.955 2.844-28.445 25.6-51.2 54.044-51.2h56.89V409.6c0 2.844-2.845 2.844-2.845 5.689-34.134 22.755-31.29 73.955 5.689 93.867 25.6 14.222 56.889 5.688 73.955-19.912 14.222-25.6 8.534-56.888-17.066-73.955-2.845-2.845-2.845-2.845-2.845-8.533v-56.89h329.956v56.89c0 2.844 0 5.688-2.845 5.688-19.91 14.223-28.444 39.823-22.755 62.578 5.689 22.756 28.444 39.822 51.2 39.822s45.51-14.222 54.044-36.977c8.533-22.756 0-48.356-19.911-62.578-2.844-2.845-2.844-2.845-2.844-8.533v-59.734h65.422c25.6 2.845 42.666 25.6 45.51 51.2 2.845 19.911 2.845 36.978 5.69 56.89 2.844 28.444 5.689 56.888 8.533 88.177 2.845 31.289 5.689 62.578 11.378 96.711l8.533 85.333c2.845 31.29 5.69 62.578 11.378 96.711l8.533 76.8c-5.689 22.756-25.6 48.356-51.2 54.045z" fill="" p-id="4728"></path></svg>