<?xml version="1.0" standalone="no"?><!DOCTYPE svg PUBLIC "-//W3C//DTD SVG 1.1//EN" "http://www.w3.org/Graphics/SVG/1.1/DTD/svg11.dtd"><svg t="1587956623357" class="icon" viewBox="0 0 1024 1024" version="1.1" xmlns="http://www.w3.org/2000/svg" p-id="4411" xmlns:xlink="http://www.w3.org/1999/xlink" width="200" height="200"><defs><style type="text/css"></style></defs><path d="M72 112.197v799.604c0 22.215 17.987 40.198 40.198 40.198h799.604c22.215 0 40.198-17.987 40.198-40.198V112.197c0-22.215-17.987-40.198-40.198-40.198H112.198C89.983 71.999 72 89.986 72 112.197z m220 591.519l-70.613-70.613c-7.652-7.652-20.571-7.907-28.381-0.097-7.583 7.582-7.767 20.517 0.097 28.381L263.716 732l-70.613 70.613c-7.652 7.652-7.907 20.571-0.097 28.381 7.582 7.583 20.517 7.767 28.381-0.097L292 760.284l70.613 70.613c7.652 7.652 20.571 7.907 28.381 0.097 7.582-7.582 7.767-20.517-0.097-28.381L320.284 732l70.613-70.613c7.652-7.652 7.907-20.571 0.097-28.381-7.582-7.582-20.517-7.767-28.381 0.097L292 703.716zM272 272h-99.863C161.316 272 152 280.954 152 292c0 10.722 9.016 20 20.137 20H272v99.863c0 10.821 8.954 20.137 20 20.137 10.723 0 20-9.016 20-20.137V312h99.863c10.821 0 20.137-8.954 20.137-20 0-10.722-9.016-20-20.137-20H312v-99.863c0-10.821-8.954-20.137-20-20.137-10.722 0-20 9.016-20 20.137V272zM32 112.197C32 67.905 67.881 32 112.197 32h799.604c44.292 0 80.197 35.881 80.197 80.197v799.604c0 44.292-35.881 80.197-80.197 80.197H112.197C67.905 991.998 32 956.117 32 911.801V112.197zM552 292c0-11.046 9.316-20 20.137-20h239.726c11.122 0 20.137 9.278 20.137 20 0 11.046-9.316 20-20.137 20H572.137C561.015 312 552 302.722 552 292z m0 360c0-11.046 9.316-20 20.137-20h239.726c11.122 0 20.137 9.278 20.137 20 0 11.046-9.316 20-20.137 20H572.137C561.015 672 552 662.722 552 652z m0 160c0-11.046 9.316-20 20.137-20h239.726c11.122 0 20.137 9.278 20.137 20 0 11.046-9.316 20-20.137 20H572.137C561.015 832 552 822.722 552 812z" p-id="4412"></path></svg>