<?xml version="1.0" standalone="no"?><!DOCTYPE svg PUBLIC "-//W3C//DTD SVG 1.1//EN" "http://www.w3.org/Graphics/SVG/1.1/DTD/svg11.dtd"><svg t="1563870617222" class="icon" viewBox="0 0 1024 1024" version="1.1" xmlns="http://www.w3.org/2000/svg" p-id="9737" xmlns:xlink="http://www.w3.org/1999/xlink" width="200" height="200"><defs><style type="text/css"></style></defs><path d="M936.9 362.5H853c-3.9 0-7.6 1.1-11 2.9l-37.8-111.6c-12.1-63.5-57.7-94.1-113.7-94.1h-355c-64.3 0-103.3 41.1-113.7 94l-37.9 112c-3.5-2.1-7.5-3.2-11.6-3.2H88.4c-6.2 0-12.2 2.5-16.6 6.7-4.4 4.3-6.8 10.1-6.8 16.1v19.9c0 12.6 10.4 22.8 23.4 22.9l31.8 5.3c-10.1 19.2-15.8 41.2-15.8 66.7L92.6 631.9c0 3.9 0.3 7.8 0.8 11.6-0.5 2.4-0.8 4.9-0.8 7.4v158.4c0 10.8 4.3 21.1 12.1 28.8 7.8 7.7 18.4 12 29.5 12h63.6c11.1-0.1 21.7-4.4 29.5-12s12.2-18 12.1-28.8v-50.9h546.8v50.9c0 10.8 4.3 21.1 12.1 28.8 7.8 7.7 18.4 12 29.5 12h63.6c11.1 0 21.7-4.4 29.5-12 7.8-7.7 12.2-18 12.1-28.8V651c0-2.5-0.3-5-0.8-7.4 0.5-3.9 0.7-7.8 0.8-11.6l-11.8-131.7c0-25.6-5.7-47.6-15.8-66.9l31.1-5.2c12.9-0.1 23.4-10.3 23.3-22.9v-19.9c0-6-2.4-11.9-6.8-16.1-4-4.4-9.9-6.8-16.1-6.8z m-695.5-33.6l28.6-73 0.4-1.7c2.8-14.8 9.2-17.4 18.6-28.8h447.7c9.5 11.7 15.4 14.7 18 28.6l29 74.8 10.6 40.7c-2.4 29.8-39.7 53.2-70.7 53.2h-422c-31.1 0-68.4-23.5-70.8-53.2l10.6-40.6z m22.5 356.9c-36.6 0-66.3-29.5-66.3-65.8s29.7-65.8 66.3-65.8 66.3 29.4 66.3 65.8-29.6 65.8-66.3 65.8z m364.7-53.4c0 5.4-1.8 10.6-5.1 14.5-3.3 3.8-7.7 6-12.4 6h-164c-9.6-0.1-17.4-9.2-17.4-20.5v-57.7c0-5.4 1.8-10.6 5.1-14.4 3.3-3.8 7.7-6 12.3-6h164.1c9.6 0 17.4 9.2 17.4 20.4v57.7z m132.7 53.4c-36.6 0-66.3-29.5-66.3-65.8s29.7-65.8 66.3-65.8c36.6 0 66.3 29.4 66.3 65.8s-29.7 65.8-66.3 65.8z" p-id="9738"></path></svg>