<?xml version="1.0" standalone="no"?><!DOCTYPE svg PUBLIC "-//W3C//DTD SVG 1.1//EN" "http://www.w3.org/Graphics/SVG/1.1/DTD/svg11.dtd"><svg t="1564128151314" class="icon" viewBox="0 0 1024 1024" version="1.1" xmlns="http://www.w3.org/2000/svg" p-id="1834" xmlns:xlink="http://www.w3.org/1999/xlink" width="48" height="48"><defs><style type="text/css"></style></defs><path d="M64.043746 707.430915 64.043746 563.944927c63.89376-14.598574 111.789083-71.892979 111.789083-140.18631S127.937506 298.170882 64.043746 283.572307L64.043746 126.487648C64.043746 91.991017 92.041012 63.993751 126.537643 63.993751l706.930964 0C867.965238 63.993751 895.962504 91.991017 895.962504 126.487648l0 157.08466c-35.196563 7.999219-66.493506 29.097158-87.191485 59.794161l52.994825 35.796504c14.898545-21.997852 39.596133-35.196563 66.193536-35.196563l31.996875 0L959.956254 126.487648C959.956254 56.794454 903.161801 0 833.468607 0l-706.930964 0C56.844449 0 0.049995 56.794454 0.049995 126.487648L0.049995 343.96641l31.996875 0c43.995704 0 79.792208 35.796504 79.792208 79.792208S76.042574 503.550825 32.04687 503.550825L0.049995 503.550825l0 203.88009C0.049995 777.124109 56.844449 833.918563 126.537643 833.918563L419.009081 833.918563l0-63.993751L126.537643 769.924812C92.041012 769.924812 64.043746 741.927546 64.043746 707.430915z" p-id="1835"></path><path d="M576.493702 511.950005c17.698272 0 31.996875-14.298604 31.996875-31.996875s-14.298604-31.996875-31.996875-31.996875L448.006249 447.956254l0-63.993751 138.786447 0c17.698272 0 31.996875-14.298604 31.996875-31.996875s-14.298604-31.996875-31.996875-31.996875L463.304755 319.968753 597.991602 185.281906c12.498779-12.498779 12.498779-32.796797 0-45.295577-12.498779-12.498779-32.796797-12.498779-45.295577 0L419.109071 273.673274 285.422127 139.986329c-12.498779-12.498779-32.796797-12.498779-45.295577 0s-12.498779 32.796797 0 45.295577L374.913387 319.968753 251.325456 319.968753c-17.698272 0-31.996875 14.298604-31.996875 31.996875s14.298604 31.996875 31.996875 31.996875L384.012499 383.962504l0 63.993751L247.325847 447.956254c-17.698272 0-31.996875 14.298604-31.996875 31.996875s14.298604 31.996875 31.996875 31.996875L384.012499 511.950005l0 94.390782c0 17.698272 14.298604 31.996875 31.996875 31.996875s31.996875-14.298604 31.996875-31.996875L448.006249 511.950005 576.493702 511.950005z" p-id="1836"></path><path d="M1007.351626 696.93194l-49.995118 0c-4.599551-16.498389-11.098916-32.196856-19.298115-46.79543l35.296553-35.296553c6.499365-6.499365 6.499365-16.99834 0-23.497705l-56.994434-56.994434c-3.199688-3.199688-7.499268-4.799531-11.698858-4.799531-4.29958 0-8.49917 1.599844-11.698858 4.799531l-35.296553 35.296553c-14.598574-8.199199-30.297041-14.698565-46.79543-19.298115l0-49.995118c0-9.099111-7.499268-16.598379-16.598379-16.598379l-80.59213 0c-9.099111 0-16.598379 7.499268-16.598379 16.598379l0 49.995118c-16.498389 4.599551-32.196856 11.098916-46.79543 19.298115L614.989942 534.447808c-3.199688-3.199688-7.499268-4.799531-11.698858-4.799531s-8.49917 1.599844-11.698858 4.799531l-56.994434 56.994434c-6.399375 6.499365-6.399375 16.99834 0 23.497705l35.296553 35.296553c-8.199199 14.598574-14.698565 30.297041-19.298115 46.79543l-49.995118 0c-9.099111 0-16.598379 7.499268-16.598379 16.598379l0 80.59213c0 9.099111 7.499268 16.598379 16.598379 16.598379l49.995118 0c4.599551 16.498389 11.098916 32.196856 19.298115 46.79543l-35.296553 35.296553c-6.399375 6.499365-6.399375 16.99834 0 23.497705l56.994434 56.994434c3.199688 3.199688 7.499268 4.799531 11.698858 4.799531s8.49917-1.599844 11.698858-4.799531l35.296553-35.296553c14.598574 8.199199 30.297041 14.698565 46.79543 19.298115l0 49.995118c0 9.099111 7.499268 16.598379 16.598379 16.598379l80.59213 0c9.099111 0 16.598379-7.499268 16.598379-16.598379l0-49.995118c16.498389-4.599551 32.196856-11.098916 46.79543-19.298115l35.296553 35.296553c3.199688 3.199688 7.499268 4.799531 11.698858 4.799531 4.29958 0 8.49917-1.599844 11.698858-4.799531l56.994434-56.994434c6.499365-6.499365 6.499365-16.99834 0-23.497705l-35.296553-35.296553c8.199199-14.598574 14.698565-30.297041 19.298115-46.79543l49.995118 0c9.099111 0 16.598379-7.499268 16.598379-16.598379l0-80.59213C1023.950005 704.431208 1016.450737 696.93194 1007.351626 696.93194zM895.762523 793.522508c-3.199688 11.498877-7.699248 22.497803-13.398692 32.596817l-20.298018 35.896494-35.896494 20.298018c-10.099014 5.699443-20.997949 10.199004-32.596817 13.398692l-39.696123 11.098916-39.696123-11.098916c-11.498877-3.199688-22.497803-7.699248-32.596817-13.398692l-35.896494-20.298018-20.298018-35.896494c-5.699443-10.099014-10.199004-20.997949-13.398692-32.596817L600.991309 753.826384l11.098916-39.696123c3.199688-11.498877 7.699248-22.497803 13.398692-32.596817l20.298018-35.896494 35.896494-20.298018c10.099014-5.699443 20.997949-10.199004 32.596817-13.398692l39.696123-11.098916 39.696123 11.098916c11.498877 3.199688 22.497803 7.699248 32.596817 13.398692l35.896494 20.298018 20.298018 35.896494c5.699443 10.099014 10.199004 20.997949 13.398692 32.596817l11.098916 39.696123L895.762523 793.522508z" p-id="1837"></path><path d="M753.876379 652.636266c-55.894542 0-101.290108 45.295577-101.290108 101.290108 0 55.894542 45.295577 101.290108 101.290108 101.290108 55.894542 0 101.290108-45.295577 101.290108-101.290108C855.166488 697.931843 809.870911 652.636266 753.876379 652.636266zM753.876379 791.122742c-20.597988 0-37.296358-16.698369-37.296358-37.296358s16.698369-37.296358 37.296358-37.296358 37.296358 16.698369 37.296358 37.296358S774.474368 791.122742 753.876379 791.122742z" p-id="1838"></path></svg>