<?xml version="1.0" standalone="no"?><!DOCTYPE svg PUBLIC "-//W3C//DTD SVG 1.1//EN" "http://www.w3.org/Graphics/SVG/1.1/DTD/svg11.dtd"><svg t="1603172640629" class="icon" viewBox="0 0 1024 1024" version="1.1" xmlns="http://www.w3.org/2000/svg" p-id="4958" xmlns:xlink="http://www.w3.org/1999/xlink" width="200" height="200"><defs><style type="text/css"></style></defs><path d="M512 0C228.43 0 0 228.43 0 512s228.43 512 512 512 512-228.43 512-512S795.57 0 512 0z m137.846 531.692c21.662 0 39.385 17.723 39.385 39.385s-17.723 39.385-39.385 39.385h-98.461v98.461c0 21.662-17.723 39.385-39.385 39.385s-39.385-17.723-39.385-39.385v-98.461h-98.461c-21.662 0-39.385-17.724-39.385-39.385s17.723-39.385 39.385-39.385h98.461v-39.384h-98.461c-21.662 0-39.385-17.723-39.385-39.385s17.723-39.385 39.385-39.385h37.415l-37.415-64.984c-11.816-19.692-3.939-43.323 13.784-53.17s43.324-3.938 53.17 13.785l53.169 92.554c1.97 3.939 3.938 7.877 3.938 11.815h15.754l59.077-104.369c11.816-19.692 35.446-25.6 53.17-13.784s25.6 35.446 13.784 53.169l-33.477 64.984h43.323c21.662 0 39.385 17.724 39.385 39.385s-17.723 39.385-39.385 39.385h-98.461v39.384h98.461z" p-id="4959"></path></svg>