<?xml version="1.0" standalone="no"?><!DOCTYPE svg PUBLIC "-//W3C//DTD SVG 1.1//EN" "http://www.w3.org/Graphics/SVG/1.1/DTD/svg11.dtd"><svg t="1592892692089" class="icon" viewBox="0 0 1024 1024" version="1.1" xmlns="http://www.w3.org/2000/svg" p-id="2100" xmlns:xlink="http://www.w3.org/1999/xlink" width="200" height="200"><defs><style type="text/css"></style></defs><path d="M593.92 630.272s-34.304-9.216-43.008-13.824c-18.432-11.264-29.696-34.304-29.696-56.832 0-25.088 20.48-45.568 34.304-61.44 34.304-40.96 52.224-95.744 52.224-157.184 0-127.488-91.136-229.888-202.752-229.888S202.752 216.064 202.752 343.552c0 61.44 20.48 116.224 52.224 157.184 20.48 11.264 34.304 36.352 34.304 61.44 0 22.528-11.264 43.008-29.696 56.832v2.048c-2.048 0-4.608 2.048-4.608 2.048-11.264 6.656-22.528 11.264-36.352 11.264-86.528 29.696-159.232 75.264-202.752 132.096h2.048c-11.264 15.872-15.872 34.304-15.872 52.224 0 54.784 45.568 100.352 102.4 100.352h600.576c59.392 0 104.448-43.008 104.448-100.352 0-22.528-9.216-43.008-20.48-61.44-42.496-56.32-111.104-99.84-195.072-126.976z m407.552 100.352c-38.912-47.616-97.792-88.576-173.056-111.616 0 0-29.696-6.656-38.912-11.264-15.872-11.264-25.088-29.696-25.088-50.176 0-22.528 18.432-40.96 29.696-52.224 29.696-36.352 47.616-83.968 47.616-138.752 0-111.616-79.872-204.8-179.712-204.8-15.872 0-31.744 2.048-45.568 6.656 34.304 50.176 52.224 109.056 52.224 175.104 0 70.656-25.088 138.752-68.096 195.584l-4.608 4.608v2.048c-4.608 4.608-11.264 11.264-13.824 18.432 0 2.048 0 2.048 2.048 2.048 4.608 2.048 11.264 4.608 18.432 4.608h2.048l9.216 4.608c93.184 29.696 173.056 81.92 225.28 147.968 22.528 29.696 36.352 63.488 36.352 100.352 0 20.48-4.608 36.352-11.264 54.784h66.048c52.224 0 93.184-38.912 93.184-88.576-1.536-25.6-8.704-43.52-22.016-59.392z" p-id="2101"></path></svg>