<?xml version="1.0" standalone="no"?><!DOCTYPE svg PUBLIC "-//W3C//DTD SVG 1.1//EN" "http://www.w3.org/Graphics/SVG/1.1/DTD/svg11.dtd"><svg t="1563870497588" class="icon" viewBox="0 0 1024 1024" version="1.1" xmlns="http://www.w3.org/2000/svg" p-id="7685" xmlns:xlink="http://www.w3.org/1999/xlink" width="200" height="200"><defs><style type="text/css"></style></defs><path d="M373.224 124a40 40 0 1 1 27.656 75.072C271.632 246.688 184 370.16 184 510.136c0 183.032 148.424 331.408 331.52 331.408 139.832 0 263.184-87.344 310.976-216.264a40 40 0 1 1 75.008 27.808c-59.328 160.048-212.432 268.456-385.984 268.456-227.28 0-411.52-184.192-411.52-411.408 0-173.776 108.776-327.016 269.224-386.128zM944 504a40 40 0 0 1-40 40H520a40 40 0 0 1-40-40V120a40 40 0 0 1 40-40c234.168 0 424 189.832 424 424zM560 162.304V464h301.696C843.4 305.984 718.016 180.6 560 162.304z" p-id="7686"></path></svg>