<?xml version="1.0" standalone="no"?><!DOCTYPE svg PUBLIC "-//W3C//DTD SVG 1.1//EN" "http://www.w3.org/Graphics/SVG/1.1/DTD/svg11.dtd"><svg t="1602311647526" class="icon" viewBox="0 0 1175 1024" version="1.1" xmlns="http://www.w3.org/2000/svg" p-id="4353" xmlns:xlink="http://www.w3.org/1999/xlink" width="229.4921875" height="200"><defs><style type="text/css"></style></defs><path d="M1174.884785 394.178219c0-106.801288-88.381595-195.253456-195.253456-195.253457-11.032997 0-25.759342 3.693349-36.815863 3.693349v-7.363173c0-106.801288-88.381595-195.253456-195.253456-195.253456a193.771412 193.771412 0 0 0-158.343496 81.018422C552.543799 33.288668 497.378816 0.142629 431.016166 0.142629c-106.777764 0-195.253456 88.381595-195.253457 195.253456v11.032997a132.842924 132.842924 0 0 0-40.509211-7.363173c-106.801288 0-195.253456 88.381595-195.253456 195.253457s88.381595 195.253456 195.253456 195.253456h11.032997c-7.363173 11.056521-14.726345 22.113042-18.396169 36.839387-22.018944 36.533568-29.264494 80.783177-29.264494 128.655561 0 147.286975 121.527633 268.814608 268.838132 268.814607a279.682933 279.682933 0 0 0 165.589046-55.117933q71.796813 55.235556 165.706668 55.235556c125.197457 0 231.998745-84.688246 261.451435-206.215879a264.086181 264.086181 0 0 0 7.363173-62.598729v-3.693348a231.222436 231.222436 0 0 0-11.032997-69.961901v-3.693349c0-3.669824-3.693349-7.363173-3.693348-11.032996-7.363173-25.876964-18.419694-47.872384-36.815863-73.65525h3.599251c106.801288-3.693349 195.253456-92.074943 195.253456-198.852707z m-423.441231-335.106685a125.197457 125.197457 0 1 1-125.197457 125.197457c0-69.961901 58.811282-125.197457 125.197457-125.197457z m-162.083893 250.394914c36.839387 47.872384 92.074943 81.018422 158.343496 81.018422 11.056521 0 25.876964-3.669824 36.839387-3.669824v11.032997c0 14.726345 3.669824 29.476215 3.669824 40.509211-58.811282-25.876964-128.890806-40.509211-198.852707-40.509211-73.65525 0-147.286975 14.726345-206.215879 44.202559 3.693349-14.726345 3.693349-29.476215 3.693348-44.202559v-11.032997c14.726345 3.669824 29.45269 3.669824 44.179036 3.669824 66.362651-3.669824 125.173933-33.146039 158.343495-81.018422zM438.379338 59.071534a125.197457 125.197457 0 1 1-125.197457 125.197457c-3.693349-66.292077 51.542208-125.197457 125.197457-125.197457zM195.347596 515.682327a125.197457 125.197457 0 1 1 125.197457-125.197457 124.162379 124.162379 0 0 1-125.197457 125.197457z m765.958137 235.692094c0 14.726345-3.693349 29.45269-3.693348 44.20256-22.089518 88.35807-99.414591 154.650147-191.489535 154.650147-69.961901 0-132.56063-36.815863-165.706668-88.381595-36.815863 55.235556-95.744767 88.381595-165.706668 88.381595a198.029349 198.029349 0 0 1-198.852707-198.852707c0-36.815863 11.032997-66.292077 22.089518-95.744767 47.872384-110.56521 184.126362-191.489534 342.469857-191.489534 173.069841 0 316.686991 95.744767 357.196203 220.942224 0 3.693349 3.693349 7.363173 3.693348 11.056521v3.669824c-3.693349 14.74987 0 29.476215 0 51.565732z m-99.438115-364.629948a125.220982 125.220982 0 1 1 250.418438 0c0 69.961901-55.235556 128.867281-125.220981 128.867281s-125.197457-55.235556-125.197457-128.867281z m0 0" p-id="4354"></path></svg>