<?xml version="1.0" standalone="no"?><!DOCTYPE svg PUBLIC "-//W3C//DTD SVG 1.1//EN" "http://www.w3.org/Graphics/SVG/1.1/DTD/svg11.dtd"><svg t="1566378425965" class="icon" viewBox="0 0 1024 1024" version="1.1" xmlns="http://www.w3.org/2000/svg" p-id="3439" xmlns:xlink="http://www.w3.org/1999/xlink" width="200" height="200"><defs><style type="text/css"></style></defs><path d="M961.28 363.008L791.04 148.736A54.016 54.016 0 0 0 749.312 128H274.688a54.016 54.016 0 0 0-41.728 19.968l-170.24 215.04a53.504 53.504 0 0 0 2.56 69.12L472.576 878.08a53.504 53.504 0 0 0 78.848 0l407.296-445.952a53.504 53.504 0 0 0 2.56-69.12z m-228.608 95.488a30.72 30.72 0 0 1-43.52-5.376l-51.2-64.768-94.72 111.104a30.976 30.976 0 0 1-23.552 10.752 30.464 30.464 0 0 1-23.552-10.752l-102.4-117.504-60.672 76.8a30.976 30.976 0 0 1-43.52 4.864 31.232 31.232 0 0 1-4.864-43.776l84.224-104.704a30.976 30.976 0 0 1 23.552-11.52 32.512 32.512 0 0 1 24.064 10.752l102.4 118.528 96-112.64A30.464 30.464 0 0 1 640 307.2a32 32 0 0 1 23.808 11.776l74.24 94.976a31.232 31.232 0 0 1-5.376 44.544z" p-id="3440"></path></svg>