<?xml version="1.0" standalone="no"?><!DOCTYPE svg PUBLIC "-//W3C//DTD SVG 1.1//EN" "http://www.w3.org/Graphics/SVG/1.1/DTD/svg11.dtd"><svg t="1564486132913" class="icon" viewBox="0 0 1024 1024" version="1.1" xmlns="http://www.w3.org/2000/svg" p-id="2028" xmlns:xlink="http://www.w3.org/1999/xlink" width="200" height="200"><defs><style type="text/css"></style></defs><path d="M1008.4513348266667 319.9635023644445l-136.4018221511111-238.47091313777779c-15.190557582222223-26.428332942222223-48.225101368888886-45.63105223111111-78.66675996444445-45.63105223111111l-563.3907325155556 0c-30.50336597333333 0-63.6624896 19.14101077333333-78.79017472000001 45.507636337777775L15.725637404444512 316.3204232533334c-15.869341013333333 27.53907143111111-12.966753848888889 67.11928149333333 6.85420544 92.25058986666667l440.69732010666667 556.41311232c3.8282023822222224 4.692109084444444 8.83001344 7.593532302222221 13.583829902222222 10.989780764444443l1.3587319466666667 4.323027626666667 2.8397158399999998-0.9267791644444444c8.953429333333334 5.248641706666666 18.64851342222222 8.768306062222223 29.02238321777778 8.768306062222223 10.497284551111111 0 20.254077155555557-3.643079111111111 29.32975616-9.076844088888889l2.40776192 0.7404919466666667 1.1107373511111112-3.580207786666666c4.816688924444445-3.3345410844444445 9.941915875555555-6.298836764444444 13.831825635555557-11.115524551111111l444.4638151111111-552.95515648C1021.1095506488889 387.26790712888885 1024.1972610844446 347.68769592888884 1008.4513348266667 319.9635023644445zM921.5716386133332 302.17889564444454L756.9519616 302.17889564444454l72.3073797688889-161.28513592888888L921.5716386133332 302.17889564444454zM594.8622961777777 102.42428700444447l178.63778986666665 0-68.35459868444444 152.45628757333333L594.8622961777777 102.42428700444447zM512.6758729955556 102.42428700444447l144.49134478222223 199.75460977777777L364.54144910222226 302.17889564444454l144.49134478222223-199.75460977777777L512.6758729955556 102.42428700444447zM316.5620144355556 254.88057343999998l-68.41630606222222-152.45628757333333 178.69833329777776 0L316.5620144355556 254.88057343999998zM657.3511759644445 368.7439724088889L509.09450126222225 858.3451773155556 352.43860195555555 368.7439724088889 657.3511759644445 368.7439724088889zM193.00469532444447 142.25249166222227l71.75084714666667 159.92640398222224L100.6912329955556 302.17889564444454 193.00469532444447 142.25249166222227zM75.99187854222225 368.7439724088889l206.5471067022222 0 139.98319388444446 437.48619491555553L75.99187854222225 368.7439724088889zM591.6511709866667 815.3687187911111l135.2899208533333-446.6247463822222 222.78785820444443 0c-0.2468306488888889 0.49482524444444437-0.1851232711111111 1.3587319466666667-0.4936612977777778 1.7289784888888886L591.6511709866667 815.3687187911111z" p-id="2029"></path></svg>