<?xml version="1.0" standalone="no"?><!DOCTYPE svg PUBLIC "-//W3C//DTD SVG 1.1//EN" "http://www.w3.org/Graphics/SVG/1.1/DTD/svg11.dtd"><svg t="1560504550587" class="icon" style="" viewBox="0 0 1025 1024" version="1.1" xmlns="http://www.w3.org/2000/svg" p-id="7354" xmlns:xlink="http://www.w3.org/1999/xlink" width="128.125" height="128"><defs><style type="text/css"></style></defs><path d="M863.99968 842.512021l0 181.487979-179.368295-110.436573c-24.866866 4.057096-50.415717 6.440973-76.630169 6.440973-123.222262 0-233.587155-47.15939-309.76062-121.643251 12.533785 0.724993 25.012274 1.638403 37.7611 1.638403 17.870884 0 35.489863-0.88269 52.934762-2.285573 60.141688 41.384019 136.182032 66.287749 219.064758 66.287749 28.567609 0 56.193136-3.262471 82.788518-8.81461l62.351485 41.572435c-0.067584 0.022528-0.126976 0.0512-0.19456 0.073728l47.052894 31.16243L799.999552 878.716637l0-64.114816c96.256193-54.251629 160.00032-147.93348 160.00032-254.601725 0-67.473543-25.763892-129.599747-68.829322-180.035944 2.867206-19.687463 4.831242-39.614543 4.831242-59.96556 0-9.308179-1.013762-18.397221-1.624067-27.572279 79.693983 66.312325 129.624323 159.744319 129.624323 263.576079C1024.002048 672.460097 961.261443 775.884304 863.99968 842.512021zM416.00288 727.99992c-26.2165 0-51.763304-2.377733-76.634265-6.432781l-179.368295 110.430429 0-181.483883C62.742653 583.888016 0 480.455617 0 363.995864 0 162.967878 186.249588 0 416.00288 0 645.752076 0 832.001664 162.967878 832.001664 363.995864 832.001664 565.03409 645.752076 727.99992 416.00288 727.99992zM416.00288 64.000128c-194.404741 0-352.000704 136.108304-352.000704 303.99344 0 106.674389 63.744127 200.354193 159.998272 254.607869l0 64.118912 0 49.277027 47.054942-31.166526c-0.065536-0.018432-0.124928-0.053248-0.192512-0.073728l62.349437-41.566291c26.597429 5.543947 54.222956 8.80437 82.792614 8.80437 194.404741 0 351.998656-136.096016 351.998656-304.001632C768.001536 200.108432 610.405573 64.000128 416.00288 64.000128zM624.000224 415.996736c-26.509365 0-48.00112-21.485611-48.00112-48.003168 0-26.503221 21.491755-47.997024 48.00112-47.997024 26.511413 0 48.00112 21.491755 48.00112 47.997024C672.001344 394.511125 650.511637 415.996736 624.000224 415.996736zM431.99984 415.996736c-26.509365 0-48.00112-21.485611-48.00112-48.003168 0-26.503221 21.491755-47.997024 48.00112-47.997024 26.509365 0 48.00112 21.491755 48.00112 47.997024C480.00096 394.511125 458.511253 415.996736 431.99984 415.996736zM240.001504 415.996736c-26.509365 0-48.00112-21.485611-48.00112-48.003168 0-26.503221 21.489707-47.997024 48.00112-47.997024 26.509365 0 48.00112 21.491755 48.00112 47.997024C288.002624 394.511125 266.510869 415.996736 240.001504 415.996736z" p-id="7355"></path></svg>