<?xml version="1.0" standalone="no"?><!DOCTYPE svg PUBLIC "-//W3C//DTD SVG 1.1//EN" "http://www.w3.org/Graphics/SVG/1.1/DTD/svg11.dtd"><svg t="1597633381698" class="icon" viewBox="0 0 1064 1024" version="1.1" xmlns="http://www.w3.org/2000/svg" p-id="2681" xmlns:xlink="http://www.w3.org/1999/xlink" width="207.8125" height="200"><defs><style type="text/css"></style></defs><path d="M799.823798 1023.405985a114.964889 114.964889 0 0 1-46.94252-11.278014l-222.194595-110.654444-224.379341 110.654444a114.374417 114.374417 0 0 1-46.94252 11.278014 96.955494 96.955494 0 0 1-59.873856-19.898905 106.284951 106.284951 0 0 1-39.915904-102.033553l46.94252-236.956394L30.734082 500.661167a105.753526 105.753526 0 0 1-26.453143-104.218299v-2.184746a106.284951 106.284951 0 0 1 82.666073-70.856635l243.805868-44.049207L439.694955 58.043393A102.151647 102.151647 0 0 1 531.395249 0a102.269742 102.269742 0 0 1 91.109822 57.452921l108.942075 221.899359 244.809671 41.923508a104.218299 104.218299 0 0 1 82.666073 70.856635 104.926866 104.926866 0 0 1-24.268397 104.218299l-175.7835 163.855966 44.226349 236.897347a102.210695 102.210695 0 0 1-39.856856 99.907854 88.216509 88.216509 0 0 1-63.416688 26.394096z m-346.134657-400.162841a23.618878 23.618878 0 0 0-23.618878 23.618878 102.033553 102.033553 0 0 0 102.0926 101.67927 102.033553 102.033553 0 0 0 102.0926-101.67927 23.618878 23.618878 0 0 0-6.967569-16.769403 23.973161 23.973161 0 0 0-16.710356-6.908522 23.618878 23.618878 0 0 0-23.914114 23.618878 54.441514 54.441514 0 0 1-54.500561 54.264372 54.441514 54.441514 0 0 1-54.500561-54.264372 23.618878 23.618878 0 0 0-23.973161-23.559831z" p-id="2682"></path></svg>