<?xml version="1.0" standalone="no"?><!DOCTYPE svg PUBLIC "-//W3C//DTD SVG 1.1//EN" "http://www.w3.org/Graphics/SVG/1.1/DTD/svg11.dtd"><svg t="1562812854224" class="icon" viewBox="0 0 1024 1024" version="1.1" xmlns="http://www.w3.org/2000/svg" p-id="3596" xmlns:xlink="http://www.w3.org/1999/xlink" width="200" height="200"><defs><style type="text/css"></style></defs><path d="M983.643873 338.711282 510.405689 98.160647 37.164435 338.711282 510.405689 579.25987 983.643873 338.711282zM510.405689 132.633786l405.41652 206.077495L510.405689 544.785707 104.986099 338.711282 510.405689 132.633786z" p-id="3597"></path><path d="M859.975273 479.348346 915.822209 507.736906 510.405689 713.811332 104.986099 507.736906 147.582243 486.083747 133.657092 458.687794 37.164435 507.736906 510.405689 748.284471 983.643873 507.736906 873.901447 451.952392Z" p-id="3598"></path><path d="M859.975273 689.349197 915.822209 717.737758 510.405689 923.813207 104.986099 717.737758 147.582243 696.084599 133.657092 668.688645 37.164435 717.737758 510.405689 958.286346 983.643873 717.737758 873.901447 661.954267Z" p-id="3599"></path><path d="M517.368264 432.304913l157.182902-79.895655c5.154393-2.620687 8.403391-7.913227 8.403391-13.697977 0-5.782703-3.245927-11.07729-8.403391-13.697977l-157.182902-79.898725c-4.376681-2.225691-9.54847-2.225691-13.925151 0l-157.182902 79.898725c-5.157463 2.620687-8.403391 7.915273-8.403391 13.697977 0 5.78475 3.248997 11.076266 8.403391 13.697977l157.182902 79.895655c2.188852 1.113357 4.574179 1.667989 6.962575 1.667989C512.794086 433.972902 515.179412 433.41827 517.368264 432.304913zM387.133108 338.711282l123.272581-62.662155 123.272581 62.662155L510.405689 401.370367 387.133108 338.711282z" p-id="3600"></path></svg>