<?xml version="1.0" standalone="no"?><!DOCTYPE svg PUBLIC "-//W3C//DTD SVG 1.1//EN" "http://www.w3.org/Graphics/SVG/1.1/DTD/svg11.dtd"><svg t="1579322867312" class="icon" viewBox="0 0 1024 1024" version="1.1" xmlns="http://www.w3.org/2000/svg" p-id="2065" xmlns:xlink="http://www.w3.org/1999/xlink" width="200" height="200"><defs><style type="text/css"></style></defs><path d="M383.114 447.411c35.362 0 64.027-28.666 64.027-64.027 0-35.363-28.666-64.028-64.027-64.028-35.359 0-64.025 28.666-64.025 64.028 0.001 35.361 28.666 64.027 64.025 64.027z m256.106 0c35.363 0 64.028-28.666 64.028-64.027 0-35.363-28.666-64.028-64.028-64.028-35.358 0-64.027 28.666-64.027 64.028 0 35.361 28.67 64.027 64.027 64.027zM511.17 63.249c-247.533 0-448.19 200.658-448.19 448.186s200.657 448.187 448.19 448.187c247.527 0 448.189-200.658 448.189-448.187S758.697 63.25 511.169 63.25z m0 832.344c-212.17 0-384.163-171.989-384.163-384.158S299 127.273 511.169 127.273c212.165 0 384.167 171.993 384.167 384.162s-172 384.158-384.167 384.158z m128.05-320.13c0 35.358-64.677 118.053-100.039 118.053h-56.024c-35.358 0-100.043-82.694-100.043-118.054h-64.152c-3.574 10.054 0.127 20.73 0.127 32.008 0 53.05 101.02 160.075 154.062 160.075h76.036c53.04 0 154.062-107.023 154.062-160.075 0-11.28 1.7-21.954-1.875-32.008H639.22z" p-id="2066"></path></svg>