<?xml version="1.0" standalone="no"?><!DOCTYPE svg PUBLIC "-//W3C//DTD SVG 1.1//EN" "http://www.w3.org/Graphics/SVG/1.1/DTD/svg11.dtd"><svg t="1562148482678" class="icon" viewBox="0 0 1024 1024" version="1.1" xmlns="http://www.w3.org/2000/svg" p-id="22177" xmlns:xlink="http://www.w3.org/1999/xlink" width="200" height="200"><defs><style type="text/css"></style></defs><path d="M625.4848 507.50464c-3.69152-23.14752-18.56512-26.05568-46.18752-26.05568H275.70176c-10.28608 0-22.4768-1.00864-29.96736 2.01216-12.7488 5.1456-23.3728 24.2688-13.53216 40.14592 5.25312 8.49408 11.74016 9.61536 21.80608 13.75744h285.93152c33.20832 0 72.576 6.93248 82.9696-16.66048 1.23392-3.36384 3.3536-8.17152 2.57536-13.19936zM994.2784 63.45728c-4.2496 1.78688-8.39168 1.67424-11.96544 3.80416-5.1456 3.24096-9.0624 8.38656-13.19424 12.7488a775298.6368 775298.6368 0 0 1-85.9904 89.6768c-77.27104 80.512-97.8432 104.33024-175.11424 184.84736h-0.67072c-40.92928-42.60352-81.85344-85.3248-122.78272-127.9232-9.50272-9.95328-21.68832-28.73856-42.04032-21.35552-5.37088 1.89952-10.07104 4.69504-13.19936 8.94464-18.56 24.93952 9.0624 45.96224 21.13536 58.5984 35.5584 36.89984 71.00928 73.8048 106.56768 110.70464 11.06944 11.52 30.4128 38.02112 47.29856 41.04192 16.32256 2.90816 24.6016-10.51648 31.75936-17.8944l64.18432-66.8672c91.35616-95.04768 125.7984-133.29408 217.15968-228.23424 15.31904-20.47488 2.35008-48.31744-23.14752-48.09216zM445.34272 353.52064c-0.00512 0-19.6864-29.96736-23.71072-42.71616H269.44c-7.04512 0-16.21504-1.2288-22.25152 0.67072-12.97408 4.13696-25.27232 24.04352-15.7696 42.04032 5.4784 10.51136 10.39872 10.17856 21.02272 14.8736 86.54848-0.10752 202.73664-0.3328 202.73664-0.3328s0.896 0.22528 0.67072 0c-2.11968-1.78688-10.50624-14.53568-10.50624-14.53568z" p-id="22178"></path><path d="M805.5552 516.25984v63.10912c0 60.40064-49.18784 109.4912-109.48096 109.4912h-235.9296l-15.69792 15.69792-122.89024 122.88512v-138.58304H163.08224c-60.3904 0-109.4912-49.09056-109.4912-109.4912V226.88256c0-60.3904 49.09056-109.4912 109.4912-109.4912h408.56064V63.80032H163.08224C72.98048 63.80032 0 136.81152 0 226.88256v352.49152c0 90.07104 72.98048 163.08224 163.08224 163.08224h104.8832v214.43072l214.36928-214.43072h213.73952c90.01472 0 163.08224-73.0112 163.08224-163.08224v-63.10912h-53.60128z" p-id="22179"></path></svg>