<?xml version="1.0" standalone="no"?><!DOCTYPE svg PUBLIC "-//W3C//DTD SVG 1.1//EN" "http://www.w3.org/Graphics/SVG/1.1/DTD/svg11.dtd"><svg t="1563357385497" class="icon" viewBox="0 0 1024 1024" version="1.1" xmlns="http://www.w3.org/2000/svg" p-id="3008" width="48" height="48" xmlns:xlink="http://www.w3.org/1999/xlink"><defs><style type="text/css"></style></defs><path d="M769.09 436.59c0-0.25 0-0.51-0.06-0.76s0-0.53-0.06-0.8-0.08-0.67-0.12-1c0-0.18 0-0.36-0.07-0.54-0.05-0.36-0.12-0.72-0.18-1.07 0-0.15-0.05-0.31-0.08-0.46-0.07-0.36-0.15-0.72-0.24-1.07 0-0.15-0.07-0.3-0.1-0.45-0.09-0.34-0.18-0.68-0.28-1 0-0.16-0.09-0.33-0.14-0.49-0.1-0.31-0.2-0.62-0.31-0.93s-0.13-0.38-0.19-0.57-0.21-0.55-0.31-0.83-0.17-0.44-0.26-0.66-0.21-0.47-0.31-0.71-0.22-0.5-0.34-0.74l-0.3-0.6c-0.14-0.27-0.27-0.54-0.42-0.81l-0.29-0.51c-0.16-0.29-0.32-0.57-0.49-0.86l-0.28-0.45c-0.18-0.29-0.37-0.58-0.56-0.87l-0.3-0.43c-0.2-0.28-0.39-0.56-0.6-0.84l-0.38-0.48c-0.19-0.25-0.38-0.5-0.58-0.74s-0.42-0.49-0.64-0.74l-0.38-0.44q-0.54-0.59-1.1-1.15l-128-127.12a32 32 0 0 0-45.1 45.41l73.09 72.59-370.61 0.83a32 32 0 0 0 0.07 64h0.07l448-1h1.55l0.8-0.06 0.75-0.06 1-0.12 0.58-0.08 1-0.18 0.49-0.09 1.05-0.23 0.47-0.11 1-0.28 0.5-0.14 0.95-0.31 0.56-0.19 0.85-0.32 0.64-0.25 0.74-0.32 0.72-0.33 0.64-0.32 0.78-0.4 0.54-0.31 0.83-0.48 0.48-0.3 0.84-0.54 0.47-0.33 0.81-0.58 0.5-0.39 0.73-0.57 0.63-0.55 0.55-0.48q0.58-0.53 1.14-1.09l0.31-0.33c0.26-0.27 0.51-0.53 0.76-0.81l0.53-0.62 0.48-0.57c0.2-0.25 0.4-0.51 0.59-0.76l0.36-0.47c0.21-0.28 0.4-0.56 0.6-0.84l0.3-0.43c0.2-0.29 0.38-0.59 0.57-0.89l0.27-0.43c0.18-0.29 0.34-0.59 0.51-0.89l0.27-0.48c0.15-0.28 0.29-0.57 0.44-0.86l0.28-0.56c0.12-0.26 0.24-0.53 0.36-0.79l0.29-0.66c0.1-0.24 0.19-0.48 0.28-0.72s0.2-0.51 0.29-0.77 0.15-0.43 0.22-0.64 0.19-0.57 0.28-0.87 0.11-0.39 0.16-0.58 0.17-0.62 0.25-0.94 0.08-0.37 0.13-0.55 0.15-0.65 0.21-1 0.07-0.37 0.1-0.56 0.11-0.64 0.16-1 0.05-0.43 0.08-0.64 0.08-0.6 0.1-0.9 0-0.55 0.06-0.82 0-0.49 0.05-0.74v-1.23-0.34q0.01-0.82-0.03-1.61zM737.14 555.3h-0.07l-448 1h-1.58l-0.75 0.06-0.8 0.06-1 0.12-0.55 0.07-1.05 0.18-0.48 0.09-1.05 0.23-0.47 0.11-1 0.27-0.52 0.15-0.91 0.3-0.6 0.2-0.8 0.3-0.69 0.27-0.68 0.3-0.78 0.35-0.56 0.28-0.85 0.44-0.47 0.26-0.9 0.52-0.41 0.26-0.91 0.58-0.39 0.27c-0.29 0.21-0.59 0.41-0.88 0.63l-0.42 0.33c-0.27 0.21-0.54 0.41-0.8 0.63l-0.56 0.49-0.62 0.54q-0.58 0.53-1.14 1.09l-0.31 0.33c-0.26 0.27-0.51 0.53-0.76 0.81l-0.53 0.62-0.48 0.57c-0.2 0.25-0.4 0.51-0.59 0.76l-0.36 0.47c-0.21 0.28-0.4 0.56-0.6 0.84l-0.3 0.43c-0.2 0.29-0.38 0.59-0.57 0.89l-0.27 0.43c-0.18 0.29-0.34 0.59-0.51 0.89l-0.27 0.48c-0.15 0.28-0.29 0.57-0.44 0.86l-0.28 0.56c-0.12 0.26-0.24 0.53-0.36 0.79l-0.29 0.66c-0.1 0.24-0.19 0.48-0.28 0.72s-0.2 0.51-0.29 0.77-0.15 0.43-0.22 0.64-0.19 0.57-0.28 0.87-0.11 0.39-0.16 0.58-0.17 0.62-0.25 0.94-0.08 0.37-0.13 0.55-0.15 0.65-0.21 1-0.07 0.37-0.1 0.56-0.11 0.64-0.16 1-0.05 0.43-0.08 0.64-0.08 0.6-0.1 0.9 0 0.55-0.06 0.82 0 0.49-0.05 0.74V589.95c0 0.25 0 0.51 0.06 0.76s0 0.53 0.06 0.8 0.08 0.67 0.12 1c0 0.18 0 0.36 0.07 0.54 0.05 0.36 0.12 0.72 0.18 1.07 0 0.15 0.05 0.31 0.08 0.46 0.07 0.36 0.15 0.72 0.24 1.07 0 0.15 0.07 0.3 0.1 0.45 0.09 0.34 0.18 0.68 0.28 1 0 0.16 0.09 0.33 0.14 0.49l0.3 0.93c0.1 0.31 0.13 0.38 0.19 0.57s0.21 0.55 0.31 0.83 0.17 0.44 0.26 0.66 0.21 0.47 0.31 0.71 0.22 0.5 0.34 0.74l0.3 0.6c0.14 0.27 0.27 0.54 0.42 0.81l0.29 0.51c0.16 0.29 0.32 0.57 0.49 0.86l0.28 0.45c0.18 0.29 0.37 0.58 0.56 0.87l0.3 0.43c0.2 0.28 0.39 0.56 0.6 0.84l0.38 0.48c0.19 0.25 0.38 0.5 0.58 0.74s0.42 0.49 0.64 0.74l0.38 0.44q0.54 0.59 1.1 1.15l128 127.12a32 32 0 0 0 45.1-45.41l-73.02-72.53 370.61-0.83a32 32 0 0 0-0.07-64z" p-id="3009"></path><path d="M925.3 338.39A449.93 449.93 0 1 0 960.57 513a447 447 0 0 0-35.27-174.61zM512 897.56c-212 0-384.56-172.52-384.56-384.57S299.95 128.44 512 128.44 896.57 300.95 896.57 513 724 897.56 512 897.56z" p-id="3010"></path></svg>