<?xml version="1.0" standalone="no"?><!DOCTYPE svg PUBLIC "-//W3C//DTD SVG 1.1//EN" "http://www.w3.org/Graphics/SVG/1.1/DTD/svg11.dtd"><svg t="1600065346926" class="icon" viewBox="0 0 1024 1024" version="1.1" xmlns="http://www.w3.org/2000/svg" p-id="2720" xmlns:xlink="http://www.w3.org/1999/xlink" width="200" height="200"><defs><style type="text/css"></style></defs><path d="M896.936581 828.190359c-64.131623 0-100.653421-38.381146-143.05002-82.735329-14.981203-15.667841-30.54876-32.017204-48.563042-48.172139-47.390333-42.298362-95.170546-48.174186-139.622968-48.174186-7.931646 0-15.763009 0.195451-23.205515 0.391926-7.14677 0.195451-14.099113 0.294712-20.658506 0.294712l-21.443381 0c-6.560416 0-13.511735-0.196475-20.659529-0.294712-7.440459-0.195451-15.176654-0.391926-23.204491-0.391926-44.550659 0-92.233658 5.875824-139.622968 48.174186-18.113543 16.154935-33.583886 32.407084-48.662303 48.172139-42.298362 44.354184-78.917374 82.735329-143.05002 82.735329-24.967648 0-45.823652-9.202593-62.076824-27.317159-41.514509-46.411029-51.600215-151.372569-31.821753-330.355987 27.317159-246.64033 140.013871-334.467631 236.45741-334.467631 34.758642 0 58.550511 14.295588 83.812871 29.472242 34.758642 20.85498 74.217329 44.549635 159.499667 44.549635 85.280292 0 124.738979-23.694655 159.497621-44.549635 25.26236-15.176654 49.054229-29.472242 83.812871-29.472242 96.442516 0 209.238488 87.827301 236.45741 334.467631 19.777439 179.080631 9.69378 284.043195-31.821753 330.355987C942.857447 818.987766 921.904229 828.190359 896.936581 828.190359L896.936581 828.190359zM565.602314 617.581664c48.368614 0 105.255229 6.65763 160.674423 56.202023 19.091824 17.036002 35.052331 33.779338 50.423413 49.936319 40.437991 42.394552 69.616544 72.943312 120.236432 72.943312 15.861246 0 28.3947-5.482875 38.57762-16.742313 34.171264-38.089503 42.199101-140.994198 23.987321-305.877479-24.966625-225.883587-122.292254-306.367643-205.124797-306.367643-26.045189 0-44.355207 10.965749-67.559699 24.967648-36.422538 21.834284-81.657788 49.054229-175.750793 49.054229-94.095052 0-139.330302-27.219945-175.75284-49.054229-23.205515-13.903661-41.514509-24.967648-67.559699-24.967648-82.735329 0-180.158173 80.483033-205.125821 306.367643C44.416094 638.82857 52.443931 741.733265 86.616218 779.919982c10.084683 11.259438 22.715351 16.742313 38.57762 16.742313 50.620911 0 79.797417-30.646997 120.236432-72.943312 15.470343-16.156982 31.331589-32.899294 50.424436-49.936319 64.915475-57.964156 131.788535-57.08309 184.661743-55.809073 6.855128 0.195451 13.511735 0.293689 19.8767 0.293689l21.443381 0c6.364965 0 13.022595-0.195451 19.875676-0.293689C549.446355 617.777115 557.378002 617.581664 565.602314 617.581664L565.602314 617.581664z" p-id="2721"></path><path d="M896.936581 838.177827c-68.440765 0-108.193141-41.710984-150.295028-85.868693-15.078417-15.761985-30.352285-31.821753-48.074925-47.584762-44.940538-40.047088-90.470501-45.6282-132.964314-45.6282-7.931646 0-15.567557 0.195451-22.911826 0.391926-7.245008 0.195451-14.19735 0.39295-20.85498 0.39295l-21.443381 0c-6.658653 0-13.70821-0.196475-20.953218-0.39295-7.343245-0.195451-14.981203-0.391926-22.910802-0.391926-42.493813 0-88.022753 5.482875-132.965338 45.6282-17.721617 15.763009-32.995485 31.822776-47.780213 47.290049-42.396599 44.452421-82.147952 86.163405-150.588717 86.163405-27.90556 0-51.306526-10.281157-69.518307-30.644951-43.571355-48.665373-54.438866-156.074661-34.366715-338.188372 28.003797-253.201769 145.69322-343.476819 246.444878-343.476819 37.500079 0 63.642482 15.665795 89.001033 30.842449 33.683147 20.170388 71.770604 43.081191 154.311505 43.081191 82.538855 0 120.627335-22.910802 154.309458-43.081191 25.261337-15.176654 51.402717-30.842449 89.002057-30.842449 100.750635 0 218.441081 90.177835 246.443855 343.476819 20.170388 182.114734 9.203616 289.524023-34.367739 338.188372C948.340321 827.89667 924.938332 838.177827 896.936581 838.177827L896.936581 838.177827zM565.602314 639.122259c46.508243 0 96.443539 6.169513 146.279574 50.720172 18.310018 16.350386 33.878598 32.602535 48.859801 48.367591 42.787502 44.844348 76.272127 79.993892 136.096654 79.993892 22.029736 0 40.339754-8.029884 54.636365-23.987321 39.458687-44.061518 48.857754-146.574287 29.372981-322.619792-26.535353-240.080937-134.432759-325.558727-226.568179-325.558727-32.017204 0-53.5578 13.022595-78.623685 28.002774-35.93442 21.540595-76.56684 45.920866-164.688853 45.920866-88.023776 0-128.754432-24.38027-164.590616-45.920866-25.065885-15.078417-46.704718-28.002774-78.623685-28.002774-92.13542 0-199.935612 85.575004-226.568179 325.558727-19.484773 176.045505-10.084683 278.461059 29.374004 322.619792 14.19735 15.860223 32.604582 23.987321 54.635341 23.987321 59.824527 0 93.310176-35.149545 135.803989-79.600943 15.372106-16.058744 30.939663-32.410154 49.151443-48.662303 49.936319-44.550659 99.870592-50.720172 146.281621-50.720172 8.027837 0 15.861246 0.195451 23.400966 0.391926 7.049556 0.196475 13.902638 0.294712 20.463054 0.294712l21.443381 0c6.559393 0 13.316284-0.196475 20.364817-0.294712C549.741068 639.317711 557.573453 639.122259 565.602314 639.122259L565.602314 639.122259zM896.936581 806.650787c-54.92903 0-86.946234-33.582863-127.48144-76.077699-15.273868-16.056698-31.136138-32.605605-49.837058-49.348941-62.272275-55.515385-126.69861-54.438866-177.710424-53.263088-6.951319 0.195451-13.707187 0.293689-20.169365 0.293689l-21.443381 0c-6.462179 0-13.218046-0.195451-20.169365-0.293689-51.111075-1.175779-115.929336-1.859347-177.710424 53.263088-18.700921 16.742313-34.56319 33.291221-49.838082 49.250704-40.633443 42.592051-72.650647 76.077699-127.48144 76.077699-18.603707 0-34.07405-6.755868-46.019103-20.072151-36.619012-40.926108-45.333488-143.538137-26.436092-313.612651 25.7515-232.44298 127.971603-315.276547 215.015052-315.276547 28.786627 0 49.151443 12.238742 72.748884 26.338878 35.346019 21.246907 79.308277 47.584762 170.562631 47.584762s135.216611-26.337855 170.562631-47.584762c23.597441-14.19735 43.962258-26.338878 72.749908-26.338878 87.141686 0 189.361789 82.833567 215.014028 315.276547 18.799158 170.172751 10.18292 272.783757-26.436092 313.612651C931.009607 799.894919 915.539264 806.650787 896.936581 806.650787L896.936581 806.650787zM565.602314 607.594195c50.228985 0 109.367897 6.951319 167.332053 58.746986 19.385513 17.2335 35.444257 34.172287 51.012837 50.426483 40.143279 42.09984 66.579371 69.809949 112.892163 69.809949 13.023618 0 22.912849-4.307096 31.136138-13.412474 22.128997-24.672936 43.766806-96.443539 21.442358-298.046117-24.282033-219.322148-116.710119-297.456692-195.137329-297.456692-23.205515 0-39.655162 9.889231-62.370513 23.499204-37.500079 22.5199-84.10656 50.424436-180.941002 50.424436-96.835466 0-143.440923-28.002774-180.843788-50.424436-22.812565-13.70821-39.163975-23.499204-62.467727-23.499204-78.42721 0-170.856319 78.133521-195.138352 297.456692-22.324448 201.602577-0.587378 273.372158 21.443381 298.046117 8.224312 9.203616 18.113543 13.412474 31.136138 13.412474 46.311769 0 72.847122-27.808346 112.892163-69.809949 15.567557-16.352433 31.723515-33.194006 51.012837-50.426483 67.069535-59.920718 136.586818-59.627029 191.514825-58.354036 6.855128 0.195451 13.413498 0.293689 19.680225 0.293689l21.443381 0c6.266727 0 12.825097-0.195451 19.680225-0.293689C549.249881 607.692433 557.279764 607.594195 565.602314 607.594195L565.602314 607.594195z" p-id="2722"></path><path d="M393.777947 416.921551l-79.20697 0 0-78.70555c0-17.545608-14.036691-31.583323-31.582299-31.583323-17.545608 0-31.582299 14.037714-31.582299 31.583323l0 78.70555-78.70555 0c-17.545608 0-31.583323 14.036691-31.583323 31.582299s14.037714 31.583323 31.583323 31.583323l78.70555 0 0 78.704526c0 17.545608 14.036691 31.582299 31.582299 31.582299 17.545608 0 31.582299-14.036691 31.582299-31.582299L314.570977 480.087173l79.20697 0c17.545608 0 31.582299-14.036691 31.582299-31.583323S411.323555 416.921551 393.777947 416.921551L393.777947 416.921551z" p-id="2723"></path><path d="M762.241856 400.87918c-26.069749 0-47.124274-21.054525-47.124274-47.124274 0-26.067702 21.054525-47.12325 47.124274-47.12325 26.067702 0 47.122227 21.055548 47.122227 47.12325C809.364083 379.824655 788.308535 400.87918 762.241856 400.87918L762.241856 400.87918z" p-id="2724"></path><path d="M762.241856 543.250748M715.117582 543.250748" p-id="2725"></path><path d="M856.988754 448.50385M809.866526 448.50385" p-id="2726"></path><path d="M667.492912 448.50385M620.370685 448.50385" p-id="2727"></path></svg>