<?xml version="1.0" standalone="no"?><!DOCTYPE svg PUBLIC "-//W3C//DTD SVG 1.1//EN" "http://www.w3.org/Graphics/SVG/1.1/DTD/svg11.dtd"><svg t="1536119948664" class="icon" style="" viewBox="0 0 1024 1024" version="1.1" xmlns="http://www.w3.org/2000/svg" p-id="7763" xmlns:xlink="http://www.w3.org/1999/xlink" width="200" height="200"><defs><style type="text/css"></style></defs><path d="M766.913 218.58a153.807 153.807 0 0 0 20.926-77.12C787.839 71.606 739.763 0.91 647.81 0.91c-42.505 0-78.628 14.771-107.401 44.038-15.463 15.667-27.217 34.458-36.418 54.079-9.015-19.692-20.559-38.341-35.696-54.007C439.671 15.742 403.692 0.91 361.247 0.91c-54.477 0-87.325 24.296-105.305 44.687-22.385 25.39-34.717 59.41-34.717 95.852a153.916 153.916 0 0 0 20.919 77.131H78.774c-43.503 0-78.767 35.264-78.767 78.767v197.541c0 43.497 35.264 78.768 78.767 78.768v333.937a115.47 115.47 0 0 0 33.834 81.669 115.476 115.476 0 0 0 81.675 33.829h635.423a115.492 115.492 0 0 0 81.682-33.804 115.475 115.475 0 0 0 33.834-81.67V573.728c43.503 0 78.772-35.265 78.772-78.768V282.113a63.533 63.533 0 0 0-63.532-63.533H766.913zM587.997 91.877c16.004-16.208 35.486-24.11 59.753-24.11 53.996 0 73.172 39.693 73.172 73.694 0 20.444-6.868 40.163-18.869 54.081-13.132 15.264-31.286 23.039-54.177 23.039l-106.704-0.857c4.056-38.93 16.207-94.771 46.766-125.846h0.059zM288.104 141.46c0-20.143 6.358-38.449 18.017-51.687 12.873-14.609 31.417-22.055 55.125-22.055 24.008 0 43.262 7.775 58.863 23.761 30.282 31.105 41.838 87.715 45.444 127.1H361.246c-57.746 0.001-73.142-48.476-73.142-77.119zM112.229 285.462h274.383v221.384H112.229a45.356 45.356 0 0 1-32.079-13.284 45.377 45.377 0 0 1-13.288-32.081V330.826a45.35 45.35 0 0 1 13.288-32.077 45.346 45.346 0 0 1 32.079-13.287z m33.449 288.266h240.934v382.494H197.811c-28.779 0-52.121-23.329-52.132-52.109V573.728z m307.814 382.494v-670.76h117.03v670.76h-117.03z m372.681 0H637.39V573.728h240.903v330.385c-0.012 28.774-23.34 52.102-52.12 52.109z m85.576-449.376H637.39V285.462h274.359a45.354 45.354 0 0 1 32.078 13.287 45.375 45.375 0 0 1 13.288 32.077v130.655a45.402 45.402 0 0 1-13.288 32.081 45.368 45.368 0 0 1-32.078 13.284z m0 0" p-id="7764"></path></svg>