<?xml version="1.0" standalone="no"?><!DOCTYPE svg PUBLIC "-//W3C//DTD SVG 1.1//EN" "http://www.w3.org/Graphics/SVG/1.1/DTD/svg11.dtd"><svg t="1565691453566" class="icon" viewBox="0 0 1024 1024" version="1.1" xmlns="http://www.w3.org/2000/svg" p-id="3010" xmlns:xlink="http://www.w3.org/1999/xlink" width="200" height="200"><defs><style type="text/css"></style></defs><path d="M787.132 481.7c-103.127 0-186.733 83.599-186.733 186.733 0 103.13 83.607 186.733 186.733 186.733 103.13 0 186.733-83.603 186.733-186.733 0-103.134-83.603-186.733-186.733-186.733z m-57.727 261.302c0 5.323-4.316 9.635-9.635 9.635a9.633 9.633 0 0 1-9.638-9.635v-91.418a9.636 9.636 0 0 1 9.638-9.638c5.319 0 9.635 4.316 9.635 9.638v91.418z m44.913 0c0 5.323-4.316 9.635-9.638 9.635-5.323 0-9.638-4.312-9.638-9.635V593.869c0-5.319 4.316-9.638 9.638-9.638 5.323 0 9.638 4.32 9.638 9.638v149.133z m44.913 0c0 5.323-4.316 9.635-9.642 9.635-5.319 0-9.635-4.312-9.635-9.635v-91.418c0-5.323 4.316-9.638 9.635-9.638 5.326 0 9.638 4.316 9.642 9.638v91.418z m44.909 0c0 5.323-4.316 9.635-9.635 9.635a9.633 9.633 0 0 1-9.638-9.635V593.869c0-5.319 4.312-9.638 9.638-9.638 5.319 0 9.635 4.32 9.635 9.638v149.133z" p-id="3011"></path><path d="M596.79 801.846l-128.877 52.146V518.525l358.24-159.585v54.342c20.77 2.128 40.764 6.405 59.703 13.323V272.792L467.913 93.672 49.966 272.792v477.649l417.946 179.116 178.056-76.309c-18.611-14.915-35.502-31.81-49.178-51.402z" p-id="3012"></path></svg>