<?xml version="1.0" standalone="no"?><!DOCTYPE svg PUBLIC "-//W3C//DTD SVG 1.1//EN" "http://www.w3.org/Graphics/SVG/1.1/DTD/svg11.dtd"><svg t="1595987278854" class="icon" viewBox="0 0 1097 1024" version="1.1" xmlns="http://www.w3.org/2000/svg" p-id="4140" xmlns:xlink="http://www.w3.org/1999/xlink" width="214.2578125" height="200"><defs><style type="text/css"></style></defs><path d="M548.571429 1024c-102.4 0-212.114286-29.257143-299.885715-87.771429L87.771429 980.114286c-14.628571 0-29.257143 0-36.571429-7.314286s-14.628571-21.942857-7.314286-36.571429l36.571429-160.914285C29.257143 687.542857 0 599.771429 0 512 0 234.057143 248.685714 0 548.571429 0s548.571429 226.742857 548.571428 512-248.685714 512-548.571428 512zM248.685714 855.714286c7.314286 0 14.628571 0 14.628572 7.314285l14.628571 7.314286C365.714286 921.6 453.485714 950.857143 548.571429 950.857143c263.314286 0 475.428571-197.485714 475.428571-438.857143S811.885714 73.142857 548.571429 73.142857 73.142857 270.628571 73.142857 512c0 73.142857 21.942857 153.6 73.142857 226.742857l7.314286 14.628572q10.971429 10.971429 0 21.942857L124.285714 885.028571l109.714286-29.257142c7.314286 7.314286 14.628571 0 14.628571 0z m0 0" p-id="4141"></path><path d="M365.714286 724.114286c-21.942857 0-36.571429-14.628571-36.571429-36.571429V336.457143c0-21.942857 14.628571-36.571429 36.571429-36.571429s36.571429 14.628571 36.571428 36.571429V694.857143c0 14.628571-14.628571 29.257143-36.571428 29.257143z m234.057143 0c-21.942857 0-36.571429-14.628571-36.571429-36.571429V336.457143c0-21.942857 14.628571-36.571429 36.571429-36.571429s36.571429 14.628571 36.571428 36.571429V694.857143c0 14.628571-14.628571 29.257143-36.571428 29.257143z m131.657142 0c-21.942857 0-36.571429-14.628571-36.571428-36.571429V336.457143c0-21.942857 14.628571-36.571429 36.571428-36.571429s36.571429 14.628571 36.571429 36.571429V694.857143c0 14.628571-14.628571 29.257143-36.571429 29.257143z m0 0" p-id="4142"></path><path d="M599.771429 548.571429H365.714286c-21.942857 0-36.571429-14.628571-36.571429-36.571429s14.628571-36.571429 36.571429-36.571429h234.057143c21.942857 0 36.571429 14.571429 36.571428 36.571429S621.714286 548.571429 599.771429 548.571429z m0 0" p-id="4143"></path></svg>