<?xml version="1.0" standalone="no"?><!DOCTYPE svg PUBLIC "-//W3C//DTD SVG 1.1//EN" "http://www.w3.org/Graphics/SVG/1.1/DTD/svg11.dtd"><svg t="1606440922892" class="icon" viewBox="0 0 1293 1024" version="1.1" xmlns="http://www.w3.org/2000/svg" p-id="2920" xmlns:xlink="http://www.w3.org/1999/xlink" width="252.5390625" height="200"><defs><style type="text/css"></style></defs><path d="M1104.842105 377.263158a80.842105 80.842105 0 0 1 161.684211 0c0 342.285474-277.504 619.789474-619.789474 619.789474S26.947368 719.548632 26.947368 377.263158a80.842105 80.842105 0 0 1 161.684211 0 458.105263 458.105263 0 0 0 916.210526 0zM107.789474 215.578947a107.789474 107.789474 0 1 1 0-215.578947 107.789474 107.789474 0 0 1 0 215.578947z m1077.894737 0a107.789474 107.789474 0 1 1 0-215.578947 107.789474 107.789474 0 0 1 0 215.578947z" fill="#e98f36" p-id="2921"></path></svg>