<?xml version="1.0" standalone="no"?><!DOCTYPE svg PUBLIC "-//W3C//DTD SVG 1.1//EN" "http://www.w3.org/Graphics/SVG/1.1/DTD/svg11.dtd"><svg t="1568876025330" class="icon" viewBox="0 0 1024 1024" version="1.1" xmlns="http://www.w3.org/2000/svg" p-id="1791" xmlns:xlink="http://www.w3.org/1999/xlink" width="200" height="200"><defs><style type="text/css"></style></defs><path d="M526.293333 488.917333l-142.805333 0.298667c-0.170667 0-0.298667-0.128-0.298667-0.298667l19.2-156.032c0-0.170667-0.085333-0.298667-0.298666-0.298666L331.008 332.8c-0.128 0-0.213333 0.085333-0.298667 0.213333L286.72 690.346667c0 0.213333 0.085333 0.298667 0.298667 0.298666l71.082666-0.170666c0.085333 0 0.213333-0.128 0.298667-0.213334l16.512-133.802666c0-0.085333 0.085333-0.213333 0.298667-0.213334l142.805333-0.298666c0.170667 0 0.298667 0.128 0.298667 0.298666l-16.512 133.717334c0 0.213333 0.085333 0.298667 0.298666 0.298666l71.082667-0.213333c0.128 0 0.213333-0.085333 0.298667-0.170667l44.032-357.418666c0-0.213333-0.128-0.298667-0.298667-0.298667l-71.125333 0.213333-0.298667 0.170667-19.2 156.117333c0 0.085333-0.085333 0.213333-0.298667 0.213334z m119.125334 201.088l71.082666-0.213333c0.085333 0 0.213333-0.085333 0.298667-0.213333l30.208-245.589334c0-0.170667-0.128-0.298667-0.298667-0.298666l-71.125333 0.213333c-0.085333 0-0.170667 0.085333-0.298667 0.213333l-30.165333 245.504c0 0.170667 0.170667 0.384 0.298667 0.384z m224.597333 91.392C933.546667 712.405333 960 613.12 960 512c0-273.493333-245.12-489.813333-527.616-441.088-168.96 29.098667-332.373333 192.469333-361.472 361.472C22.186667 714.88 238.506667 960 512 960h358.101333c0.085333 0 0.298667-0.085333 0.298667-0.298667-0.085333-7.594667-2.304-176.298667-0.426667-178.304z m-67.114667 111.402667h-288c-225.493333 0-399.189333-184.192-382.72-409.088A380.885333 380.885333 0 0 1 892.8 512a382.592 382.592 0 0 1-69.717333 219.605333c-24.490667 35.2-20.181333 154.496-19.882667 160.896 0 0.213333-0.085333 0.298667-0.298667 0.298667zM724.992 331.989333c-19.797333 0-37.674667 15.104-39.978667 33.621334-2.304 18.474667 11.904 33.493333 31.701334 33.493333 19.797333 0 37.674667-15.104 39.978666-33.621333 2.304-18.602667-11.904-33.578667-31.701333-33.493334z" p-id="1792"></path></svg>