<?xml version="1.0" standalone="no"?><!DOCTYPE svg PUBLIC "-//W3C//DTD SVG 1.1//EN" "http://www.w3.org/Graphics/SVG/1.1/DTD/svg11.dtd"><svg t="1597635849661" class="icon" viewBox="0 0 1024 1024" version="1.1" xmlns="http://www.w3.org/2000/svg" p-id="4422" xmlns:xlink="http://www.w3.org/1999/xlink" width="200" height="200"><defs><style type="text/css"></style></defs><path d="M846.392 93.09c85.237 0 154.335 59.228 154.335 132.288v573.244c0 73.06-69.098 132.287-154.335 132.287H177.608c-85.237 0-154.335-59.227-154.335-132.287V225.378c0-73.06 69.098-132.287 154.335-132.287h668.784z m5.972 69.82H171.636c-41.83 0-76.023 27.248-78.412 61.608l-0.133 3.846v567.272c0 34.859 32.699 63.353 73.93 65.344l4.615 0.11h680.728c41.83 0 76.023-27.248 78.412-61.608l0.133-3.846V228.364c0-34.859-32.699-63.353-73.93-65.344l-4.615-0.11z" p-id="4423"></path><path d="M360.727 318.836c-65.871 0-119.577 52.363-119.577 117.344v35.276l0.007 1.275c0.279 25.48 8.9 49.45 23.755 68.955l0.369 0.48-61.438 32.015c-32.618 16.997-51.477 51.908-47.356 88.147 4.298 37.79 36.74 66.108 75.054 66.108h258.373c38.313 0 70.756-28.318 75.053-66.108l0.117-1.087c3.626-35.848-15.18-70.233-47.472-87.06l-61.44-32.016 0.371-0.48c15.102-19.829 23.762-44.275 23.762-70.23V436.18c0-64.98-53.706-117.344-119.578-117.344z m0 60.51c32.792 0 59.068 25.62 59.068 56.834v35.276c0 20.354-11.212 38.9-29.266 49.085l-15.367 8.668-0.053 38.946 114.54 59.687c10.556 5.5 16.47 16.449 15.197 27.649-0.787 6.922-7.105 12.436-14.932 12.436H231.54c-7.828 0-14.145-5.514-14.932-12.436-1.274-11.2 4.64-22.149 15.196-27.65l114.54-59.686-0.053-38.946-15.366-8.668c-18.054-10.184-29.267-28.731-29.267-49.085V436.18c0-31.215 26.277-56.835 59.068-56.835z" p-id="4424"></path><path d="M628.364 628.364v-69.819h209.454v69.819zM581.818 442.182v-69.818h256v69.818z" p-id="4425"></path></svg>