<?xml version="1.0" standalone="no"?><!DOCTYPE svg PUBLIC "-//W3C//DTD SVG 1.1//EN" "http://www.w3.org/Graphics/SVG/1.1/DTD/svg11.dtd"><svg t="1587956578279" class="icon" viewBox="0 0 1024 1024" version="1.1" xmlns="http://www.w3.org/2000/svg" p-id="2142" xmlns:xlink="http://www.w3.org/1999/xlink" width="200" height="200"><defs><style type="text/css"></style></defs><path d="M653.692 871.109a18.335 18.335 0 0 1-19.04-18.464c0-10.975 8.064-19.039 19.04-19.039h228.44c10.4 0 19.04 8.064 19.04 19.04 0 10.399-8.64 18.463-19.04 18.463h-228.44z m0 61.726a18.335 18.335 0 0 1-19.04-18.464c0-10.975 8.064-19.039 19.04-19.039h228.44c10.4 0 19.04 8.064 19.04 19.04 0 10.4-8.64 18.463-19.04 18.463h-228.44z" p-id="2143"></path><path d="M786.391 999.745a18.687 18.687 0 0 1-18.463 19.04 18.815 18.815 0 0 1-19.04-19.04v-147.1c0-10.975 8.064-19.039 19.04-19.039 10.4 0 18.463 8.064 18.463 19.04v147.099z" p-id="2144"></path><path d="M851.573 721.673a18.975 18.975 0 1 1 28.831 24.8l-98.076 114.812a19.231 19.231 0 0 1-27.104 2.304 19.007 19.007 0 0 1-1.728-26.527l98.077-115.389z" p-id="2145"></path><path d="M654.844 746.473a19.743 19.743 0 0 1 1.727-27.103 19.775 19.775 0 0 1 27.104 2.303l98.653 115.389c6.335 8.064 5.76 19.615-2.304 26.527s-20.192 5.76-26.528-2.304l-98.652-114.812z" p-id="2146"></path><path d="M567.166 976.097c12.704 0 22.496 10.976 22.496 24.224 0 12.703-9.792 23.647-22.496 23.647H146.027c-22.495 0-42.686-9.792-57.694-25.951A88.733 88.733 0 0 1 64.11 936.29V87.133c0-23.647 9.216-45.566 24.223-61.15v-0.576C103.341 9.824 123.533 0.032 146.027 0.032h719.37c22.495 0 43.263 9.792 57.694 25.375v0.576a88.317 88.317 0 0 1 24.223 61.15v586.702c0 13.28-9.791 23.647-22.495 23.647-12.128 0-21.92-10.4-21.92-23.647V87.133c0-10.975-4.607-20.767-10.975-27.679a35.935 35.935 0 0 0-26.527-12.127h-719.37A36.799 36.799 0 0 0 119.5 59.454a41.407 41.407 0 0 0-10.975 27.68V936.29c0 10.975 4.607 21.343 10.975 28.255 6.912 7.488 16.736 11.551 26.527 11.551h421.14z" p-id="2147"></path><path d="M501.984 211.705c0-13.28 7.488-24.223 16.736-24.223s16.735 10.976 16.735 24.223v345.558c0 13.28-7.487 23.647-16.735 23.647s-16.736-10.4-16.736-23.647V211.705z" p-id="2148"></path><path d="M342.757 408.435c-10.975 0-19.04-10.975-19.04-24.223 0-12.704 8.065-23.647 19.04-23.647h352.47c10.399 0 19.039 10.975 19.039 23.647 0 13.28-8.64 24.223-19.04 24.223H342.757z" p-id="2149"></path></svg>