<?xml version="1.0" standalone="no"?><!DOCTYPE svg PUBLIC "-//W3C//DTD SVG 1.1//EN" "http://www.w3.org/Graphics/SVG/1.1/DTD/svg11.dtd"><svg t="1587956596207" class="icon" viewBox="0 0 1024 1024" version="1.1" xmlns="http://www.w3.org/2000/svg" p-id="3584" xmlns:xlink="http://www.w3.org/1999/xlink" width="200" height="200"><defs><style type="text/css"></style></defs><path d="M563.2 972.8h-102.4a409.6 409.6 0 0 1-153.6-789.1456v56.0896A358.1696 358.1696 0 0 0 460.8 921.6h102.4a358.1696 358.1696 0 0 0 153.6-681.856V183.6544A409.6 409.6 0 0 1 563.2 972.8z m-204.4672-344.4736v-31.232h100.736L382.4896 486.4h67.3792l58.5984 91.3664 89.6-91.3664h67.3792l-107.904 110.7456h101.4016v31.232h-120.5504v61.2352h120.4736v31.2576h-120.4736v98.0992h-59.8784v-98.0992h-119.7824v-31.2576h119.7824v-61.2352h-119.7824zM742.4 409.6H281.6v-51.2h51.2V230.4a179.2 179.2 0 0 1 358.4 0v128h51.2v51.2z m-102.4-179.2a128 128 0 0 0-256 0v128h256V230.4z" fill="#808080" p-id="3585"></path></svg>