<?xml version="1.0" standalone="no"?><!DOCTYPE svg PUBLIC "-//W3C//DTD SVG 1.1//EN" "http://www.w3.org/Graphics/SVG/1.1/DTD/svg11.dtd"><svg t="1560914308863" class="icon" style="" viewBox="0 0 1024 1024" version="1.1" xmlns="http://www.w3.org/2000/svg" p-id="24430" xmlns:xlink="http://www.w3.org/1999/xlink" width="200" height="200"><defs><style type="text/css"></style></defs><path d="M230.74 385.274c80.081 0 145-64.919 145-145s-64.919-145-145-145-145 64.919-145 145 64.919 145 145 145z m0-226c44.735 0 81 36.265 81 81s-36.265 81-81 81-81-36.265-81-81 36.265-81 81-81zM792.453 385.274c80.08 0 145-64.919 145-145s-64.92-145-145-145c-80.082 0-145 64.919-145 145s64.918 145 145 145z m0-226c44.734 0 81 36.265 81 81s-36.266 81-81 81-81-36.265-81-81 36.266-81 81-81zM939.341 864.388V613.504c0-91.198-64.918-165.127-145-165.127s-145 73.929-145 165.127v34.88l-137.493 81.841-134.218-79.893v-36.828c0-91.198-64.918-165.127-145-165.127s-145 73.929-145 165.127V928.388H377.629V713.433l134.218 79.893 137.493-81.84V883.25l0.003 0.192v44.945H939.342v-64h-0.001z m-787.711 0v-265.65c0-47.694 36.265-86.358 81-86.358s81 38.664 81 86.358v265.65h-162z m561.714-180.025v-85.626c0-47.694 36.267-86.358 81-86.358 44.734 0 81 38.664 81 86.358v265.65h-162V684.363z" fill="#999999" p-id="24431"></path></svg>