<?xml version="1.0" standalone="no"?><!DOCTYPE svg PUBLIC "-//W3C//DTD SVG 1.1//EN" "http://www.w3.org/Graphics/SVG/1.1/DTD/svg11.dtd"><svg t="1564136570634" class="icon" viewBox="0 0 1024 1024" version="1.1" xmlns="http://www.w3.org/2000/svg" p-id="2669" xmlns:xlink="http://www.w3.org/1999/xlink" width="48" height="48"><defs><style type="text/css"></style></defs><path d="M365.5 170H254.6c-9.7 0-17.6 7.9-17.6 17.6V258c0 9.7 7.9 17.6 17.6 17.6h300.7c9.7 0 17.6-7.9 17.6-17.6v-70.4c0-9.7-7.9-17.6-17.6-17.6H444.4c-0.1 0-0.2-0.1-0.1-0.2 1.4-4.3 2.2-8.7 2.2-13.1 0-22.9-18.6-41.5-41.5-41.5s-41.6 18.6-41.6 41.5c0 4.4 0.7 8.8 2.2 13.1 0 0.1 0 0.2-0.1 0.2z m2 19.1c4.9 0 9.7-1.8 13.1-5.4 4.8-5.1 6.1-12.3 3.6-18.6-1.1-2.7-1.7-5.6-1.7-8.4 0-12.4 10.1-22.5 22.5-22.5s22.4 10.1 22.4 22.5c0 2.8-0.6 5.6-1.7 8.4-2.5 6.3-1.2 13.5 3.7 18.6 3.4 3.5 8.2 5.3 13 5.3h111.3c0.1 0 0.1 0.1 0.1 0.1v67.1c0 0.1-0.1 0.1-0.1 0.1H256.2c-0.1 0-0.1-0.1-0.1-0.1v-67.1c0-0.1 0.1-0.1 0.1-0.1l111.3 0.1zM949 663.7c8.7-10.3 11.4-20.6 11.4-29.2 0-18.3-11.9-44-68.7-62.2-36.6-11.7-84.8-18.2-135.8-18.2-51.8 0-100.7 6.6-137.5 18.7-55.5 18.2-67.1 43.6-67.1 61.7 0 8.6 2.6 18.9 11.4 29.2-8.9 10.7-11.4 21.1-11.4 29.2 0 9.1 3 20.1 13 31.1-10.2 11.2-13 22.4-13 31.1 0 9.3 3.1 20.6 13.6 31.7-10.7 11.5-13.6 22.9-13.6 31.7 0 7.9 2.4 19.5 13 31.1-10.3 11.2-13 22.4-13 31.1 0 18.3 11.9 44 68.7 62.2 36.6 11.7 84.8 18.2 135.8 18.2 51 0 99.2-6.4 135.8-18.2 56.8-18.2 68.7-43.9 68.7-62.2 0-8.7-2.8-19.9-13-31.1 10.1-11 13-22 13-31.1 0-8.9-2.9-20.3-13.6-31.7 10.5-11.2 13.6-22.4 13.6-31.7 0-8.7-2.8-19.8-13-31.1 10-11 13-21.9 13-31.1 0.1-8.2-2.4-18.6-11.3-29.2z m-33.8 218.5c-3.9 4.4-15.8 13-43.4 20.9-31.6 9.1-72.8 14.1-116 14.1s-84.4-5-116-14.1c-27.6-7.9-39.5-16.5-43.4-20.9-0.7-0.8-0.7-2 0-2.8 1.1-1.2 2.9-3 6-5.1 11.7 4.9 25.4 9.2 41 12.8 33 7.7 71.8 11.8 112.4 11.8 51 0 99.2-6.4 135.8-18.2 6.4-2.1 12.3-4.2 17.6-6.4 3.1 2.1 4.9 3.9 6 5.1 0.7 0.8 0.7 2 0 2.8z m0-62.3c-3.9 4.4-15.8 13-43.4 20.9-31.6 9.2-72.8 14.2-116 14.2-78.1 0-137-16-156.4-32.3-0.9-0.7-2.2-0.7-2.9 0.2l-8.5 9 8.5-9c0.8-0.8 0.8-2.1 0-2.9-0.7-0.8-0.7-2 0-2.8 1.2-1.4 3.4-3.4 7.1-5.8 5 2.1 10.5 4 16.4 6 36.6 11.7 84.8 18.2 135.8 18.2 51 0 99.2-6.4 135.8-18.2 6-1.9 11.4-3.9 16.4-6 3.7 2.5 5.9 4.5 7.1 5.9 0.8 0.6 0.8 1.8 0.1 2.6z m-318.8-66.2c1.1-1.2 2.9-3 5.9-5.1 5.3 2.2 11.2 4.4 17.6 6.5 36.6 11.7 84.8 18.2 135.8 18.2 51 0 99.2-6.4 135.8-18.2 6.4-2.1 12.3-4.2 17.6-6.5 3 2.1 4.8 3.8 5.9 5.1 0.7 0.8 0.7 2 0 2.8-3.9 4.4-15.8 13-43.4 20.9-31.6 9.1-72.8 14.1-116 14.1s-84.4-5-116-14.1c-27.6-7.9-39.5-16.5-43.4-20.9-0.5-0.8-0.5-2 0.2-2.8z m318.8-59.4c-3.9 4.4-15.8 13-43.4 20.9-31.6 9.1-72.8 14.1-116 14.1s-84.4-5-116-14.1c-27.6-7.9-39.5-16.5-43.4-20.9-0.7-0.8-0.7-2 0-2.8 0.6-0.7 1.5-1.6 2.8-2.7 6.2 2.7 13 5.3 20.8 7.8 36.6 11.7 84.8 18.2 135.8 18.2 51 0 99.2-6.4 135.8-18.2 7.7-2.5 14.6-5.1 20.8-7.8 1.3 1.1 2.2 2 2.8 2.7 0.7 0.8 0.7 2 0 2.8z m0-58.4c-3.8 4.4-15.7 13-43.4 21-31.6 9.1-72.8 14.1-116 14.1s-84.4-5-116-14.1c-27.7-8-39.6-16.6-43.4-21-0.7-0.8-0.7-2 0-2.8 3.4-3.9 13.3-11.3 35.6-18.6C664 604 709.2 598 755.8 598c43.2 0 84.4 5 116 14.1 27.7 8 39.6 16.6 43.4 21 0.7 0.8 0.7 1.9 0 2.8zM398.4 498.8c-32.7 0-59.2 26.5-59.2 59.2s26.6 59.2 59.2 59.2 59.2-26.6 59.2-59.2c0-32.7-26.5-59.2-59.2-59.2z m0 90.2c-17.1 0-31-13.9-31-31s13.9-30.9 31-30.9 31 13.9 31 30.9c0 17.1-13.9 31-31 31z" p-id="2670"></path><path d="M552.6 612.1c12.1-8.1 20-21.9 20-37.5v-33.1c0-15.6-7.9-29.4-20-37.5-5.5-3.7-8.2-10.3-6.9-16.8 0.6-2.8 0.8-5.8 0.8-8.7 0-12.1-4.7-23.4-13.2-31.9L509.9 423c-8.5-8.5-19.9-13.2-31.9-13.2-3 0-5.9 0.3-8.7 0.8-6.5 1.3-13.1-1.4-16.8-6.9-8.1-12.1-21.9-20-37.5-20h-33.1c-15.6 0-29.4 8-37.5 20-3.7 5.5-10.3 8.2-16.8 6.9-2.8-0.6-5.8-0.8-8.7-0.8-12 0-23.4 4.7-31.9 13.2l-23.4 23.4c-8.5 8.5-13.2 19.9-13.2 31.9 0 3 0.3 5.9 0.8 8.8 1.3 6.5-1.4 13.1-6.9 16.8-12.1 8.1-20 21.9-20 37.5v33.1c0 15.6 8 29.4 20 37.5 5.5 3.7 8.2 10.2 6.9 16.8-0.6 2.8-0.8 5.8-0.8 8.7 0 12.1 4.7 23.4 13.2 32l23.4 23.4c8.5 8.5 19.9 13.2 31.9 13.2 3 0 5.9-0.3 8.7-0.8 6.5-1.3 13.1 1.4 16.8 6.9 8.1 12.1 21.9 20 37.5 20H415c15.6 0 29.4-8 37.5-20 3.7-5.5 10.2-8.2 16.7-6.9 2.8 0.6 5.8 0.8 8.7 0.8 12.1 0 23.4-4.7 31.9-13.2l23.4-23.4c8.5-8.5 13.2-19.9 13.2-31.9 0-3-0.3-5.9-0.8-8.7-1.2-6.6 1.5-13.1 7-16.8zM528.8 558c0 9.8-8.1 17.9-17.9 17.9h-1.3c-7.1 0-13.3 4.5-15.7 11.2l-1.2 3.6c-1.3 3.7-2.8 7.4-4.5 11l-1.7 3.4c-3.1 6.3-1.8 13.9 3.2 18.9l12.6 12.6c0.3 0.3 0.4 0.5 0.4 0.9 0 0.5-0.1 0.7-0.4 0.9l-23.4 23.4c-0.2 0.2-0.5 0.4-0.9 0.4-0.5 0-0.7-0.1-0.9-0.4l-12.6-12.6c-5-5-12.6-6.3-18.9-3.2l-3.4 1.7c-3.5 1.7-7.2 3.2-10.9 4.5l-3.6 1.2c-6.7 2.3-11.2 8.6-11.2 15.7v1.3c0 9.8-8 17.9-17.9 17.9-9.8 0-17.9-8-17.9-17.9v-1.3c0-7.1-4.5-13.4-11.2-15.7l-3.6-1.2c-3.7-1.3-7.4-2.8-10.9-4.5l-3.4-1.7c-6.4-3.1-14-1.8-18.9 3.2l-12.6 12.6c-0.2 0.2-0.5 0.4-0.9 0.4-0.5 0-0.7-0.1-0.9-0.4l-23.4-23.4c-0.3-0.3-0.4-0.5-0.4-1s0.1-0.7 0.4-0.9l12.6-12.6c5-5 6.3-12.6 3.2-19l-1.7-3.4c-1.7-3.5-3.2-7.2-4.5-10.9l-1.2-3.6c-2.3-6.7-8.6-11.2-15.7-11.2h-1.3c-9.8 0-17.9-8-17.9-17.9 0-9.8 8.1-17.9 17.9-17.9h1.3c7.1 0 13.4-4.5 15.7-11.2l1.2-3.6c1.3-3.8 2.8-7.5 4.5-10.9l1.7-3.4c3.1-6.3 1.8-14-3.2-18.9l-12.6-12.7c-0.3-0.3-0.4-0.5-0.4-0.9s0.1-0.7 0.4-0.9l23.4-23.4c0.3-0.3 0.6-0.4 1-0.4s0.7 0.1 0.9 0.4l12.6 12.7c5 5 12.6 6.3 19 3.2l3.4-1.7c3.5-1.7 7.2-3.2 10.9-4.5l3.6-1.2c6.7-2.3 11.2-8.6 11.2-15.7v-1.3c0-9.8 8-17.9 17.9-17.9 9.8 0 17.9 8 17.9 17.9v1.4c0 7.1 4.5 13.4 11.2 15.7l3.6 1.2c3.7 1.3 7.3 2.8 10.9 4.5l3.4 1.7c6.4 3.1 14 1.8 18.9-3.2l12.6-12.6c0.3-0.3 0.6-0.4 1-0.4s0.7 0.1 0.9 0.4l23.4 23.4c0.3 0.3 0.4 0.5 0.4 0.9s-0.1 0.7-0.4 0.9L489.7 492c-5 5-6.3 12.6-3.2 18.9l1.7 3.4c1.7 3.5 3.2 7.2 4.5 10.9l1.2 3.6c2.3 6.7 8.6 11.2 15.7 11.2h1.3c9.8 0.1 17.9 8.2 17.9 18z" p-id="2671"></path><path d="M534.4 915.3H159.3c-28.8 0-52.2-23.4-52.2-52.2v-630c0-22.7 18.5-41.2 41.2-41.2H218c5.7 0 10.4-4.7 10.4-10.4 0-10.8 8.8-19.6 19.6-19.6h96c5.1 0 9.5-3.5 10.7-8.4l2-8.4c5.4-22.4 25.2-38 48.2-38 23 0 42.8 15.6 48.1 38l2 8.4c1.2 4.9 5.6 8.4 10.7 8.4h95c10.9 0 19.9 8.5 20.6 19.4v0.2c0.3 5.8 5.1 10.3 10.9 10.3h69.2c22.7 0 41.2 18.5 41.2 41.2v285.4c0 12.1 9.9 21.9 21.9 21.9s21.9-9.9 21.9-21.9V233.1c0-46.9-38.2-85-85-85h-35.9c-3.7 0-7.2-1.8-9.2-5-9.5-15.1-26.3-25-45.3-25h-74.5c-4 0-7.7-2.2-9.6-5.8-5.9-11-14.1-20.7-23.9-28.6-16.5-13.2-37.1-20.4-58.2-20.4s-41.8 7.3-58.3 20.4c-9.8 7.9-18 17.6-23.9 28.6-1.9 3.5-5.6 5.8-9.6 5.8h-74.5c-19 0-35.8 9.9-45.3 25-2 3.1-5.5 5-9.2 5h-35.8c-46.9 0-85 38.1-85 85v630c0 53 43 96 96 96h375c12.1 0 21.9-9.9 21.9-21.9 0.2-12-9.6-21.9-21.7-21.9z" p-id="2672"></path><path d="M626.5 503.9v39.5c0 5.2 4.3 9.5 9.5 9.5s9.5-4.3 9.5-9.5V284.5c0-18.8-15.3-34.1-34.1-34.1h-8.3c-12 0-22.1 8.4-24.7 19.6-1.6 6.9-7.6 12-14.7 12h-321c-7.1 0-13.1-5-14.7-12-2.6-11.2-12.7-19.6-24.7-19.6H195c-18.8 0-34.1 15.3-34.1 34.1v569.7c0 18.8 15.3 34.1 34.1 34.1h341.1c5.2 0 9.5-4.3 9.5-9.5s-4.3-9.5-9.5-9.5H195c-8.3 0-15-6.7-15-15V284.5c0-8.3 6.7-15 15-15h0.6c7.1 0 13.1 5 14.7 12 2.6 11.2 12.7 19.6 24.7 19.6h336.6c12 0 22.1-8.4 24.7-19.6 1.6-6.9 7.6-12 14.7-12h0.6c8.3 0 15 6.7 15 15v219.4z" p-id="2673"></path></svg>