<?xml version="1.0" standalone="no"?><!DOCTYPE svg PUBLIC "-//W3C//DTD SVG 1.1//EN" "http://www.w3.org/Graphics/SVG/1.1/DTD/svg11.dtd"><svg t="1604039639171" class="icon" viewBox="0 0 1024 1024" version="1.1" xmlns="http://www.w3.org/2000/svg" p-id="2672" xmlns:xlink="http://www.w3.org/1999/xlink" width="200" height="200"><defs><style type="text/css"></style></defs><path d="M747.145 102.798c-122.588-10.042-216.137 50.372-270.169 129.398-26.242-65.615-112.652-103.916-186.956-103.263-110.748 0.957-237.29 82.199-246.245 233.769-11.909 201.485 131.506 248.882 215.338 380.368 48.147 75.552 74.83 178.208 74.83 178.208s66.034-23.979 161.996-68.064c-64.005-41.796-111.263-100.788-124.231-176.737-20.946-122.529 39.536-238.223 151.033-263.613 14.789-3.373 42.669-2.934 58.389-1.83 31.95 2.241 53.876 11.174 82.543 25.565 29.31-37.415 70.222-64.299 116.638-74.877 15.011-3.405 29.040-5.354 44.519-5.354 58.092 0.013 113.079 24.061 151.73 62.748 2.322-11.908 4.093-23.921 4.747-36.166 8.107-152.619-89.931-268.337-234.162-280.151zM826.239 415.907c-10.926 0-21.935 1.19-32.829 3.686-53.895 12.268-94.176 53.588-110.108 105.173-28.937-31.861-69.255-50.989-111.882-50.989-10.522 0-21.202 1.166-31.886 3.615-81.978 18.659-126.26 110.891-111.191 199.084 32.269 188.89 415.356 225.955 415.356 225.955s-32.946-31.7 18.881-112.964c57.556-90.247 132.164-122.063 114.062-245.899-11.209-76.777-79.108-127.661-150.403-127.661z" p-id="2673"></path></svg>