<?xml version="1.0" standalone="no"?><!DOCTYPE svg PUBLIC "-//W3C//DTD SVG 1.1//EN" "http://www.w3.org/Graphics/SVG/1.1/DTD/svg11.dtd"><svg t="1571628600077" class="icon" viewBox="0 0 1030 1024" version="1.1" xmlns="http://www.w3.org/2000/svg" p-id="1787" xmlns:xlink="http://www.w3.org/1999/xlink" width="48.28125" height="48"><defs><style type="text/css"></style></defs><path d="M609.792 261.632H224.768c-14.336 0-25.6-11.264-25.6-25.6s11.264-25.6 25.6-25.6h385.024c14.336 0 25.6 11.264 25.6 25.6s-11.264 25.6-25.6 25.6zM609.792 439.296H224.768c-14.336 0-25.6-11.264-25.6-25.6s11.264-25.6 25.6-25.6h385.024c14.336 0 25.6 11.264 25.6 25.6s-11.264 25.6-25.6 25.6zM715.776 945.152h-181.76c-14.336 0-25.6-11.264-25.6-25.6v-349.184c0-14.336 11.264-25.6 25.6-25.6h363.52c14.336 0 25.6 11.264 25.6 25.6V691.2c0 14.336-11.264 25.6-25.6 25.6s-25.6-11.264-25.6-25.6v-95.232h-312.32v297.984h156.16c14.336 0 25.6 11.264 25.6 25.6s-11.264 25.6-25.6 25.6z" p-id="1788"></path><path d="M822.272 902.144c-50.176 0-91.136-40.96-91.136-91.136s40.96-91.136 91.136-91.136 91.136 40.96 91.136 91.136-40.96 91.136-91.136 91.136z m0-131.072c-22.016 0-39.936 17.92-39.936 39.936s17.92 39.936 39.936 39.936 39.936-17.92 39.936-39.936-17.92-39.936-39.936-39.936z" p-id="1789"></path><path d="M921.6 942.08c-7.168 0-13.824-3.072-18.944-8.704L849.92 874.496c-9.216-10.752-8.704-26.624 2.048-36.352 10.752-9.216 26.624-8.704 36.352 2.048l52.736 58.88c9.216 10.752 8.704 26.624-2.048 36.352-5.12 4.608-11.264 6.656-17.408 6.656zM781.824 701.952h-138.24c-14.336 0-25.6-11.264-25.6-25.6s11.264-25.6 25.6-25.6h138.24c14.336 0 25.6 11.264 25.6 25.6s-11.264 25.6-25.6 25.6zM322.56 1005.056H43.52c-14.336 0-25.6-11.264-25.6-25.6V35.84c0-14.336 11.264-25.6 25.6-25.6h733.696c14.336 0 25.6 11.264 25.6 25.6v276.992c0 14.336-11.264 25.6-25.6 25.6s-25.6-11.264-25.6-25.6V61.44H69.12v892.416H322.56c14.336 0 25.6 11.264 25.6 25.6s-11.264 25.6-25.6 25.6z" p-id="1790"></path></svg>