<?xml version="1.0" standalone="no"?><!DOCTYPE svg PUBLIC "-//W3C//DTD SVG 1.1//EN" "http://www.w3.org/Graphics/SVG/1.1/DTD/svg11.dtd"><svg t="1605765412248" class="icon" viewBox="0 0 1133 1024" version="1.1" xmlns="http://www.w3.org/2000/svg" p-id="3773" xmlns:xlink="http://www.w3.org/1999/xlink" width="221.2890625" height="200"><defs><style type="text/css"></style></defs><path d="M915.154285 53.410701C893.470426 20.887475 856.967814 1.350003 817.876243 1.350003L317.308109 1.350003C278.220371 1.350003 241.7152 20.887475 220.033901 53.410701L7.067251 372.863872C4.171296 373.535418 4.457818 376.774182 4.457818 376.774182 175.820672 603.436506 344.219782 766.086035 512.622726 992.744525 525.122406 1009.567674 543.984499 1017.995885 562.850426 1017.995885 581.529606 1017.995885 600.207501 1009.739078 612.734048 993.190938 784.429478 766.38791 956.127469 603.584883 1127.822899 376.774182 1129.83881 374.108467 1130.31337 373.48553 1130.78281 372.863872 1129.896371 372.863872 915.154285 53.410701 915.154285 53.410701ZM567.593453 63.921338C585.026752 63.921338 601.544192 73.716934 611.772141 90.126931L767.709933 340.275405 367.478253 340.275411 523.412205 90.126931C533.642714 73.716934 550.160154 63.921338 567.593453 63.921338L567.593453 63.921338ZM272.094605 88.118688C282.195917 72.96864 299.098374 63.921338 317.308109 63.921338L466.020083 63.921338 293.743923 340.275411 103.993536 340.275411 272.094605 88.118688 272.094605 88.118688ZM104.73799 402.846746 254.740608 402.846746 297.319098 402.846746 502.371923 885.757779 316.334426 660.54528 104.73799 402.846746ZM364.128205 402.846746 764.596525 402.846746 564.362362 890.620282 364.128205 402.846746ZM631.328173 885.282778 831.406906 402.846746 880.446298 402.846746 1029.605971 402.846746 655.681581 853.111309 631.328173 885.282778ZM841.442982 340.275411 669.168109 63.921338 817.876243 63.921338C836.084698 63.921338 852.988435 72.96864 863.089747 88.118688L1031.19465 340.276685 841.442982 340.276685 841.442982 340.275411Z" p-id="3774"></path></svg>