<?xml version="1.0" standalone="no"?><!DOCTYPE svg PUBLIC "-//W3C//DTD SVG 1.1//EN" "http://www.w3.org/Graphics/SVG/1.1/DTD/svg11.dtd"><svg t="1583217749121" class="icon" viewBox="0 0 1064 1024" version="1.1" xmlns="http://www.w3.org/2000/svg" p-id="4197" xmlns:xlink="http://www.w3.org/1999/xlink" width="207.8125" height="200"><defs><style type="text/css"></style></defs><path d="M551.131005 840.54001a145.356762 145.356762 0 0 0 248.376602-102.455349 42.336921 42.336921 0 0 0-84.673841 0 60.68292 60.68292 0 1 1-121.36584 0 42.336921 42.336921 0 0 0-84.673842 0 60.68292 60.68292 0 0 1-121.36584 0 42.336921 42.336921 0 0 0-84.673841 0 145.356762 145.356762 0 0 0 248.376602 102.455349zM1062.561009 493.377259a91.165503 91.165503 0 0 0-6.209415-38.949968L900.551725 61.822912a104.995564 104.995564 0 0 0-181.766513-16.934768l-43.18366 64.634366a19.192737 19.192737 0 0 1-16.08803 6.773907h-256.279494a19.474984 19.474984 0 0 1-15.805784-7.056154L344.526831 44.605898A104.431071 104.431071 0 0 0 257.877266 0.011008a102.455348 102.455348 0 0 0-95.681441 62.09415L6.960449 453.862799A84.673842 84.673842 0 0 0 0.186542 493.095012a43.748152 43.748152 0 0 0 0 6.209416A158.340084 158.340084 0 0 0 164.736041 649.177127a171.605653 171.605653 0 0 0 122.212578-49.67532 175.274852 175.274852 0 0 0 244.425156 0 175.274852 175.274852 0 0 0 244.425157 0A171.605653 171.605653 0 0 0 898.01151 649.177127a158.340084 158.340084 0 0 0 164.549499-151.001684z m-84.673842 4.515938v1.411231A73.948488 73.948488 0 0 1 898.01151 564.503286a81.569134 81.569134 0 0 1-74.795227-43.465906 51.368797 51.368797 0 0 1-5.080431-22.861937 42.336921 42.336921 0 0 0-84.673841 0 53.626766 53.626766 0 0 1-5.080431 23.42643 86.367319 86.367319 0 0 1-149.590453 0 51.368797 51.368797 0 0 1-5.080431-22.861938 42.336921 42.336921 0 0 0-84.673842 0 53.626766 53.626766 0 0 1-5.08043 23.42643 81.85138 81.85138 0 0 1-74.795227 42.336921 81.569134 81.569134 0 0 1-74.795227-43.465906 50.522059 50.522059 0 0 1-5.08043-22.861937 42.336921 42.336921 0 0 0-84.673842 0 53.626766 53.626766 0 0 1-5.080431 23.42643A81.569134 81.569134 0 0 1 164.736041 564.503286 74.230735 74.230735 0 0 1 84.860383 498.739935a39.796706 39.796706 0 0 0 0-5.927169v-7.056153l155.235377-392.322133A18.628245 18.628245 0 0 1 257.877266 84.684849a20.039476 20.039476 0 0 1 16.370277 7.3384l42.619167 63.787627a101.890856 101.890856 0 0 0 86.367318 45.159383h256.279494a102.173102 102.173102 0 0 0 86.649565-44.877137L790.475731 91.741003a18.910491 18.910491 0 0 1 14.676799-7.056154 18.628245 18.628245 0 0 1 16.934768 8.749631l155.799869 395.144594a30.764829 30.764829 0 0 0 0 5.080431 24.273168 24.273168 0 0 0 0 4.233692z" p-id="4198"></path><path d="M903.374186 666.958634a42.336921 42.336921 0 0 0-42.33692 42.336921v216.200542a38.385475 38.385475 0 0 1-32.458306 12.418831H233.604099a41.772429 41.772429 0 0 1-32.458306-11.572092v-224.385681a42.336921 42.336921 0 0 0-84.673842 0v225.796912c0 53.909013 51.651043 96.245933 117.132148 96.245933h595.539353c65.76335 0 117.132148-42.336921 117.132148-96.245933v-218.458512a42.336921 42.336921 0 0 0-42.901414-42.336921z" p-id="4199"></path></svg>