<?xml version="1.0" standalone="no"?><!DOCTYPE svg PUBLIC "-//W3C//DTD SVG 1.1//EN" "http://www.w3.org/Graphics/SVG/1.1/DTD/svg11.dtd"><svg t="1560914276741" class="icon" style="" viewBox="0 0 1024 1024" version="1.1" xmlns="http://www.w3.org/2000/svg" p-id="23702" xmlns:xlink="http://www.w3.org/1999/xlink" width="200" height="200"><defs><style type="text/css"></style></defs><path d="M898.771369 278.150998L869.105722 288.181445 923.482167 448.862008 457.020316 915.336138 108.440269 566.758138 574.901097 100.281961 748.578672 159.061692 758.610142 129.397069 566.521243 64.37824 64.156694 566.758138 457.020316 959.62176 959.384865 457.272561ZM668.056754 254.494205c-27.052123 0-52.464909 10.535961-71.593572 29.650297-39.466873 39.46585-39.466873 103.675244 0 143.141094 19.128663 19.129686 44.541449 29.650297 71.576175 29.650297s52.449559-10.520611 71.579245-29.650297c19.114336-19.113313 29.649274-44.543496 29.649274-71.578222 0-21.744233-6.91141-42.35669-19.510356-59.573817L950.088128 95.832625c6.118348-6.100952 6.118348-16.024975 0-22.141276-6.116301-6.116301-16.025998-6.116301-22.1423 0L727.615221 273.991258C710.41242 261.391289 689.785637 254.494205 668.056754 254.494205zM717.47835 405.14432c-13.211906 13.211906-30.765701 20.475334-49.438992 20.475334-18.670222 0-36.222993-7.263427-49.435922-20.475334-27.250644-27.26497-27.250644-71.608921 0-98.858542 13.211906-13.211906 30.764678-20.47431 49.452295-20.47431 18.670222 0 36.224016 7.263427 49.421596 20.458961 13.195533 13.196557 20.47431 30.751375 20.47431 49.436946S730.67286 391.947763 717.47835 405.14432z" p-id="23703"></path></svg>