<?xml version="1.0" standalone="no"?><!DOCTYPE svg PUBLIC "-//W3C//DTD SVG 1.1//EN" "http://www.w3.org/Graphics/SVG/1.1/DTD/svg11.dtd"><svg t="1602209651716" class="icon" viewBox="0 0 1024 1024" version="1.1" xmlns="http://www.w3.org/2000/svg" p-id="3335" xmlns:xlink="http://www.w3.org/1999/xlink" width="200" height="200"><defs><style type="text/css"></style></defs><path d="M853.357714 981.357714H170.642286a42.788571 42.788571 0 0 1-42.642286-42.715428V85.357714c0-23.478857 19.236571-42.715429 42.642286-42.715428h682.715428c23.405714 0 42.642286 19.236571 42.642286 42.715428v853.284572c0 23.478857-19.163429 42.715429-42.642286 42.715428zM234.642286 896h554.715428c12.8 0 21.284571-8.557714 21.284572-21.357714V149.357714c0-12.8-8.484571-21.357714-21.284572-21.357714H234.642286c-12.8 0-21.284571 8.557714-21.284572 21.357714v725.284572c0 12.8 8.484571 21.357714 21.284572 21.357714z" p-id="3336"></path><path d="M369.078857 249.636571h283.721143c23.405714 0 42.642286 19.163429 42.642286 42.642286 0 23.405714-19.163429 42.642286-42.642286 42.642286h-283.794286a42.788571 42.788571 0 0 1-42.569143-42.642286c0-23.478857 19.163429-42.642286 42.642286-42.642286z m0 189.805715h283.721143c23.405714 0 42.642286 19.236571 42.642286 42.715428 0 23.405714-19.163429 42.642286-42.642286 42.642286h-283.794286a42.788571 42.788571 0 0 1-42.569143-42.642286c0-23.478857 19.163429-42.715429 42.642286-42.715428z m0 185.636571h283.721143c23.405714 0 42.642286 19.163429 42.642286 42.642286 0 23.478857-19.163429 42.715429-42.642286 42.715428h-283.794286a42.788571 42.788571 0 0 1-42.569143-42.715428c0-23.405714 19.163429-42.642286 42.642286-42.642286z" p-id="3337"></path></svg>