<?xml version="1.0" standalone="no"?><!DOCTYPE svg PUBLIC "-//W3C//DTD SVG 1.1//EN" "http://www.w3.org/Graphics/SVG/1.1/DTD/svg11.dtd"><svg t="1612403393902" class="icon" viewBox="0 0 1024 1024" version="1.1" xmlns="http://www.w3.org/2000/svg" p-id="1768" xmlns:xlink="http://www.w3.org/1999/xlink" width="200" height="200"><defs><style type="text/css"></style></defs><path d="M135.944 408.439h752.111v37.746H135.944z" fill="" p-id="1769"></path><path d="M510.839 832.34L117.311 438.822c-7.372-7.372-7.372-19.315 0-26.687s19.315-7.372 26.687 0l366.84 366.831 369.163-369.163c7.372-7.372 19.315-7.372 26.687 0s7.372 19.315 0 26.687L510.839 832.34z" fill="" p-id="1770"></path><path d="M492.915 811.569l-124.94-378.341 35.847-11.832 124.941 378.341z" fill="" p-id="1771"></path><path d="M528.763 811.569l-35.848-11.832 124.94-378.341 35.848 11.832z" fill="" p-id="1772"></path><path d="M891.834 439.679a18.836 18.836 0 0 1-14.016-6.22L693.522 229.405H330.478L146.183 433.458c-6.976 7.732-18.919 8.34-26.66 1.355-7.732-6.985-8.34-18.919-1.355-26.66L313.706 191.66h396.587l195.538 216.494c6.985 7.741 6.377 19.675-1.355 26.66a18.802 18.802 0 0 1-12.642 4.865z" fill="" p-id="1773"></path><path d="M367.201 430.427L303.8 220.153l36.142-10.892 63.401 210.273z" fill="" p-id="1774"></path><path d="M400.91 435.808l-32.419-19.315 126.7-212.614 32.42 19.315z" fill="" p-id="1775"></path><path d="M617.164 435.808l-126.7-212.614 32.419-19.315 126.701 212.614z" fill="" p-id="1776"></path><path d="M651.445 430.427l-36.142-10.893 63.392-210.273 36.142 10.892z" fill="" p-id="1777"></path></svg>