<?xml version="1.0" standalone="no"?><!DOCTYPE svg PUBLIC "-//W3C//DTD SVG 1.1//EN" "http://www.w3.org/Graphics/SVG/1.1/DTD/svg11.dtd"><svg t="1604995875939" class="icon" viewBox="0 0 1024 1024" version="1.1" xmlns="http://www.w3.org/2000/svg" p-id="2859" xmlns:xlink="http://www.w3.org/1999/xlink" width="200" height="200"><defs><style type="text/css"></style></defs><path d="M856.064256 634.2144h-137.3696a149.7088 149.7088 0 0 1-22.1184-18.7904 85.0432 85.0432 0 0 1-29.184-62.8736v-6.4a119.0912 119.0912 0 0 1 15.6672-35.0208q6.3488-10.8032 13.4144-21.2992c10.24-15.36 21.2992-30.72 32.7168-45.0048a266.24 266.24 0 0 0 62.0544-171.008A277.3504 277.3504 0 0 0 522.803456 0.2048h-20.48a278.1184 278.1184 0 0 0-269.824 273.6128A269.312 269.312 0 0 0 295.117056 445.44l2.048 2.6112q16.4864 20.9408 31.3856 43.1616a181.248 181.248 0 0 1 27.9552 54.4768v6.5024a84.7872 84.7872 0 0 1-27.6992 61.7984l-1.5872 1.5872a142.2336 142.2336 0 0 1-21.9648 18.5344H168.243456c-91.4432 0-132.1984 35.84-132.1984 116.0704v178.7904A94.7712 94.7712 0 0 0 130.713856 1024l762.88-1.5872a94.72 94.72 0 0 0 94.464-94.6688v-177.3568c-0.1536-80.3328-40.6528-116.2752-131.9936-116.1728zM106.086656 929.2288v-178.688c0-21.6576 2.7648-31.8464 10.24-37.6832a90.624 90.624 0 0 1 51.968-8.704h158.0032l8.448-5.4784a238.5408 238.5408 0 0 0 42.9056-34.3552 153.9072 153.9072 0 0 0 48.9984-115.968 177.4592 177.4592 0 0 0-39.4752-96.0512q-18.0736-27.1872-38.6048-52.6848a198.6048 198.6048 0 0 1-45.6704-126.2592 207.3088 207.3088 0 0 1 201.3696-203.52h16.9472a206.4896 206.4896 0 0 1 199.9872 203.4176 197.376 197.376 0 0 1-46.08 126.5152c-13.056 16.384-25.6 33.4336-37.0688 50.8416a446.3616 446.3616 0 0 0-15.36 24.9344 139.9808 139.9808 0 0 0-25.1904 72.8064 154.0608 154.0608 0 0 0 48.896 115.8656 239.7696 239.7696 0 0 0 42.9056 34.56l8.704 5.4784h158.72c56.32 0 61.44 8.1408 61.44 46.08v177.2032a24.4224 24.4224 0 0 1-7.2192 17.408 24.6784 24.6784 0 0 1-17.408 7.2192l-762.88 1.5872a24.2176 24.2176 0 0 1-17.408-7.2192 25.1904 25.1904 0 0 1-7.1168-17.408z m0 0" p-id="2860"></path><path d="M319.078656 793.9072h386.6624v73.6768H319.078656z" p-id="2861"></path></svg>