<?xml version="1.0" standalone="no"?><!DOCTYPE svg PUBLIC "-//W3C//DTD SVG 1.1//EN" "http://www.w3.org/Graphics/SVG/1.1/DTD/svg11.dtd"><svg t="1536119989228" class="icon" style="" viewBox="0 0 1024 1024" version="1.1" xmlns="http://www.w3.org/2000/svg" p-id="8485" xmlns:xlink="http://www.w3.org/1999/xlink" width="200" height="200"><defs><style type="text/css"></style></defs><path d="M916 572l-576 0c-35.2 0-64-28.8-64-64 0-35.2 28.8-64 64-64l576 0c35.2 0 64 28.8 64 64C980 543.2 951.2 572 916 572zM916 244l-576 0c-35.2 0-64-28.8-64-64s28.8-64 64-64l576 0c35.2 0 64 28.8 64 64S951.2 244 916 244zM116 900c-35.2 0-64-28.8-64-64 0-35.2 28.8-64 64-64 35.2 0 64 28.8 64 64C180 871.2 151.2 900 116 900zM116 572c-35.2 0-64-28.8-64-64 0-35.2 28.8-64 64-64 35.2 0 64 28.8 64 64C180 543.2 151.2 572 116 572zM116 244c-35.2 0-64-28.8-64-64s28.8-64 64-64c35.2 0 64 28.8 64 64S151.2 244 116 244zM340 772l576 0c35.2 0 64 28.8 64 64 0 35.2-28.8 64-64 64l-576 0c-35.2 0-64-28.8-64-64C276 800.8 304.8 772 340 772z" p-id="8486"></path></svg>