<?xml version="1.0" standalone="no"?><!DOCTYPE svg PUBLIC "-//W3C//DTD SVG 1.1//EN" "http://www.w3.org/Graphics/SVG/1.1/DTD/svg11.dtd"><svg t="1565090516617" class="icon" viewBox="0 0 1024 1024" version="1.1" xmlns="http://www.w3.org/2000/svg" p-id="1968" xmlns:xlink="http://www.w3.org/1999/xlink" width="200" height="200"><defs><style type="text/css"></style></defs><path d="M970.226441 518.395523c19.544719-42.67093 29.368242-88.309383 29.368242-135.58509 0-87.2861-33.973019-169.251124-95.677026-230.955131C842.315979 90.253622 760.248626 56.280604 672.962526 56.280604c-108.570401 0-209.773159 53.722394-270.658539 143.77136-3.683821 5.423404-5.01409 12.074748-3.78615 18.521435 0.102328 0.306985 0.204657 0.61397 0.204657 1.023284-0.306985 0-0.61397 0-1.023284 0-89.12801 0-172.934946 34.689317-235.969222 97.723593-63.034276 63.034276-97.723593 146.841211-97.723593 235.969222 0 119.007894 63.341261 228.703907 165.874288 288.463675-0.306985 1.534926-0.716299 3.376836-1.330269 5.525732-2.558209 9.618867-6.958329 21.693614-11.153792 33.563705-13.609673 37.759169-20.874988 59.964425-11.358449 77.769561 4.195463 7.981613 11.358449 13.507345 20.056361 15.758569 2.762866 0.716299 5.62806 1.023284 8.697911 1.023284 20.363346 0 47.275707-16.167882 99.667833-50.345558 16.372539-10.64215 54.438693-35.507944 64.159888-38.066154 28.958929-0.102328 57.713201-3.888478 85.444189-11.256121 13.20036-3.479165 21.079644-17.088838 17.498151-30.289198-2.865194-10.846807-12.688718-18.316778-23.84251-18.316778-2.148896 0-4.297792 0.306985-6.344359 0.818627-23.84251 6.344359-48.605976 9.618867-73.47177 9.618867-18.930748 0-44.001199 15.758569-90.355951 46.047767-17.088838 11.153792-34.791646 22.716898-49.526931 31.107825 1.944239-5.525732 3.990806-11.460777 6.037374-17.191166 5.423404-14.939942 10.949136-30.391526 13.916658-43.694214 0.920955-4.40012 2.762866-12.484061 2.148896-21.386629-0.920955-13.20036-7.060658-23.535525-17.395823-29.163585-91.993205-49.833916-149.092435-145.715599-149.092435-250.192865 0-75.927651 29.572899-147.352853 83.295293-201.075247 53.722394-53.722394 125.045268-83.295293 201.075247-83.295293s147.352853 29.572899 201.075247 83.295293c53.722394 53.722394 83.295293 125.045268 83.295293 201.075247 0 86.876786-38.987109 167.818527-106.933147 222.154892-10.64215 8.493255-12.381733 24.149495-3.888478 34.791646 4.707105 5.935045 11.767763 9.311882 19.340062 9.311882 5.62806 0 11.051464-1.944239 15.451584-5.423404 79.7138-63.750575 125.454582-158.81363 125.454582-260.835015 0-89.12801-34.689317-172.934946-97.723593-235.969222-51.368842-51.368842-116.552014-83.909264-187.260917-94.244429 51.982812-73.574098 136.199061-117.370641 226.452683-117.370641 73.983412 0 143.669032 28.8566 195.958829 81.146398 52.392126 52.392126 81.146398 121.975417 81.146398 195.958829 0 40.112721-8.390926 78.792845-24.968122 115.017088-15.963226 34.996303-38.680124 65.797142-67.434396 91.583891-15.349256 13.712002-10.744479 35.200959-9.209553 42.261617 2.967523 13.916658 9.41421 30.289198 16.884181 49.219946 2.762866 6.958329 5.525732 14.121315 7.981613 20.670331-10.437494-5.525732-22.409913-12.484061-33.973019-19.237734-38.168482-22.205256-60.680723-34.791646-78.895173-34.791646-3.376836 0-6.651344 0.409313-9.721195 1.330269-6.344359 1.841911-11.563106 6.037374-14.735285 11.870091-3.172179 5.832717-3.888478 12.484061-2.046567 18.82842 3.069851 10.437494 12.791046 17.805136 23.740182 17.805136 1.023284 0 2.046567-0.102328 3.069851-0.204657 1.841911 0.511642 6.242031 1.944239 14.837614 6.242031 11.256121 5.62806 25.275107 13.81433 38.884781 21.693614 38.475467 22.409913 63.034276 36.121915 82.374338 36.121915 0 0 0 0 0 0 6.139702 0 11.767763-1.432597 16.679524-4.093135 14.018987-7.776956 19.033077-22.409913 15.04227-43.387229-2.762866-14.530629-9.41421-31.517138-17.088838-51.061857-4.707105-11.870091-9.516538-24.251824-12.484061-34.075347-1.023284-3.479165-1.739582-6.037374-2.046567-7.981613C927.862496 591.560308 952.523633 557.177975 970.226441 518.395523zM239.908864 495.269311l320.083142 0c12.177076 0 22.102928-9.925852 22.102928-22.102928s-9.925852-22.102928-22.102928-22.102928L239.908864 451.063456c-12.177076 0-22.102928 9.925852-22.102928 22.102928C217.805936 485.34346 227.731788 495.269311 239.908864 495.269311zM239.908864 583.27171l320.083142 0c12.177076 0 22.102928-9.925852 22.102928-22.102928s-9.925852-22.102928-22.102928-22.102928L239.908864 539.065854c-12.177076 0-22.102928 9.925852-22.102928 22.102928S227.731788 583.27171 239.908864 583.27171zM239.908864 671.274108l320.083142 0c12.177076 0 22.102928-9.925852 22.102928-22.102928s-9.925852-22.102928-22.102928-22.102928L239.908864 627.068252c-12.177076 0-22.102928 9.925852-22.102928 22.102928S227.731788 671.274108 239.908864 671.274108z" p-id="1969"></path></svg>