<?xml version="1.0" standalone="no"?><!DOCTYPE svg PUBLIC "-//W3C//DTD SVG 1.1//EN" "http://www.w3.org/Graphics/SVG/1.1/DTD/svg11.dtd"><svg t="1579245038490" class="icon" viewBox="0 0 1024 1024" version="1.1" xmlns="http://www.w3.org/2000/svg" p-id="3615" xmlns:xlink="http://www.w3.org/1999/xlink" width="200" height="200"><defs><style type="text/css"></style></defs><path d="M852.5312 485.6832a330.5984 330.5984 0 0 0-332.4416-331.52 330.5984 330.5984 0 0 0-332.4416 331.52c0 144.2816 92.416 267.0592 221.6448 313.088-70.7584 24.5248-116.992 70.656-116.992 122.8288h446.3104c0-52.224-43.0592-98.304-110.7456-122.8288 132.4032-45.9776 224.6656-168.7552 224.6656-313.088z m-326.2464 233.3184c-95.488 0-175.5136-79.872-175.5136-175.0016s80.0256-174.9504 175.5136-174.9504a175.1552 175.1552 0 0 1 175.5136 174.9504 175.2064 175.2064 0 0 1-175.5136 175.0016z" p-id="3616"></path><path d="M520.0896 467.3024c-46.1824 0-86.1184 39.936-86.1184 85.9136 0 49.1008 39.936 85.9136 86.1184 85.9136a85.9136 85.9136 0 0 0 0-171.8272z" p-id="3617"></path></svg>