<?xml version="1.0" standalone="no"?><!DOCTYPE svg PUBLIC "-//W3C//DTD SVG 1.1//EN" "http://www.w3.org/Graphics/SVG/1.1/DTD/svg11.dtd"><svg t="1564137402836" class="icon" viewBox="0 0 1024 1024" version="1.1" xmlns="http://www.w3.org/2000/svg" p-id="10691" xmlns:xlink="http://www.w3.org/1999/xlink" width="48" height="48"><defs><style type="text/css"></style></defs><path d="M683.2 404.8H341.6c-4.8 0-8.8-1.6-12-4.8-3.2-3.2-4.8-7.2-4-12L342.4 120c0.8-8.8 7.2-15.2 16-15.2h72c8.8 0 16 7.2 16 16s-7.2 16-16 16h-56.8l-15.2 236h307.2l-15.2-236h-52.8c-8.8 0-16-7.2-16-16s7.2-16 16-16h68c8.8 0 15.2 6.4 16 15.2l16.8 268c0 4.8-1.6 8.8-4 12-3.2 3.2-7.2 4.8-11.2 4.8z" p-id="10692"></path><path d="M514.4 206.4c-56 0-100.8-45.6-100.8-100.8S458.4 4 514.4 4s100.8 45.6 100.8 100.8-44.8 101.6-100.8 101.6z m0-170.4c-38.4 0-68.8 31.2-68.8 68.8 0 38.4 31.2 68.8 68.8 68.8 38.4 0 68.8-31.2 68.8-68.8 0.8-37.6-30.4-68.8-68.8-68.8z" p-id="10693"></path><path d="M514.4 148c-23.2 0-42.4-19.2-42.4-42.4s19.2-42.4 42.4-42.4 42.4 19.2 42.4 42.4-19.2 42.4-42.4 42.4z m0-69.6c-14.4 0-26.4 12-26.4 26.4 0 14.4 12 26.4 26.4 26.4 14.4 0 26.4-12 26.4-26.4 0-14.4-12-26.4-26.4-26.4zM480 1020H243.2c-8.8 0-16-7.2-16-16v-92.8c0-8.8 7.2-16 16-16h53.6v-59.2c0-8.8 7.2-16 16-16h146.4c8.8 0 16 7.2 16 16v59.2h4.8c8.8 0 16 7.2 16 16v92.8c0 8.8-7.2 16-16 16z m-220.8-32H464v-60.8h-4.8c-8.8 0-16-7.2-16-16v-59.2H328.8v59.2c0 8.8-7.2 16-16 16h-53.6v60.8zM780.8 1020H544c-8.8 0-16-7.2-16-16v-92.8c0-8.8 7.2-16 16-16h4.8v-59.2c0-8.8 7.2-16 16-16h146.4c8.8 0 16 7.2 16 16v59.2h53.6c8.8 0 16 7.2 16 16v92.8c0 8.8-7.2 16-16 16z m-220.8-32h204.8v-60.8h-53.6c-8.8 0-16-7.2-16-16v-59.2H580v59.2c0 8.8-7.2 16-16 16H560v60.8z" p-id="10694"></path><path d="M871.2 840c-25.6 0-46.4-20.8-46.4-46.4V556h-27.2v23.2c0 8.8-7.2 16-16 16h-44v128.8c0 8.8-7.2 16-16 16H303.2c-8.8 0-16-7.2-16-16V595.2h-44.8c-8.8 0-16-7.2-16-16v-23.2h-27.2v237.6c0 25.6-20.8 46.4-46.4 46.4-25.6 0-46.4-20.8-46.4-46.4V456.8c0-8.8 7.2-16 16-16h104.8v-23.2c0-8.8 7.2-16 16-16H288v-12.8c0-8.8 7.2-16 16-16h418.4c8.8 0 16 7.2 16 16v12.8h44c8.8 0 16 7.2 16 16v23.2h104.8c8.8 0 16 7.2 16 16v336.8c-0.8 25.6-21.6 46.4-48 46.4zM781.6 524h59.2c8.8 0 16 7.2 16 16v253.6c0 8 6.4 14.4 14.4 14.4s14.4-6.4 14.4-14.4V472.8h-104c-8.8 0-16-7.2-16-16v-23.2h-44c-8.8 0-16-7.2-16-16v-12.8H319.2v12.8c0 8.8-7.2 16-16 16h-44.8v23.2c0 8.8-7.2 16-16 16H137.6v320.8c0 8 6.4 14.4 14.4 14.4s14.4-6.4 14.4-14.4V540c0-8.8 7.2-16 16-16h59.2c8.8 0 16 7.2 16 16v23.2h44.8c8.8 0 16 7.2 16 16v128.8h386.4V579.2c0-8.8 7.2-16 16-16h44v-23.2c0.8-8.8 8-16 16.8-16z" p-id="10695"></path><path d="M633.6 548H390.4c-4.8 0-8-3.2-8-8v-80c0-4.8 3.2-8 8-8h243.2c4.8 0 8 3.2 8 8v80c0 4.8-3.2 8-8 8z m-235.2-16h227.2v-64H398.4v64zM418.4 643.2h-25.6c-4.8 0-8-3.2-8-8s3.2-8 8-8h25.6c4.8 0 8 3.2 8 8 0 4-3.2 8-8 8zM524.8 643.2h-25.6c-4.8 0-8-3.2-8-8s3.2-8 8-8h25.6c4.8 0 8 3.2 8 8 0 4-3.2 8-8 8zM631.2 643.2h-25.6c-4.8 0-8-3.2-8-8s3.2-8 8-8h25.6c4.8 0 8 3.2 8 8 0 4-3.2 8-8 8zM753.6 852.8H269.6c-8.8 0-16-7.2-16-16V724c0-8.8 7.2-16 16-16h484c8.8 0 16 7.2 16 16v112.8c0 8.8-7.2 16-16 16z m-468-32h452V740H285.6v80.8zM588 264.8h-152c-4.8 0-8-3.2-8-8s3.2-8 8-8h152c4.8 0 8 3.2 8 8s-3.2 8-8 8zM588 330.4h-152c-4.8 0-8-3.2-8-8s3.2-8 8-8h152c4.8 0 8 3.2 8 8s-3.2 8-8 8z" p-id="10696"></path></svg>