<?xml version="1.0" standalone="no"?><!DOCTYPE svg PUBLIC "-//W3C//DTD SVG 1.1//EN" "http://www.w3.org/Graphics/SVG/1.1/DTD/svg11.dtd"><svg t="1605856919649" class="icon" viewBox="0 0 1024 1024" version="1.1" xmlns="http://www.w3.org/2000/svg" p-id="2828" xmlns:xlink="http://www.w3.org/1999/xlink" width="200" height="200"><defs><style type="text/css"></style></defs><path d="M786.732 648c20.69 0 37.463-44.89 37.463-100.267 0-55.375-16.773-100.266-37.463-100.266s-37.464 44.89-37.464 100.266c0 55.376 16.773 100.267 37.464 100.267z m-324.683 50.133c20.69 0 37.463-39.28 37.463-87.733 0-48.454-16.773-87.733-37.463-87.733s-37.464 39.28-37.464 87.733c0 48.454 16.773 87.733 37.464 87.733zM0 572.8C0 822.814 229.934 1024 512 1024c282.066 0 512-201.186 512-451.2 0-250.014-229.934-451.2-512-451.2 3.65 0 4.947 0.583 4.866 0.524-2.13-1.563-4.564-3.695-11.076-9.651-18.115-16.569-29.45-25.87-46.978-37.08-53.864-34.447-124.516-54.06-221.544-54.06-13.793 0-24.975 11.223-24.975 25.067s11.182 25.067 24.975 25.067c87.745 0 149.068 17.022 194.701 46.206 12.11 7.745 62.749 54.06 80.031 54.06 255.886 0 462.049 180.387 462.049 401.067S767.886 973.867 512 973.867c-255.886 0-462.049-180.387-462.049-401.067 0-145.77 90.585-278.338 234.795-349.243 12.387-6.09 17.509-21.106 11.44-33.538-6.068-12.432-21.029-17.573-33.416-11.483C102.138 257.516 0 406.991 0 572.8z" p-id="2829"></path></svg>