<?xml version="1.0" standalone="no"?><!DOCTYPE svg PUBLIC "-//W3C//DTD SVG 1.1//EN" "http://www.w3.org/Graphics/SVG/1.1/DTD/svg11.dtd"><svg t="1579332519682" class="icon" viewBox="0 0 1024 1024" version="1.1" xmlns="http://www.w3.org/2000/svg" p-id="5263" xmlns:xlink="http://www.w3.org/1999/xlink" width="200" height="200"><defs><style type="text/css"></style></defs><path d="M96.869 695.417h329.828c-34.679-25.164-65.046-55.642-89.778-90.384H96.865c-23.183 0-41.973 18.413-41.973 41.276v7.66c0 22.857 18.788 41.449 41.973 41.449m739.708 11.06c-7.876-20.397-31.413-30.827-52.532-23.12l-9.908 3.61c-21.292 7.429-32.043 30.151-24.122 50.356l71.445 184.535c7.945 20.332 31.39 30.692 52.505 23.097l9.968-3.593c21.312-7.428 32.068-30.216 24.122-50.44l-71.494-184.452zM665.553 846.04l-568.683 0.043c-23.183 0-41.973 18.462-41.973 41.295v7.661c0 22.88 18.788 41.493 41.973 41.493h568.683c23.161 0 41.926-18.524 41.926-41.384v-7.751c0.043-22.836-18.744-41.366-41.926-41.366M355.533 430.03c5.073 30.52 14.808 60.89 29.824 89.911 16.391 31.607 37.859 59.064 62.612 82.16 33.46 31.306 73.081 54.682 115.945 68.53 75.608 24.537 160.573 20.397 236.919-18.047 151.798-76.672 211.948-260.343 134.449-410.27C869.083 114.74 724.617 53.05 589.343 84.768c-23.643 5.509-46.979 13.562-69.577 24.95-31.132 15.716-58.146 36.048-81.177 59.542-47.067 48-76.608 109.586-84.75 174.677-3.57 28.364-3.027 57.322 1.697 86.098m304.702-279.722c129.247 0 233.978 103.401 233.978 230.975 0 127.528-104.755 230.907-233.978 230.907-129.18 0-233.891-103.361-233.891-230.907 0.022-127.547 104.73-230.975 233.891-230.975M99.896 356.904c-24.864 0-44.974 19.94-44.974 44.388v8.359c0 24.512 20.137 44.321 44.974 44.321h172.393c-4.505-23.575-7.097-47.85-7.097-72.732 0-8.166 0.695-16.218 1.261-24.337H99.898z m-3.027-165.622h218.5c19.005-33.547 42.884-63.96 70.664-90.452H96.873c-23.183 0-41.973 18.414-41.973 41.276v7.708c0 22.88 18.788 41.468 41.973 41.468z" p-id="5264"></path></svg>