<?xml version="1.0" standalone="no"?><!DOCTYPE svg PUBLIC "-//W3C//DTD SVG 1.1//EN" "http://www.w3.org/Graphics/SVG/1.1/DTD/svg11.dtd"><svg t="1560913699233" class="icon" style="" viewBox="0 0 1024 1024" version="1.1" xmlns="http://www.w3.org/2000/svg" p-id="18032" xmlns:xlink="http://www.w3.org/1999/xlink" width="200" height="200"><defs><style type="text/css"></style></defs><path d="M828.8 326.4L608 502.4l-230.4-156.8c-12.8-6.4-25.6-6.4-38.4 3.2l-185.6 166.4c-9.6 6.4-12.8 19.2-12.8 28.8 3.2 9.6 9.6 19.2 22.4 22.4 9.6 3.2 22.4 0 28.8-9.6l166.4-150.4 230.4 156.8c9.6 6.4 25.6 6.4 35.2 0l236.8-192c9.6-6.4 12.8-16 12.8-28.8 0-9.6-9.6-19.2-19.2-25.6-6.4 0-16 0-25.6 9.6z m0 0" p-id="18033"></path><path d="M956.8 83.2h-416V38.4c0-9.6-3.2-16-9.6-22.4-6.4-6.4-12.8-9.6-22.4-9.6-16 0-28.8 12.8-28.8 28.8v44.8H67.2c-16 3.2-35.2 12.8-48 25.6-12.8 12.8-19.2 28.8-19.2 48v563.2c0 38.4 32 67.2 67.2 67.2H480v35.2L294.4 960c-9.6 6.4-16 16-12.8 28.8 0 12.8 9.6 22.4 19.2 25.6 9.6 3.2 22.4 3.2 32-6.4l150.4-115.2 19.2-12.8c6.4-6.4 16-6.4 22.4 0l19.2 12.8 150.4 115.2c6.4 6.4 12.8 6.4 22.4 6.4 6.4 0 16-6.4 19.2-12.8 9.6-12.8 6.4-32-6.4-41.6L544 819.2v-35.2h412.8c19.2 0 35.2-6.4 48-19.2 12.8-12.8 19.2-28.8 19.2-48V153.6c0-19.2-6.4-35.2-19.2-48-12.8-12.8-32-22.4-48-22.4z m6.4 630.4c0 3.2-3.2 9.6-9.6 9.6H67.2c-3.2 0-6.4-3.2-6.4-9.6V153.6c0-3.2 3.2-6.4 9.6-6.4h886.4c3.2 0 9.6 3.2 9.6 9.6v556.8z m0 0" p-id="18034"></path></svg>