<?xml version="1.0" standalone="no"?><!DOCTYPE svg PUBLIC "-//W3C//DTD SVG 1.1//EN" "http://www.w3.org/Graphics/SVG/1.1/DTD/svg11.dtd"><svg t="1560914149187" class="icon" style="" viewBox="0 0 1024 1024" version="1.1" xmlns="http://www.w3.org/2000/svg" p-id="21586" xmlns:xlink="http://www.w3.org/1999/xlink" width="200" height="200"><defs><style type="text/css"></style></defs><path d="M493.7216 0h36.0448c109.8752 4.4032 218.2144 44.3392 303.4112 114.176 115.5072 92.3136 187.1872 236.3904 190.8224 384.3072v35.5328c-6.0928 121.8048-56.0128 240.896-140.3904 329.1136-88.9856 95.3344-215.1936 152.9344-345.1392 160.8704h-44.3392c-125.696-4.7616-248.7808-57.2928-338.5344-145.5104C60.5184 786.944 3.4304 657.664 0 525.6704v-30.7712C4.0448 409.344 28.3136 324.608 72.0896 250.88c4.5056-9.472 20.7872-8.6528 22.6816 2.304 3.1232 7.2704-2.304 13.824-5.376 19.9168-61.696 104.6016-78.4896 233.472-50.688 351.232 23.6544 101.376 81.3568 194.2528 161.3824 260.8128 83.6096 70.5024 191.8464 111.0528 301.2608 113.0496 104.3456 2.6112 209.152-29.5936 293.8368-90.6752 95.9488-68.352 165.5808-172.6976 191.1296-287.744 25.1392-110.3872 10.496-229.4272-41.5744-330.0352-52.224-102.144-141.824-184.576-248.064-227.84C595.0464 20.0192 479.0272 14.1824 373.76 45.824c-81.0496 23.552-154.368 70.1952-212.7872 130.7136-9.0112 11.3152-27.8016-3.84-19.456-14.9504C230.7072 63.0784 361.216 4.8128 493.7216 0z" p-id="21587"></path><path d="M386.6624 281.8048c-1.9968-16.2816 20.736-23.7568 31.3344-13.2096 8.6528 8.0384 6.656 20.736 7.424 31.3856 124.6208 63.2832 248.7808 127.488 373.0944 191.4368-123.4432 42.4448-247.296 83.712-370.8928 125.5424-0.4608 48.5888 0.4096 97.2288-0.4096 145.8176-0.4096 14.7456-20.0704 22.9376-31.6416 14.6944-8.0896-5.376-9.472-15.8208-9.0624-24.7296 0.1536-156.9792-0.1024-313.9584 0.1536-470.9376m38.4 61.0304c-0.256 78.592 0 157.184-0.1536 235.776 91.648-31.232 182.8864-63.744 274.7392-94.464-91.4944-47.2064-183.1424-94.0544-274.5856-141.312z" p-id="21588"></path></svg>