<?xml version="1.0" standalone="no"?><!DOCTYPE svg PUBLIC "-//W3C//DTD SVG 1.1//EN" "http://www.w3.org/Graphics/SVG/1.1/DTD/svg11.dtd"><svg t="1568269240433" class="icon" viewBox="0 0 1024 1024" version="1.1" xmlns="http://www.w3.org/2000/svg" p-id="2049" xmlns:xlink="http://www.w3.org/1999/xlink" width="200" height="200"><defs><style type="text/css"></style></defs><path d="M843.2 64 175.552 64c-101.248 0-110.08 116.864-110.08 116.864s0 606.848 0 675.776c0 68.928 110.08 103.36 110.08 103.36l495.296 0 287.616-283.2c0 0 0-417.984 0-504.896C958.528 84.992 843.2 64 843.2 64zM888.768 648.64c0 35.328-37.312 37.184-37.312 37.184s-85.376 0-126.976 0c-41.536 0-41.152 31.488-41.152 31.488s0 81.28 0 125.888c0 44.48-22.528 46.4-22.528 46.4s-418.048 0-468.992 0-56.448-43.456-56.448-43.456 0-591.808 0-648.768 56.448-67.392 56.448-67.392 579.904 2.88 633.216 2.88c53.248 0 63.744 63.744 63.744 63.744S888.768 613.184 888.768 648.64z" p-id="2050"></path><path d="M754.752 373.696c0 19.264-15.488 34.752-34.688 34.752L300.288 408.448c-19.2 0-34.752-15.488-34.752-34.752l0 0c0-19.2 15.552-34.688 34.752-34.688l419.776 0C739.264 339.008 754.752 354.496 754.752 373.696L754.752 373.696z" p-id="2051"></path><path d="M680.64 550.336c0 18.56-15.104 33.664-33.728 33.664L299.264 584c-18.56 0-33.664-15.104-33.664-33.664l0 0c0-18.752 15.104-33.792 33.664-33.792l347.648 0C665.472 516.48 680.64 531.584 680.64 550.336L680.64 550.336z" p-id="2052"></path></svg>