<?xml version="1.0" standalone="no"?><!DOCTYPE svg PUBLIC "-//W3C//DTD SVG 1.1//EN" "http://www.w3.org/Graphics/SVG/1.1/DTD/svg11.dtd"><svg t="1563870560263" class="icon" viewBox="0 0 1024 1024" version="1.1" xmlns="http://www.w3.org/2000/svg" p-id="8396" xmlns:xlink="http://www.w3.org/1999/xlink" width="200" height="200"><defs><style type="text/css"></style></defs><path d="M517.201 183.412H105c-22 0-40 18-40 40s18 40 40 40h412.201c-3.291-12.785-5.041-26.188-5.041-40 0-13.812 1.75-27.216 5.041-40zM921 183.412h-93.881c3.291 12.785 5.041 26.188 5.041 40 0 13.812-1.75 27.215-5.041 40H921c22 0 40-18 40-40s-18-40-40-40z" p-id="8397"></path><path d="M827.119 183.412c-17.762-69.009-80.406-120-154.959-120s-137.197 50.991-154.959 120c-3.291 12.785-5.041 26.188-5.041 40 0 13.812 1.75 27.215 5.041 40 17.762 69.009 80.406 120 154.959 120s137.197-50.991 154.959-120c3.291-12.785 5.041-26.188 5.041-40 0-13.812-1.75-27.216-5.041-40z m-154.959 120c-29.606 0-55.437-16.095-69.271-40a79.602 79.602 0 0 1-10.729-40 79.602 79.602 0 0 1 10.729-40c13.834-23.905 39.665-40 69.271-40s55.437 16.095 69.271 40a79.602 79.602 0 0 1 10.729 40 79.602 79.602 0 0 1-10.729 40c-13.835 23.905-39.665 40-69.271 40z" p-id="8398"></path><path d="M517.201 759.812H105c-22 0-40 18-40 40s18 40 40 40h412.201c-3.291-12.785-5.041-26.188-5.041-40 0-13.812 1.75-27.216 5.041-40zM921 759.812h-93.881c3.291 12.785 5.041 26.188 5.041 40 0 13.812-1.75 27.215-5.041 40H921c22 0 40-18 40-40s-18-40-40-40z" p-id="8399"></path><path d="M827.119 759.812c-17.762-69.009-80.406-120-154.959-120s-137.197 50.991-154.959 120c-3.291 12.785-5.041 26.188-5.041 40 0 13.812 1.75 27.215 5.041 40 17.762 69.009 80.406 120 154.959 120s137.197-50.991 154.959-120c3.291-12.785 5.041-26.188 5.041-40 0-13.812-1.75-27.216-5.041-40z m-154.959 120c-29.606 0-55.437-16.095-69.271-40a79.602 79.602 0 0 1-10.729-40 79.602 79.602 0 0 1 10.729-40c13.834-23.905 39.665-40 69.271-40s55.437 16.095 69.271 40a79.602 79.602 0 0 1 10.729 40 79.602 79.602 0 0 1-10.729 40c-13.835 23.905-39.665 40-69.271 40z" p-id="8400"></path><path d="M197.107 471.821H105c-22 0-40 18-40 40s18 40 40 40h92.107c-3.291-12.785-5.041-26.188-5.041-40 0-13.812 1.75-27.216 5.041-40zM921 471.821H507.025c3.291 12.785 5.041 26.188 5.041 40 0 13.812-1.75 27.215-5.041 40H921c22 0 40-18 40-40s-18-40-40-40z" p-id="8401"></path><path d="M507.025 471.821c-17.762-69.009-80.406-120-154.959-120s-137.197 50.991-154.959 120c-3.291 12.785-5.041 26.188-5.041 40 0 13.812 1.75 27.215 5.041 40 17.762 69.009 80.406 120 154.959 120s137.197-50.991 154.959-120c3.291-12.785 5.041-26.188 5.041-40 0-13.812-1.751-27.216-5.041-40z m-85.688 80c-13.834 23.905-39.665 40-69.271 40s-55.437-16.095-69.271-40a79.602 79.602 0 0 1-10.729-40 79.602 79.602 0 0 1 10.729-40c13.834-23.905 39.665-40 69.271-40s55.437 16.095 69.271 40a79.602 79.602 0 0 1 10.729 40 79.605 79.605 0 0 1-10.729 40z" p-id="8402"></path></svg>