<?xml version="1.0" standalone="no"?><!DOCTYPE svg PUBLIC "-//W3C//DTD SVG 1.1//EN" "http://www.w3.org/Graphics/SVG/1.1/DTD/svg11.dtd"><svg t="1562580180748" class="icon" viewBox="0 0 1024 1024" version="1.1" xmlns="http://www.w3.org/2000/svg" p-id="8010" xmlns:xlink="http://www.w3.org/1999/xlink" width="200" height="200"><defs><style type="text/css"></style></defs><path d="M512 0q-104 0-199.008 40.512t-163.488 108.992-108.992 163.488-40.512 199.008 40.512 199.008 108.992 163.488 163.488 108.992 199.008 40.512 199.008-40.512 163.488-108.992 108.992-163.488 40.512-199.008-40.512-199.008-108.992-163.488-163.488-108.992-199.008-40.512zM512 960q-91.008 0-174.016-35.488t-143.008-95.488-95.488-143.008-35.488-174.016 35.488-174.016 95.488-143.008 143.008-95.488 174.016-35.488 174.016 35.488 143.008 95.488 95.488 143.008 35.488 174.016-35.488 174.016-95.488 143.008-143.008 95.488-174.016 35.488zM752.992 306.016q20.992 0 26.016 22.016-3.008 20.992-23.008 23.008l-272.992 0q-46.016 62.016-124 126.016l-4 4.992q0 2.016 6.016 2.016 156.992 0 303.008-11.008-32-44-60-71.008-12.992-16 0-32 19.008-16 35.008 0 32 32 123.008 152.992 12 20.992-4 36.992-16 11.008-32-7.008-10.016-12-20.992-24.992-7.008-7.008-8.992-12-28 3.008-71.008 4.992-20 2.016-32 2.016l0 186.016q2.016 27.008 36.992 30.016l64 0q43.008 6.016 40.992-74.016 2.016-23.008 24.992-24.992 20.992 2.016 23.008 24.992 7.008 132.992-84.992 119.008l-80 0q-71.008-2.016-76-64l0-195.008q-43.008 4.992-96 4.992-2.016 192.992-174.016 248-23.008 8.992-30.016-10.016-7.008-23.008 12-34.016 136.992-40.992 142.016-204l-80 0q-30.016 0-39.008-16-7.008-18.016 16-36.992 72.992-56.992 132.992-126.016l-158.016 0q-20.992 0-23.008-23.008 2.016-20 23.008-22.016l206.016 0q-0.992-0.992-8.992-19.008l-7.008-14.016q-12-18.016 7.008-32 18.016-8.992 32 10.016 8.992 12.992 28.992 55.008l227.008 0z" p-id="8011"></path></svg>