<?xml version="1.0" standalone="no"?><!DOCTYPE svg PUBLIC "-//W3C//DTD SVG 1.1//EN" "http://www.w3.org/Graphics/SVG/1.1/DTD/svg11.dtd"><svg t="1605842246481" class="icon" viewBox="0 0 1098 1024" version="1.1" xmlns="http://www.w3.org/2000/svg" p-id="2887" xmlns:xlink="http://www.w3.org/1999/xlink" width="214.453125" height="200"><defs><style type="text/css"></style></defs><path d="M568.255038 399.085744c-251.831563 0-434.07303 299.891021-434.07303 502.125223 0 52.096453 11.342032 85.353598 35.756237 104.577382a93.427587 93.427587 0 0 0 60.554918 18.070356 555.182865 555.182865 0 0 0 118.03403-20.184972 901.210967 901.210967 0 0 1 211.461618-31.719243 974.261344 974.261344 0 0 1 210.308191 29.027913c84.200171 18.262594 150.522224 32.488194 192.237834 0 24.414205-19.223783 36.332951-53.826594 36.332951-104.577382 0.576714-200.696299-180.511326-497.319277-430.612749-497.319277z m370.634544 571.330843c-26.913297 21.722875-88.429404 8.458465-159.365164-6.920562a1008.671916 1008.671916 0 0 0-218.574418-29.989102 952.346231 952.346231 0 0 0-220.881271 32.680432c-67.859955 16.147978-121.494311 28.835675-145.908516 9.611892-14.2256-11.342032-21.146162-35.756237-21.146162-74.58828 0-182.433705 169.746008-463.677656 395.625463-463.677656s392.741895 277.975908 392.741895 458.102759c-0.384476 38.255329-7.689513 62.861772-22.491827 74.780517zM376.401679 396.202176c82.277793 0 149.176559-88.813879 149.17656-198.004969S458.679473 0 376.401679 0s-148.984322 89.006117-148.984321 198.197207 66.898766 198.004969 148.984321 198.004969z m0-357.754609c61.131631 0 110.728993 71.704712 110.728993 159.74964s-49.597361 159.557402-110.728993 159.557403-110.536755-71.704712-110.536754-159.557403S315.462286 38.447567 376.401679 38.447567zM721.853068 396.202176c82.277793 0 149.176559-88.813879 149.176559-198.004969S804.130861 0 721.853068 0s-149.176559 89.006117-149.17656 198.197207 66.898766 198.004969 149.17656 198.004969z m0-357.754609c61.131631 0 110.728993 71.704712 110.728992 159.74964s-49.597361 159.557402-110.728992 159.557403-110.728993-71.704712-110.728993-159.557403S660.913674 38.447567 721.853068 38.447567zM216.075326 464.062132c0-84.584647-47.482745-150.714462-108.037663-150.714462S0 379.477485 0 464.062132s47.482745 150.714462 108.037663 150.714462 108.037663-66.322053 108.037663-150.714462z m-108.037663 112.266895c-38.447567 0-69.590096-51.51974-69.590096-112.266895s31.91148-112.266895 69.590096-112.266895 69.590096 51.51974 69.590096 112.266895-31.91148 112.266895-69.590096 112.266895zM990.60156 313.34767c-60.554918 0-108.037663 66.129815-108.037663 150.714462s47.482745 150.714462 108.037663 150.714462 108.037663-66.322053 108.037663-150.714462-47.290507-150.714462-108.037663-150.714462z m0 262.981357c-38.447567 0-69.590096-51.51974-69.590096-112.266895s31.91148-112.266895 69.590096-112.266895 69.590096 51.51974 69.590096 112.266895-31.719243 112.266895-69.590096 112.266895z"  p-id="2888"></path></svg>