<?xml version="1.0" standalone="no"?><!DOCTYPE svg PUBLIC "-//W3C//DTD SVG 1.1//EN" "http://www.w3.org/Graphics/SVG/1.1/DTD/svg11.dtd"><svg t="1583898339094" class="icon" viewBox="0 0 1024 1024" version="1.1" xmlns="http://www.w3.org/2000/svg" p-id="1333" xmlns:xlink="http://www.w3.org/1999/xlink" width="200" height="200"><defs><style type="text/css"></style></defs><path d="M85.333 405.333a106.667 106.667 0 1 0 213.334 0 106.667 106.667 0 1 0-213.334 0zM277.333 234.667a106.667 106.667 0 1 0 213.334 0 106.667 106.667 0 1 0-213.334 0zM533.333 234.667a106.667 106.667 0 1 0 213.334 0 106.667 106.667 0 1 0-213.334 0zM725.333 405.333a106.667 106.667 0 1 0 213.334 0 106.667 106.667 0 1 0-213.334 0zM739.84 634.027c-37.333-43.307-68.48-80.64-105.813-123.947-19.84-23.04-44.8-46.293-74.454-56.32-4.48-1.493-9.173-2.773-14.08-3.627C534.613 448 523.093 448 512 448s-22.613 0-33.493 2.133c-4.694 0.854-9.387 2.134-14.08 3.627-29.654 10.027-54.614 33.28-74.454 56.32-37.333 43.307-68.48 80.64-105.813 123.947-55.893 55.68-124.373 117.76-112 204.586 12.373 43.307 43.52 86.827 99.627 99.2 31.146 6.187 130.56-18.56 236.373-18.56 1.28 0 2.56 0.214 3.84 0.214s2.56-0.214 3.84-0.214c105.813 0 205.227 24.747 236.373 18.56 55.894-12.373 87.04-55.68 99.627-99.2 12.373-86.826-55.893-148.906-112-204.586z" p-id="1334"></path></svg>