<?xml version="1.0" standalone="no"?><!DOCTYPE svg PUBLIC "-//W3C//DTD SVG 1.1//EN" "http://www.w3.org/Graphics/SVG/1.1/DTD/svg11.dtd"><svg t="1583217679826" class="icon" viewBox="0 0 1024 1024" version="1.1" xmlns="http://www.w3.org/2000/svg" p-id="3970" xmlns:xlink="http://www.w3.org/1999/xlink" width="200" height="200"><defs><style type="text/css"></style></defs><path d="M528.8 821.6c-164 0-297.6-133.6-297.6-297.6 0-164 133.6-297.6 297.6-297.6 164 0 297.6 133.6 297.6 297.6 0 164.8-133.6 297.6-297.6 297.6z m0-552c-140.8 0-254.4 114.4-254.4 254.4s114.4 254.4 254.4 254.4S783.2 664 783.2 524 669.6 269.6 528.8 269.6z" p-id="3971"></path><path d="M528.8 661.6c-76 0-137.6-61.6-137.6-137.6s61.6-137.6 137.6-137.6S666.4 448 666.4 524s-61.6 137.6-137.6 137.6z m0-232c-52 0-94.4 42.4-94.4 94.4s42.4 94.4 94.4 94.4c52 0 94.4-42.4 94.4-94.4s-42.4-94.4-94.4-94.4z" p-id="3972"></path><path d="M528.8 524.8m-46.4 0a46.4 46.4 0 1 0 92.8 0 46.4 46.4 0 1 0-92.8 0Z" p-id="3973"></path><path d="M528.8 575.2c-28 0-50.4-22.4-50.4-50.4s22.4-50.4 50.4-50.4 50.4 22.4 50.4 50.4-22.4 50.4-50.4 50.4z m0-93.6c-23.2 0-42.4 19.2-42.4 42.4s19.2 42.4 42.4 42.4 42.4-19.2 42.4-42.4-18.4-42.4-42.4-42.4z" p-id="3974"></path><path d="M482.615864 90.462691a46.4 46.4 0 1 0 92.289598-9.71957 46.4 46.4 0 1 0-92.289598 9.71957Z" p-id="3975"></path><path d="M528.8 136.8c-11.2 0-22.4-4-32-11.2-10.4-8.8-16.8-20.8-18.4-34.4-1.6-13.6 2.4-26.4 11.2-36.8s20.8-16.8 34.4-18.4c28-3.2 52.8 17.6 56 44.8 1.6 13.6-2.4 26.4-11.2 36.8-8.8 10.4-20.8 17.6-34.4 18.4-2.4 0.8-4 0.8-5.6 0.8z m0-93.6h-4.8c-23.2 2.4-40.8 23.2-37.6 47.2 0.8 11.2 6.4 21.6 15.2 28.8 8.8 7.2 20 10.4 31.2 9.6 11.2-0.8 21.6-6.4 28.8-15.2s10.4-20 9.6-31.2c-2.4-22.4-20.8-39.2-42.4-39.2z" p-id="3976"></path><path d="M516.8 96.8h24.8v140h-24.8z" p-id="3977"></path><path d="M545.6 240.8h-32.8V92.8h32.8v148z m-24.8-8h16.8V100.8h-16.8v132z" p-id="3978"></path><path d="M844.740536 140.127714a46.4 46.4 0 1 0 71.771319-58.827866 46.4 46.4 0 1 0-71.771319 58.827866Z" p-id="3979"></path><path d="M881.6 161.6h-4.8c-13.6-1.6-25.6-8-34.4-18.4s-12.8-24-11.2-36.8c1.6-13.6 8-25.6 18.4-34.4 10.4-8.8 24-12.8 36.8-11.2 13.6 1.6 25.6 8 34.4 18.4 8.8 10.4 12.8 24 11.2 36.8-1.6 13.6-8 25.6-18.4 34.4-9.6 7.2-20.8 11.2-32 11.2z m-0.8-93.6c-9.6 0-19.2 3.2-27.2 9.6-8.8 7.2-14.4 17.6-15.2 28.8-0.8 11.2 2.4 22.4 9.6 31.2 7.2 8.8 17.6 14.4 28.8 15.2 11.2 0.8 22.4-2.4 31.2-9.6 8.8-7.2 14.4-17.6 15.2-28.8 0.8-11.2-2.4-22.4-9.6-31.2-7.2-8.8-17.6-14.4-28.8-15.2h-4z" p-id="3980"></path><path d="M860.8 114.08l17.544 17.536-178.752 178.752-17.536-17.536z" p-id="3981"></path><path d="M699.2 315.2l-23.2-23.2 184-184 23.2 23.2-184 184zM688 292.8l12 12L872 131.2l-12-12L688 292.8z" p-id="3982"></path><path d="M109.088647 928.797558a46.4 46.4 0 1 0 71.77132-58.827865 46.4 46.4 0 1 0-71.77132 58.827865Z" p-id="3983"></path><path d="M145.6 949.6h-4.8c-13.6-1.6-25.6-8-34.4-18.4-8.8-10.4-12.8-24-11.2-36.8 1.6-13.6 8-25.6 18.4-34.4 10.4-8.8 24-12.8 36.8-11.2 13.6 1.6 25.6 8 34.4 18.4 8.8 10.4 12.8 24 11.2 36.8-1.6 13.6-8 25.6-18.4 34.4-9.6 7.2-20.8 11.2-32 11.2z m-0.8-93.6c-9.6 0-19.2 3.2-27.2 9.6-8.8 7.2-14.4 17.6-15.2 28.8-0.8 11.2 2.4 22.4 9.6 31.2 7.2 8.8 17.6 14.4 28.8 15.2 11.2 0.8 22.4-2.4 31.2-9.6s14.4-17.6 15.2-28.8c0.8-11.2-2.4-22.4-9.6-31.2-7.2-8.8-17.6-14.4-28.8-15.2-0.8 0.8-2.4 0-4 0z" p-id="3984"></path><path d="M166.112 895.896l-17.536-17.536L327.328 699.6l17.536 17.536z" p-id="3985"></path><path d="M165.6 901.6l-23.2-23.2 184-184 23.2 23.2-184 184z m-12-23.2l12 12 172.8-172.8-12-12-172.8 172.8z" p-id="3986"></path><path d="M46.62896 542.472086a46.4 46.4 0 1 0 92.289599-9.719571 46.4 46.4 0 1 0-92.289599 9.719571Z" p-id="3987"></path><path d="M92.8 588.8c-11.2 0-22.4-4-32-11.2-10.4-8.8-16.8-20.8-18.4-34.4-1.6-13.6 2.4-26.4 11.2-36.8S74.4 489.6 88 488c13.6-1.6 26.4 2.4 36.8 11.2 10.4 8.8 16.8 20.8 18.4 34.4 3.2 28-17.6 52.8-44.8 56-1.6-0.8-4-0.8-5.6-0.8z m0-93.6H88c-11.2 0.8-21.6 6.4-28.8 15.2-7.2 8.8-10.4 20-9.6 31.2 0.8 11.2 6.4 21.6 15.2 28.8s20 10.4 31.2 9.6c23.2-2.4 40.8-23.2 37.6-47.2-0.8-21.6-19.2-37.6-40.8-37.6z" p-id="3988"></path><path d="M103.616 549.88v-24.8h140v24.8z" p-id="3989"></path><path d="M247.2 554.4H99.2v-32.8h148v32.8z m-140-8h132v-16.8H107.2v16.8z" p-id="3990"></path><path d="M870.967344 335.678818a46.4 46.4 0 1 0 78.704012-49.168266 46.4 46.4 0 1 0-78.704012 49.168266Z" p-id="3991"></path><path d="M910.4 361.6c-4 0-8-0.8-11.2-1.6-12.8-3.2-24-11.2-31.2-22.4-7.2-11.2-9.6-24.8-6.4-38.4 3.2-12.8 11.2-24 22.4-31.2 11.2-7.2 24.8-9.6 38.4-6.4 12.8 3.2 24 11.2 31.2 22.4 7.2 11.2 9.6 24.8 6.4 38.4-3.2 12.8-11.2 24-22.4 31.2-8.8 5.6-17.6 8-27.2 8z m0-92.8c-8 0-16 2.4-22.4 6.4-9.6 6.4-16 15.2-19.2 26.4-2.4 11.2-0.8 22.4 5.6 32 6.4 9.6 15.2 16.8 26.4 19.2 11.2 2.4 22.4 0.8 32-5.6 9.6-6.4 16-15.2 19.2-26.4 2.4-11.2 0.8-22.4-5.6-32-6.4-9.6-15.2-16.8-26.4-19.2-3.2-0.8-6.4-0.8-9.6-0.8z" p-id="3992"></path><path d="M895.152 305.056l10.864 22.296-125.84 61.328-10.872-22.288z" p-id="3993"></path><path d="M778.4 393.6l-14.4-29.6 132.8-64.8 14.4 29.6-132.8 64.8z m-4-25.6l7.2 15.2 118.4-57.6-7.2-15.2L774.4 368z" p-id="3994"></path><path d="M109.184613 177.592311a46.4 46.4 0 1 0 72.576606-57.831448 46.4 46.4 0 1 0-72.576606 57.831448Z" p-id="3995"></path><path d="M145.6 199.2h-5.6c-13.6-1.6-25.6-8-33.6-18.4-8.8-10.4-12-24-10.4-37.6 1.6-13.6 8-25.6 18.4-33.6 10.4-8.8 24-12 37.6-10.4 13.6 1.6 25.6 8 33.6 18.4 8.8 10.4 12 24 10.4 37.6-1.6 13.6-8 25.6-18.4 33.6-9.6 7.2-20.8 10.4-32 10.4z m0-92.8c-9.6 0-19.2 3.2-26.4 9.6-8.8 7.2-14.4 17.6-16 28.8-1.6 11.2 1.6 22.4 8.8 31.2s17.6 14.4 28.8 16c11.2 1.6 22.4-1.6 31.2-8.8 8.8-7.2 14.4-17.6 16-28.8 1.6-11.2-1.6-22.4-8.8-31.2s-17.6-14.4-28.8-16c-1.6-0.8-3.2-0.8-4.8-0.8z" p-id="3996"></path><path d="M148 169.176l17.776-17.288 176.272 181.2-17.776 17.296z" p-id="3997"></path><path d="M324 356L142.4 169.6l23.2-22.4 181.6 186.4-23.2 22.4zM153.6 169.6l170.4 175.2 12-12-170.4-175.2-12 12z" p-id="3998"></path><path d="M105.189747 709.063084a46.4 46.4 0 1 0 80.94942-45.37655 46.4 46.4 0 1 0-80.94942 45.37655Z" p-id="3999"></path><path d="M145.6 736.8c-4.8 0-9.6-0.8-13.6-1.6-12.8-4-24-12-30.4-24-6.4-12-8-25.6-4.8-38.4 4-12.8 12-24 24-30.4 12-6.4 25.6-8 38.4-4.8 12.8 4 24 12 30.4 24 6.4 12 8 25.6 4.8 38.4-4 12.8-12 24-24 30.4-8 4-16 6.4-24.8 6.4z m0-93.6c-7.2 0-14.4 1.6-20.8 5.6-9.6 5.6-16.8 14.4-20 25.6-3.2 11.2-1.6 22.4 4 32.8 5.6 9.6 14.4 16.8 25.6 20 11.2 3.2 22.4 1.6 32.8-4 9.6-5.6 16.8-14.4 20-25.6 3.2-11.2 1.6-22.4-4-32.8-5.6-9.6-14.4-16.8-25.6-20-4-0.8-8-1.6-12-1.6z" p-id="4000"></path><path d="M159.84 693.568l-9.792-22.784 128.624-55.296 9.792 22.784z" p-id="4001"></path><path d="M158.4 698.4l-12.8-30.4 136-58.4 12.8 30.4-136 58.4z m-2.4-25.6l6.4 15.2 121.6-52-6.4-15.2-121.6 52z" p-id="4002"></path><path d="M288.084118 196.643042a46.4 46.4 0 1 0 72.035489-58.504088 46.4 46.4 0 1 0-72.035489 58.504088Z" p-id="4003"></path><path d="M324 217.6c-14.4 0-29.6-6.4-39.2-18.4-17.6-21.6-14.4-53.6 7.2-71.2 10.4-8.8 24-12.8 36.8-11.2 13.6 1.6 25.6 8 34.4 18.4 8.8 10.4 12.8 24 11.2 36.8-1.6 13.6-8 25.6-18.4 34.4-8.8 8-20.8 11.2-32 11.2z m-32.8-23.2c15.2 18.4 41.6 20.8 60 6.4 8.8-7.2 14.4-17.6 15.2-28.8s-2.4-22.4-9.6-31.2c-7.2-8.8-17.6-14.4-28.8-15.2-11.2-0.8-22.4 2.4-31.2 9.6-17.6 13.6-20.8 40.8-5.6 59.2z" p-id="4004"></path><path d="M319.864 182.84l20.784-13.536 76.4 117.32-20.792 13.536z" p-id="4005"></path><path d="M395.2 305.6L314.4 181.6l27.2-17.6L422.4 288l-27.2 17.6zM325.6 184l72 110.4 13.6-8.8-72-110.4-13.6 8.8z" p-id="4006"></path><path d="M920.837037 708.282699a46.4 46.4 0 1 0 20.536009-90.499239 46.4 46.4 0 1 0-20.536009 90.499239Z" p-id="4007"></path><path d="M931.2 713.6c-4 0-7.2-0.8-11.2-1.6-27.2-6.4-44-33.6-38.4-60.8 6.4-27.2 33.6-44.8 60.8-38.4 27.2 6.4 44 33.6 38.4 60.8-5.6 24-26.4 40-49.6 40z m0-92.8c-8 0-16 2.4-22.4 6.4-9.6 6.4-16 15.2-19.2 26.4-2.4 11.2-0.8 22.4 5.6 32 6.4 9.6 15.2 16 26.4 19.2 11.2 2.4 22.4 0.8 32-5.6 9.6-6.4 16-15.2 19.2-26.4 2.4-11.2 0.8-22.4-5.6-32-6.4-9.6-15.2-16-26.4-19.2-3.2-0.8-6.4-0.8-9.6-0.8z" p-id="4008"></path><path d="M924.96 648.072l-7.992 23.48-132.536-45.112 7.992-23.472z" p-id="4009"></path><path d="M919.2 676.8l-140-48 10.4-31.2 140 48-10.4 31.2zM789.6 624l124.8 42.4 5.6-16L795.2 608l-5.6 16z" p-id="4010"></path><path d="M852.359403 965.771097a46.4 46.4 0 1 0 74.982416-54.676114 46.4 46.4 0 1 0-74.982416 54.676114Z" p-id="4011"></path><path d="M889.6 988.8c-16 0-31.2-7.2-40.8-20.8-16.8-22.4-11.2-54.4 11.2-70.4 11.2-8 24-11.2 37.6-8.8 13.6 2.4 24.8 9.6 32.8 20 16.8 22.4 11.2 54.4-11.2 70.4-8.8 6.4-19.2 9.6-29.6 9.6z m-34.4-25.6c13.6 19.2 40.8 23.2 60 9.6 19.2-13.6 23.2-40.8 9.6-60-6.4-9.6-16.8-15.2-28-16.8-11.2-1.6-22.4 0.8-32 8-9.6 6.4-15.2 16.8-16.8 28-2.4 10.4 0.8 21.6 7.2 31.2z" p-id="4012"></path><path d="M887.904 917.768l-18.496 16.52-168.368-188.56 18.496-16.52z" p-id="4013"></path><path d="M868.8 939.2L695.2 744.8l24-21.6 173.6 194.4-24 21.6zM707.2 745.6l163.2 182.4 12.8-11.2-164-182.4-12 11.2z" p-id="4014"></path><path d="M398.5617 972.314694a46.4 46.4 0 1 0 19.571362-90.712744 46.4 46.4 0 1 0-19.571362 90.712744Z" p-id="4015"></path><path d="M408 977.6c-3.2 0-7.2 0-10.4-0.8-27.2-5.6-44.8-32.8-39.2-60 3.2-13.6 10.4-24.8 22.4-32 11.2-7.2 24.8-9.6 38.4-7.2 27.2 5.6 44.8 32.8 39.2 60-3.2 13.6-10.4 24.8-22.4 32-8.8 4.8-18.4 8-28 8z m0-93.6c-8 0-16 2.4-23.2 7.2-9.6 6.4-16 16-18.4 27.2-4.8 23.2 9.6 45.6 32.8 50.4 11.2 2.4 22.4 0 32-5.6 9.6-6.4 16-16 18.4-27.2 4.8-23.2-9.6-45.6-32.8-50.4-2.4-0.8-5.6-1.6-8.8-1.6z" p-id="4016"></path><path d="M423.016 920.904l-23.568-7.736 43.696-133.016 23.56 7.736z" p-id="4017"></path><path d="M425.6 925.6l-31.2-10.4 46.4-140.8 31.2 10.4-46.4 140.8z m-20.8-15.2l16 5.6 40.8-125.6-16-5.6-40.8 125.6z" p-id="4018"></path></svg>