<?xml version="1.0" standalone="no"?><!DOCTYPE svg PUBLIC "-//W3C//DTD SVG 1.1//EN" "http://www.w3.org/Graphics/SVG/1.1/DTD/svg11.dtd"><svg t="1583805758897" class="icon" viewBox="0 0 1117 1024" version="1.1" xmlns="http://www.w3.org/2000/svg" p-id="3272" xmlns:xlink="http://www.w3.org/1999/xlink" width="218.1640625" height="200"><defs><style type="text/css"></style></defs><path d="M835.317356 1024H249.255899c-82.679449 0-149.949244-63.122506-149.949244-140.703452v-334.827035H30.438821a30.438821 30.438821 0 0 1-30.438821-30.438822c0-35.309033 14.762828-68.411251 41.548991-93.142793L461.604726 37.363653c52.240627-48.207483 142.453684-48.207483 194.694312 0l100.562256 92.762308c10.539442-43.108981 51.517705-75.336083 100.295916-75.336083 56.730353 0 102.883216 43.64166 102.883217 97.290083v165.54914l116.314346 107.296846a125.750381 125.750381 0 0 1 41.548991 93.142793 30.438821 30.438821 0 0 1-30.438821 30.438821h-102.198343v334.827036c0 77.542897-67.269795 140.665403-149.949244 140.665403zM68.753688 487.59187H129.745476a30.438821 30.438821 0 0 1 30.438822 30.438821v365.265857c0 44.022145 39.989002 79.863858 89.109649 79.863858h586.061457c49.120648 0 89.10965-35.803664 89.10965-79.863858v-365.265857a30.438821 30.438821 0 0 1 30.438821-30.438821h94.322298a70.199532 70.199532 0 0 0-14.116003-17.958905L908.218333 352.595697a30.47687 30.47687 0 0 1-9.474083-26.938357c0.228291-1.55999 0.456582-3.119979 0.456582-4.718017V152.079961c0-20.089622-18.872069-36.41244-42.005573-36.41244-23.171553 0-42.043622 16.322818-42.043622 36.41244v45.163602a30.438821 30.438821 0 0 1-51.061123 22.372533l-148.998031-137.469327c-29.677851-27.394939-82.451157-27.356891-112.129008 0L82.869691 469.632965c-5.821425 5.364842-10.57749 11.414558-14.116003 17.958905z" fill="#898989" p-id="3273"></path><path d="M777.711886 857.15721H309.981347a30.438821 30.438821 0 0 1-30.438821-30.438821c0-98.12715 52.468918-187.731431 134.235202-235.063798a164.445733 164.445733 0 0 1-30.400773-95.806191c0-90.213057 71.987813-163.608665 160.450638-163.608665 88.500873 0 160.450637 73.395608 160.450637 163.608665 0 35.004645-10.767733 68.259057-30.400773 95.806191 81.766284 47.332367 134.235202 136.936648 134.235202 235.063798a30.362724 30.362724 0 0 1-30.400773 30.438821zM342.588935 796.317616h402.515364c-10.84383-75.41218-61.410322-140.208821-132.561067-166.424256a30.438821 30.438821 0 0 1-8.332627-52.43087 103.263702 103.263702 0 0 0 39.228031-81.576041c0-56.654256-44.66897-102.731022-99.611043-102.731022-54.904024 0-99.572994 46.076766-99.572995 102.731022 0 32.151005 14.306246 61.866904 39.26608 81.576041a30.438821 30.438821 0 1 1-8.332628 52.43087c-71.188794 26.215435-121.755286 90.974027-132.599115 166.424256z" fill="#898989" p-id="3274"></path></svg>