<?xml version="1.0" standalone="no"?><!DOCTYPE svg PUBLIC "-//W3C//DTD SVG 1.1//EN" "http://www.w3.org/Graphics/SVG/1.1/DTD/svg11.dtd"><svg t="1583904928204" class="icon" viewBox="0 0 1024 1024" version="1.1" xmlns="http://www.w3.org/2000/svg" p-id="2828" xmlns:xlink="http://www.w3.org/1999/xlink" width="200" height="200"><defs><style type="text/css"></style></defs><path d="M835.618133 440.640474c0 16.095763 0 32.208593 0 48.305304-0.9728 9.930904-3.329896 19.109926-9.708089 27.469748-9.674904 12.671052-21.740089 20.997689-37.187319 24.557037-0.828681 0.205748-1.682015 0.205748-2.51923 0.384-10.109156 2.083081-10.161304 2.10963-10.161304 12.3648-0.008533 85.756207 0.042667 171.520948-0.034133 257.303704-0.024652 10.647704-1.468681 20.827022-8.078222 30.014578-6.676859 9.299437-14.652681 15.566696-26.3168 16.36883-162.223407 0-324.4288 0-486.652207 0-22.69677-1.058133-34.770489-21.979022-35.57357-44.179911-0.530015-14.824296-0.119467-29.639111-0.119467-44.445393-0.0256-70.642726-0.0256-141.293985-0.0256-211.929126 0-2.339081-0.0768-4.662044 0-7.002074 0.145067-4.534044-1.775881-7.010607-6.480593-7.625007-11.595852-1.494281-21.518222-6.498607-30.978844-13.4144-9.332622-6.797274-14.969363-16.095763-19.870341-25.847467-3.18483-6.326993-1.980681-14.063881-2.860563-21.168356-0.119467-1.050548 0.0512-2.126696-0.649481-3.048296 0-10.15277 0-20.297007 0-30.466844 0.3584-17.001244 9.076622-30.176711 19.033126-43.062044 17.949393-23.268504 34.557156-47.604622 53.351348-70.156326 8.197689-9.837037 10.673304-19.425659 10.35757-31.542993-0.658015-25.368652-0.3584-50.772385-0.110933-76.141985 0.093867-9.572504 1.426015-19.041659 6.856059-27.333215 7.130074-10.896119 16.13843-18.905126 30.142578-19.092859 1.588148-0.034133 3.416178 0.4352 4.893393-0.777481 142.711467 0 285.448533 0 428.167585 0 2.553363 1.332148 5.533393 1.238281 8.018489 1.024948 15.002548-1.178548 31.141926 17.359644 33.557807 30.091378 0.990815 5.216711 1.734163 10.400237 1.717096 15.744948-0.0768 28.96403 0.034133 57.945126-0.110933 86.943289-0.008533 5.157926 1.647881 9.008356 4.833659 13.141333 23.602252 30.680178 46.784474 61.625837 69.746726 92.775348C833.500919 426.175526 834.065067 433.501867 835.618133 440.640474zM271.416889 541.016178c-4.704711 0-6.344059 0.803081-6.344059 6.046341 0.187733 87.412622 0.187733 174.860326 0.0256 262.307081-0.008533 4.969244 1.229748 6.241659 6.207526 6.217007 41.286163-0.214281 82.571378-0.214281 123.857541 0.024652 5.635793 0.0256 7.283674-1.211733 7.266607-7.137659-0.2304-67.107081-0.170667-134.206578-0.136533-201.323141 0-15.028148 8.615822-24.173037 23.02957-24.249837 51.8656-0.086281 103.7312-0.0256 155.605333 0 4.218311 0 8.316207 0.7168 12.090785 2.894696 8.948622 5.217659 11.357867 13.603081 11.357867 23.166104 0.008533 66.886163 0.0512 133.805511-0.119467 200.691674 0 4.636444 0.9472 5.959111 5.814993 5.959111 37.895585-0.238933 75.799704-0.238933 113.696237 0 5.260326 0.0256 6.540326-1.238281 6.523259-6.514726-0.170667-87.233422-0.178252-174.459259 0.018015-261.692681 0.017067-5.456593-1.571081-6.430341-6.677807-6.430341-75.364504 0.205748-150.737541 0.128948-226.093511 0.128948C422.171496 541.101511 346.789926 541.135644 271.416889 541.016178zM703.162785 307.339378c4.969244 0.0256 6.352593-1.212681 6.284326-6.216059-0.256-23.909452-0.238933-47.852089-0.008533-71.761541 0.0512-4.593778-0.914015-6.028326-5.857659-6.028326-137.144889 0.162133-274.28883 0.162133-411.440356 0-4.508444 0-5.550459 1.255348-5.524859 5.627259 0.238933 23.721719 0.2816 47.416889-0.008533 71.112059-0.068267 5.499259 0.973748 7.369007 7.010607 7.326341 68.166163-0.247467 136.316207-0.162133 204.45677-0.162133C566.436978 307.236978 634.800356 307.185778 703.162785 307.339378zM423.887644 809.472c-0.0256 5.217659 1.605215 6.113659 6.353541 6.113659 48.70637-0.187733 97.403259-0.187733 146.101096 0 4.602311 0 6.079526-0.896 6.063407-5.832059-0.197215-66.492681-0.197215-132.97683 0-199.469511 0.017067-5.055526-1.647881-5.772326-6.140207-5.747674-48.689304 0.163081-97.395674 0.163081-146.08403-0.024652-4.850726 0-6.319407 1.024-6.276741 6.156326 0.247467 33.003141 0.128 66.048 0.128 99.094756C424.033659 742.979319 424.170193 776.238459 423.887644 809.472zM650.836385 352.11757c27.1616 47.638756 54.367763 95.209244 81.462044 142.865067 1.408 2.458548 3.15923 2.894696 5.661393 2.894696 11.647052-0.093867 23.302637 0.128 34.941156-0.093867 12.091733-0.247467 20.460089-8.752356 20.775822-20.902874 0.144119-6.326993-0.196267-12.689067 0.093867-19.033126 0.238933-5.797926-1.417481-10.698904-4.876326-15.309748-20.698074-27.538015-41.337363-55.135763-61.984237-82.725926-4.021096-5.371259-9.383822-8.991289-16.026548-9.093689-20.023941-0.315733-40.073481-0.085333-60.054756-0.085333C650.827852 351.374222 650.665719 351.827437 650.836385 352.11757zM288.699733 350.478222c-8.692622-0.042667-15.387496 3.244563-20.604207 10.272237-20.322607 27.290548-40.781748 54.504296-61.233304 81.70003-3.560296 4.721778-5.353244 9.939437-5.209126 15.865363 0.128 5.490726-0.0768 11.02317 0.0512 16.530963 0.315733 14.703881 8.735289 22.935704 23.447704 22.97837 10.570904 0.0256 21.158874-0.187733 31.747793 0.085333 3.69683 0.128 5.524859-1.272415 7.266607-4.346311 16.232296-28.60563 32.635259-57.107911 48.93677-85.653807 10.750104-18.777126 21.432889-37.588385 32.687407-57.407526C325.963852 350.503822 307.331793 350.589156 288.699733 350.478222zM483.259733 497.911467c3.996444 0 3.748978-2.169363 3.731911-4.849778-0.017067-45.888474-0.059733-91.819615 0.0768-137.708089 0.017067-3.979378-1.169067-5.003378-5.020444-4.918993-12.458667 0.221867-24.967585 0.341333-37.434785-0.059733-4.423111-0.1536-5.601659 1.707615-6.625659 5.345659-8.726756 30.920059-17.616593 61.796504-26.437215 92.724148-4.644978 16.300563-9.196089 32.602074-13.909333 49.380504C426.577541 497.826133 454.92717 497.749333 483.259733 497.911467zM597.77517 496.272119c-13.482667-47.305956-27.016533-94.560711-40.414815-141.858133-0.981333-3.406696-2.80083-4.012563-5.934459-3.979378-12.269985 0.1536-24.5504 0.2816-36.810904-0.034133-4.364326-0.085333-5.738193 0.948148-5.644326 5.507793 0.290133 16.924444 0.119467 33.839407 0.119467 50.806519 0 28.52883-0.0256 57.090844 0.042667 85.662341 0 2.39123-1.443081 5.558993 3.475911 5.533393 28.331615-0.162133 56.672711-0.085333 84.978726-0.085333C597.681304 497.066667 597.87757 496.613452 597.77517 496.272119zM289.006933 497.783467c27.299081 0.042667 54.61523-0.034133 81.905778 0.093867 3.244563 0.034133 4.073244-1.298015 4.892444-4.243911 13.0816-46.246874 26.282667-92.476681 39.689481-138.663822 1.212681-4.150044 0.0768-4.568178-3.510044-4.491378-12.056652 0.110933-24.131319 0.238933-36.179437-0.0768-3.833363-0.110933-5.524859 1.528415-7.223941 4.482844-18.538193 32.627674-37.170252 65.1776-55.768178 97.745541-8.428089 14.789215-16.847644 29.570844-25.275733 44.350578C288.340385 497.442133 288.6912 497.783467 289.006933 497.783467zM700.899556 484.309333c-24.549452-42.985244-49.06477-85.987556-73.673956-128.929185-1.152948-1.997748-1.536948-4.900978-5.011911-4.876326-14.285748 0.059733-28.55443 0.034133-43.199526 0.034133 13.739615 48.278756 27.282015 95.891911 40.841481 143.523081 0.649481 2.296415 1.451615 3.87603 4.620326 3.851378 27.700148-0.162133 55.400296-0.085333 84.125393-0.085333C705.656415 492.660622 703.282252 488.475496 700.899556 484.309333z" p-id="2829"></path></svg>