<?xml version="1.0" standalone="no"?><!DOCTYPE svg PUBLIC "-//W3C//DTD SVG 1.1//EN" "http://www.w3.org/Graphics/SVG/1.1/DTD/svg11.dtd"><svg t="1565336003564" class="icon" viewBox="0 0 1024 1024" version="1.1" xmlns="http://www.w3.org/2000/svg" p-id="14913" xmlns:xlink="http://www.w3.org/1999/xlink" width="48" height="48"><defs><style type="text/css"></style></defs><path d="M511.8 950c-54.8 0-104.5-4.4-147.7-13.1-48.8-9.8-91-25.4-125.5-46.4-38.7-23.6-68.6-54.4-88.8-91.6-21.4-39.4-32.3-86.5-32.3-140 0-57 12.5-113.7 36.4-165.4-12.6-18.9-18.1-46.5-16.9-83.5 1.2-34.8 8.5-79.3 21.6-132.3 22-88.4 52.6-169.9 53.9-173.3l9.3-24.5 25.6 5.9c81.1 18.7 118.9 96.9 146.4 153.9 6.3 13.1 13.2 27.3 19.3 37.4 32.2-8.3 65.3-12.5 98.7-12.5 32.8 0 65.3 4.1 97 12.1 6.8-9.7 14.8-23.2 22.7-36.4 34.1-57.4 80.8-136 161.3-154.6l27-6.2 8.3 26.4c1.1 3.4 26.3 83.6 43.3 171.1 10.2 52.4 15.3 96.5 15.1 131.2-0.1 36.3-6.1 63.7-18.1 82.6 24.6 52.3 37.5 109.9 37.5 167.9 0 53.5-10.9 100.6-32.3 140-20.2 37.2-50.1 68.1-88.8 91.6-34.4 21-76.7 36.6-125.5 46.4-43 8.9-92.7 13.3-147.5 13.3zM258.6 154.1c-10.8 31.2-28.2 84.1-41.7 138.6-12.1 48.8-18.8 89-19.8 119.6-1.2 35.7 6 48.2 8.6 49.7l24.6 14.6-13.5 25.3c-25.7 48.1-39.2 102.4-39.2 157 0 83.6 30.2 142.6 92.3 180.4 55.3 33.7 136.7 50.7 242 50.7s186.7-17.1 242-50.7c62.1-37.8 92.3-96.8 92.3-180.4 0-55.3-13.8-110-39.9-158.4l-12.8-23.7 22.2-15.3c0.3-0.2 26.7-20.3-3-173-10.2-52.5-23.7-103.1-32.6-134-41.5 23.2-71.8 74.1-96.9 116.5-16.3 27.4-29.2 49.1-44.3 62.3l-12.6 11-16-4.9c-31.9-9.8-65-14.8-98.4-14.8-34.2 0-68.1 5.2-100.7 15.5l-16.1 5.1-12.8-11.2c-16.5-14.6-28.5-39.4-42.5-68.2-19.6-40.6-43.2-89.5-81.2-111.7z" p-id="14914"></path></svg>