<?xml version="1.0" standalone="no"?><!DOCTYPE svg PUBLIC "-//W3C//DTD SVG 1.1//EN" "http://www.w3.org/Graphics/SVG/1.1/DTD/svg11.dtd"><svg t="1562148408326" class="icon" viewBox="0 0 1024 1024" version="1.1" xmlns="http://www.w3.org/2000/svg" p-id="20541" xmlns:xlink="http://www.w3.org/1999/xlink" width="200" height="200"><defs><style type="text/css"></style></defs><path d="M775.36 951.872 130.816 951.872c-33.088 0-60.096-27.136-60.096-60.224L70.72 250.24c0-33.088 27.008-57.664 60.096-57.664l639.552 0c33.088 0 62.656 24.576 62.656 57.664l0 641.408C833.024 924.736 808.448 951.872 775.36 951.872L775.36 951.872zM775.36 250.24 130.816 250.24l0 643.968 644.544 0L775.36 250.24 775.36 250.24zM923.2 844.672c-16.64 0-27.584-13.44-27.584-30.08L895.616 159.936c0-16.64-13.504-30.144-30.08-30.144L278.656 129.792c-16.576 0-30.016-10.944-30.016-27.648 0-16.576 13.44-30.08 30.016-30.08l584.448 0c49.664 0 90.176 40.512 90.176 90.368l0 652.16C953.28 831.232 939.776 844.672 923.2 844.672L923.2 844.672zM714.56 515.712l-215.424 270.912c-10.112 12.672-28.352 15.104-41.408 5.44l-122.752-91.2-107.008 125.056c-5.952 6.912-14.4 10.496-22.784 10.496-6.912 0-13.888-2.304-19.584-7.232-12.608-10.816-14.08-29.824-3.264-42.432l125.248-146.304c10.304-12.032 28.032-14.08 40.704-4.608l121.984 90.56 197.312-248.192c10.304-12.992 29.248-15.104 42.176-4.8C722.752 483.776 724.864 502.656 714.56 515.712L714.56 515.712zM319.552 486.848c-33.216 0-60.096-26.944-60.096-60.16 0-33.28 26.88-60.224 60.096-60.224s60.096 26.944 60.096 60.224C379.712 459.968 352.768 486.848 319.552 486.848L319.552 486.848z" p-id="20542"></path></svg>