<?xml version="1.0" standalone="no"?><!DOCTYPE svg PUBLIC "-//W3C//DTD SVG 1.1//EN" "http://www.w3.org/Graphics/SVG/1.1/DTD/svg11.dtd"><svg t="1560926219287" class="icon" style="" viewBox="0 0 1024 1024" version="1.1" xmlns="http://www.w3.org/2000/svg" p-id="1717" xmlns:xlink="http://www.w3.org/1999/xlink" width="128" height="128"><defs><style type="text/css"></style></defs><path d="M-387.117056 144.707584A0.284 0 0 1 1-387.117056 146.755584Z" p-id="1718"></path><path d="M901.492736 144.707584 94.162944 144.707584c-11.311104 0-20.48 10.9056-20.48 24.36096l0 528.443392c0 13.453312 9.168896 24.36096 20.48 24.36096l807.329792 0c11.309056 0 20.48-10.9056 20.48-24.36096L921.972736 169.068544C921.972736 155.613184 912.801792 144.707584 901.492736 144.707584zM877.50656 662.351872c0 11.66336-8.208384 21.118976-18.331648 21.118976L136.480768 683.470848c-10.125312 0-18.333696-9.453568-18.333696-21.118976L118.147072 204.228608c0-11.66336 8.208384-21.118976 18.333696-21.118976l722.692096 0c10.123264 0 18.331648 9.455616 18.331648 21.118976L877.504512 662.351872z" p-id="1719"></path><path d="M140.007424 664.723456 861.462528 664.723456 676.788224 211.68128 512.653312 452.538368 348.071936 367.951872Z" p-id="1720"></path><path d="M189.462528 253.51168m-42.473472 0a20.739 20.739 0 1 0 84.946944 0 20.739 20.739 0 1 0-84.946944 0Z" p-id="1721"></path></svg>