<?xml version="1.0" standalone="no"?><!DOCTYPE svg PUBLIC "-//W3C//DTD SVG 1.1//EN" "http://www.w3.org/Graphics/SVG/1.1/DTD/svg11.dtd"><svg t="1573717781588" class="icon" viewBox="0 0 1245 1024" version="1.1" xmlns="http://www.w3.org/2000/svg" p-id="2485" xmlns:xlink="http://www.w3.org/1999/xlink" width="58.359375" height="48"><defs><style type="text/css"></style></defs><path d="M622.280088 1024a512 512 0 1 1 512-512 512 512 0 0 1-512 512z m0-963.009404a451.811912 451.811912 0 1 0 451.811912 451.009404A451.811912 451.811912 0 0 0 622.280088 60.990596z" fill="#666666" p-id="2486"></path><path d="M421.653129 542.495298a150.871473 150.871473 0 1 1 150.871473-150.871474 150.871473 150.871473 0 0 1-150.871473 150.871474z m0-240.752351a90.683386 90.683386 0 1 0 90.683386 89.880877 90.683386 90.683386 0 0 0-90.683386-89.880877zM822.907047 622.746082a110.746082 110.746082 0 1 1 110.746082-110.746082 110.746082 110.746082 0 0 1-110.746082 110.746082z m0-160.501568a50.557994 50.557994 0 1 0 50.557994 50.557994 50.557994 50.557994 0 0 0-50.557994-50.557994z" fill="#666666" p-id="2487"></path><path d="M702.530872 151.673981m-40.125392 0a40.125392 40.125392 0 1 0 80.250784 0 40.125392 40.125392 0 1 0-80.250784 0Z" fill="#666666" p-id="2488"></path><path d="M903.157831 793.680251m-40.125392 0a40.125392 40.125392 0 1 0 80.250784 0 40.125392 40.125392 0 1 0-80.250784 0Z" fill="#666666" p-id="2489"></path><path d="M421.653129 673.304075m-60.188088 0a60.188088 60.188088 0 1 0 120.376176 0 60.188088 60.188088 0 1 0-120.376176 0Z" fill="#666666" p-id="2490"></path><path d="M121.515198 903.623824a120.376176 120.376176 0 0 1-105.128527-40.927899c-51.360502-70.62069 32.902821-189.39185 49.755486-212.664577l48.15047 36.112853c-32.100313 43.335423-67.410658 116.363636-48.952978 141.241379 5.617555 8.025078 44.940439 43.335423 256.802508-27.285267 8.025078 0 795.285266-274.45768 862.695925-617.931034a41.730408 41.730408 0 0 0-15.247649-24.075235c-8.827586-4.815047-35.310345-12.840125-101.918495 20.062696l-27.285267-53.768025a167.724138 167.724138 0 0 1 160.501568-17.655173 97.103448 97.103448 0 0 1 43.335423 80.250784c-73.028213 383.598746-869.115987 658.056426-902.821317 670.094044a743.122257 743.122257 0 0 1-219.887147 46.545454z" fill="#666666" p-id="2491"></path></svg>