<?xml version="1.0" standalone="no"?><!DOCTYPE svg PUBLIC "-//W3C//DTD SVG 1.1//EN" "http://www.w3.org/Graphics/SVG/1.1/DTD/svg11.dtd"><svg t="1603159872601" class="icon" viewBox="0 0 1024 1024" version="1.1" xmlns="http://www.w3.org/2000/svg" p-id="3689" xmlns:xlink="http://www.w3.org/1999/xlink" width="200" height="200"><defs><style type="text/css"></style></defs><path d="M916.0192 216.32l-349.696-201.6256a107.008 107.008 0 0 0-108.032 0L108.4928 216.32a109.1584 109.1584 0 0 0-54.016 94.0544v403.2a109.2096 109.2096 0 0 0 54.016 94.1056l349.184 201.6256a107.9808 107.9808 0 0 0 108.544 0l349.184-201.6256a108.544 108.544 0 0 0 54.016-94.1056V310.3744a107.52 107.52 0 0 0-53.4016-94.0544z m-176.4352 141.3632l-175.36 355.8912a53.9648 53.9648 0 0 1-52.5312 29.3376 52.6848 52.6848 0 0 1-52.48-29.3376l-174.08-355.8912a53.0432 53.0432 0 0 1 95.232-46.7968l132.7104 269.5168 132.6592-269.5168a52.5312 52.5312 0 1 1 94.1056 46.7968z" p-id="3690"></path></svg>