<?xml version="1.0" standalone="no"?><!DOCTYPE svg PUBLIC "-//W3C//DTD SVG 1.1//EN" "http://www.w3.org/Graphics/SVG/1.1/DTD/svg11.dtd"><svg t="1560914187972" class="icon" style="" viewBox="0 0 1024 1024" version="1.1" xmlns="http://www.w3.org/2000/svg" p-id="22050" xmlns:xlink="http://www.w3.org/1999/xlink" width="200" height="200"><defs><style type="text/css"></style></defs><path d="M398.08 987.392c-11.52 0-23.296-3.328-34.56-10.24-29.696-18.432-53.504-62.464-41.728-103.936l74.752-271.36h-133.888c-38.144 0-81.664-25.088-97.28-56.064-9.984-19.968-8.448-41.472 4.608-58.88 43.52-58.624 316.672-345.856 416.512-434.944 20.992-18.688 49.152-20.736 73.984-5.12 29.696 18.432 53.504 62.464 41.728 103.68l-74.752 271.36h133.888c38.144 0 81.664 25.088 97.28 56.064 9.984 19.968 8.448 41.472-4.608 58.88-43.52 58.624-316.672 345.856-416.512 434.944-11.52 10.496-25.344 15.616-39.424 15.616zM215.552 520.192c3.072 8.448 27.136 25.344 47.104 25.344h171.008c8.704 0 17.152 4.096 22.528 11.008 5.376 6.912 7.168 16.128 4.864 24.576l-84.992 307.2c-4.096 14.336 6.144 34.048 17.408 40.96 4.352 2.816 5.12 2.048 6.656 0.512 98.048-87.552 365.056-368.128 408.576-426.24-3.072-8.448-27.136-25.344-47.104-25.344h-171.008c-8.704 0-17.152-4.096-22.528-11.008s-7.168-16.128-4.864-24.576L647.936 135.68c4.096-14.336-6.144-34.048-17.408-40.96-4.352-2.816-5.12-2.048-6.656-0.512-98.048 87.296-365.056 368.128-408.32 425.984z" p-id="22051"></path></svg>