<?xml version="1.0" standalone="no"?><!DOCTYPE svg PUBLIC "-//W3C//DTD SVG 1.1//EN" "http://www.w3.org/Graphics/SVG/1.1/DTD/svg11.dtd"><svg t="1611626746019" class="icon" viewBox="0 0 1024 1024" version="1.1" xmlns="http://www.w3.org/2000/svg" p-id="2657" xmlns:xlink="http://www.w3.org/1999/xlink" width="200" height="200"><defs><style type="text/css"></style></defs><path d="M717.312 218.794667c0-40.448-3.242667-68.266667-3.413333-68.949333-1.024-8.192-5.973333-15.530667-13.312-19.456-7.338667-3.925333-16.213333-4.096-23.722667-0.341333l-77.653333 38.912-65.877333-98.645333c-4.608-6.826667-11.946667-10.922667-19.968-11.434667-8.192-0.341333-15.872 3.072-21.162667 9.386667l-75.776 92.501333-67.754667-30.037333c-2.901333-1.706667-6.314667-2.901333-9.898667-3.242667-13.994667-1.706667-26.794667 8.362667-28.501333 22.357333l0 0.170667c-0.170667 0.682667-3.413333 28.501333-3.413333 68.949333 0.170667 96.768 18.090667 289.28 181.589333 309.930667l0 414.378667c0 14.165333 11.434667 25.6 25.6 25.6 14.165333 0 25.6-11.434667 25.6-25.6L539.648 528.213333C699.392 504.832 717.141333 314.709333 717.312 218.794667zM358.4 218.794667c0-10.24 0.170667-19.626667 0.512-27.818667l54.784 24.234667c10.581333 4.608 22.869333 1.706667 30.208-7.168l66.218667-80.896 59.050667 88.576c7.168 10.752 21.162667 14.506667 32.768 8.704L665.6 192.853333c0.341333 7.68 0.512 16.384 0.512 25.941333-0.170667 102.741333-23.893333 260.266667-153.770667 260.608C382.293333 479.061333 358.741333 321.536 358.4 218.794667z" p-id="2658"></path><path d="M821.077333 565.76c-3.242667-6.144-8.533333-10.581333-15.018667-12.629333-1.365333-0.341333-42.154667-13.482667-90.624-13.653333-25.6 0.170667-53.76 3.584-79.701333 16.725333-50.688 25.770667-60.074667 75.605333-59.562667 102.912 0 15.530667 4.096 32.768 11.264 41.301333 7.68 7.168 36.352 32.768 81.749333 33.28 16.384 0 34.304-3.754667 52.224-12.970667 73.728-39.765333 99.669333-133.802667 101.376-135.68C824.832 578.901333 824.149333 571.904 821.077333 565.76zM698.026667 675.328c-11.093333 5.461333-45.909333 15.872-70.485333-8.192-0.170667-2.218667-3.584-49.493333 31.402667-65.194667 15.701333-6.997333 35.84-11.264 56.490667-11.264 17.749333 0 34.474667 2.389333 47.957333 4.949333C750.762667 622.250667 727.381333 660.992 698.026667 675.328z" p-id="2659"></path><path d="M392.362667 562.517333c-26.453333-12.458667-54.954667-15.872-81.066667-16.042667-49.664 0.170667-91.477333 12.8-92.842667 13.141333-6.656 2.048-12.288 6.656-15.36 12.8-3.242667 6.144-3.754667 13.482667-1.536 19.968 1.706667 1.877333 29.013333 93.184 104.448 131.072 18.432 8.704 36.522667 12.288 52.906667 12.288 46.421333-0.512 76.117333-25.6 83.285333-32.085333 4.266667-3.413333 7.509333-8.192 8.874667-13.653333l0-0.170667c0.341333-1.536 2.901333-11.776 2.901333-26.965333C454.656 636.074667 443.904 586.922667 392.362667 562.517333zM328.021333 677.376c-30.037333-13.141333-52.736-49.664-65.877333-75.093333 13.824-2.389333 30.890667-4.608 48.981333-4.437333 21.333333 0 43.008 3.242667 59.050667 10.922667 28.330667 13.824 31.744 35.84 32.426667 54.272 0 2.901333-0.170667 5.290667-0.341333 7.338667-8.192 5.802667-24.064 14.848-43.52 14.336C349.696 684.714667 339.626667 682.837333 328.021333 677.376z" p-id="2660"></path></svg>