<?xml version="1.0" standalone="no"?><!DOCTYPE svg PUBLIC "-//W3C//DTD SVG 1.1//EN" "http://www.w3.org/Graphics/SVG/1.1/DTD/svg11.dtd"><svg t="1612682338669" class="icon" viewBox="0 0 1024 1024" version="1.1" xmlns="http://www.w3.org/2000/svg" p-id="2245" xmlns:xlink="http://www.w3.org/1999/xlink" width="200" height="200"><defs><style type="text/css"></style></defs><path d="M829.2 891.7H697.4c-28 0-50.8-22.8-50.8-50.8v-402c0-28 22.8-50.8 50.8-50.8h131.8c28 0 50.8 22.8 50.8 50.8v402c0 28-22.8 50.8-50.8 50.8z m-110.5-72H808V460.1h-89.3v359.6zM322.6 891.7H190.8c-28 0-50.8-22.8-50.8-50.8V546.8c0-28 22.8-50.8 50.8-50.8h131.8c28 0 50.8 22.8 50.8 50.8V841c-0.1 27.9-22.8 50.7-50.8 50.7z m-110.6-72h89.3V568H212v251.7zM575.9 891.7H444.1c-28 0-50.8-22.8-50.8-50.8V223.1c0-28 22.8-50.8 50.8-50.8h131.8c28 0 50.8 22.8 50.8 50.8v617.8c0 28-22.8 50.8-50.8 50.8z m-110.6-72h89.3V244.4h-89.3v575.3zM230.9 410.7l-3.1-5.5c14.2-11 21-21.3 20.5-30.7-1.1-9.5-5.8-14.4-14.2-15-7.9 0-14.2 4.7-18.9 14.2l-6.3-2.4c6.8-17.8 18.9-27 36.2-27.6 16.3 1.6 25.2 8.9 26.8 22.1 0 11-7.1 20.5-21.3 28.4h0.8c18.4 1.1 28.6 12.3 30.7 33.9-2.6 29.4-19.4 44.6-50.4 45.7-18.4-1.1-28.1-6.3-29.1-15.8 0.5-5.8 4.2-9.2 11-10.2 4.2 0 8.1 3.2 11.8 9.5 4.7 5.8 9.7 8.7 15 8.7 10.5-0.5 16.3-9.7 17.3-27.6-1.1-18.4-7.9-28.1-20.5-29.1-1.1 0-2.4 0.3-3.9 0.8-1.1 0.3-1.9 0.6-2.4 0.6z" p-id="2246"></path><path d="M523.4 25.7v112.6c-0.5 6.3 1.8 9.2 7.1 8.7h13.4v7.1h-64.6V147h12.6c4.7 0 7.1-2.6 7.1-7.9V51c-8.4 5.3-16.3 8.7-23.6 10.2l-3.1-5.5c15.8-7.3 29.1-17.3 40.2-29.9h10.9z" p-id="2247"></path><path d="M716.3 367.1V360c3.1-3.1 6-6.6 8.7-10.2 33.6-33.6 48.6-56.4 44.9-68.5-1.1-16.3-7.9-24.9-20.5-26-12.1 1.1-19.7 8.7-22.8 22.8h-7.9c4.2-24.7 17.6-37.8 40.2-39.4 22.1 1.6 33.9 13.4 35.4 35.4 0 13.1-9.5 28.4-28.4 45.7-11.6 10.5-20.2 19.2-26 26h37.8c8.9 1.1 13.9-3.9 15-15h6.3l-3.9 36.2h-78.8z" p-id="2248"></path></svg>