<?xml version="1.0" standalone="no"?><!DOCTYPE svg PUBLIC "-//W3C//DTD SVG 1.1//EN" "http://www.w3.org/Graphics/SVG/1.1/DTD/svg11.dtd"><svg t="1595556655205" class="icon" viewBox="0 0 1024 1024" version="1.1" xmlns="http://www.w3.org/2000/svg" p-id="2034" xmlns:xlink="http://www.w3.org/1999/xlink" width="200" height="200"><defs><style type="text/css"></style></defs><path d="M225.28 798.72c35.84 0 63.146667-29.013333 63.146667-63.146667V279.893333c0-35.84-29.013333-63.146667-63.146667-63.146666-35.84 0-63.146667 29.013333-63.146667 63.146666v455.68c0 34.133333 27.306667 63.146667 63.146667 63.146667z m191.146667 0c35.84 0 63.146667-29.013333 63.146666-63.146667V518.826667c0-35.84-29.013333-63.146667-63.146666-63.146667-35.84 0-63.146667 29.013333-63.146667 63.146667v216.746666c0 34.133333 27.306667 63.146667 63.146667 63.146667z m191.146666 0c35.84 0 63.146667-29.013333 63.146667-63.146667V151.893333c0-35.84-29.013333-63.146667-63.146667-63.146666-35.84 0-63.146667 29.013333-63.146666 63.146666v583.68c0 34.133333 27.306667 63.146667 63.146666 63.146667z m191.146667 0c35.84 0 63.146667-29.013333 63.146667-63.146667V375.466667c0-35.84-29.013333-63.146667-63.146667-63.146667-35.84 0-63.146667 29.013333-63.146667 63.146667v360.106666c0 34.133333 27.306667 63.146667 63.146667 63.146667z m158.72 63.146667H66.56c-17.066667 0-32.426667 13.653333-32.426667 32.426666 0 17.066667 13.653333 32.426667 32.426667 32.426667h892.586667c17.066667 0 32.426667-13.653333 32.426666-32.426667-1.706667-17.066667-15.36-32.426667-34.133333-32.426666z m0 0" p-id="2035"></path></svg>