<?xml version="1.0" standalone="no"?><!DOCTYPE svg PUBLIC "-//W3C//DTD SVG 1.1//EN" "http://www.w3.org/Graphics/SVG/1.1/DTD/svg11.dtd"><svg t="1560914245181" class="icon" style="" viewBox="0 0 1024 1024" version="1.1" xmlns="http://www.w3.org/2000/svg" p-id="22982" xmlns:xlink="http://www.w3.org/1999/xlink" width="200" height="200"><defs><style type="text/css"></style></defs><path d="M647.062604 293.03601c77.093842 0 145.768945 66.580394 145.768944 145.768944 0 127.507022-270.714631 354.011756-270.714631 354.011756h-20.824281S230.578004 566.311976 230.578004 438.804954c0-79.18855 68.675102-146.297994 145.768945-145.768944 65.869197 0.448208 133.952828 84.761476 133.952828 84.761475s75.246775-84.761476 136.762827-84.761475zM511.704776 63.960731c246.738567 0 447.719998 200.971198 447.719998 447.730231 0 246.718101-200.981431 447.718975-447.719998 447.718974-246.737544 0-447.717951-201.001897-447.717951-447.718974-0.001023-246.759033 200.980407-447.730231 447.717951-447.730231z m0 62.482053c-209.257931 0-385.246131 175.9882-385.246131 385.247154 0 209.257931 175.9882 385.247154 385.246131 385.247155 209.259978 0 385.249201-175.9882 385.249201-385.247155-0.001023-209.257931-175.989223-385.247154-385.249201-385.247154z m21.271466 312.159556c-4.248767 9.029654-24.707728 31.887244-42.175565-0.406253-26.802436-49.538253-64.262606-82.07632-114.451682-82.686211-51.206242-0.60989-83.296101 28.633131-83.296101 83.296102 0 97.613178 218.652905 291.538913 218.652905 291.538912s218.653929-180.25948 218.653929-291.538912c0-50.759057-32.353872-88.583524-83.295078-83.296102-43.298132 4.472871-88.503706 28.998451-114.088408 83.092464z" p-id="22983"></path></svg>