<?xml version="1.0" standalone="no"?><!DOCTYPE svg PUBLIC "-//W3C//DTD SVG 1.1//EN" "http://www.w3.org/Graphics/SVG/1.1/DTD/svg11.dtd"><svg t="1595987333768" class="icon" viewBox="0 0 1024 1024" version="1.1" xmlns="http://www.w3.org/2000/svg" p-id="4957" xmlns:xlink="http://www.w3.org/1999/xlink" width="200" height="200"><defs><style type="text/css"></style></defs><path d="M337.066667 362.666667c25.6-44.8 66.133333-76.8 115.2-91.733334a192 192 0 0 1 145.066666 19.2c29.866667 17.066667 55.466667 44.8 72.533334 74.666667L682.666667 341.333333c2.133333-4.266667 8.533333-8.533333 12.8-10.666666 6.4-2.133333 10.666667 0 17.066666 2.133333 10.666667 6.4 14.933333 19.2 8.533334 29.866667l-40.533334 70.4c-2.133333 4.266667-8.533333 8.533333-12.8 10.666666-6.4 2.133333-10.666667 0-17.066666-2.133333l-68.266667-40.533333c-10.666667-6.4-14.933333-19.2-8.533333-29.866667 2.133333-4.266667 8.533333-8.533333 12.8-10.666667 6.4-2.133333 10.666667 0 17.066666 2.133334l17.066667 10.666666c-12.8-17.066667-27.733333-32-46.933333-42.666666-70.4-40.533333-160-17.066667-200.533334 55.466666-2.133333 4.266667-8.533333 8.533333-12.8 10.666667-6.4 2.133333-10.666667 0-17.066666-2.133333-10.666667-8.533333-12.8-21.333333-6.4-32z m-29.866667 194.133333l40.533333-70.4c2.133333-4.266667 8.533333-8.533333 12.8-10.666667 6.4-2.133333 10.666667 0 17.066667 2.133334l68.266667 40.533333c10.666667 6.4 14.933333 19.2 8.533333 29.866667-2.133333 4.266667-8.533333 8.533333-12.8 10.666666-6.4 2.133333-10.666667 0-17.066667-2.133333l-19.2-10.666667c12.8 17.066667 27.733333 32 46.933334 42.666667 70.4 40.533333 160 17.066667 200.533333-55.466667 2.133333-4.266667 8.533333-8.533333 12.8-10.666666 6.4-2.133333 10.666667 0 17.066667 2.133333 10.666667 6.4 14.933333 19.2 8.533333 29.866667-25.6 44.8-66.133333 76.8-115.2 91.733333a192 192 0 0 1-145.066667-19.2c-29.866667-17.066667-55.466667-44.8-72.533333-74.666667l-14.933333 25.6c-2.133333 4.266667-8.533333 8.533333-12.8 10.666667-6.4 2.133333-10.666667 0-17.066667-2.133333-8.533333-6.4-12.8-19.2-6.4-29.866667z" p-id="4958"></path><path d="M861.866667 102.4H125.866667C96 102.4 70.4 128 70.4 160V725.333333c0 25.6 8.533333 49.066667 27.733333 66.133334 17.066667 17.066667 40.533333 27.733333 66.133334 27.733333h213.333333c10.666667 0 21.333333 4.266667 29.866667 10.666667l91.733333 76.8c10.666667 8.533333 23.466667 12.8 36.266667 12.8s25.6-4.266667 36.266666-12.8l91.733334-76.8c8.533333-6.4 19.2-10.666667 29.866666-10.666667h206.933334c32 0 55.466667-25.6 55.466666-55.466667V198.4c0-53.333333-42.666667-96-93.866666-96zM174.933333 160h686.933334c21.333333 0 36.266667 17.066667 36.266666 38.4v518.4c0 25.6-21.333333 46.933333-46.933333 46.933333h-177.066667c-12.8 0-25.6 4.266667-36.266666 12.8l-74.666667 61.866667c-8.533333 6.4-19.2 10.666667-29.866667 10.666667-10.666667 0-21.333333-4.266667-29.866666-10.666667l-74.666667-61.866667c-10.666667-8.533333-23.466667-12.8-36.266667-12.8H164.266667C145.066667 763.733333 128 746.666667 128 725.333333V206.933333c0-25.6 21.333333-46.933333 46.933333-46.933333z" p-id="4959"></path></svg>