<?xml version="1.0" standalone="no"?><!DOCTYPE svg PUBLIC "-//W3C//DTD SVG 1.1//EN" "http://www.w3.org/Graphics/SVG/1.1/DTD/svg11.dtd"><svg t="1565667711343" class="icon" viewBox="0 0 1092 1024" version="1.1" xmlns="http://www.w3.org/2000/svg" p-id="1964" xmlns:xlink="http://www.w3.org/1999/xlink" width="213.28125" height="200"><defs><style type="text/css"></style></defs><path d="M801.72730975 250.15573889c44.61287783 0 80.44419813 35.38262725 80.95698951 79.48271276v423.05315186c0 23.58841786-10.76862568 45.12566923-28.71633453 60.50942112a80.57239574 80.57239574 0 0 1-51.72786266 18.97329257H575.84256656l-96.3407405 145.50464434a29.16502758 29.16502758 0 0 1-22.4987358 11.73011013 26.40877282 26.40877282 0 0 1-22.56283508-11.79420846l-96.34074049-145.50464528H111.7019801C67.08910227 832.1743172 31.25778198 796.34299691 31.25778198 752.81980206V329.57435332c0-44.03598717 35.89541863-79.41861441 80.44419812-79.41861443H801.72730975z m17.94770978 521.57325645a28.07534553 28.07534553 0 0 0 10.2558343-18.97329255V329.57435332a26.92156421 26.92156421 0 0 0-27.69075176-26.08827833H111.7019801c-15.38375098 0-27.69075176 11.28141707-27.69075175 26.08827833v423.18134946a26.92156421 26.92156421 0 0 0 27.69075175 26.08827739h240.24291047c9.23025059 0 17.43491747 4.1023339 22.56283507 11.79420939l82.49536462 123.45460159 81.40568256-123.96739298a29.16502758 29.16502758 0 0 1 22.56283415-11.79420939h240.75570277a27.56255414 27.56255414 0 0 0 17.94770979-6.60219344z m-120.37785139-330.94294288c9.74304198 0 17.43491747 8.14056854 17.43491747 17.37081912a17.30671985 17.30671985 0 0 1-17.43491747 17.43491747h-484.58815576a17.62721435 17.62721435 0 0 1-17.49901673-17.43491747 17.30671985 17.30671985 0 0 1 17.43491745-17.37081912h484.58815577zM628.01912226 605.71268334c9.74304198 0 17.43491747 7.69187549 16.40933376 17.43491747a17.30671985 17.30671985 0 0 1-17.43491747 17.43491746h-341.6474693a17.62721435 17.62721435 0 0 1-17.49901673-17.43491746 17.30671985 17.30671985 0 0 1 17.43491746-17.43491747h342.73715228z m346.32669386-528.17545082c44.54877856 0 80.38009885 35.89541863 81.40568163 79.93140675v422.6044588c0 44.10008644-35.89541863 79.48271368-80.38009885 79.48271369h-42.56171041a26.47287117 26.47287117 0 0 1-26.60106971-26.66516898c0-14.87095958 11.79420939-26.66516805 26.60106971-26.66516805h42.56171041c15.38375098 0 27.62665249-11.28141707 27.62665341-26.15237666V156.95584695a26.92156421 26.92156421 0 0 0-27.62665341-26.15237666H284.83327693c-15.38375098 0-27.62665249 11.28141707-27.62665248 26.15237666v43.58729505a26.47287117 26.47287117 0 0 1-26.66516805 26.60106877 26.47287117 26.47287117 0 0 1-26.66516898-26.66516805v-43.58729412c0-43.9718879 35.89541863-79.35451514 80.44419813-79.35451608h690.08942891z" p-id="1965"></path></svg>