<?xml version="1.0" standalone="no"?><!DOCTYPE svg PUBLIC "-//W3C//DTD SVG 1.1//EN" "http://www.w3.org/Graphics/SVG/1.1/DTD/svg11.dtd"><svg t="1597557265723" class="icon" viewBox="0 0 1024 1024" version="1.1" xmlns="http://www.w3.org/2000/svg" p-id="2681" xmlns:xlink="http://www.w3.org/1999/xlink" width="200" height="200"><defs><style type="text/css"></style></defs><path d="M949.252599 110.022813a1539.226484 1539.226484 0 0 1-366.136911-77.664848L512.754177 8.18645l-51.052747 18.147312A1539.110851 1539.110851 0 0 1 97.65718 107.757213l-51.241034 5.067412v99.314936c0 296.737308 143.889131 575.053058 386.003378 746.618529l78.092589 55.337329 79.750345-55.705719c245.064438-171.174568 391.069767-451.255521 391.069767-750.182704v-95.382371l-32.079626-2.801812z m-42.851971 98.185206a840.85582 840.85582 0 0 1-24.459064 201.298655 841.190441 841.190441 0 0 1-70.689993 187.06242 841.202721 841.202721 0 0 1-112.876813 165.07157 840.84968 840.84968 0 0 1-151.019529 135.322011l-36.533054 25.518187-35.07996-24.858154a840.892659 840.892659 0 0 1-149.150972-135.244241 841.252863 841.252863 0 0 1-111.405299-164.40028 841.175091 841.175091 0 0 1-69.726038-185.949063 840.901869 840.901869 0 0 1-24.113187-199.888539V180.626847a1615.828117 1615.828117 0 0 0 365.449249-83.690074l26.377764-9.376555 45.595454 15.662725a1615.895655 1615.895655 0 0 0 347.631442 77.856205v27.128871z" p-id="2682"></path><path d="M516.29277 208.683856c-27.588335 0-49.953715 22.36538-49.953716 49.953716v259.371282c0 26.424836 21.421892 47.845705 47.845705 47.845705h4.214998c26.424836 0 47.845705-21.421892 47.845705-47.845705V258.637572c0.001023-27.588335-22.363334-49.953715-49.952692-49.953716z m2.10801 412.120199h-4.214998c-26.424836 0-47.845705 21.421892-47.845705 47.845704 0 26.424836 21.421892 47.845705 47.845705 47.845705h4.214998c26.424836 0 47.845705-21.421892 47.845705-47.845705s-21.421892-47.845705-47.845705-47.845704z" p-id="2683"></path></svg>