<?xml version="1.0" standalone="no"?><!DOCTYPE svg PUBLIC "-//W3C//DTD SVG 1.1//EN" "http://www.w3.org/Graphics/SVG/1.1/DTD/svg11.dtd"><svg t="1562148530800" class="icon" viewBox="0 0 1024 1024" version="1.1" xmlns="http://www.w3.org/2000/svg" p-id="23623" xmlns:xlink="http://www.w3.org/1999/xlink" width="200" height="200"><defs><style type="text/css"></style></defs><path d="M966.047 140.35L867.06 41.232c-16.032-16.119-39.038-25.345-63.177-25.345-24.108 0-47.133 9.226-63.164 25.345-0.064 0.039-0.131 0.113-0.2 0.163l-80.676 95.084-430.64 412.99c-0.491 0.454-0.828 1.095-0.86 1.773l-28.43 247.55c-0.107 0.94 0.287 1.88 0.995 2.488l13.682 11.976c0.51 0.46 1.201 0.704 1.891 0.704 0.137 0 0.274 0 0.404-0.031l240.72-32.816c0.676-0.1 1.25-0.393 1.703-0.878l411.753-431.927 94.788-77.55a3.56 3.56 0 0 1 0.218-0.198c16.573-16.648 26.116-40.374 26.116-65.104-0.001-24.732-9.545-48.446-26.137-65.106m-44.861 81.802l-55.308 55.442-135.646-135.889 55.287-55.474c4.903-4.864 11.385-7.56 18.335-7.56 6.992 0 13.512 2.695 18.358 7.56l98.917 99.055c10.123 10.14 10.16 26.7 0.057 36.866m-646.61 516.774l6.468-106.098 97.774 97.88-104.243 8.218z m35.61-166.768l380.976-379.712 124.127 124.363-378.564 382.002-126.539-126.653z m0 0" p-id="23624"></path><path d="M876.995 429.108c-17.35 0-30.963 14.12-30.963 32.165v386.333c0 37.67-29.295 68.352-65.31 68.352h-606.72c-18.126 0-38.327-7.713-54.144-20.549-16.585-13.468-26.115-30.914-26.115-47.803V239.11c0-35.852 42.752-76.73 80.26-76.73h326.695c18.011 0 32.115-13.652 32.115-31.052s-14.104-31.012-32.115-31.012H174.002c-79.737 0-142.185 60.987-142.185 138.794v608.495c0 37.37 14.85 71.046 41.827 94.83 26.017 22.944 61.658 35.573 100.36 35.573h606.72c38.279 0 70.475-12.355 93.045-35.742 22.403-23.143 34.223-55.872 34.223-94.661V461.272c0-18.043-13.583-32.164-30.997-32.164" p-id="23625"></path></svg>