<?xml version="1.0" standalone="no"?><!DOCTYPE svg PUBLIC "-//W3C//DTD SVG 1.1//EN" "http://www.w3.org/Graphics/SVG/1.1/DTD/svg11.dtd"><svg t="1593660089940" class="icon" viewBox="0 0 1024 1024" version="1.1" xmlns="http://www.w3.org/2000/svg" p-id="2102" xmlns:xlink="http://www.w3.org/1999/xlink" width="200" height="200"><defs><style type="text/css"></style></defs><path d="M172.653 596.324V855.85c1.369 40.48 34.779 72.407 75.259 72.18h226.23V559.492h-263.86c-20.182 0.798-36.488 16.762-37.629 36.83z m640.38-36.831H549.401v368.423h226.573c19.841 0.228 38.884-7.411 53.023-21.323 14.14-13.911 22.236-32.84 22.464-52.567V594.613c-2.167-19.727-18.587-34.778-38.428-35.12z m113.344-184.155c-1.596-20.183-17.902-36.147-38.085-37.401H777.799c44.813-27.367 72.75-75.487 74.46-127.94-0.342-30.331-13-59.18-34.893-80.047-21.893-20.867-51.312-32.042-81.643-31.016-103.766 0-183.7 105.59-224.407 166.367C470.608 204.866 388.052 97.68 284.286 97.68c-29.989-0.798-59.066 10.833-80.161 32.156-21.21 21.323-32.612 50.4-31.472 80.39 0.57 51.426 26.569 99.204 69.33 127.71H134.795c-19.613 1.483-35.577 16.42-38.427 35.805v93.39c0.114 4.902 2.052 9.691 5.701 13.112 3.535 3.421 8.324 5.36 13.341 5.246h358.846V375.452c-0.57-10.035 3.193-19.841 10.376-26.797 7.184-7.07 16.99-10.718 27.025-10.034 10.034-0.57 19.84 3.078 27.139 10.034 7.183 6.956 11.174 16.762 10.946 26.797v111.29h358.39c4.903 0.115 9.692-1.824 13.34-5.244 3.536-3.421 5.588-8.21 5.702-13.114-0.228-4.903-0.798-74.688-0.798-93.046z m-546.193-74.232c-65.908 0-132.614-30.104-132.614-91.565 0-30.331 21.55-36.83 56.557-36.83 70.355 0 109.239 70.354 149.49 129.763l-73.433-1.368z m259.527 0h-71.153c40.252-58.383 80.39-129.764 150.745-129.764 35.006 0 56.557 6.5 56.557 36.83 0 62.488-70.013 93.39-136.263 93.39v-0.456z m0 0" p-id="2103"></path></svg>