<?xml version="1.0" standalone="no"?><!DOCTYPE svg PUBLIC "-//W3C//DTD SVG 1.1//EN" "http://www.w3.org/Graphics/SVG/1.1/DTD/svg11.dtd"><svg t="1565689274597" class="icon" viewBox="0 0 1083 1024" version="1.1" xmlns="http://www.w3.org/2000/svg" p-id="2143" xmlns:xlink="http://www.w3.org/1999/xlink" width="211.5234375" height="200"><defs><style type="text/css"></style></defs><path d="M573.147429 108.836571c29.842286 0 54.418286-24.576 54.418286-54.418286 0-30.134857-24.605257-54.418286-54.418286-54.418286-30.1056 0-54.710857 24.283429-54.710857 54.418286C518.436571 84.260571 543.012571 108.836571 573.147429 108.836571zM182.272 394.971429c-19.338971 11.410286-40.96 17.846857-65.828571 15.798857l-30.749257-5.851429-16.091429-11.410286-8.484571-11.702857 5.558857-8.192 30.427429-7.606857 9.098971-1.462857 6.729143-2.633143 24.576 2.340571 15.213714-2.048 11.702857-3.803429 3.803429-1.755429 2.340571 3.803429 9.069714 27.501714L182.272 394.971429zM189.586286 409.307429l17.232457 57.344 20.187429 52.662857 0 16.384-5.558857 23.698286L219.428571 579.584l2.018743 12.580571L254.537143 650.971429l0 4.388571-3.510857 6.144-13.165714 18.432-40.082286 60.854857-7.899429 9.947429-6.173257 5.851429L174.372571 766.244571 167.643429 775.314286l-3.218286 16.384-10.532571 46.518857-5.558857 22.235429L134.290286 901.997714 131.657143 919.844571l0.292571 16.091429-0.585143 11.117714-4.388571 11.117714L121.417143 966.070857 114.980571 999.716571 113.810286 1009.371429l6.729143 2.340571 13.750857-3.510857 16.676571-7.899429 16.091429-13.165714 8.192-12.288-0.877714-10.532571-3.510857-15.798857-4.681143-3.218286-1.755429-9.654857 3.218286-7.314286 4.651886-4.096 2.954971-12.580571 2.633143-17.261714 0-18.432 4.681143-25.161143L193.097143 824.173714 201.874286 806.034286l9.947429-14.336 11.410286-10.532571 19.602286-15.506286 14.628571-11.410286c14.9504-9.069714 29.257143-16.969143 44.4416-25.161143l36.571429-28.964571 9.362286-6.729143 0.6144-6.729143 15.477029 5.851429 5.558857 42.130286 4.681143 32.475429 4.359314 28.086857 1.492114 10.825143c1.755429 11.702857 0.848457 8.192 3.803429 23.113143l2.018743 22.528 4.125257 13.458286 6.436571 9.362286 14.628571 12.873143 30.134857 25.453714 23.113143 23.698286 12.288 13.750857 11.6736 11.702857 8.8064 6.144 14.014171 9.069714 13.165714 5.851429 14.628571 4.973714 24.576 2.925714 10.825143-0.292571 3.803429-3.510857-1.755429-8.777143-10.269257-23.113143-13.750857-15.506286-11.410286-8.192-7.021714-1.462857-9.654857 4.681143-4.681143 4.388571-7.021714 0.585143-6.114743-4.973714-1.755429-9.362286-2.340571-7.314286-9.947429-9.654857L471.04 894.390857l-20.772571-15.506286-11.966171-10.532571-7.899429-13.750857-4.125257-21.065143 1.170286-47.104 3.540114-33.645714 4.359314-47.104 31.597714-0.292571 30.72-5.266286 62.317714-18.432 50.907429-14.628571 40.374857-14.336 36.571429-16.384 1.170286 38.912 7.870171 35.693714 6.7584 18.432 9.654857 23.113143 12.609829 29.549714 4.651886 13.750857-3.510857 19.602286L716.214857 830.902857l-22.264686 27.209143-19.017143 21.650286L664.137143 889.417143l-17.846857 15.798857-14.336 11.995429-7.021714 9.947429-2.018743 14.628571-0.321829 9.654857-4.359314 9.362286-6.436571 12.873143-3.218286 5.851429-7.928686 35.108571 0 4.681143 8.221257 2.340571 12.288-3.218286 16.062171-8.192 21.942857-14.921143 0.906971-6.729143 1.141029-7.899429-2.048-9.069714-5.266286-6.729143-3.4816-5.851429 1.755429-2.633143 6.699886-0.877714 7.021714-4.096 4.973714-8.192 8.8064-14.921143 14.921143-18.139429 22.791314-25.161143 59.128686-50.029714L794.624 819.2l1.726171-5.851429-0.585143-7.021714-2.6624-17.261714-9.947429-23.113143-2.925714-23.113143L780.229486 719.725714l2.633143-10.825143 18.432 14.921143 25.746286 16.676571 31.041829 27.501714 16.676571 16.091429 14.921143 11.995429L906.971429 811.885714l9.947429 12.288 10.532571 16.676571 15.506286 28.379429 18.110171 36.864 15.242971 35.693714 5.822171 16.091429L988.598857 965.485714l7.606857 4.388571 9.947429 2.925714 8.484571 4.096 7.021714 7.021714 5.266286 9.362286 6.173257 8.484571L1077.833143 1024 1082.514286 1018.441143l0-11.117714-3.803429-19.894857-4.973714-14.043429-4.681143-11.410286-9.362286-9.069714-9.040457-1.755429-10.825143 2.925714-3.510857 2.633143-4.973714 2.048-4.973714-2.340571-2.048-6.144 2.048-9.362286-1.492114-9.362286-6.144-7.899429-11.6736-12.873143-11.439543-17.261714-14.628571-30.427429-14.628571-40.96-12.843886-47.396571-2.048-17.261714L947.931429 753.371429l-18.461257-9.362286-20.158171-9.362286-10.825143-7.314286-7.606857-9.069714-8.777143-14.628571-2.048-9.069714 0-20.187429 5.5296-40.374857 3.510857-41.837714 1.784686-39.789714 0-20.187429-3.510857-18.139429-10.825143-29.257143-9.654857-13.458286 17.583543 4.388571 17.232457 9.362286 12.609829 16.384 8.777143 26.916571 0.877714 25.161143-5.851429 40.374857 0.877714 33.353143 2.048 26.038857 3.774171 19.309714 10.8544 4.681143 16.384 23.990857 7.606857 20.187429 2.048 23.405714L965.485714 767.122286l16.384 19.894857 16.939886 17.554286 11.702857 28.672 2.925714 20.187429 15.506286-21.065143 6.729143-5.851429 7.899429-3.803429 10.24-16.384 2.048-26.038857-6.729143-25.746286L1035.702857 726.454857l-11.439543-22.235429-8.777143-19.894857-3.803429-15.506286 1.755429-10.825143-3.803429-25.746286-1.755429-36.571429-7.021714-60.562286-8.777143-33.645714-16.969143-28.086857-17.261714-14.336-28.116114-16.091429-23.376457-7.899429-29.842286 0-16.091429 2.925714-15.506286 0-21.942857-4.681143-23.405714-12.580571-40.696686-16.384-29.257143-7.021714-17.554286-7.314286c0 0-16.676571 0.585143-16.676571-20.48 0.292571-100.352-15.7696-191.926857-71.68-267.410286C610.596571 113.225143 594.212571 119.954286 574.902857 121.709714L552.96 248.978286 437.979429 351.085714 468.114286 371.858286l73.142857-39.497143c9.654857 36.864-60.562286 82.212571-91.574857 62.610286l11.6736-14.921143-27.794286-18.724571-29.257143 20.772571-52.370286-29.549714-148.918857-142.189714-7.314286-10.825143-7.314286-9.069714L177.883429 181.394286 167.058286 166.473143 159.451429 157.403429 151.815314 157.403429 148.626286 162.962286l1.755429 12.873143 3.803429 12.873143L141.312 183.149714 131.949714 174.08 122.88 166.473143 119.369143 168.228571l0 11.410286 5.266286 10.825143L137.508571 208.896l2.018743 3.218286L121.124571 224.402286l-24.868571 17.554286L85.986743 247.515429l-4.973714 5.266286L80.457143 261.558857 63.195429 279.405714 26.331429 313.051429l-11.702857 5.266286-9.098971 5.851429L2.340571 332.653714 1.755429 342.308571 0 351.085714l0 5.851429 1.170286 10.825143 3.510857 6.729143 4.651886 0.585143 1.784686 5.558857 15.798857 4.973714 9.362286 4.973714 6.699886 1.755429 3.803429 0.585143 6.436571-2.048 9.976686 17.261714 27.209143 13.458286c12.288 2.048 21.357714 7.314286 33.645714 9.069714C154.770286 438.564571 176.391314 424.521143 189.586286 409.307429zM119.661714 418.962286c23.405714 0.585143 44.500114-6.436571 64.365714-13.750857C158.281143 425.106286 153.892571 425.106286 119.661714 418.962286z" p-id="2144"></path></svg>