<?xml version="1.0" standalone="no"?><!DOCTYPE svg PUBLIC "-//W3C//DTD SVG 1.1//EN" "http://www.w3.org/Graphics/SVG/1.1/DTD/svg11.dtd"><svg t="1568191140069" class="icon" viewBox="0 0 1024 1024" version="1.1" xmlns="http://www.w3.org/2000/svg" p-id="2627" xmlns:xlink="http://www.w3.org/1999/xlink" width="200" height="200"><defs><style type="text/css"></style></defs><path d="M498.706938 139.827103l-1.026566-0.513283C499.818646 141.793878 499.733504 140.68217 498.706938 139.827103L498.706938 139.827103zM498.706938 139.827103M164.658091 516.551435c2.566416-4.874974 1.881633-10.263232 2.7367-15.393631 13.854998-82.95727 60.122249-148.723201 137.781268-197.555652 23.261946-14.624922 68.160848-25.913504 95.184844-34.295103 4.105049-1.281992 4.105049-2.308558 1.881633-5.216758-40.023927-54.13435-48.148884-65.167506-88.091318-119.388215-15.565131-26.340429-3.849624-48.747309 28.483569-48.747309 0 0 109.296483 0.085142 193.620886 0 4.361691 0 5.388257 0.940208 4.960116 5.730041-1.116573 13.683498-0.855067 27.366996 0 41.050494 0.251776 4.446833-0.684783 5.388257-5.045258 5.388257-47.378959-0.086358-94.759135-0.086358-142.138094-0.086358l-6.670249 0c37.800511 51.313725 75.174096 102.027809 112.974607 153.255176-10.519873 1.881633-20.525247 3.934766-30.616978 5.473399-53.88379 8.296457-120.928064 27.880279-160.781708 60.805815-46.180893 38.228652-73.719389 85.009186-82.699412 139.999819-1.710133 10.348373-2.308558 20.781888-2.308558 31.29568 0.085142 77.145736 0 154.286608 0 231.427479 0 52.9375 39.767286 94.844277 99.291109 104.679367 6.413607 1.026566 12.913573 1.453492 19.413539 1.453492 99.376251 0 218.251182 0.1715 317.627434-0.090007 57.04255-0.166635 123.749906-33.952103 135.979912-82.699412 1.624991-6.585107 2.480058-13.255356 2.480058-20.011964 0-79.535787 0.256642-159.070358-0.085142-238.521004-0.43179-91.166152-86.034537-176.60348-182.247163-212.094217-25.233586-9.321807-51.655508-14.196781-78.252579-18.815114-5.045258-0.855067-10.00659-1.796491-15.051848-2.646693-0.346649-1.710133 1.026566-2.5652 1.796491-3.596631 45.749103-62.084158 84.832821-115.108016 130.591654-177.195824 4.618333-6.841749 11.801865-11.033156 22.663521-5.303116 13.854998 8.120092 11.973365 7.013249 26.250422 14.710064 5.388257 2.646693 9.406949 7.521667 3.33999 15.988407-30.616978 41.305919-56.273841 76.199446-86.890819 117.506582-2.484923 3.33999-2.394916 4.195056 2.133409 5.730041 113.401532 39.168861 203.029051 110.751191 229.369481 214.916058 2.5652 10.096597 3.676908 20.354963 4.960116 30.616978 0.090007 0.940208-0.598425 2.138275 1.026566 2.651558l0 7.183532c-1.111708 1.710133-0.251776 3.591766-0.513283 5.388257 0.256642 1.796491-0.598425 3.676908 0.513283 5.388257l0 238.606146c-0.59356 1.283208-0.769925 2.651558-0.513283 3.93355 0.256642 2.908199 0.43179 5.815183 0.684783 8.808524-1.111708 10.00659-2.651558 19.926822-5.986682 29.675554-7.953457 22.920163-20.86703 43.359052-39.34036 61.147599-23.77523 23.005305-52.852358 38.313794-86.975961 46.695393-14.795206 3.591766-49.432092 4.789832-64.654223 4.533191L365.548867 928.933139c-1.966775 0-23.518588-0.428141-25.399005 0.341783-0.684783 0-1.624991 0.085142-2.224633 0.085142-3.93355-1.111708-8.038599-0.598425-12.058506-0.769925-28.135704-1.453492-53.792567-9.66359-77.396296-22.57838-40.025143-21.808455-66.108931-52.852358-79.022504-92.44936-2.651558-8.210099-3.678124-16.591697-4.874974-24.972079 0.085142-1.19685 0.341783-2.993341 0.428141-4.190191 0.085142-0.341783 0.085142-0.769925 0.085142-1.19685 0-0.598425 0.085142-1.283208-0.513283-1.796491L164.572949 524.756669c0.683567-0.513283 0.513283-1.283208 0.513283-1.966775-0.085142-0.769925 0.170284-1.53985-0.256642-2.223416-0.085142-1.19685-0.1715-2.821841-0.1715-4.019908L164.658091 516.551435zM164.658091 516.551435M441.064747 643.294682c9.83509 0 19.755322 0.085142 29.590412-0.085142 3.506624-0.085142 4.961332 0.341783 5.559757 3.591766 2.821841 14.880348 19.755322 25.485363 37.372369 23.860371 19.675045-1.796491 33.187043-14.025281 32.327112-29.163487-0.855067-14.111639-15.308489-25.485363-33.865745-25.827146-24.973296-0.513283-47.807101-5.815183-66.963998-18.643614-34.208745-22.833805-47.208676-52.082434-35.400729-86.120895 11.6255-33.61032 40.95927-54.049208 84.746463-59.865607 60.725539-8.038599 116.566373 26.940071 121.441347 75.345596 0.684783 6.328466 0.684783 6.328466-7.611674 6.328466-18.985397 0-37.882004-0.085142-56.867401 0.085142-3.93355 0-5.221623-0.598425-5.90519-3.93355-2.7367-14.453423-17.617047-24.031871-35.748594-23.690088-17.360406 0.343-31.894105 10.775298-33.865745 24.458796-1.881633 13.255356 9.150307 26.170146 25.570504 29.675554 8.46674 1.796491 17.190122 0.940208 25.827146 2.053133 50.200801 6.328466 88.092535 40.452069 88.771236 80.219354 0.684783 40.965352-35.577094 75.68738-86.542955 83.041195C468.009683 733.435484 409.939351 697.85839 405.574011 648.853223c-0.423276-4.618333 0.940208-5.986682 6.926891-5.730041C422.164492 643.636466 431.657799 643.294682 441.064747 643.294682L441.064747 643.294682zM441.064747 643.294682M538.560582 395.024946c0 8.123741-0.080277 16.163556 0.090007 24.288513 0.085142 2.906983-0.43179 4.105049-3.763266 4.105049-15.992056-0.1715-31.985328-0.1715-48.063742 0-2.5652 0-3.591766-0.599641-3.505408-3.421483 0.080277-16.335056 0.080277-32.668895 0-49.003951 0-2.5652 0.426925-3.591766 3.330259-3.591766 16.168421 0.170284 32.327112 0.170284 48.490667 0 3.164841 0 3.596631 1.111708 3.506624 3.848408-0.166635 7.953457-0.080277 15.821772-0.080277 23.77523L538.560582 395.024946zM538.560582 395.024946M510.936944 809.806431c-7.953457 0-15.906914-0.085142-23.77523 0.085142-2.651558 0.085142-3.934766-0.341783-3.934766-3.506624 0.1715-16.335056 0.086358-32.668895 0-49.003951 0-2.394916 0.599641-3.249983 3.164841-3.249983 16.335056 0.080277 32.668895 0.080277 49.003951 0 2.5652 0 3.164841 0.855067 3.164841 3.249983-0.085142 16.335056-0.1715 32.668895 0 49.003951 0 3.249983-1.19685 3.591766-3.848408 3.506624C526.843858 809.720073 518.890401 809.806431 510.936944 809.806431L510.936944 809.806431zM510.936944 809.806431" p-id="2628"></path></svg>