<?xml version="1.0" standalone="no"?><!DOCTYPE svg PUBLIC "-//W3C//DTD SVG 1.1//EN" "http://www.w3.org/Graphics/SVG/1.1/DTD/svg11.dtd"><svg t="1587956611003" class="icon" viewBox="0 0 1024 1024" version="1.1" xmlns="http://www.w3.org/2000/svg" p-id="4269" xmlns:xlink="http://www.w3.org/1999/xlink" width="200" height="200"><defs><style type="text/css"></style></defs><path d="M750.1312 0H273.8688C122.8544 0 0 122.88 0 273.8688v476.2624C0 901.1456 122.88 1024 273.8688 1024h476.2624C901.1456 1024 1024 901.12 1024 750.1312V273.8688C1024 122.8544 901.12 0 750.1312 0z m202.4192 750.1312c0 111.616-90.8032 202.4192-202.4192 202.4192H273.8688c-111.616 0-202.4192-90.8032-202.4192-202.4192V273.8688c0-111.616 90.8032-202.4192 202.4192-202.4192h476.2624c111.616 0 202.4192 90.8032 202.4192 202.4192v476.2624zM434.048 304.128h-46.8992c-16.384 2.9952-25.2928 11.1616-26.752 24.5504 0 16.384 8.9344 24.576 26.752 24.576h82.6112v37.9136h-82.6112c-16.384 3.0208-25.2928 11.1872-26.752 24.576 0 16.384 8.9344 24.576 26.752 24.576h82.6112v69.1968c0 25.3184 14.1568 37.9648 42.4192 37.9648 26.8032 0 40.96-12.6464 42.4192-37.9648V440.32h82.6112c16.384 0 25.3184-8.192 26.7776-24.576-2.9696-13.3888-11.904-21.5552-26.7776-24.576h-82.6112V353.28h82.6112c16.384 0 25.3184-8.192 26.7776-24.576-2.9696-13.3888-11.904-21.5552-26.7776-24.576h-46.8992l71.4752-100.4544c5.9136-5.9392 8.9344-14.1312 8.9344-24.576-3.0208-25.2672-17.152-39.3984-42.4448-42.3936-14.8736 1.5104-26.0608 7.4496-33.4848 17.8688l-82.6112 118.3232-82.5856-118.3232a50.0992 50.0992 0 0 0-33.5104-17.8688c-26.752 2.9952-40.9344 17.1264-42.4192 42.4192-1.4848 10.4192 1.4848 18.6112 8.96 24.5504l71.424 100.48z m279.6544 330.9056H310.3232a35.712 35.712 0 1 0 0 71.424h403.3792a35.712 35.712 0 1 0 0-71.424z m0 152.3968H310.3232a35.712 35.712 0 1 0 0 71.4496h403.3792a35.712 35.712 0 1 0 0-71.424z" p-id="4270"></path></svg>