<?xml version="1.0" standalone="no"?><!DOCTYPE svg PUBLIC "-//W3C//DTD SVG 1.1//EN" "http://www.w3.org/Graphics/SVG/1.1/DTD/svg11.dtd"><svg t="1587706939971" class="icon" viewBox="0 0 1024 1024" version="1.1" xmlns="http://www.w3.org/2000/svg" p-id="1961" xmlns:xlink="http://www.w3.org/1999/xlink" width="200" height="200"><defs><style type="text/css"></style></defs><path d="M949.344 224.64h-54.08V416a32 32 0 0 1-32 32h-63.52a32 32 0 0 1-32-32V224.64h-53.088a61.44 61.44 0 0 1 7.648-76.48l65.792-65.92a61.92 61.92 0 0 1 87.776 0l65.824 65.92a61.504 61.504 0 0 1 7.648 76.48zM384 960c-176.736 0-320-71.68-320-160a84.704 84.704 0 0 1 4.416-25.6 238.88 238.88 0 0 0 63.168 40.96C151.264 861.12 256.608 896 384 896s232.736-34.88 252.416-80.64a238.88 238.88 0 0 0 63.168-40.96A84.704 84.704 0 0 1 704 800c0 88.32-143.264 160-320 160z m0-128c-176.736 0-320-71.68-320-160a84.704 84.704 0 0 1 4.416-25.6 238.88 238.88 0 0 0 63.168 40.96C151.264 733.12 256.608 768 384 768s232.736-34.88 252.416-80.64a238.88 238.88 0 0 0 63.168-40.96A84.704 84.704 0 0 1 704 672c0 88.32-143.264 160-320 160z m0-128c-176.736 0-320-71.68-320-160a84.704 84.704 0 0 1 4.416-25.6 238.88 238.88 0 0 0 63.168 40.96C151.264 605.12 256.608 640 384 640s232.736-34.88 252.416-80.64a238.88 238.88 0 0 0 63.168-40.96A84.704 84.704 0 0 1 704 544c0 88.32-143.264 160-320 160z m0-128c-176.736 0-320-71.68-320-160s143.264-160 320-160 320 71.68 320 160-143.264 160-320 160z m0-256c-141.376 0-256 42.88-256 96s114.624 96 256 96 256-42.88 256-96-114.624-96-256-96z" fill="#8DA8C5" p-id="1962"></path></svg>