<?xml version="1.0" standalone="no"?><!DOCTYPE svg PUBLIC "-//W3C//DTD SVG 1.1//EN" "http://www.w3.org/Graphics/SVG/1.1/DTD/svg11.dtd"><svg t="1582166185795" class="icon" viewBox="0 0 1024 1024" version="1.1" xmlns="http://www.w3.org/2000/svg" p-id="2668" xmlns:xlink="http://www.w3.org/1999/xlink" width="200" height="200"><defs><style type="text/css"></style></defs><path d="M333.84 362.328h156.779l-30.541 26.469c12.215 10.89 31.221 29.213 57.010 54.975l38.685-32.577c-6.815-8.143-19.029-19.002-36.649-32.576-8.143-6.788-14.254-12.214-18.325-16.29h189.356v50.903h52.938v-97.73h-193.428c-6.815-24.434-12.215-40.723-16.291-48.867l-61.081 6.109c1.328 2.742 2.715 6.814 4.071 12.218 4.075 13.571 7.44 23.754 10.183 30.541h-205.643v97.73h52.936v-50.903zM651.47 460.062c27.146 35.318 48.157 64.473 63.118 87.55l44.792-28.505c-16.287-21.691-38.004-50.197-65.153-85.515l-42.757 26.469z" p-id="2669"></path><path d="M655.542 692.174h-116.055v-95.695h38.684c37.977 1.357 61.761-11.511 71.264-38.687 1.329-5.401 4.072-15.58 8.143-30.54 1.328-9.473 2.716-16.287 4.072-20.359-5.432-2.716-13.574-6.111-24.434-10.183-12.214-5.401-21.068-8.823-26.469-10.178l-6.108 38.684c-2.742 19.033-15.611 27.829-38.684 26.469h-77.372c-13.575 0-23.754-2.716-30.541-8.143 73.297-33.907 142.525-74.63 207.68-122.168l-34.612-34.613c-58.367 43.466-118.798 79.408-181.21 107.912v-87.55h-50.903v109.948c-42.080 14.957-86.874 28.506-134.382 40.719 6.787 14.962 13.544 30.54 20.362 46.832 42.049-12.215 82.119-25.763 120.128-40.719 10.859 21.718 31.221 32.576 61.081 32.576h18.326v95.693h-116.054v-73.297h-52.939v116.056h340.024v22.395h54.975v-142.526h-54.975v77.372z" p-id="2670"></path><path d="M289.047 500.782c14.931 10.89 25.11 19.033 30.541 24.434 9.472-12.215 23.727-30.54 42.757-54.975 9.475-13.544 16.969-23.726 22.397-30.54l-40.719-28.506c-10.89 14.962-31.248 42.759-61.082 83.481 54.558 55.317 119.77 99.966 192.329 130.641z" p-id="2671"></path><path d="M926.603 336.818c-22.666-53.587-55.105-101.707-96.421-143.022s-89.434-73.756-143.022-96.42c-55.496-23.474-114.43-35.376-175.162-35.376s-119.665 11.902-175.162 35.375c-53.588 22.665-101.708 55.106-143.022 96.421s-73.758 89.435-96.422 143.022c-23.473 55.496-35.375 114.429-35.375 175.163 0 60.732 11.903 119.666 35.376 175.162 22.664 53.587 55.105 101.708 96.421 143.022s89.434 73.756 143.022 96.42c55.497 23.474 114.43 35.375 175.162 35.375 60.732 0 119.666-11.902 175.162-35.375 53.587-22.665 101.707-55.105 143.022-96.42s73.756-89.436 96.421-143.022c23.473-55.496 35.374-114.43 35.374-175.162 0.001-60.732-11.901-119.666-35.374-175.163zM867.969 662.342c-19.456 45.998-47.315 87.317-82.804 122.805s-76.807 63.348-122.805 82.805c-47.607 20.136-98.196 30.345-150.363 30.345-52.165 0-102.755-10.209-150.362-30.345-45.998-19.456-87.316-47.315-122.805-82.805s-63.348-76.807-82.805-122.805c-20.136-47.606-30.345-98.195-30.345-150.362s10.21-102.756 30.345-150.362c19.456-45.998 47.315-87.316 82.805-122.804 35.489-35.489 76.806-63.349 122.805-82.805 47.607-20.136 98.196-30.345 150.362-30.345 52.166 0 102.756 10.209 150.363 30.345 45.998 19.455 87.316 47.315 122.805 82.805 35.488 35.488 63.347 76.806 82.804 122.804 20.136 47.606 30.346 98.196 30.346 150.362 0 52.165-10.21 102.756-30.346 150.362z" p-id="2672"></path></svg>