<?xml version="1.0" standalone="no"?><!DOCTYPE svg PUBLIC "-//W3C//DTD SVG 1.1//EN" "http://www.w3.org/Graphics/SVG/1.1/DTD/svg11.dtd"><svg t="1602572512719" class="icon" viewBox="0 0 1024 1024" version="1.1" xmlns="http://www.w3.org/2000/svg" p-id="3078" xmlns:xlink="http://www.w3.org/1999/xlink" width="200" height="200"><defs><style type="text/css"></style></defs><path d="M0 1024 0 0l1024 0C1024 565.5552 565.5552 1024 0 1024zM190.1568 660.8384l52.9408 0 0-20.3008 297.9584 0 0 20.8384 52.9152 0L593.9712 499.2l-52.9152 0 0 91.8016L416 591.0016l0-103.6288-52.9408 0 0 103.6288L243.0976 591.0016l0-84.48L190.1568 506.5216 190.1568 660.8384zM149.0432 504.832c51.8144-14.2592 99.8656-30.7968 144.1792-49.5616 9.7536 11.264 25.1392 16.896 46.1824 16.896l127.8464 0c22.8864 0 40.1664-4.3008 51.8144-12.9536 12.7488-9.3696 21.4016-36.224 25.9072-80.5376l-50.1248-16.3328c-2.2528 30.4128-6.7584 48.4352-13.5168 54.0672-5.2736 5.2736-13.3376 7.8848-24.2176 7.8848l-99.6864 0c72.0896-39.04 132.7104-87.8592 181.9136-146.432L500.48 248.0128c-44.3136 52.1984-100.6336 96.8704-168.96 134.0416l0-83.9168-51.8144 0 0 109.2608c-45.44 20.2752-96.128 37.7344-152.064 52.3776L149.0432 504.832zM423.3216 300.3904c-13.1584-19.1488-30.976-39.9872-53.504-62.5152l-38.8608 24.2176c22.912 24.0128 40.7296 45.824 53.504 65.3312L423.3216 300.3904zM271.8208 285.7472l-46.7456-10.1376c-14.2848 42.8032-38.1184 82.048-71.5264 117.7088l43.9296 27.5968C229.7856 382.6176 254.5408 337.5616 271.8208 285.7472zM626.6624 183.808l-211.2 0c-7.8848-23.2704-13.3376-38.6816-16.3328-46.1824l-56.8832 9.0112c5.248 9.7536 11.0848 22.1696 17.4592 37.1712L149.0432 183.808l0 121.6512 52.3776 0L201.4208 231.68l372.8128 0 0 73.7792 52.4032 0L626.6368 183.808zM559.0528 303.7696l-38.8608 27.5968c34.1504 40.9344 61.952 79.232 83.3536 114.8928l42.8032-29.2864C626.4576 385.0752 597.3504 347.3152 559.0528 303.7696z" p-id="3079"></path></svg>