<?xml version="1.0" standalone="no"?><!DOCTYPE svg PUBLIC "-//W3C//DTD SVG 1.1//EN" "http://www.w3.org/Graphics/SVG/1.1/DTD/svg11.dtd"><svg t="1603865221857" class="icon" viewBox="0 0 1024 1024" version="1.1" xmlns="http://www.w3.org/2000/svg" p-id="3080" xmlns:xlink="http://www.w3.org/1999/xlink" width="200" height="200"><defs><style type="text/css"></style></defs><path d="M409.6 819.2A358.4 358.4 0 1 0 409.6 102.4a358.4 358.4 0 0 0 0 716.8z m0 51.2A409.6 409.6 0 1 1 409.6 51.2a409.6 409.6 0 0 1 0 819.2z"  p-id="3081"></path><path d="M665.606465 753.010332m18.101933-18.101934l0 0q18.101934-18.101934 36.203868 0l181.019336 181.019336q18.101934 18.101934 0 36.203868l0 0q-18.101934 18.101934-36.203868 0l-181.019336-181.019336q-18.101934-18.101934 0-36.203868Z"  p-id="3082"></path><path d="M350.6176 532.0704c5.4784 6.2976 8.192 12.9024 8.192 19.8656a29.184 29.184 0 0 1-8.6016 19.8656c-4.608 5.1712-9.0112 9.8304-13.1072 13.9264-4.096 4.096-8.0384 7.9872-11.8784 11.6736a302.8992 302.8992 0 0 1-11.8784 10.8544c-4.096 3.584-8.448 7.2192-13.1072 11.0592a48.7424 48.7424 0 0 1-18.432 9.216 24.064 24.064 0 0 1-16.7936-1.4336c-4.9152-2.4576-8.704-7.2192-11.4688-14.336-2.7136-7.1168-3.584-17.0496-2.4576-29.9008l14.336-166.2976a12.288 12.288 0 0 0-1.4336-7.5776 5.2736 5.2736 0 0 0-5.5296-2.6624l-20.8896 2.4576c-9.5744 0.8192-16.0256-0.512-19.456-3.8912-3.4304-3.4304-5.12-10.4448-5.12-21.0944 0-8.704 1.536-15.0016 4.7104-18.8416 3.1232-3.84 8.8064-5.9904 16.9984-6.5536l38.5024-3.2768c14.1824-1.0752 25.2416 1.536 33.1776 7.9872 7.936 6.4 11.0592 18.2272 9.4208 35.4304l-12.288 140.4928c-0.512 5.4784-0.0512 8.2432 1.4336 8.3968 1.536 0.1536 4.608-2.816 9.216-8.8064 7.1168-9.5744 13.5168-14.592 19.2512-15.1552 5.7344-0.512 11.4688 2.304 17.2032 8.6016z m-42.1888-234.2912c12.544 15.0016 13.1072 28.16 1.6384 39.3216-5.9904 5.9904-12.0832 8.6016-18.2272 7.7824-6.144-0.8192-12.6464-5.632-19.456-14.336a307.3024 307.3024 0 0 0-8.192-10.0352l-7.3728-8.6016a222.5152 222.5152 0 0 0-7.9872-8.8064 1326.592 1326.592 0 0 1-10.0352-10.6496c-6.2976-6.8096-9.728-13.056-10.4448-18.6368-0.6656-5.632 1.6896-11.6736 7.168-18.2272 10.0864-12.032 22.272-11.3152 36.4544 2.048 5.1712 4.9152 10.8544 10.8544 16.9984 17.8176 6.144 6.9632 12.6464 14.3872 19.456 22.3232z m223.6416 59.8016c0 7.936-2.4064 13.3632-7.168 16.384a37.2224 37.2224 0 0 1-19.8656 4.5056H362.496a37.2224 37.2224 0 0 1-19.8656-4.5056c-4.7616-3.0208-7.168-8.448-7.168-16.384 0-8.192 2.4064-13.824 7.168-16.7936a37.2224 37.2224 0 0 1 19.8656-4.5056h142.5408c8.448 0 15.104 1.536 19.8656 4.5056 4.7616 3.0208 7.168 8.6016 7.168 16.7936z m55.296 222.4128c0 15.5648-4.608 28.416-13.9264 38.5024-9.2672 10.0864-22.6816 15.7184-40.1408 16.7936a123.0848 123.0848 0 0 1-36.6592-3.072 246.7328 246.7328 0 0 1-41.5744-14.5408c-10.3936-4.096-16.7424-9.2672-19.0464-15.5648a25.3952 25.3952 0 0 1 1.024-19.6608 21.1456 21.1456 0 0 1 13.7216-11.8784c6.656-2.2016 14.6944-0.9728 23.9616 3.6864 7.936 3.84 15.5136 6.912 22.7328 9.216 7.2192 2.304 15.104 3.7376 23.552 4.3008 7.3728 0.512 12.3392-1.1776 14.9504-5.12a24.4736 24.4736 0 0 0 3.8912-13.7216V322.3552c0-3.84-0.6656-6.5024-2.048-7.9872-1.3824-1.536-3.9424-2.2528-7.7824-2.2528h-151.552c-8.704 0-15.5136-1.4336-20.2752-4.3008-4.7616-2.8672-7.168-8.8064-7.168-17.8176 0-8.192 2.4064-14.08 7.168-17.6128 4.7616-3.584 11.52-5.3248 20.2752-5.3248h159.744c10.6496 0 19.2 0.6144 25.6 1.8432 6.4 1.2288 11.4176 3.584 14.9504 7.168 3.584 3.584 5.888 8.448 6.9632 14.7456 1.0752 6.2976 1.6384 14.336 1.6384 24.1664v265.0112z m-68.4032-67.584c0 15.5648-3.0208 26.6752-9.0112 33.3824-5.9904 6.656-16.7936 10.0352-32.3584 10.0352H396.9024c-15.3088 0-25.7536-3.4304-31.3344-10.24-5.632-6.8096-8.3968-17.92-8.3968-33.1776V442.368c0-15.3088 2.816-26.2144 8.3968-32.768 5.632-6.5536 16.0256-9.8304 31.3344-9.8304h80.6912c15.5648 0 26.368 3.2256 32.3584 9.6256 5.9904 6.4 9.0112 17.408 9.0112 32.9728v70.0416z m-46.6944-56.9344c0-5.1712-1.2288-8.704-3.6864-10.4448a18.0224 18.0224 0 0 0-10.6496-2.6624h-39.7312c-5.9904 0-9.984 1.1776-11.8784 3.4816-1.8944 2.304-2.8672 6.1952-2.8672 11.6736v39.7312c0 5.4784 0.9728 9.4208 2.8672 11.8784 1.8944 2.4576 5.632 3.6864 11.0592 3.6864h39.3216c6.5536 0 10.752-1.0752 12.6976-3.2768 1.8944-2.2016 2.8672-7.2192 2.8672-15.1552v-38.912z"  p-id="3083"></path></svg>