<?xml version="1.0" standalone="no"?><!DOCTYPE svg PUBLIC "-//W3C//DTD SVG 1.1//EN" "http://www.w3.org/Graphics/SVG/1.1/DTD/svg11.dtd"><svg t="1563429350504" class="icon" viewBox="0 0 1024 1024" version="1.1" xmlns="http://www.w3.org/2000/svg" p-id="954" xmlns:xlink="http://www.w3.org/1999/xlink" width="200" height="200"><defs><style type="text/css"></style></defs><path d="M453.93368531 410.61157227H149.09191894c-16.68878174 0-32.55523682 6.05621338-43.52645873 16.61380005C93.15063477 439.16641235 88.22985839 455.68875122 92.40823364 471.41842651l111.74331665 420.67694092c2.70428467 10.17196656 9.49960328 19.16235352 19.15493775 25.30755616 8.74319458 5.56842041 19.1565857 8.51083374 30.10803222 8.51083373h94.39535523c10.73391724 0 20.92977906-2.88308716 29.49581909-8.34109497 9.48065185-6.04055786 16.16390992-14.86532593 18.82369995-24.87002563l112.42721558-423.25845337c4.05148315-15.24517823-0.70944214-31.25500489-12.72875977-42.82772827-10.57241821-10.17196656-25.83737182-16.00488281-41.89416503-16.00488281z m-10.76852418 73.3477478L343.84490967 857.85839844c-0.09228516 0.33865357-0.65505982 1.23019409-2.14562988 2.17694091-2.12008667 1.35543823-4.9520874 2.0994873-7.97277833 2.09948731h-66.26156615c-3.21102906 0-6.2341919-0.79760742-8.51248169-2.24697876-1.56472778-0.99536133-2.29559326-2.00473023-2.44308472-2.56420899l-98.7121582-371.61502074c-0.5256958-1.97671508 0.28591919-4.0144043 2.40930175-6.05868531 3.42526245-3.29425049 9.07196045-5.26190185 15.10098266-5.26190185h252.16012574c5.47943115 0 10.58642578 1.76824951 13.65985107 4.72219848 1.75753784 1.6907959 2.44061279 3.31896973 2.03768922 4.84909058zM723.53735352 380.63702393c77.82357788 0 141.12872315-63.37353516 141.12872314-141.27456666 0-77.8977356-63.30926513-141.2762146-141.12872314-141.27621459-77.82028198 0-141.13037109 63.3751831-141.1303711 141.27621459-0.00082398 77.89855958 63.30514526 141.27456665 141.1303711 141.27456666z m0-224.36169434c45.76766968 0 83.00637818 37.27084351 83.00637817 83.08877564 0 45.81628417-37.23706055 83.09124756-83.00637817 83.09124755-45.76766968 0-83.00473023-37.27825928-83.00473023-83.09124755-0.00082398-45.81381226 37.23706055-83.08877563 83.00473023-83.08877564zM300.46099854 380.63702393c77.82028198 0 141.12789917-63.37353516 141.12789917-141.27456666 0-77.8977356-63.31173706-141.2762146-141.12789917-141.27621459-77.81698609 0-141.12625122 63.3751831-141.12625122 141.27621459 0 77.89855958 63.30926513 141.27456665 141.12625122 141.27456666z m0-224.36334229c45.76931763 0 83.00390625 37.27166748 83.00390625 83.09042359 0 45.81628417-37.23458862 83.09207153-83.00390625 83.09207153-45.77014161 0-83.00473023-37.27743531-83.00473023-83.09207153S254.69168091 156.27368164 300.46099854 156.27368164zM931.59835815 865.09371948L819.85421753 444.42831421c-2.70675659-10.17196656-9.50701904-19.15823364-19.15493774-25.30755616-8.74813843-5.56594849-19.16152954-8.51248169-30.11380005-8.51248169H676.19012451c-10.73062133 0-20.92895508 2.8913269-29.49581909 8.33944703-9.47653198 6.04055786-16.16555786 14.87109375-18.82369995 24.87826538L515.44421387 867.07702636c-4.04983521 15.24765015 0.71109008 31.25582886 12.73123168 42.82278443 10.57406617 10.17443848 25.8381958 16.00900268 41.89581299 16.00900269h304.83270264c16.69125367 0 32.55276489-6.0553894 43.52645874-16.6121521 12.41564942-11.94680786 17.33312989-28.46832276 13.16793823-44.2029419z m-67.81228638-8.21749878c-3.42196656 3.29342651-9.06866455 5.26190185-15.10180664 5.26190186H596.5241394c-5.47860718 0-10.58724976-1.76660156-13.65902709-4.72631836-1.75671386-1.6907959-2.43484497-3.3197937-2.03109742-4.84497071l99.31695557-373.89825439c0.09146118-0.33947753 0.65505982-1.23184204 2.14562988-2.18106079 2.11514282-1.35379028 4.9520874-2.09619141 7.97442627-2.09619141v-0.00164794h66.25827026c3.21185302 0 6.23501587 0.79760742 8.51330567 2.24862671 1.56802368 0.99700928 2.29559326 2.0022583 2.44308472 2.56173706l98.71133422 371.62078857c0.52651977 1.97671508-0.28756714 4.01028443-2.41094971 6.0553894z" fill="" p-id="955"></path></svg>