<?xml version="1.0" standalone="no"?><!DOCTYPE svg PUBLIC "-//W3C//DTD SVG 1.1//EN" "http://www.w3.org/Graphics/SVG/1.1/DTD/svg11.dtd"><svg t="1563760334213" class="icon" viewBox="0 0 1024 1024" version="1.1" xmlns="http://www.w3.org/2000/svg" p-id="1754" xmlns:xlink="http://www.w3.org/1999/xlink" width="200" height="200"><defs><style type="text/css"></style></defs><path d="M866.419 323.062h-97.867v32.622h74.799l-87.847 87.847c-30.758-27.147-67.108-46.254-106.256-55.924 0.116-3.728 0.234-7.457 0.234-11.184 0-68.158-26.563-132.237-74.682-180.473-48.235-48.235-112.315-74.682-180.473-74.682s-132.353 26.563-180.588 74.682c-48.235 48.235-74.682 112.315-74.682 180.473 0 62.682 22.486 121.868 63.613 168.47l-36.816 36.816-41.476-41.476-23.069 23.069 41.476 41.476-41.476 41.476 23.069 23.069 41.476-41.476 41.476 41.476 23.069-23.069-41.476-41.476 36.7-36.7c30.758 27.147 67.108 46.254 106.256 55.924-0.116 3.728-0.234 7.457-0.234 11.184 0 68.158 26.563 132.237 74.682 180.473 48.235 48.235 112.315 74.682 180.473 74.682s132.237-26.563 180.473-74.682 74.682-112.315 74.682-180.473c0-62.682-22.486-121.868-63.613-168.47l87.847-87.847v74.682h32.622v-130.49h-32.389zM236.806 533.711c-42.059-42.059-65.129-97.867-65.129-157.403s23.186-115.343 65.129-157.403 97.867-65.129 157.403-65.129c59.42 0 115.343 23.186 157.403 65.129 44.739 44.739 66.41 103.925 65.011 162.645-9.787-1.165-19.691-1.747-29.71-1.747-68.158 0-132.237 26.563-180.473 74.682-37.632 37.632-62.099 85.051-70.954 136.431-36.933-9.787-70.837-29.36-98.683-57.205zM613.478 414.174c-7.457 43.807-28.078 85.867-61.866 119.537-42.059 42.059-97.867 65.129-157.403 65.129-8.972 0-17.825-0.582-26.681-1.632 7.69-45.089 29.011-86.565 61.983-119.537 42.059-42.059 97.867-65.129 157.403-65.129 8.972 0 17.825 0.582 26.563 1.632zM744.202 792.477c-42.059 42.059-97.867 65.129-157.403 65.129s-115.343-23.186-157.403-65.129-65.129-97.867-65.129-157.403c0-1.747 0-3.495 0.116-5.243 9.787 1.165 19.807 1.747 29.826 1.747 68.158 0 132.237-26.563 180.473-74.682 37.632-37.632 62.099-85.051 70.954-136.431 36.933 10.019 70.837 29.594 98.683 57.439 42.059 42.059 65.129 97.867 65.129 157.403s-23.186 115.11-65.245 157.17z" fill="" p-id="1755"></path></svg>