<?xml version="1.0" standalone="no"?><!DOCTYPE svg PUBLIC "-//W3C//DTD SVG 1.1//EN" "http://www.w3.org/Graphics/SVG/1.1/DTD/svg11.dtd"><svg t="1542959620543" class="icon" style="" viewBox="0 0 1024 1024" version="1.1" xmlns="http://www.w3.org/2000/svg" p-id="3863" xmlns:xlink="http://www.w3.org/1999/xlink" width="200" height="200"><defs><style type="text/css"></style></defs><path d="M816 768V396.8c0-25.6-22.4-48-48-48h-48c-25.6 0-48 22.4-48 48V768h-48V256c0-25.6-22.4-48-48-48h-48c-25.6 0-48 22.4-48 48v512h-48v-278.4c0-25.6-22.4-48-48-48h-48c-25.6 0-48 22.4-48 48V768H256V208C256 182.4 233.6 160 208 160S160 182.4 160 208v604.8c0 25.6 22.4 48 48 48h604.8c25.6 0 48-22.4 48-48s-19.2-44.8-44.8-44.8z" p-id="3864"></path></svg>