<?xml version="1.0" standalone="no"?><!DOCTYPE svg PUBLIC "-//W3C//DTD SVG 1.1//EN" "http://www.w3.org/Graphics/SVG/1.1/DTD/svg11.dtd"><svg t="1565691439811" class="icon" viewBox="0 0 1024 1024" version="1.1" xmlns="http://www.w3.org/2000/svg" p-id="2799" xmlns:xlink="http://www.w3.org/1999/xlink" width="200" height="200"><defs><style type="text/css"></style></defs><path d="M85.333333 384.249969C85.333333 336.983616 123.65912 298.666667 170.577626 298.666667L256.08904 298.666667C303.168163 298.666667 341.333333 336.941232 341.333333 384.249969L341.333333 896 85.333333 896 85.333333 384.249969M384 170.556668C384 123.48912 422.325786 85.333333 469.244293 85.333333L554.755708 85.333333C601.834829 85.333333 640 123.34615 640 170.556668L640 896 384 896 384 170.556668M682.666667 554.65024C682.666667 507.531013 720.992452 469.333333 767.910959 469.333333L853.422374 469.333333C900.501495 469.333333 938.666667 507.197154 938.666667 554.65024L938.666667 896 682.666667 896 682.666667 554.65024" p-id="2800"></path></svg>