<?xml version="1.0" standalone="no"?><!DOCTYPE svg PUBLIC "-//W3C//DTD SVG 1.1//EN" "http://www.w3.org/Graphics/SVG/1.1/DTD/svg11.dtd"><svg t="1566202299927" class="icon" viewBox="0 0 1024 1024" version="1.1" xmlns="http://www.w3.org/2000/svg" p-id="3388" xmlns:xlink="http://www.w3.org/1999/xlink" width="48" height="48"><defs><style type="text/css"></style></defs><path d="M64.091714 435.140495c0 46.972824 35.657104 86.11531 83.746356 97.414657l0 331.668888-55.830563 0c-15.379269 0-27.915793 11.30037-27.915793 25.251104 0 13.950733 12.535501 25.235754 27.915793 25.235754l837.470723 0c15.483646 0 27.915793-11.30037 27.915793-25.235754s-12.432147-25.235754-27.915793-25.235754l-55.831586 0L873.646644 532.555152c48.090275-11.299347 83.747379-50.441832 83.747379-97.414657l0-25.234731L64.091714 409.905764 64.091714 435.140495 64.091714 435.140495zM622.405529 536.098861c61.72583 0 111.662149-45.200458 111.662149-100.958366 0 46.972824 35.658128 86.11531 83.747379 97.414657l0 331.668888L399.079184 864.22404 399.079184 536.098861c61.727876 0 111.663172-45.200458 111.663172-100.958366C510.742357 490.898403 560.78203 536.098861 622.405529 536.098861L622.405529 536.098861zM371.164415 532.555152l0 331.668888L203.670679 864.22404 203.670679 532.555152c48.088228-11.299347 83.746356-50.441832 83.746356-97.414657C287.417035 482.113319 323.07414 521.255805 371.164415 532.555152L371.164415 532.555152zM845.73085 182.738951 175.754886 182.738951 64.091714 384.65466l893.301286 0L845.73085 182.738951 845.73085 182.738951zM175.754886 132.252093c0-13.94971 12.535501-25.235754 27.915793-25.235754l614.144378 0c15.483646 0 27.915793 11.286044 27.915793 25.235754 0 13.950733-12.432147 25.235754-27.915793 25.235754L203.670679 157.487847C188.290387 157.502174 175.754886 146.202826 175.754886 132.252093L175.754886 132.252093z" p-id="3389"></path></svg>