<?xml version="1.0" standalone="no"?><!DOCTYPE svg PUBLIC "-//W3C//DTD SVG 1.1//EN" "http://www.w3.org/Graphics/SVG/1.1/DTD/svg11.dtd"><svg t="1560504163430" class="icon" style="" viewBox="0 0 1024 1024" version="1.1" xmlns="http://www.w3.org/2000/svg" p-id="3394" xmlns:xlink="http://www.w3.org/1999/xlink" width="128" height="128"><defs><style type="text/css"></style></defs><path d="M465.4 676.4c-8 0-15.8 2.1-22.7 6.1l-131.2 75.8c-17.6 10.1-39.8 1.3-45.9-18.3l-2.6-8.4c-10.2-32.9-40.2-55.2-74.1-55.2h-48.4c-7.6 0-14.4-8.1-16.9-11.6-8.4-11.4-13.1-27.9-13.1-45.3V170.3c0-17.4 4.8-33.9 13.1-45.3 2.6-3.5 9.3-11.6 16.9-11.6h743.9c7.6 0 14.4 8.1 16.9 11.6 8.4 11.4 13.2 27.9 13.2 45.3v394.5c0 11.6 9.2 20.9 20.6 20.9h4.8c11.4 0 20.6-9.4 20.6-20.9V170.3c0-57.2-34.1-103.7-76.1-103.7h-744c-42 0-76.1 46.4-76.1 103.7v449.2c0 57.2 34.1 103.7 76.1 103.7h48.4c13.8 0 26.1 9.1 30.3 22.5l19.8 63.5c6.1 19.6 28.4 28.5 45.9 18.3l173.4-100.1c4.8-2.8 10.2-4.2 15.7-4.2h81.7c11.4 0 20.6-9.4 20.6-20.9v-4.9c0-11.6-9.2-20.9-20.6-20.9h-90.2z" p-id="3395"></path><path d="M749.9 308h-575c-22.1 0-39.5-18-39.5-41s17.3-40.9 39.5-40.9h575c22.1 0 39.5 18 39.5 40.9 0 23-17.3 41-39.5 41z m-568.1-39.1zM749.9 448.8h-575c-22.1 0-39.5-18.5-39.5-42s17.3-42 39.5-42h575c22.1 0 39.5 18.4 39.5 42 0 23.5-17.3 42-39.5 42z m0-41.2zM559.6 591.3h-390c-19.8 0-34.2-17.4-34.2-41.5 0-24 14.4-41.5 34.2-41.5h390c19.8 0 34.2 17.4 34.2 41.5s-14.4 41.5-34.2 41.5z m0-40.6z" p-id="3396"></path><path d="M796.3 742.8c-29.5 0-53.5 24-53.5 53.5s24 53.5 53.5 53.5 53.5-24 53.5-53.5c0-29.6-24-53.5-53.5-53.5z m0 81c-15.2 0-27.5-12.3-27.5-27.5 0-15.1 12.3-27.5 27.5-27.5s27.5 12.3 27.5 27.5c0 15.1-12.3 27.5-27.5 27.5z" p-id="3397"></path><path d="M922.2 744.5l1.3-1.3c6.8-6.8 10.5-15.8 10.5-25.4 0-9.6-3.7-18.6-10.5-25.4l-23.1-23.1c-6.8-6.8-15.8-10.5-25.4-10.5s-18.6 3.7-25.4 10.5l-1.3 1.3c-3.2-21.2-21.5-37.6-43.6-37.6h-16.3c-22.1 0-40.5 16.3-43.6 37.6l-1.3-1.3c-6.8-6.8-15.8-10.5-25.4-10.5-9.6 0-18.6 3.7-25.4 10.5l-23.1 23.1c-6.8 6.8-10.5 15.8-10.5 25.4 0 9.6 3.7 18.7 10.5 25.4l1.3 1.3c-21.2 3.2-37.6 21.5-37.6 43.6v16.3c0 22.1 16.3 40.5 37.6 43.6l-1.3 1.3c-6.8 6.8-10.5 15.8-10.5 25.4 0 9.6 3.7 18.6 10.5 25.4l23.1 23.1c6.8 6.8 15.8 10.5 25.4 10.5 9.6 0 18.6-3.7 25.4-10.5l1.3-1.3c3.2 21.2 21.5 37.6 43.6 37.6h16.3c22.1 0 40.5-16.3 43.6-37.6l1.3 1.3c6.8 6.8 15.8 10.5 25.4 10.5 9.6 0 18.6-3.7 25.4-10.5l23.1-23.1c7.3-7.3 11-17.1 10.5-27.5-0.5-9-4.6-17.4-10.9-23.8l-0.8-0.8c21.2-3.2 37.6-21.5 37.6-43.6v-16.3c-0.1-22.1-16.5-40.5-37.7-43.6z m11.6 59.9c0 10-8.2 18.1-18.3 18.1-8.7 0-16.4 5.3-19.6 13.4-0.3 0.9-0.7 1.7-1.1 2.5-3.5 8.1-1.7 17.2 4.5 23.4l5.6 5.6c1.7 1.7 2.8 3.8 3 6.2 0.3 3.1-0.7 5.9-2.9 8l-23 23.3c-1.9 1.9-4.3 2.9-7 2.9s-5.1-1-7-2.9l-5.8-5.8c-6.2-6.2-15.5-7.9-23.6-4.4l-2.1 0.9c-8.2 3.2-13.6 10.9-13.7 19.6-0.1 10.1-8 18.3-18.1 18.3h-16.3c-10 0-18.1-8.1-18.1-18.1 0-8.8-5.4-16.6-13.6-19.8-0.7-0.3-1.4-0.6-2.2-0.9-2.8-1.2-5.8-1.8-8.7-1.8-5.5 0-10.9 2.1-14.9 6.2l-5.8 5.8c-1.9 1.9-4.3 2.9-7 2.9s-5.1-1-7-2.9L688 881.8c-1.9-1.9-2.9-4.3-2.9-7s1-5.1 2.9-7l5.8-5.8c6.2-6.2 7.9-15.5 4.4-23.6l-0.9-2.1c-3.2-8.2-10.9-13.6-19.6-13.7-10.1-0.1-18.4-8-18.4-18.1v-16.3c0-10.1 8.3-18 18.4-18.1 8.7-0.1 16.4-5.4 19.6-13.7l0.9-2.1c3.6-8.1 1.8-17.4-4.4-23.6l-5.8-5.8c-1.9-1.9-2.9-4.3-2.9-7s1-5.1 2.9-7l23.1-23.1c1.9-1.9 4.3-2.9 7-2.9s5.1 1 7 2.9l5.8 5.8c6.2 6.2 15.5 8 23.6 4.4l2.1-0.9c8.2-3.2 13.6-10.9 13.7-19.6 0.1-10.1 8-18.3 18.1-18.3h16.3c10 0 18.1 8.1 18.1 18.1 0 8.8 5.4 16.6 13.7 19.8l2.1 0.9c8.1 3.6 17.4 1.8 23.6-4.4l5.8-5.8c1.9-1.9 4.3-2.9 7-2.9s5.1 1 7 2.9l23.1 23.1c1.9 1.9 2.9 4.3 2.9 7s-1 5.1-2.9 7l-5.8 5.8c-6.2 6.2-7.9 15.5-4.4 23.6l0.9 2.1c3.2 8.3 11 13.6 19.8 13.6 10 0 18.1 8.1 18.1 18.1v16.3z" p-id="3398"></path></svg>