<?xml version="1.0" standalone="no"?><!DOCTYPE svg PUBLIC "-//W3C//DTD SVG 1.1//EN" "http://www.w3.org/Graphics/SVG/1.1/DTD/svg11.dtd"><svg t="1587956639025" class="icon" viewBox="0 0 1024 1024" version="1.1" xmlns="http://www.w3.org/2000/svg" p-id="4587" xmlns:xlink="http://www.w3.org/1999/xlink" width="200" height="200"><defs><style type="text/css"></style></defs><path d="M27.6 151.8h48.5c13.4 0 24.2-10.9 24.2-24.2V79.1c0-13.4-10.9-24.2-24.2-24.2H27.6c-13.4 0-24.2 10.9-24.2 24.2v48.5c-0.1 13.3 10.8 24.2 24.2 24.2zM3.3 951.9c0 13.4 10.9 24.2 24.2 24.2H76c13.4 0 24.2-10.9 24.2-24.2v-48.5c0-13.4-10.9-24.2-24.2-24.2H27.6c-13.4 0-24.2 10.9-24.2 24.2v48.5zM3.3 515.5c0 13.4 10.9 24.2 24.2 24.2H76c13.4 0 24.2-10.9 24.2-24.2V467c0-13.4-10.9-24.2-24.2-24.2H27.6c-13.4 0-24.2 10.9-24.2 24.2v48.5zM994.9 152H320.8c-14.7 0-26.7-12-26.7-26.7V81.5c0-14.7 12-26.7 26.7-26.7h674.1c14.7 0 26.7 12 26.7 26.7v43.8c0 14.7-12 26.7-26.7 26.7zM994.9 540H320.8c-14.7 0-26.7-12-26.7-26.7v-43.8c0-14.7 12-26.7 26.7-26.7h674.1c14.7 0 26.7 12 26.7 26.7v43.8c0 14.7-12 26.7-26.7 26.7zM994.9 976H320.8c-14.7 0-26.7-12-26.7-26.7v-43.8c0-14.7 12-26.7 26.7-26.7h674.1c14.7 0 26.7 12 26.7 26.7v43.8c0 14.7-12 26.7-26.7 26.7z" p-id="4588"></path></svg>