<?xml version="1.0" standalone="no"?><!DOCTYPE svg PUBLIC "-//W3C//DTD SVG 1.1//EN" "http://www.w3.org/Graphics/SVG/1.1/DTD/svg11.dtd"><svg t="1604051133188" class="icon" viewBox="0 0 1024 1024" version="1.1" xmlns="http://www.w3.org/2000/svg" p-id="7724" xmlns:xlink="http://www.w3.org/1999/xlink" width="200" height="200"><defs><style type="text/css"></style></defs><path d="M511.999488 65.044412C265.031701 65.044412 64.830029 265.164219 64.830029 512.010233s200.201671 446.946378 447.168436 446.946378c246.987231 0 447.168436-200.100364 447.168436-446.946378S758.986719 65.044412 511.999488 65.044412zM512.018931 914.180825c-221.74636 0-402.159336-181.053566-402.159336-402.515447 0-221.441415 180.412976-401.6221 402.159336-401.6221s402.149103 180.179662 402.149103 401.6221C914.169057 733.12726 733.766314 914.180825 512.018931 914.180825zM551.373241 251.985058c-126.509299 139.40398-91.358731 208.122061-245.423619 265.386276-101.542674 126.245286 122.163317 263.638469 259.881912 191.672414 120.558773-37.586037 253.831103-258.642688 144.338363-383.344828C676.704714 264.25143 644.986315 252.473175 551.373241 251.985058zM564.084751 667.862837c-119.442346 75.317383-304.860313-33.831526-228.731448-124.763538 161.192216-77.265758 116.925013-127.807874 228.731448-249.526053 82.72919 0.426719 101.045347 10.722202 130.651642 64.3721C763.576247 477.773478 647.950833 628.224048 564.084751 667.862837z" p-id="7725"></path></svg>