<?xml version="1.0" standalone="no"?><!DOCTYPE svg PUBLIC "-//W3C//DTD SVG 1.1//EN" "http://www.w3.org/Graphics/SVG/1.1/DTD/svg11.dtd"><svg t="1604049459774" class="icon" viewBox="0 0 1024 1024" version="1.1" xmlns="http://www.w3.org/2000/svg" p-id="5387" xmlns:xlink="http://www.w3.org/1999/xlink" width="200" height="200"><defs><style type="text/css"></style></defs><path d="M292.318 231.591h-59.712v-59.718c0-16.748-13.586-30.33-30.335-30.33-16.756 0-30.335 13.58-30.335 30.33v59.718h-59.72c-16.75 0-30.331 13.588-30.331 30.332 0 16.759 13.581 30.34 30.332 30.34h59.719v59.718c0 16.75 13.58 30.332 30.335 30.332 16.749 0 30.335-13.582 30.335-30.332v-59.717h59.712c16.757 0 30.337-13.582 30.337-30.341-0.001-16.744-13.58-30.332-30.337-30.332zM453.97 107.688h-37.265V70.423c0-10.452-8.476-18.93-18.93-18.93-10.455 0-18.928 8.478-18.928 18.93v37.265h-37.262c-10.455 0-18.931 8.473-18.931 18.925 0 10.457 8.475 18.93 18.931 18.93h37.262v37.265c0 10.453 8.473 18.926 18.928 18.926 10.453 0 18.93-8.473 18.93-18.926v-37.264h37.265c10.453 0 18.926-8.473 18.926-18.93 0-10.453-8.473-18.926-18.926-18.926zM311.31 54.843h-22.336V32.508c0-6.27-5.075-11.346-11.343-11.346-6.266 0-11.347 5.077-11.347 11.346v22.335H243.95c-6.266 0-11.347 5.077-11.347 11.346 0 6.26 5.08 11.342 11.347 11.342h22.334v22.334c0 6.269 5.08 11.347 11.347 11.347 6.267 0 11.343-5.077 11.343-11.347V77.531h22.337c6.258 0 11.344-5.082 11.344-11.342 0-6.27-5.08-11.35-11.344-11.346z m542.087 559.632c-23.6-88.117-74.18-156.209-153.206-202.444-6.832-3.996-13.933-7.5-21.02-11.046-33.314-8.486-77.362-16.056-128.555-16.056-51.221 0-95.294 7.579-128.61 16.071-123.912 57.743-175.284 145.71-184.243 274.208-2.322 33.372-0.391 66.45 8.034 99.14 13.15 51.553 58.51 90.147 112.968 90.053 128.25-0.294 256.598 0 384.853-0.195 41.206-0.1 72.93-18.574 95.949-52.233 11.702-17.118 17.212-36.558 20.31-56.966 7.453-47.2 5.9-94.21-6.48-140.532z m-216.367 119.93h-52.037c-0.677 0-1.16 0.58-1.16 1.16v24.952h-0.289c0.388 2.03 0.678 4.16 0.678 6.289 0 17.894-14.798 32.492-32.983 32.492-18.182 0-32.984-14.498-32.984-32.492 0-2.228 0.294-4.258 0.684-6.29h-0.684v-24.955c0-0.668-0.575-1.156-1.157-1.156h-51.65c-14.509 0-26.408-11.607-26.408-26.018 0-14.415 11.806-26.022 26.408-26.022h51.647c0.677 0 1.161-0.575 1.161-1.157v-23.51c0-0.673-0.575-1.154-1.161-1.154h-51.549v-0.094h-0.098c-14.509 0-26.408-11.614-26.408-26.019 0-14.321 11.806-26.023 26.408-26.023h47.296c0.491 0 0.973-0.284 1.067-0.767 0.388-1.071 0.87-2.034 1.45-3.003 0.29-0.482 0.192-1.063-0.191-1.45l-58.422-57.552c-7.351-7.153-4.933-21.279 5.319-31.338 10.252-10.058 24.572-12.477 31.824-5.22l56.967 56.193a1.228 1.228 0 0 0 1.74 0l52.713-55.324c8.32-8.996 25.247-6.769 35.595 3.481 10.252 10.255 15.378 19.538 5.221 30.855l-61.901 62.389c-0.29 0.284-0.384 0.575-0.384 0.963 0.094 0.58 0.575 1.063 1.161 1.063h51.937v0.093c14.508 0.1 26.21 11.706 26.21 26.028 0 14.312-11.703 25.914-26.21 25.914h-51.847c-0.677 0-1.16 0.585-1.16 1.16V681.4c0 0.678 0.58 1.161 1.16 1.161h52.037v0.093c14.509 0.099 26.208 11.707 26.208 26.018 0 14.127-11.7 25.636-26.208 25.734z m-234.675-367.11c34.768-10.415 86.448-21.587 148.261-21.587 61.654 0 113.227 11.111 147.983 21.508 6.239-9.143 11.385-18.996 15.234-29.659 3.482-9.675 5.415-19.832 8.123-29.793 6.186-23.113 0.193-43.04-17.7-58.318-24.183-20.6-51.744-23.025-80.767-10.934-2.028 0.87-3.382 1.455-5.314-0.482-37.334-35.304-97.306-35.693-134.93-0.772-1.742 1.642-2.995 2.03-5.32 0.964-15.282-7.06-31.238-8.507-47.585-5.129-31.053 6.387-56.68 32.792-52.136 68.869 3.07 24.254 11.032 45.954 24.151 65.333z m0 0" p-id="5388"></path></svg>