<?xml version="1.0" standalone="no"?><!DOCTYPE svg PUBLIC "-//W3C//DTD SVG 1.1//EN" "http://www.w3.org/Graphics/SVG/1.1/DTD/svg11.dtd"><svg t="1604048859549" class="icon" viewBox="0 0 1092 1024" version="1.1" xmlns="http://www.w3.org/2000/svg" p-id="3978" xmlns:xlink="http://www.w3.org/1999/xlink" width="213.28125" height="200"><defs><style type="text/css"></style></defs><path d="M545.621333 478.446933v68.266667h133.358934a34.133333 34.133333 0 0 1 0 68.266667h-133.358934v156.7744a34.133333 34.133333 0 0 1-68.266666 0v-156.7744H344.064a34.133333 34.133333 0 0 1 0-68.266667h133.3248v-68.266667H344.064a34.133333 34.133333 0 0 1 0-68.266666h89.326933L299.076267 275.8656a34.133333 34.133333 0 1 1 48.264533-48.264533l164.181333 164.181333 164.181334-164.181333a34.133333 34.133333 0 0 1 48.2304 48.264533l-134.280534 134.314667h89.326934a34.133333 34.133333 0 0 1 0 68.266666h-133.358934z" p-id="3979"></path><path d="M750.933333 68.266667m34.133334 0l273.066666 0q34.133333 0 34.133334 34.133333l0 0q0 34.133333-34.133334 34.133333l-273.066666 0q-34.133333 0-34.133334-34.133333l0 0q0-34.133333 34.133334-34.133333Z" p-id="3980"></path></svg>