<?xml version="1.0" standalone="no"?><!DOCTYPE svg PUBLIC "-//W3C//DTD SVG 1.1//EN" "http://www.w3.org/Graphics/SVG/1.1/DTD/svg11.dtd"><svg t="1604050260570" class="icon" viewBox="0 0 1024 1024" version="1.1" xmlns="http://www.w3.org/2000/svg" p-id="6613" xmlns:xlink="http://www.w3.org/1999/xlink" width="200" height="200"><defs><style type="text/css"></style></defs><path d="M469.9648 606.1568H384.9216v38.144h102.4v52.5312h-102.4v38.6048h102.4v76.8h59.4432v-76.8h98.4064v-38.6048h-98.1504v-52.48h98.4064v-38.144H563.2l93.2352-126.3104h-63.1808l-38.656 59.5968a537.6 537.6 0 0 0-34.8672 57.1904h-1.2288c-12.544-22.9888-15.36-31.0272-73.4208-116.7872H378.0608z" p-id="6614"></path><path d="M832.6656 409.6c-14.4896-14.7456-30.1056-29.0304-45.2608-42.8544-40.0384-36.608-77.9264-71.2704-81.3056-100.864 3.84-7.424 21.504-25.6 33.3824-38.144 41.728-43.264 89.0368-92.16 48.4864-125.8496-18.1248-14.9504-52.9408-36.2496-114.176-50.176a24.1664 24.1664 0 0 0-11.1104 47.0016c45.568 10.9568 70.5024 26.0608 82.3808 35.328-1.8432 13.1584-34.6624 47.3088-50.7904 64-31.0272 32.1536-47.1552 49.8176-46.08 68.0448 2.7648 47.104 48.2304 88.6272 96.3072 132.6592 14.6432 13.3632 29.7472 27.1872 43.3152 40.96 84.3776 85.7088 113.0496 167.0656 111.0016 248.7808-1.4848 58.5216-5.9904 236.544-390.0416 236.544-250.624 0-379.6992-79.104-383.5904-235.1616-2.304-80.1792 27.7504-162.048 114.432-250.0608 16.1792-16.4352 35.84-32.9216 54.7328-48.896 48.128-40.5504 93.6448-78.848 97.6896-124.1088 1.6896-18.5856-14.7456-36.5568-46.336-69.3248-15.9744-16.5376-48.384-50.176-50.5344-63.2832a194.0992 194.0992 0 0 1 66.56-31.744 24.2688 24.2688 0 0 0-12.3904-46.848c-39.68 10.6496-72.0896 26.0608-96.9728 46.08-40.96 33.1776 6.2976 81.92 47.9744 125.2864 11.9808 12.3904 29.696 30.72 33.6896 38.3488-4.4032 27.392-43.3664 60.2112-81.1008 92.16C233.216 374.272 212.6336 391.5264 194.56 409.6c-95.488 97.28-129.536 189.44-127.1808 281.6 6.1952 245.248 279.1936 281.6 441.3952 281.6 292.4032 0 443.0336-95.2832 447.8464-283.2384 2.304-93.44-30.5664-185.0368-123.9552-279.9616z" p-id="6615"></path></svg>