<?xml version="1.0" standalone="no"?><!DOCTYPE svg PUBLIC "-//W3C//DTD SVG 1.1//EN" "http://www.w3.org/Graphics/SVG/1.1/DTD/svg11.dtd"><svg t="1582774922808" class="icon" viewBox="0 0 1024 1024" version="1.1" xmlns="http://www.w3.org/2000/svg" p-id="2272" xmlns:xlink="http://www.w3.org/1999/xlink" width="200" height="200"><defs><style type="text/css"></style></defs><path d="M553.8 405.8c0 14.4 7.7 27.8 20.2 35 12.5 7.2 27.9 7.2 40.4 0s20.2-20.5 20.2-35c0-14.4-7.7-27.8-20.2-35-12.5-7.2-27.9-7.2-40.4 0-12.5 7.3-20.2 20.6-20.2 35z m0 0" p-id="2273"></path><path d="M597.4 556c0 14.4 7.7 27.8 20.2 35 12.5 7.2 27.9 7.2 40.4 0s20.2-20.5 20.2-35c0-14.4-7.7-27.8-20.2-35-12.5-7.2-27.9-7.2-40.4 0s-20.2 20.6-20.2 35z m0 0" p-id="2274"></path><path d="M514.5 600.9c-50.4 0-91.1-40.8-91.1-91.1s40.8-91.1 91.1-91.1c19.6 0 37.7 6.2 52.5 16.7l54.9-59.8c-29.4-23.6-66.7-37.7-107.4-37.7-95 0-172 77-172 172s77 172 172 172c72.9 0 135.2-45.3 160.1-109.3l-75-30.1c-13.1 34.1-46.3 58.4-85.1 58.4z" p-id="2275"></path><path d="M979.7 508.1c0-31.9-3.2-63.1-9.3-93.1l-0.7 0.1c-2-18-15.2-32.6-32.8-35.6l0.1-0.4c-60.6-16.1-105.2-71.3-105.2-136.9 0-12.6 1.7-24.9 4.7-36.5 1.7-4.4 2.6-9.3 2.6-14.3 0-14.2-7.7-26.1-18.8-33.3l0.8-1.1c-48.1-42.5-105-75.1-167.4-95.1l-0.3 0.9c-16.2-6-34.3-1.7-45.2 11.6l-0.3-0.3c-43.8 44.8-113.8 56.6-171 24.3-11-6.2-20.8-13.7-29.4-22.1-3.1-3.7-6.8-6.8-11.2-9.3-12-6.8-25.7-6.1-37.3-0.5l-0.4-1.2c-65 22.4-123.6 58.9-172.2 105.6l0.2 0.3c-9.2 11.1-11.9 26.5-6.4 40.2l-0.4 0.2c17.7 60.1-6.4 127-62.6 160.9-10.8 6.5-22.1 11.5-33.8 14.8-4.6 0.9-9.3 2.6-13.5 5.1-8.9 5.4-14.7 13.8-17.4 23.1l-0.2-0.1c-0.1 0.3-0.1 0.6-0.1 0.9-0.4 1.4-0.4 2.9-0.7 4.3-5.4 28.3-8.4 57.5-8.4 87.5 0 30.2 3.6 59.6 9.1 88.2 0 0.5-0.3 1-0.3 1.5 0 5.5 1.3 10.6 3.3 15.4 0.3 1.2 0.4 2.4 0.6 3.5l1.2-0.4c5.8 10.9 15.9 19.2 28.4 21.3l-0.1 0.4c60.6 16.1 105.2 71.3 105.2 136.9 0 12.6-1.7 24.9-4.7 36.5-1.7 4.4-2.6 9.3-2.6 14.3 0 13.5 7 24.8 17.1 32.1 46.1 41 100.2 73.3 159.9 93.6l0.6-1.1c0.8 0.5 1.3 1.3 2.1 1.8 17.6 9.9 39.1 5.4 51.2-9.6l0.3 0.3c43.8-44.8 113.8-56.6 171-24.3 11 6.2 20.8 13.7 29.4 22.1 3.1 3.7 6.8 6.8 11.2 9.3 11.9 6.7 25.3 6.1 36.7 0.7 60.8-20.7 115.9-53.5 162.4-95.7 0.1-0.1 0.2-0.1 0.3-0.1 1.3-0.8 2.1-1.9 3.2-2.8h0.1c14.3-10.9 19.9-29.8 13.4-46.4l0.4-0.2c-17.7-60.1 6.4-127 62.6-160.9 10.8-6.5 22.1-11.5 33.8-14.8 4.6-0.9 9.3-2.6 13.5-5.1 10.4-6.3 16.5-16.7 18.4-27.9l0.3 0.1c5.8-28.6 8.6-58.3 8.6-88.7z m-116.3 67.6c-80.8 49-118.7 141.1-103.2 228.9-31.5 26.5-67.1 48-106 63.4-9-7.1-18.6-13.7-28.9-19.5-82.2-46.5-181.1-34.3-250.1 22-38.9-14.6-74.7-35.1-106.5-60.6 1.8-11.3 2.7-22.9 2.7-34.8 0-94.5-59.2-174.6-142.3-206.9-3.1-19.7-5.2-39.6-5.2-60.1 0-17.3 1.8-34.2 4.1-50.9 10.6-4.3 21-9.5 31.2-15.7 81-49.1 118.9-141.6 103.1-229.6 31.3-26.4 66.8-47.7 105.4-63.2 9.1 7.3 18.9 14 29.5 20 82.6 46.7 181.9 34.2 250.9-22.7 38.7 14.6 74.3 35.1 105.9 60.5-1.9 11.6-2.9 23.4-2.9 35.5 0 94.7 59.5 175 142.9 207.1 3 19.3 5 38.9 5 59 0 17.6-1.6 34.8-3.8 51.7-10.9 4.5-21.5 9.7-31.8 15.9z" p-id="2276"></path></svg>