<?xml version="1.0" standalone="no"?><!DOCTYPE svg PUBLIC "-//W3C//DTD SVG 1.1//EN" "http://www.w3.org/Graphics/SVG/1.1/DTD/svg11.dtd"><svg t="1563761185694" class="icon" viewBox="0 0 1024 1024" version="1.1" xmlns="http://www.w3.org/2000/svg" p-id="2491" xmlns:xlink="http://www.w3.org/1999/xlink" width="200" height="200"><defs><style type="text/css"></style></defs><path d="M717.632 807.744a208.896 208.896 0 0 1-412.544 0H201.472c-68.736 0-119.36-68.032-103.04-134.912l2.688-7.104 144.768-284.672c8.32-16.192 12.672-34.112 12.672-52.224v-53.376c0-20.608 3.2-40.32 9.792-58.88C305.088 113.408 391.168 38.4 511.36 38.4c120.192 0 206.272 75.008 243.008 178.176 6.592 18.56 9.792 38.272 9.792 58.88v53.376c0 18.688 4.608 38.336 12.672 54.08l144.768 282.752 2.688 7.168c16.32 66.88-34.304 134.912-103.04 134.912h-103.68z m-67.2 0H372.288a142.976 142.976 0 0 0 278.144 0z m67.776-394.688a187.328 187.328 0 0 1-20.032-84.224v-53.376c0-13.248-1.92-25.6-5.952-36.736-28.16-79.04-91.648-134.4-180.864-134.4-89.216 0-152.704 55.36-180.864 134.4a108.864 108.864 0 0 0-5.952 36.736v53.376c0 28.672-6.912 56.96-19.968 82.24l-142.72 280.64c-4.096 25.088 15.552 50.112 39.68 50.112h619.712c24.064 0 43.648-24.96 39.68-50.048l-142.72-278.72z" p-id="2492"></path></svg>