<?xml version="1.0" standalone="no"?><!DOCTYPE svg PUBLIC "-//W3C//DTD SVG 1.1//EN" "http://www.w3.org/Graphics/SVG/1.1/DTD/svg11.dtd"><svg t="1600313125967" class="icon" viewBox="0 0 1024 1024" version="1.1" xmlns="http://www.w3.org/2000/svg" p-id="4121" xmlns:xlink="http://www.w3.org/1999/xlink" width="200" height="200"><defs><style type="text/css"></style></defs><path d="M898.4 787.2H125.6C78.4 787.2 40 748 40 700.8V174.4c0-47.2 38.4-85.6 85.6-85.6H888c52.8 0 95.2 42.4 95.2 95.2v516.8c0.8 47.2-37.6 86.4-84.8 86.4zM125.6 148c-14.4 0-26.4 12-26.4 26.4v526.4c0 14.4 12 26.4 26.4 26.4h772c14.4 0 26.4-12 26.4-26.4V184c0-20-16-36-36-36H125.6z" p-id="4122"></path><path d="M715.2 467.2H308.8c-16 0-29.6-13.6-29.6-29.6s13.6-29.6 29.6-29.6h406.4c16 0 29.6 13.6 29.6 29.6s-13.6 29.6-29.6 29.6zM772.8 936H251.2c-16 0-29.6-13.6-29.6-29.6s13.6-29.6 29.6-29.6h521.6c16 0 29.6 13.6 29.6 29.6s-13.6 29.6-29.6 29.6z" p-id="4123"></path></svg>