<?xml version="1.0" standalone="no"?><!DOCTYPE svg PUBLIC "-//W3C//DTD SVG 1.1//EN" "http://www.w3.org/Graphics/SVG/1.1/DTD/svg11.dtd"><svg t="1564137140732" class="icon" viewBox="0 0 1024 1024" version="1.1" xmlns="http://www.w3.org/2000/svg" p-id="3378" xmlns:xlink="http://www.w3.org/1999/xlink" width="48" height="48"><defs><style type="text/css"></style></defs><path d="M512 1015.9104C233.710933 1015.9104 8.0896 790.289067 8.0896 512 8.0896 233.710933 233.710933 8.0896 512 8.0896c278.289067 0 503.9104 225.621333 503.9104 503.9104 0 278.289067-225.621333 503.9104-503.9104 503.9104z m0-34.133333c259.447467 0 469.777067-210.3296 469.777067-469.777067S771.413333 42.222933 512 42.222933 42.222933 252.586667 42.222933 512 252.586667 981.777067 512 981.777067z" p-id="3379"></path><path d="M249.856 431.786667a17.066667 17.066667 0 1 1 0-34.133334h171.588267a17.066667 17.066667 0 1 1 0 34.133334H249.890133zM654.9504 798.446933a17.066667 17.066667 0 1 1 0-34.133333h115.131733a17.066667 17.066667 0 1 1 0 34.133333h-115.131733zM511.658667 259.925333a17.066667 17.066667 0 1 1 30.549333-15.223466l36.7616 73.728a17.066667 17.066667 0 1 1-30.549333 15.223466l-36.7616-73.728zM695.842133 233.028267a17.066667 17.066667 0 0 1 30.72 14.848L669.013333 366.933333a17.066667 17.066667 0 1 1-30.72-14.848l57.5488-119.022933z" p-id="3380"></path><path d="M244.087467 658.602667a17.066667 17.066667 0 0 1-30.208-15.906134l106.257066-201.9328a17.066667 17.066667 0 1 1 30.208 15.906134l-106.257066 201.9328z" p-id="3381"></path><path d="M445.781333 580.369067a17.066667 17.066667 0 0 1-25.838933 22.357333l-90.658133-104.6528a17.066667 17.066667 0 0 1 25.8048-22.357333l90.658133 104.6528zM253.098667 303.889067a17.066667 17.066667 0 0 1-6.4512-33.518934l171.588266-32.8704a17.066667 17.066667 0 1 1 6.417067 33.518934l-171.554133 32.8704z" p-id="3382"></path><path d="M359.253333 781.380267a17.066667 17.066667 0 1 1-34.133333 0V274.432a17.066667 17.066667 0 0 1 34.133333 0v506.9824zM670.72 781.994667a17.066667 17.066667 0 1 1-34.133333-1.194667l7.509333-217.2928a17.066667 17.066667 0 0 1 34.133333 1.194667l-7.509333 217.258666zM517.802667 786.090667a17.066667 17.066667 0 1 1-32.836267-9.4208l62.327467-217.258667a17.066667 17.066667 0 1 1 32.802133 9.386667l-62.327467 217.2928zM786.6368 781.994667a17.066667 17.066667 0 1 1-34.133333-1.194667l3.754666-108.6464a17.066667 17.066667 0 1 1 34.133334 1.194667l-3.754667 108.612266z" p-id="3383"></path><path d="M535.517867 395.093333a17.066667 17.066667 0 0 0-17.066667 17.066667v93.3888a17.066667 17.066667 0 0 0 17.066667 17.066667h161.245866a17.066667 17.066667 0 0 0 17.066667-17.066667v-93.3888a17.066667 17.066667 0 0 0-17.066667-17.066667H535.552z m0-34.133333h161.245866a51.2 51.2 0 0 1 51.2 51.2v93.3888a51.2 51.2 0 0 1-51.2 51.2H535.552a51.2 51.2 0 0 1-51.2-51.2v-93.3888a51.2 51.2 0 0 1 51.2-51.2z" p-id="3384"></path></svg>