<?xml version="1.0" standalone="no"?><!DOCTYPE svg PUBLIC "-//W3C//DTD SVG 1.1//EN" "http://www.w3.org/Graphics/SVG/1.1/DTD/svg11.dtd"><svg t="1566368956982" class="icon" viewBox="0 0 1025 1024" version="1.1" xmlns="http://www.w3.org/2000/svg" p-id="2728" xmlns:xlink="http://www.w3.org/1999/xlink" width="200.1953125" height="200"><defs><style type="text/css"></style></defs><path d="M702.367667 132.846933c-178.807467-53.9136-273.288533 132.642133-273.288533 132.642133-21.8112-42.325333-83.541333-137.9328-188.330667-147.985067-127.249067-12.288-281.088 108.782933-231.0656 293.495467 88.746667 267.332267 418.440533 499.592533 418.440533 499.592533 398.3872-302.114133 420.420267-497.066667 420.420267-497.066667S900.460467 194.133333 702.367667 132.846933M814.546867 458.3936c-45.226667 117.8112-212.804267 305.4592-386.594133 421.034667 0 0-289.518933-201.659733-384.9216-451.1744C-27.437133 243.950933 134.645001 133.393067 238.495667 141.329067c94.446933 7.2192 170.939733 124.142933 189.457067 171.537067 0 0 95.8976-218.3168 271.701333-155.016533C874.570334 220.842667 839.310601 406.1184 814.546867 458.3936z" p-id="2729"></path><path d="M944.526601 503.466667c-101.154133-27.784533-143.069867 63.2832-143.069867 63.2832-3.84-7.406933-9.949867-17.237333-18.466133-27.2384 5.495467-9.6256-151.466667 183.415467-159.0272 192.648533 68.0448 101.768533 176.9984 178.517333 176.9984 178.517333C1009.533534 752.469333 1021.036467 650.410667 1021.036467 650.410667S1050.851934 532.736 944.526601 503.466667M1001.187934 658.8416c0 0-32.529067 109.4656-200.2944 229.410133 0 0-104.157867-77.1072-164.3008-165.700267l135.867733-164.3008c13.9264 14.916267 23.825067 30.583467 28.416 39.4752 0 0 50.414933-108.936533 145.937067-75.895467C1035.986867 552.686933 1001.187934 658.8416 1001.187934 658.8416" p-id="2730"></path></svg>