<?xml version="1.0" standalone="no"?><!DOCTYPE svg PUBLIC "-//W3C//DTD SVG 1.1//EN" "http://www.w3.org/Graphics/SVG/1.1/DTD/svg11.dtd"><svg t="1566367794163" class="icon" viewBox="0 0 1024 1024" version="1.1" xmlns="http://www.w3.org/2000/svg" p-id="1967" xmlns:xlink="http://www.w3.org/1999/xlink" width="200" height="200"><defs><style type="text/css"></style></defs><path d="M470.4 204.8l44.8 44.8 44.8-44.8c99.2-99.2 262.4-99.2 361.6 0 48 48 73.6 112 73.6 179.2 0 19.2-12.8 32-32 32s-32-12.8-32-32c0-51.2-19.2-99.2-57.6-134.4-73.6-73.6-195.2-73.6-272 0l-67.2 67.2c-12.8 12.8-32 12.8-44.8 0l-67.2-67.2c-73.6-73.6-195.2-73.6-272 0-73.6 73.6-73.6 195.2 0 272l361.6 361.6c12.8 12.8 12.8 32 0 44.8s-32 12.8-44.8 0l-361.6-361.6c-99.2-99.2-99.2-262.4 0-361.6 102.4-102.4 262.4-102.4 364.8 0z m176 710.4l-220.8-220.8c-57.6-57.6-57.6-147.2 0-204.8 57.6-57.6 147.2-57.6 204.8 0l57.6 57.6 57.6-57.6c57.6-57.6 147.2-57.6 204.8 0 57.6 57.6 57.6 147.2 0 204.8l-220.8 220.8c-9.6 9.6-25.6 16-38.4 16-19.2 0-32-6.4-44.8-16z m256-265.6c32-32 32-83.2 0-112-32-32-83.2-32-112 0l-80 80c-12.8 12.8-32 12.8-44.8 0l-80-80c-32-32-83.2-32-112 0-32 32-32 83.2 0 112l214.4 214.4 214.4-214.4z" p-id="1968"></path></svg>