<?xml version="1.0" standalone="no"?><!DOCTYPE svg PUBLIC "-//W3C//DTD SVG 1.1//EN" "http://www.w3.org/Graphics/SVG/1.1/DTD/svg11.dtd"><svg t="1603165946582" class="icon" viewBox="0 0 1024 1024" version="1.1" xmlns="http://www.w3.org/2000/svg" p-id="4140" xmlns:xlink="http://www.w3.org/1999/xlink" width="200" height="200"><defs><style type="text/css"></style></defs><path d="M863.0272 409.6a24.6272 24.6272 0 0 0 5.3248-7.8592 24.5504 24.5504 0 0 0 1.1776-3.712c0-0.3584 0.2304-0.6656 0.3072-1.024a24.5248 24.5248 0 0 0 0.5632-4.992 25.0624 25.0624 0 0 0-0.4864-4.8128c0-0.3584-0.2048-0.6912-0.3072-1.024a23.9872 23.9872 0 0 0-1.1776-3.712 24.7296 24.7296 0 0 0-5.3248-7.8848l-190.6432-188.1088a25.6 25.6 0 0 0-35.712 0 24.7808 24.7808 0 0 0 0 35.2768l147.456 145.152H230.0672a24.96 24.96 0 1 0 0 49.8944h618.9312z m0 0L212.1728 614.4a24.6784 24.6784 0 0 0-5.3248 7.8848 25.6 25.6 0 0 0-1.1776 3.712c0 0.3584-0.2304 0.6656-0.3072 1.024a24.8064 24.8064 0 0 0-0.5632 4.7104v0.128a25.2672 25.2672 0 0 0 0.4864 4.8128c0 0.3584 0.2048 0.6912 0.3072 1.0496a24.1152 24.1152 0 0 0 1.1776 3.712 24.6272 24.6272 0 0 0 5.3248 7.8848l190.5664 187.7504a25.6 25.6 0 0 0 35.84 0 24.8064 24.8064 0 0 0 0-35.2768l-147.4304-145.152h554.0608a24.96 24.96 0 1 0 0-49.92H226.2016z m0 0" p-id="4141"></path></svg>