<?xml version="1.0" standalone="no"?><!DOCTYPE svg PUBLIC "-//W3C//DTD SVG 1.1//EN" "http://www.w3.org/Graphics/SVG/1.1/DTD/svg11.dtd"><svg t="1579323166828" class="icon" viewBox="0 0 1024 1024" version="1.1" xmlns="http://www.w3.org/2000/svg" p-id="3141" xmlns:xlink="http://www.w3.org/1999/xlink" width="200" height="200"><defs><style type="text/css"></style></defs><path d="M510.537143 1020.708571a510.244571 510.244571 0 1 1 0-1020.489142 510.244571 510.244571 0 0 1 0 1020.489142zM508.342857 921.6a413.257143 413.257143 0 1 0 0-826.514286 413.257143 413.257143 0 0 0 0 826.514286z" p-id="3142"></path><path d="M435.638857 643.218286l308.882286-339.382857a32.987429 32.987429 0 0 1 49.737143 0.073142 41.398857 41.398857 0 0 1 0 54.710858l-323.510857 355.474285a64.073143 64.073143 0 0 1-21.430858 14.409143c-13.019429 6.802286-34.523429 1.170286-45.348571-10.678857L229.668571 526.336a41.325714 41.325714 0 0 1-9.142857-37.302857 37.083429 37.083429 0 0 1 24.868572-27.355429 33.060571 33.060571 0 0 1 34.084571 10.020572l156.086857 171.52z" p-id="3143"></path></svg>