<?xml version="1.0" standalone="no"?><!DOCTYPE svg PUBLIC "-//W3C//DTD SVG 1.1//EN" "http://www.w3.org/Graphics/SVG/1.1/DTD/svg11.dtd"><svg t="1562580120149" class="icon" viewBox="0 0 1024 1024" version="1.1" xmlns="http://www.w3.org/2000/svg" p-id="6676" xmlns:xlink="http://www.w3.org/1999/xlink" width="200" height="200"><defs><style type="text/css"></style></defs><path d="M927.696 235.056L544 13.52a64.048 64.048 0 0 0-64 0L96.304 235.056a64 64 0 0 0-32 55.424v443.04c0 22.864 12.192 44 32 55.424L480 1010.48a64.048 64.048 0 0 0 64 0L927.696 788.96a64 64 0 0 0 32-55.424v-443.04a64 64 0 0 0-32-55.44z m-32 300.912L566.672 332.208l192.176-120.752 136.848 79.008v245.504z m-391.968 121.936l-229.344-142.032 231.952-145.744L735.68 512.16l-231.952 145.744zM512 68.944l184.144 106.32-473.168 297.328a31.584 31.584 0 0 0-7.52 6.784l-87.152-53.968v-134.944L512 68.944zM128.304 500.688l315.088 195.12-182.16 114.464-132.928-76.752V500.688zM512 955.056l-188.064-108.576 472.336-296.8 99.424 61.568v122.288L512 955.056z" p-id="6677"></path></svg>