<?xml version="1.0" standalone="no"?><!DOCTYPE svg PUBLIC "-//W3C//DTD SVG 1.1//EN" "http://www.w3.org/Graphics/SVG/1.1/DTD/svg11.dtd"><svg t="1562580132279" class="icon" viewBox="0 0 1024 1024" version="1.1" xmlns="http://www.w3.org/2000/svg" p-id="7384" xmlns:xlink="http://www.w3.org/1999/xlink" width="200" height="200"><defs><style type="text/css"></style></defs><path d="M509.882268 9.925047c-131.263579 0-254.680447 51.140751-347.498412 143.977136C69.577147 246.708891 18.436396 370.107339 18.436396 501.367849c0 131.259486 51.140751 254.658957 143.94746 347.494319 92.817965 92.818989 216.234833 143.95053 347.498412 143.95053 131.262556 0 254.661004-51.131541 347.501482-143.95053 92.833315-92.835362 143.94746-216.235856 143.94746-347.494319 0-131.260509-51.114145-254.658957-143.94746-347.465666C764.543272 61.066821 641.144824 9.925047 509.882268 9.925047M835.662029 827.118957c-87.013773 87.043449-202.722074 134.978181-325.779761 134.978181-123.057687 0-238.748592-47.935756-325.765435-134.978181-87.017866-87.002516-134.964878-202.696492-134.964878-325.751109 0-123.054617 47.947012-238.733243 134.964878-325.748039C271.132652 88.573291 386.823558 40.640606 509.882268 40.640606c123.057687 0 238.765989 47.932686 325.779761 134.980227 87.020936 87.013773 134.953621 202.692399 134.953621 325.748039C970.615651 624.422466 922.682965 740.116441 835.662029 827.118957M636.857171 305.618583c6.901177 4.919033 8.515954 12.657274 3.570315 19.556405L533.988292 470.653313l54.768371 0c8.492418 0 15.357779 6.868431 15.357779 15.357779s-6.865361 15.357779-15.357779 15.357779l-63.320141 0-0.041956 30.715559 63.362096 0c8.492418 0 15.357779 6.868431 15.357779 15.357779s-6.865361 15.357779-15.357779 15.357779l-63.451124 0-0.299829 124.779911c-0.01842 8.460696-6.895037 13.43908-15.357779 13.43908l-0.047072 0c-8.475022 0-15.328104-5.03876-15.309684-13.527085l0.322341-124.691907-63.576991 0c-8.497535 0-15.357779-6.868431-15.357779-15.357779s6.860245-15.357779 15.357779-15.357779l63.655785 0 0.029676-30.715559-63.685461 0c-8.497535 0-15.357779-6.868431-15.357779-15.357779s6.860245-15.357779 15.357779-15.357779l54.749952 0-106.444311-145.478326c-4.915963-6.89913-3.301186-12.762675 3.587712-17.696034 6.930853-4.903683 16.499789-3.313465 21.427008 3.584642l105.535615 147.936307 105.517195-147.936307C620.374778 304.180837 629.925295 300.730249 636.857171 305.618583" p-id="7385"></path></svg>