<?xml version="1.0" standalone="no"?><!DOCTYPE svg PUBLIC "-//W3C//DTD SVG 1.1//EN" "http://www.w3.org/Graphics/SVG/1.1/DTD/svg11.dtd"><svg t="1562206392451" class="icon" viewBox="0 0 1024 1024" version="1.1" xmlns="http://www.w3.org/2000/svg" p-id="1981" xmlns:xlink="http://www.w3.org/1999/xlink" width="200" height="200"><defs><style type="text/css"></style></defs><path d="M428.021164 675.442681h-3.611993c-1.805996 0-5.417989 1.805996-7.223986 3.611993-121.001764 63.209877-204.077601 180.599647-223.943562 316.049382v7.223986c0 5.417989 1.805996 9.029982 5.417989 12.641976 3.611993 3.611993 7.223986 5.417989 12.641975 5.417989 5.417989 0 9.029982-1.805996 12.641976-5.417989 3.611993-3.611993 5.417989-7.223986 5.417989-12.641976v-1.805996c18.059965-126.419753 95.717813-234.779541 209.495591-290.765432 3.611993-3.611993 7.223986-9.029982 7.223986-14.447972 0-5.417989-1.805996-9.029982-5.41799-12.641975-3.611993-5.417989-9.029982-7.223986-12.641975-7.223986zM729.622575 657.382716l-27.089947-9.029982c-10.835979-3.611993-18.059965-5.417989-28.895944-7.223986-16.253968-3.611993-32.507937-3.611993-50.567901-5.41799-10.835979 0-21.671958-1.805996-32.507936-1.805996l-21.671958-3.611993c-106.553792-18.059965-184.21164-110.165785-184.21164-216.719577-1.805996-119.195767 93.911817-218.525573 214.91358-220.331569 119.195767 1.805996 214.91358 101.135802 214.91358 220.331569 0 45.149912-14.447972 90.299824-39.731922 128.22575l-1.805997 3.611993c-5.417989 9.029982-1.805996 18.059965 5.41799 23.477954 3.611993 1.805996 7.223986 3.611993 10.835979 3.611993 3.611993 0 7.223986-1.805996 10.835978-3.611993 0 0 0-1.805996 1.805997-1.805997l1.805996-3.611993c30.70194-43.343915 46.955908-97.52381 46.955909-149.897707-1.805996-140.867725-113.777778-254.645503-252.839507-258.257495-66.821869 1.805996-131.837743 28.895944-178.79365 77.657848-46.955908 46.955908-72.239859 113.777778-72.239859 180.599647 0 43.343915 10.835979 84.881834 30.70194 122.80776 23.477954 43.343915 57.791887 81.269841 101.135802 106.553792 23.477954 12.641975 50.567901 19.865961 79.463845 23.477954 18.059965 1.805996 37.925926 3.611993 57.791887 5.41799l18.059965 1.805996c25.283951 1.805996 50.567901 7.223986 74.045855 16.253969 30.70194 10.835979 59.597884 25.283951 86.687831 41.537918 61.40388 39.731922 110.165785 95.717813 140.867725 162.539683 7.223986 16.253968 12.641975 34.313933 18.059965 52.373898v1.805996c0 3.611993 5.417989 23.477954 7.223985 36.11993 3.611993 12.641975 3.611993 18.059965 3.611993 21.671957 0 5.417989 3.611993 10.835979 9.029983 14.447972 3.611993 1.805996 5.417989 1.805996 9.029982 1.805997s7.223986-1.805996 9.029982-1.805997c5.417989-3.611993 9.029982-10.835979 9.029983-16.253968v-3.611993-5.41799-3.611993c-21.671958-153.5097-124.613757-281.73545-270.899471-334.109347z" fill="" p-id="1982"></path><path d="M263.675485 417.185185s1.805996 0 0 0c1.805996 1.805996 3.611993 1.805996 3.611993 1.805997h1.805996c1.805996 0 1.805996-1.805996 1.805997-3.611993 0-10.835979 0-21.671958 1.805996-32.507937 0-1.805996 0-3.611993-1.805996-3.611993-52.373898-34.313933-84.881834-93.911817-84.881834-155.315696-1.805996-99.329806 79.463845-182.405644 178.79365-184.211641 55.985891 0 110.165785 28.895944 142.673722 74.045856 0 1.805996 1.805996 1.805996 3.611993 1.805996h1.805996l27.089947-5.417989c1.805996 0 1.805996-1.805996 3.611993-1.805997s0-3.611993 0-3.611993C503.873016 43.343915 437.051146 7.223986 364.811287 5.417989 307.0194 5.417989 252.839506 28.895944 213.107584 70.433862s-61.40388 95.717813-61.40388 153.509701c0 36.119929 9.029982 72.239859 25.28395 104.747795 21.671958 36.119929 50.567901 66.821869 86.687831 88.493827zM238.391534 458.723104c0-5.417989-1.805996-9.029982-5.417989-12.641975-3.611993-3.611993-7.223986-5.417989-12.641975-5.41799H216.719577c-1.805996 0-3.611993 1.805996-7.223986 1.805997C106.553792 496.64903 36.119929 595.978836 19.865961 709.756614V715.174603c0 5.417989 1.805996 9.029982 5.41799 12.641975 3.611993 3.611993 7.223986 5.417989 12.641975 5.41799 5.417989 0 9.029982-1.805996 12.641975-5.41799 3.611993-3.611993 5.417989-7.223986 5.41799-14.447971 14.447972-104.747795 79.463845-196.853616 176.987654-243.809524 3.611993 0 5.417989-5.417989 5.417989-10.835979z" fill="" p-id="1983"></path></svg>