<?xml version="1.0" standalone="no"?><!DOCTYPE svg PUBLIC "-//W3C//DTD SVG 1.1//EN" "http://www.w3.org/Graphics/SVG/1.1/DTD/svg11.dtd"><svg t="1602573705939" class="icon" viewBox="0 0 1024 1024" version="1.1" xmlns="http://www.w3.org/2000/svg" p-id="3727" xmlns:xlink="http://www.w3.org/1999/xlink" width="200" height="200"><defs><style type="text/css"></style></defs><path d="M512 0a512 512 0 1 0 512 512A513.496615 513.496615 0 0 0 512 0M102.4 512A410.781538 410.781538 0 0 1 512 102.4a403.771077 403.771077 0 0 1 250.919385 87.04L189.44 762.88A403.928615 403.928615 0 0 1 102.4 512M512 921.6a403.574154 403.574154 0 0 1-250.88-87.04L834.56 261.12A403.456 403.456 0 0 1 921.6 512 410.781538 410.781538 0 0 1 512 921.6" p-id="3728"></path></svg>