<?xml version="1.0" standalone="no"?><!DOCTYPE svg PUBLIC "-//W3C//DTD SVG 1.1//EN" "http://www.w3.org/Graphics/SVG/1.1/DTD/svg11.dtd"><svg t="1605765308436" class="icon" viewBox="0 0 1024 1024" version="1.1" xmlns="http://www.w3.org/2000/svg" p-id="2855" xmlns:xlink="http://www.w3.org/1999/xlink" width="200" height="200"><defs><style type="text/css"></style></defs><path d="M512 122.88c-2.4576 0-4.9152 0-7.424 0.0512-205.568 3.84-374.272 169.6256-381.44 375.0912-2.5088 71.4752 14.336 138.752 45.568 197.1712 8.0384 15.0016 11.52 32.0512 10.5984 49.0496L173.568 850.432l106.1888-5.7344c1.792-0.1024 3.5328-0.1536 5.3248-0.1536 15.2064 0 30.2592 3.5328 43.7248 10.752C383.3856 884.5312 445.7472 901.12 512 901.12c4.6592 0 9.2672-0.1024 13.9264-0.256 205.4656-7.2192 371.2512-175.872 375.0912-381.44C905.1136 301.1584 729.344 122.88 512 122.88z m240.5888 625.7664c-61.0816 62.1568-142.2336 98.048-228.4544 101.0688-4.0448 0.1536-8.1408 0.2048-12.1344 0.2048-55.4496 0-110.4384-13.7728-159.0784-39.7824-20.5312-11.008-43.9808-16.7936-67.84-16.7936-2.7136 0-5.4272 0.0512-8.0896 0.2048l-49.2032 2.6624 2.6624-49.2032c1.4336-26.7264-4.3008-52.992-16.5888-75.9808-27.9552-52.2752-41.6256-111.4624-39.5264-171.2128 3.0208-86.2208 38.912-167.3216 101.0688-228.4544 62.1568-61.0816 143.872-95.6416 230.1952-97.2288 2.0992-0.0512 4.2496-0.0512 6.4-0.0512 91.4432 0 177.1008 35.9424 241.152 101.2224 64.0512 65.28 98.4064 151.6032 96.6656 243.1488-1.5872 86.3232-36.096 168.0384-97.2288 230.1952z"  p-id="2856"></path><path d="M396.5952 512m-30.72 0a30.72 30.72 0 1 0 61.44 0 30.72 30.72 0 1 0-61.44 0Z"  p-id="2857"></path><path d="M512 512m-30.72 0a30.72 30.72 0 1 0 61.44 0 30.72 30.72 0 1 0-61.44 0Z"  p-id="2858"></path><path d="M627.4048 512m-30.72 0a30.72 30.72 0 1 0 61.44 0 30.72 30.72 0 1 0-61.44 0Z"  p-id="2859"></path></svg>