<?xml version="1.0" standalone="no"?><!DOCTYPE svg PUBLIC "-//W3C//DTD SVG 1.1//EN" "http://www.w3.org/Graphics/SVG/1.1/DTD/svg11.dtd"><svg t="1605075974710" class="icon" viewBox="0 0 1024 1024" version="1.1" xmlns="http://www.w3.org/2000/svg" p-id="2886" xmlns:xlink="http://www.w3.org/1999/xlink" width="200" height="200"><defs><style type="text/css"></style></defs><path d="M961.77 876.4H62.23V147.6h899.54v728.8z m-819.54-80h739.54V227.6H142.23v568.8z" p-id="2887"></path><path d="M961.77 357.25H62.23V147.6h899.54v209.65z m-819.54-80h739.54V227.6H142.23v49.65z" p-id="2888"></path><path d="M161.606 314.067l61.5-153.129 74.24 29.816-61.5 153.13zM349.966 314.057l61.5-153.13 74.24 29.816-61.5 153.13zM538.322 314.056l61.5-153.13 74.24 29.816-61.5 153.13zM726.682 314.045l61.5-153.13 74.24 29.816-61.5 153.13z" p-id="2889"></path><path d="M397.41 727.77V416.93L666.6 572.35 397.41 727.77z m80-172.27v33.7l29.19-16.85-29.19-16.85z" p-id="2890"></path></svg>