<?xml version="1.0" standalone="no"?><!DOCTYPE svg PUBLIC "-//W3C//DTD SVG 1.1//EN" "http://www.w3.org/Graphics/SVG/1.1/DTD/svg11.dtd"><svg t="1562148375841" class="icon" viewBox="0 0 1387 1024" version="1.1" xmlns="http://www.w3.org/2000/svg" p-id="19733" xmlns:xlink="http://www.w3.org/1999/xlink" width="270.8984375" height="200"><defs><style type="text/css"></style></defs><path d="M864.7623721 644.66024995V228.3502558c0-38.17032879-30.94229913-69.11262789-69.11262791-69.1126279H228.3502558c-38.17032879 0-69.11262789 30.94229913-69.1126279 69.11262791v567.29948838c0 38.17032879 30.94229913 69.11262789 69.11262791 69.11262791h567.29948838c38.17032879 0 69.11262789-30.94229913 69.11262791-69.11262791V644.66024995z m69.1126279-332.06170085l150.90022401-72.54810105c51.60121628-24.80855383 113.54196918-3.08703076 138.35052222 48.51274522a103.66894226 103.66894226 0 0 1 10.23730855 44.9203288v356.11289428c0 57.25549238-46.41344907 103.66894226-103.66894228 103.66894226a103.66894226 103.66894226 0 0 1-44.91888849-10.23730856L933.875 710.4828288V795.6497442c0 76.34065676-61.88459902 138.22525581-138.22525581 138.2252558H228.3502558c-76.34065676 0-138.22525581-61.88459902-138.2252558-138.22525581V228.3502558C90.125 152.00959903 152.00959903 90.125 228.3502558 90.125h567.2994884c76.34065676 0 138.22525581 61.88459902 138.2252558 138.22525581v84.24829329z m0 109.27858365v179.32567208a51.83447113 51.83447113 0 0 0 29.37430673 46.71581727l126.70648462 60.91558265c25.80204804 12.40427693 56.77314423 1.54495487 69.17598165-24.25565285A51.83447113 51.83447113 0 0 0 1164.25042688 662.11838748V360.96011062c0-28.62702685-23.20744428-51.83447113-51.83447113-51.83447031a51.83447113 51.83447113 0 0 0-22.4601644 5.12009336l-126.70648462 60.91558264A51.83447113 51.83447113 0 0 0 933.875 421.87713279z m-352.1389183 90.82407211l-139.62766636-80.55364717v161.1072952l139.62766636-80.55364803z m-105.09007023 140.41814228c-33.06175378 19.07364524-75.32700486 7.73485483-94.4006509-25.32689814a69.11262789 69.11262789 0 0 1-9.24957312-34.53759611V432.14611737c0-38.17032879 30.94229913-69.11262789 69.11262789-69.11262791a69.11262789 69.11262789 0 0 1 34.53759613 9.24813364l139.62766638 80.553648c33.06175378 19.07364524 44.40054419 61.33889712 25.3268981 94.40065008a69.11262789 69.11262789 0 0 1-25.3268981 25.32689899l-139.62766638 80.55508748z" p-id="19734"></path></svg>