<?xml version="1.0" standalone="no"?><!DOCTYPE svg PUBLIC "-//W3C//DTD SVG 1.1//EN" "http://www.w3.org/Graphics/SVG/1.1/DTD/svg11.dtd"><svg t="1562148169490" class="icon" viewBox="0 0 1024 1024" version="1.1" xmlns="http://www.w3.org/2000/svg" p-id="16828" xmlns:xlink="http://www.w3.org/1999/xlink" width="200" height="200"><defs><style type="text/css"></style></defs><path d="M905.75 230.75h-24.947c-14.765 0-28.94 5.822-39.487 16.2l-76.191 75.15V287c0-46.603-37.8-84.375-84.375-84.375H146.375C99.856 202.625 62 240.453 62 287v450c0 46.575 37.772 84.375 84.375 84.375H680.75c46.575 0 84.375-37.8 84.375-84.375v-34.34l76.19 75.15c10.548 10.377 24.723 16.2 39.488 16.2h24.947c31.05 0 56.25-25.173 56.25-56.25V287c0-31.078-25.2-56.25-56.25-56.25zM146.375 765.125c-15.525 0-28.125-12.628-28.125-28.125V287c0-15.553 12.572-28.125 28.125-28.125H680.75c15.497 0 28.125 12.6 28.125 28.125v450c0 15.497-12.628 28.125-28.125 28.125H146.375z m759.375-27.366h-28.125l-112.5-112.5v-0.759L737 596.375v-168.75L877.625 287h28.125v450.76z" p-id="16829"></path></svg>