<?xml version="1.0" standalone="no"?><!DOCTYPE svg PUBLIC "-//W3C//DTD SVG 1.1//EN" "http://www.w3.org/Graphics/SVG/1.1/DTD/svg11.dtd"><svg t="1582165645174" class="icon" viewBox="0 0 1024 1024" version="1.1" xmlns="http://www.w3.org/2000/svg" p-id="1922" xmlns:xlink="http://www.w3.org/1999/xlink" width="200" height="200"><defs><style type="text/css"></style></defs><path d="M776.397 960.41H247.603c-101.462 0-183.993-82.57-183.993-184.077V247.58c0-101.462 82.529-183.993 183.993-183.993h528.793c101.462 0 183.994 82.53 183.994 183.993v528.754c0.002 101.504-82.53 184.077-183.993 184.077zM247.603 106.293c-77.901 0-141.29 63.388-141.29 141.289v528.752c0 77.941 63.389 141.37 141.29 141.37h528.793c77.9 0 141.288-63.429 141.288-141.37V247.58c0-77.9-63.388-141.288-141.288-141.288H247.603z" p-id="1923"></path><path d="M824.09 675.736L573.518 234.352c-12.204-21.433-35.031-34.795-59.725-34.795-24.697 0-47.523 13.363-59.816 34.795L203.52 675.736a68.659 68.659 0 0 0 0.357 68.412c12.292 21.2 34.963 34.16 59.456 34.16h501.033c24.476 0 47.054-12.96 59.326-34.16 12.359-21.18 12.514-47.145 0.403-68.412h-0.006z m-283.35-4.98c-7.568 6.79-16.48 10.153-26.657 10.153-10.308 0-19.281-3.364-26.942-10.09-7.661-6.632-11.6-16.008-11.6-27.965 0-10.489 3.672-19.488 11.11-26.838 7.254-7.35 16.257-11.021 26.967-11.021 10.644 0 19.71 3.672 27.279 11.021 7.506 7.35 11.268 16.282 11.268 26.838 0 11.869-3.762 21.173-11.424 27.899v0.003z m9.708-281.302l-10.953 125.083c-1.156 14.877-3.676 26.278-7.552 34.25-3.94 7.974-10.351 11.893-19.35 11.893-9.152 0-15.476-3.83-19.061-11.491-3.496-7.753-6.126-19.466-7.594-35.119l-8.194-121.464c-1.493-23.61-2.273-40.689-2.273-50.998 0-13.993 3.675-24.921 11.092-32.836 7.305-7.883 17.058-11.813 29.02-11.813 14.428 0 24.226 5.087 29.147 15.098 4.922 10.1 7.438 24.564 7.438 43.56 0 11.01-0.624 22.345-1.716 33.833l-0.004 0.004z" p-id="1924"></path></svg>