<?xml version="1.0" standalone="no"?><!DOCTYPE svg PUBLIC "-//W3C//DTD SVG 1.1//EN" "http://www.w3.org/Graphics/SVG/1.1/DTD/svg11.dtd"><svg t="1598319528286" class="icon" viewBox="0 0 1024 1024" version="1.1" xmlns="http://www.w3.org/2000/svg" p-id="2277" xmlns:xlink="http://www.w3.org/1999/xlink" width="200" height="200"><defs><style type="text/css"></style></defs><path d="M588.288 370.176c30.208 0 55.808-22.528 55.808-55.808s-25.6-55.808-55.808-55.808-55.296 22.528-55.296 55.808 25.088 55.808 55.296 55.808zM336.896 258.56c-30.208 0-55.296 22.528-55.296 55.808s25.088 55.808 55.296 55.808 55.808-22.528 55.808-55.808-25.6-55.808-55.808-55.808z m239.104 308.224c-18.432 0-37.376 20.992-37.376 41.472 0 20.992 18.944 41.472 37.376 41.472 28.16 0 46.592-20.48 46.592-41.472 0-20.48-18.432-41.472-46.592-41.472z m167.424 0c-18.432 0-36.864 20.992-36.864 41.472 0 20.992 18.432 41.472 36.864 41.472 28.16 0 46.592-20.48 46.592-41.472 0-20.48-18.944-41.472-46.592-41.472zM957.44 660.48c0-75.264-37.888-143.36-96.256-191.488 0.512-3.584 0.512-6.656 0.512-9.728 0-288.256-205.312-394.752-400.384-394.752-218.112 0-396.8 155.648-396.8 353.792 0 114.176 59.392 207.872 158.72 280.576l1.024 93.184 98.304-40.96c34.304 7.168 50.176 10.752 72.704 12.288 44.544 92.672 147.456 157.696 269.824 157.696 34.304 0 69.12-9.216 103.424-17.92l94.72 54.272-26.112-90.112c68.608-53.76 120.32-125.952 120.32-206.848z m-580.096-16.384c0 14.336 1.536 28.16 3.584 41.472-8.192-1.536-17.408-3.584-29.696-5.632-3.584-0.512-6.144-1.536-9.728-2.048l-15.872-3.584-14.848 6.144-19.968 8.704v-9.728l-0.512-26.112-20.992-15.36c-41.472-30.72-73.728-64.512-94.72-100.864-10.752-17.92-18.432-37.376-24.064-56.832-5.12-19.968-8.192-40.96-8.192-62.464 0-74.24 32.768-143.36 91.136-195.584 29.184-25.6 62.976-46.592 101.376-60.416 39.936-14.848 81.92-22.528 125.952-22.528 41.984 0 82.944 5.632 119.808 17.408 39.424 12.288 73.728 30.72 102.4 54.272 30.72 25.088 54.784 57.344 71.168 95.232 16.384 36.352 25.088 78.336 27.648 125.44-39.936-19.968-84.48-31.232-131.072-31.232-153.088 0-273.408 109.568-273.408 243.712z m416.768 170.496l1.024 53.248-46.592-28.672c-29.696 7.68-58.368 15.36-83.968 15.36-31.232 0-61.44-5.12-89.6-15.872-27.136-10.24-50.688-24.576-71.168-43.008-40.448-35.84-62.464-83.968-62.464-134.144S462.848 563.2 503.296 527.36c19.968-18.432 44.032-32.768 71.168-43.008 28.16-10.752 58.368-15.872 89.6-15.872 29.184 0 58.368 5.12 85.504 15.872 27.136 10.24 51.2 24.576 71.68 43.008 20.48 18.432 36.352 38.912 48.128 61.44 11.776 23.04 17.408 47.616 17.408 72.192 0 26.624-8.192 52.736-24.576 79.36-15.872 26.112-38.912 50.688-68.096 74.24z" p-id="2278"></path></svg>