<?xml version="1.0" standalone="no"?><!DOCTYPE svg PUBLIC "-//W3C//DTD SVG 1.1//EN" "http://www.w3.org/Graphics/SVG/1.1/DTD/svg11.dtd"><svg t="1597657121596" class="icon" viewBox="0 0 1024 1024" version="1.1" xmlns="http://www.w3.org/2000/svg" p-id="2687" xmlns:xlink="http://www.w3.org/1999/xlink" width="200" height="200"><defs><style type="text/css"></style></defs><path d="M512 153.6c-186.168889 0-384 62.264889-384 177.521778v364.743111C128 804.408889 303.843556 896 512 896c208.128 0 384-91.619556 384-200.135111V331.121778C896 215.893333 698.140444 153.6 512 153.6z m0 64.568889c198.257778 0 320 65.792 320 112.952889 0 47.217778-121.742222 112.981333-320 112.981333S192 378.311111 192 331.121778c0-47.160889 121.742222-112.924444 320-112.924445z m0 613.319111c-192.369778 0-320-81.635556-320-135.623111v-80.384c68.835556 52.309333 186.481778 86.840889 320 86.840889 133.461333 0 251.164444-34.531556 320-86.840889v80.384c0 53.959111-127.630222 135.623111-320 135.623111z m0-193.706667c-180.224 0-320-69.404444-320-129.080889V432.071111c73.329778 50.119111 198.940444 76.600889 320 76.600889 121.031111 0 246.670222-26.481778 320-76.600889v76.600889c0 59.704889-139.804444 129.109333-320 129.109333z" p-id="2688"></path></svg>